<svg xmlns="http://www.w3.org/2000/svg" xmlns:xlink="http://www.w3.org/1999/xlink" width="365" height="222" viewBox="0 0 365 222"><defs><style>.a{fill:#fff;}.a,.c{stroke:#00145d;stroke-width:2px;}.b{fill:none;}.c{fill:#fde7a9;}.d{fill:#00145d;font-size:30px;font-family:Usual-Bold, Usual;font-weight:700;}.e{clip-path:url(#a);}.f{clip-path:url(#b);}.g{fill:#56c12b;}.h{fill:#dda53a;}.i{fill:#c4192d;}.j{fill:#4c9e38;}.k{fill:#3f7c44;}.l{fill:#fcc10a;}.m{fill:#ff3a21;}.n{fill:#ff9e23;}.o{fill:#0a96d8;}.p{fill:#a31942;}.q{fill:#26bce2;}.r{fill:#ff6823;}.s{fill:#e8213a;}.t{fill:#d16;}.u{fill:#19476b;}.v{fill:#bf8c2d;}.w{fill:#00689e;}.x{stroke:none;}</style><clipPath id="a"><rect class="a" width="365" height="218" rx="20" transform="translate(345 8460.36)"/></clipPath><clipPath id="b"><path class="b" d="M0-512.584H236.57V-749.1H0Z" transform="translate(0 749.103)"/></clipPath></defs><g transform="translate(-345 -9328.053)"><g class="c" transform="translate(345 9328.053)"><rect class="x" width="365" height="222" rx="20"/><rect class="b" x="1" y="1" width="363" height="220" rx="19"/></g><text class="d" transform="translate(527.5 9448.693)"><tspan x="-101.13" y="0">Agenda 2030</tspan></text><g class="e" transform="translate(0 869.693)"><g transform="translate(0 -4.12)"><g transform="translate(409.715 9046.584)"><g class="f" transform="translate(0 -749.103)"><g transform="translate(14.541 32.757)"><path class="g" d="M-100.2-112.175a67.275,67.275,0,0,1,10.6-13.639l-34.764-38.121a119.024,119.024,0,0,0-22.071,28.729Z" transform="translate(146.429 163.935)"/></g><g transform="translate(145.998 9.383)"><path class="h" d="M0-104.465A66.624,66.624,0,0,1,14.579-95.33l34.86-38.061a118.614,118.614,0,0,0-30.9-19.276Z" transform="translate(0 152.667)"/></g><g transform="translate(179.628 69.049)"><path class="i" d="M-100.143,0l-46.208,23.034a66.065,66.065,0,0,1,4.628,16.326l51.4-4.853A117.048,117.048,0,0,0-100.143,0" transform="translate(146.351)"/></g><g transform="translate(166.065 33.711)"><path class="j" d="M-22.214-112.03l46.2-23.03A118.722,118.722,0,0,0,2.4-163.723l-34.86,38.052a67,67,0,0,1,10.25,13.641" transform="translate(32.464 163.723)"/></g><g transform="translate(0 110.527)"><path class="k" d="M-111.809-16.714c0-1.038.033-2.077.079-3.111l-51.41-4.6c-.162,2.549-.261,5.119-.261,7.712a118.548,118.548,0,0,0,3.5,28.6l49.656-14.244a66.672,66.672,0,0,1-1.564-14.353" transform="translate(163.401 24.426)"/></g><g transform="translate(157.308 160.497)"><path class="l" d="M-27.176,0A67.523,67.523,0,0,1-39.715,11.794l27.143,43.95A119.246,119.246,0,0,0,14.012,31.057Z" transform="translate(39.715)"/></g><g transform="translate(183.446 110.979)"><path class="m" d="M-3.314-15.735A66.054,66.054,0,0,1-4.843-1.549L44.8,12.715a117.868,117.868,0,0,0,3.476-28.45q0-3.651-.236-7.261l-51.4,4.857c.027.8.047,1.6.047,2.4" transform="translate(4.843 22.996)"/></g><g transform="translate(26.466 161.481)"><path class="n" d="M-89.048,0l-41.089,31.231a119.285,119.285,0,0,0,26.831,24.308l27.143-43.905A67.425,67.425,0,0,1-89.048,0" transform="translate(130.137)"/></g><g transform="translate(0.969 68.137)"><path class="o" d="M-111.517-85.766a65.731,65.731,0,0,1,4.925-16.563l-46.189-23.012a117.376,117.376,0,0,0-10.193,34.96Z" transform="translate(162.974 125.341)"/></g><g transform="translate(135.212 176.324)"><path class="p" d="M-93.028-95.124l-27.1-43.893a66.3,66.3,0,0,1-15.82,6.429l9.564,50.773a117.48,117.48,0,0,0,33.361-13.31" transform="translate(135.953 139.017)"/></g><g transform="translate(174.253 139.615)"><path class="q" d="M-15.64,0a66.723,66.723,0,0,1-7.217,14.861L18.364,45.953a117.827,117.827,0,0,0,15.606-31.7Z" transform="translate(22.857)"/></g><g transform="translate(100.962 184.234)"><path class="r" d="M-58.384,0A67.473,67.473,0,0,1-68,.7,67.345,67.345,0,0,1-75.766.242l-9.558,50.773A118.991,118.991,0,0,0-68,52.284a118.527,118.527,0,0,0,19.177-1.557Z" transform="translate(85.324)"/></g><g transform="translate(122.549 0.043)"><path class="s" d="M0-111.91a66.132,66.132,0,0,1,16.5,3.187l18.543-48.193A117.506,117.506,0,0,0,0-163.548Z" transform="translate(0 163.548)"/></g><g transform="translate(59.643 177.015)"><path class="t" d="M-94.337-13.418a66.356,66.356,0,0,1-16.372-6.191l-27.157,43.923A117.667,117.667,0,0,0-103.887,37.3Z" transform="translate(137.866 19.609)"/></g><g transform="translate(79.57 0)"><path class="u" d="M-40.461-118.392a66.093,66.093,0,0,1,16.852-3v-51.631a117.819,117.819,0,0,0-35.522,6.472Z" transform="translate(59.13 173.021)"/></g><g transform="translate(5.548 139.775)"><path class="v" d="M-124.582-34.181a66.311,66.311,0,0,1-7.867-15.772l-49.618,14.242A117.771,117.771,0,0,0-165.679-2.953Z" transform="translate(182.067 49.953)"/></g><g transform="translate(42.173 9.141)"><path class="w" d="M-75.394-123.071a66.825,66.825,0,0,1,14.3-8.654L-79.75-179.859a118.325,118.325,0,0,0-30.432,18.637Z" transform="translate(110.182 179.859)"/></g></g></g><g transform="translate(409.715 9361.344)"><g class="f" transform="translate(0 -749.103)"><g transform="translate(14.541 32.757)"><path class="g" d="M-100.2-112.175a67.275,67.275,0,0,1,10.6-13.639l-34.764-38.121a119.024,119.024,0,0,0-22.071,28.729Z" transform="translate(146.429 163.935)"/></g><g transform="translate(145.998 9.383)"><path class="h" d="M0-104.465A66.624,66.624,0,0,1,14.579-95.33l34.86-38.061a118.614,118.614,0,0,0-30.9-19.276Z" transform="translate(0 152.667)"/></g><g transform="translate(179.628 69.049)"><path class="i" d="M-100.143,0l-46.208,23.034a66.065,66.065,0,0,1,4.628,16.326l51.4-4.853A117.048,117.048,0,0,0-100.143,0" transform="translate(146.351)"/></g><g transform="translate(166.065 33.711)"><path class="j" d="M-22.214-112.03l46.2-23.03A118.722,118.722,0,0,0,2.4-163.723l-34.86,38.052a67,67,0,0,1,10.25,13.641" transform="translate(32.464 163.723)"/></g><g transform="translate(0 110.527)"><path class="k" d="M-111.809-16.714c0-1.038.033-2.077.079-3.111l-51.41-4.6c-.162,2.549-.261,5.119-.261,7.712a118.548,118.548,0,0,0,3.5,28.6l49.656-14.244a66.672,66.672,0,0,1-1.564-14.353" transform="translate(163.401 24.426)"/></g><g transform="translate(157.308 160.497)"><path class="l" d="M-27.176,0A67.523,67.523,0,0,1-39.715,11.794l27.143,43.95A119.246,119.246,0,0,0,14.012,31.057Z" transform="translate(39.715)"/></g><g transform="translate(183.446 110.979)"><path class="m" d="M-3.314-15.735A66.054,66.054,0,0,1-4.843-1.549L44.8,12.715a117.868,117.868,0,0,0,3.476-28.45q0-3.651-.236-7.261l-51.4,4.857c.027.8.047,1.6.047,2.4" transform="translate(4.843 22.996)"/></g><g transform="translate(26.466 161.481)"><path class="n" d="M-89.048,0l-41.089,31.231a119.285,119.285,0,0,0,26.831,24.308l27.143-43.905A67.425,67.425,0,0,1-89.048,0" transform="translate(130.137)"/></g><g transform="translate(0.969 68.137)"><path class="o" d="M-111.517-85.766a65.731,65.731,0,0,1,4.925-16.563l-46.189-23.012a117.376,117.376,0,0,0-10.193,34.96Z" transform="translate(162.974 125.341)"/></g><g transform="translate(135.212 176.324)"><path class="p" d="M-93.028-95.124l-27.1-43.893a66.3,66.3,0,0,1-15.82,6.429l9.564,50.773a117.48,117.48,0,0,0,33.361-13.31" transform="translate(135.953 139.017)"/></g><g transform="translate(174.253 139.615)"><path class="q" d="M-15.64,0a66.723,66.723,0,0,1-7.217,14.861L18.364,45.953a117.827,117.827,0,0,0,15.606-31.7Z" transform="translate(22.857)"/></g><g transform="translate(100.962 184.234)"><path class="r" d="M-58.384,0A67.473,67.473,0,0,1-68,.7,67.345,67.345,0,0,1-75.766.242l-9.558,50.773A118.991,118.991,0,0,0-68,52.284a118.527,118.527,0,0,0,19.177-1.557Z" transform="translate(85.324)"/></g><g transform="translate(122.549 0.043)"><path class="s" d="M0-111.91a66.132,66.132,0,0,1,16.5,3.187l18.543-48.193A117.506,117.506,0,0,0,0-163.548Z" transform="translate(0 163.548)"/></g><g transform="translate(59.643 177.015)"><path class="t" d="M-94.337-13.418a66.356,66.356,0,0,1-16.372-6.191l-27.157,43.923A117.667,117.667,0,0,0-103.887,37.3Z" transform="translate(137.866 19.609)"/></g><g transform="translate(79.57 0)"><path class="u" d="M-40.461-118.392a66.093,66.093,0,0,1,16.852-3v-51.631a117.819,117.819,0,0,0-35.522,6.472Z" transform="translate(59.13 173.021)"/></g><g transform="translate(5.548 139.775)"><path class="v" d="M-124.582-34.181a66.311,66.311,0,0,1-7.867-15.772l-49.618,14.242A117.771,117.771,0,0,0-165.679-2.953Z" transform="translate(182.067 49.953)"/></g><g transform="translate(42.173 9.141)"><path class="w" d="M-75.394-123.071a66.825,66.825,0,0,1,14.3-8.654L-79.75-179.859a118.325,118.325,0,0,0-30.432,18.637Z" transform="translate(110.182 179.859)"/></g></g></g></g></g></g></svg>