<svg xmlns="http://www.w3.org/2000/svg" width="66" height="66.55" viewBox="0 0 66 66.55"><defs><style>.a{fill:#0f2b92;}</style></defs><path class="a" d="M64.7,54.8a3.227,3.227,0,0,0-1.617.429A3.3,3.3,0,0,0,60.3,53.7a3.366,3.366,0,0,0-1.1.209V52.6h2.2a2.207,2.207,0,0,0,2.2-2.2V8.6a2.207,2.207,0,0,0-2.2-2.2H51.5V4.2A2.207,2.207,0,0,0,49.3,2h-33a2.207,2.207,0,0,0-2.2,2.2V6.4H4.2A2.207,2.207,0,0,0,2,8.6V50.4a2.207,2.207,0,0,0,2.2,2.2H23.857l-.825,6.6H18.5a2.207,2.207,0,0,0-2.2,2.2v4.4A2.207,2.207,0,0,0,18.5,68H46.759l.319.55,1.9-1.1L44.24,59.244a1.111,1.111,0,0,1,.407-1.507,1.089,1.089,0,0,1,1.5.407l2.2,3.806a1.124,1.124,0,0,0,1.243.517A1.1,1.1,0,0,0,50.4,61.4v-11a1.1,1.1,0,1,1,2.2,0v8.8a1.1,1.1,0,0,0,2.2,0V55.9a1.1,1.1,0,1,1,2.2,0v3.3a1.1,1.1,0,0,0,2.2,0V57a1.1,1.1,0,0,1,2.2,0v2.2a1.1,1.1,0,0,0,2.2,0V58.1a1.1,1.1,0,0,1,2.2,0V68H68V58.1A3.31,3.31,0,0,0,64.7,54.8Zm-11-26.4a3.311,3.311,0,0,1,3.1,2.2H35.2a3.311,3.311,0,0,1,3.1-2.2ZM4.2,50.4V8.6h9.9v2.2H8.6A2.207,2.207,0,0,0,6.4,13V41.6a2.207,2.207,0,0,0,2.2,2.2H32.8v6.6ZM14.1,13V41.6H8.6V13ZM32.8,52.6v6.6H25.243l.825-6.6ZM18.5,65.8V61.4H32.8v1.1a5.416,5.416,0,0,0,1.133,3.3ZM32.8,31.7v9.9H16.3V4.2h33v22h-11A5.5,5.5,0,0,0,32.8,31.7ZM45.494,65.8H38.3A3.31,3.31,0,0,1,35,62.5V59.2h6.941a3.375,3.375,0,0,0,.4,1.144ZM44.9,48.2a5.477,5.477,0,0,1-3.025-.913L45.351,43.8H50.29a5.519,5.519,0,0,1-5.39,4.4Zm-4.587-2.475A5.492,5.492,0,0,1,43.8,37.31v4.939ZM46,41.6V37.31a5.511,5.511,0,0,1,4.29,4.29ZM57,52.809a3.366,3.366,0,0,0-1.1-.209,3.3,3.3,0,0,0-1.1.187V50.4a3.31,3.31,0,0,0-3.3-3.3,3.135,3.135,0,0,0-.319.033A7.63,7.63,0,0,0,52.6,42.7a7.718,7.718,0,1,0-4.29,6.9,3.215,3.215,0,0,0-.11.8V57h-.176a3.3,3.3,0,0,0-4.477-1.166A3.2,3.2,0,0,0,42.381,57H35V32.8H57Zm0-25.476A5.416,5.416,0,0,0,53.7,26.2H51.5V13H57ZM57,10.8H51.5V8.6h9.9V50.4H59.2V13A2.207,2.207,0,0,0,57,10.8Z" transform="translate(-2 -2)"/></svg>