<svg xmlns="http://www.w3.org/2000/svg" width="115.29" height="90.677" viewBox="0 0 115.29 90.677"><defs><style>.a{fill:#00145d;}</style></defs><g transform="translate(-4 -11.04)"><g transform="translate(4 11.04)"><path class="a" d="M117.543,11.04H5.747A1.752,1.752,0,0,0,4,12.787V77.175a1.752,1.752,0,0,0,1.747,1.747H22.586c.856,3.651,4.227,7.145,8.559,7.145H49.906L47.2,98.224H40.351a1.747,1.747,0,1,0,0,3.494h42.57a1.747,1.747,0,1,0,0-3.494H76.074L73.366,86.066H92.127c4.332,0,7.7-3.494,8.559-7.145h16.857a1.752,1.752,0,0,0,1.747-1.747V12.787A1.752,1.752,0,0,0,117.543,11.04ZM115.8,43.234H106.87v-2.2a8.361,8.361,0,0,0-8.35-8.35h-14.1a8.361,8.361,0,0,0-8.35,8.35v2.2H63.392v-28.7h52.4Zm-36.229,0v-2.2a4.868,4.868,0,0,1,4.856-4.856h14.1a4.868,4.868,0,0,1,4.856,4.856v2.2ZM59.9,14.534v28.7H49.243v-2.2a8.361,8.361,0,0,0-8.35-8.35H26.8a8.361,8.361,0,0,0-8.35,8.35v2.2H7.494v-28.7ZM21.94,43.234v-2.2A4.868,4.868,0,0,1,26.8,36.177h14.1a4.868,4.868,0,0,1,4.856,4.856v2.2ZM7.494,46.728H59.9v28.7H49.243v-2.2a8.361,8.361,0,0,0-8.35-8.35H26.8a8.361,8.361,0,0,0-8.35,8.35v2.2H7.494Zm14.446,28.7v-2.2A4.868,4.868,0,0,1,26.8,68.371h14.1a4.868,4.868,0,0,1,4.856,4.856v2.2ZM72.51,98.241H50.78l2.708-12.158H69.8ZM92.145,82.572h-61a5.641,5.641,0,0,1-4.909-3.651H97.053A5.613,5.613,0,0,1,92.145,82.572Zm11.232-7.145H79.568v-2.2a4.868,4.868,0,0,1,4.856-4.856h14.1a4.868,4.868,0,0,1,4.856,4.856v2.2Zm3.494,0v-2.2a8.361,8.361,0,0,0-8.35-8.35h-14.1a8.361,8.361,0,0,0-8.35,8.35v2.2H63.392v-28.7h52.4v28.7Z" transform="translate(-4 -11.04)"/><path class="a" d="M23.958,27.728a6.7,6.7,0,1,0-6.708-6.69A6.7,6.7,0,0,0,23.958,27.728Zm0-9.9a3.205,3.205,0,1,1-3.214,3.214A3.213,3.213,0,0,1,23.958,17.824Z" transform="translate(5.895 -8.583)"/><path class="a" d="M23.958,46.158a6.7,6.7,0,1,0-6.708-6.69A6.7,6.7,0,0,0,23.958,46.158Zm0-9.9a3.205,3.205,0,1,1-3.214,3.214A3.213,3.213,0,0,1,23.958,36.254Z" transform="translate(5.895 5.181)"/><path class="a" d="M56.948,27.728a6.7,6.7,0,1,0-6.708-6.69A6.7,6.7,0,0,0,56.948,27.728Zm0-9.9a3.205,3.205,0,1,1-3.214,3.214A3.213,3.213,0,0,1,56.948,17.824Z" transform="translate(30.533 -8.583)"/><path class="a" d="M56.948,32.76a6.7,6.7,0,1,0,6.69,6.708A6.71,6.71,0,0,0,56.948,32.76Zm0,9.9a3.205,3.205,0,1,1,3.2-3.2A3.2,3.2,0,0,1,56.948,42.664Z" transform="translate(30.533 5.181)"/></g></g></svg>