<svg xmlns="http://www.w3.org/2000/svg" width="97.621" height="97.621" viewBox="0 0 97.621 97.621"><defs><style>.a{fill:#00145d;}</style></defs><g transform="translate(72.746 -48)"><g transform="translate(-72.746 48)"><rect class="a" width="3" height="3" transform="translate(6.746 7)"/><rect class="a" width="4" height="3" transform="translate(12.746 7)"/><rect class="a" width="3" height="3" transform="translate(19.746 7)"/><path class="a" d="M2,2V99.621H99.621V2Zm8.135,94.367H5.254V18.27h4.881ZM5.254,15.016V5.254H28.032v9.762Zm43.929,81.35H19.9V47.348c17.22-2.257,26.52.314,29.286,1.3Zm32.54,0H52.437V48.646c2.755-1,11.962-3.579,29.286-1.3Zm6.508,0H84.977V45.929a1.627,1.627,0,0,0-1.4-1.611c-19.893-2.841-30.1.4-32.771,1.464-2.676-1.067-12.879-4.31-32.771-1.464a1.627,1.627,0,0,0-1.4,1.611V96.367H13.389V18.27H54.064v6.2l-3.139,7.842a1.627,1.627,0,0,0,2.115,2.115l7.844-3.137H75.215a1.627,1.627,0,0,0,1.627-1.627V18.27H88.231ZM55.366,29.985l1.845-4.609a1.647,1.647,0,0,0,.107-.6V18.27h16.27v9.762H60.572a1.647,1.647,0,0,0-.605.116Zm41,66.382H91.485V18.27h4.881Zm0-81.35H31.286V5.254h65.08Z" transform="translate(-2 -2)"/><path class="a" d="M15,66.778H28.016V57.016h9.762V44H15Zm3.254-19.524h16.27v6.508H24.762v9.762H18.254Z" transform="translate(6.151 24.334)"/><rect class="a" width="23" height="3" transform="translate(20.746 62)"/><rect class="a" width="23" height="4" transform="translate(20.746 55)"/><rect class="a" width="23" height="3" transform="translate(20.746 49)"/><rect class="a" width="13" height="3" transform="translate(53.746 62)"/><rect class="a" width="7" height="3" transform="translate(69.746 62)"/><rect class="a" width="23" height="4" transform="translate(53.746 55)"/><rect class="a" width="23" height="4" transform="translate(53.746 68)"/><rect class="a" width="8" height="3" transform="translate(53.746 49)"/><rect class="a" width="12" height="3" transform="translate(64.746 49)"/><rect class="a" width="13" height="3" transform="translate(63.746 88)"/><rect class="a" width="6" height="3" transform="translate(53.746 88)"/><rect class="a" width="23" height="4" transform="translate(53.746 81)"/><rect class="a" width="8" height="3" transform="translate(68.746 75)"/><rect class="a" width="11" height="3" transform="translate(53.746 75)"/><path class="a" d="M39.778,24.45V16.627A1.627,1.627,0,0,0,38.151,15H18.627A1.627,1.627,0,0,0,17,16.627V29.643a1.627,1.627,0,0,0,1.627,1.627H32.958L40.8,34.409a1.627,1.627,0,0,0,2.115-2.115Zm-5.9,3.682a1.646,1.646,0,0,0-.605-.116H20.254V18.254h16.27v6.508a1.647,1.647,0,0,0,.116.605l1.845,4.609Z" transform="translate(7.405 6.151)"/><rect class="a" width="3" height="3" transform="translate(30.746 28)"/><rect class="a" width="3" height="3" transform="translate(37.746 28)"/><rect class="a" width="4" height="3" transform="translate(64.746 20)"/><rect class="a" width="3" height="3" transform="translate(58.746 20)"/></g></g></svg>