<svg xmlns="http://www.w3.org/2000/svg" width="1610.51" height="11088.346" viewBox="0 0 1610.51 11088.346"><defs><style>.a{fill:none;stroke:#fde7a9;stroke-linecap:round;stroke-miterlimit:10;stroke-width:4px;stroke-dasharray:16 20;mix-blend-mode:multiply;isolation:isolate;}</style></defs><path class="a" d="M-2986.4-1970.449c-55.072-127.079-90.361-34.859-160.522-139.2s-46.277-159.151,0-224.96,134.285-81.983,201.035-90.855c157.684-16.741,309.848,64.106,350.143,231.705,81.606,355.725-343,634.322-271.488,989.238,21.873,104.478,121.442,350.7,169.125,444.329,129.486,246.873-177.3,631.368-24.427,871.654,107.943,186.669,46.808,372.484,0,576.348-50.715,220.885-138.038,419.786-223.51,627.447s-148.345,446.174-78.186,660.6c143.141,435.438,739.484,543.351,765.738,1045.933,3.028,132.019-38.672,251.074-117.848,350.751s-179.768,175.484-275.061,256.536c-136.884,116.428-268.239,250.85-338.571,424.245s-67.083,393.619,47.164,536.313c123.091,153.741,331.954,178.752,489.178,289.125,177.627,124.7,249.873,322.28,291.722,573.561,60.059,386.2-22.209,713.75-195.463,875.19-88.9,82.834-366.411,176.283-446.848,526.088-58.286,363.529-155.479,627.709-371.851,697.288-228.038,67.539-414.777,102.252-523.989,399.338-81.64,214.792-46.689,362.523,1.975,456.648,162.841,294.1,475.88,278.038,709.4,204.563" transform="translate(3750.892 2429.647)"/></svg>