<svg xmlns="http://www.w3.org/2000/svg" xmlns:xlink="http://www.w3.org/1999/xlink" width="198.371" height="156.722" viewBox="0 0 198.371 156.722"><defs><style>.a{fill:#00155b;}.b{fill:none;}.c{fill:#00145d;}.d{isolation:isolate;}.e{clip-path:url(#a);}.f{fill:#ffac2d;}.g{clip-path:url(#b);}.h,.i{fill:#ff611e;}.i{font-size:26px;font-family:SourceCodePro-Bold, Source Code Pro;font-weight:700;letter-spacing:0.02em;}</style><clipPath id="a"><path class="a" d="M0-8.8H186.986V-139.322H0Z" transform="translate(0 139.322)"/></clipPath><clipPath id="b"><path class="b" d="M0-8.8H186.986V-139.322H0Z" transform="translate(0 139.322)"/></clipPath></defs><g transform="translate(-108.83 -122.633)"><g transform="translate(108.83 122.633)"><g transform="translate(0)"><rect class="c" width="58.292" height="22.808" rx="10" transform="translate(28.374 37.786)"/><rect class="c" width="117.013" height="40.98" rx="10"/><g class="d" transform="translate(11.385 26.203)"><g class="e"><g transform="translate(69.731 32.625)"><path class="a" d="M-.631-1.268A9.351,9.351,0,0,0,6.025-3.984a9.351,9.351,0,0,0,2.761-6.638,9.4,9.4,0,0,0-2.754-6.663A9.4,9.4,0,0,0-.631-20.039a9.351,9.351,0,0,0-6.638,2.761,9.351,9.351,0,0,0-2.716,6.656,9.3,9.3,0,0,0,2.724,6.63A9.3,9.3,0,0,0-.631-1.268" transform="translate(9.986 20.039)"/></g><g transform="translate(97.154 87.973)"><path class="a" d="M-.584,0A9.433,9.433,0,0,0-9.248,5.775H8.017A9.512,9.512,0,0,0-.584,0" transform="translate(9.248)"/></g><g transform="translate(146.249 88.035)"><path class="a" d="M-.637-1.268A9.351,9.351,0,0,0,6.02-3.984a9.351,9.351,0,0,0,2.761-6.638A9.417,9.417,0,0,0-.637-20.039a9.417,9.417,0,0,0-9.417,9.417A9.351,9.351,0,0,0-7.293-3.984,9.351,9.351,0,0,0-.637-1.268" transform="translate(10.054 20.039)"/></g><g transform="translate(163.557 37.036)"><path class="a" d="M-.332,0a4.925,4.925,0,0,0-3.5,1.454A4.925,4.925,0,0,0-5.26,4.961,4.9,4.9,0,0,0-3.826,8.454,4.9,4.9,0,0,0-.332,9.888,4.944,4.944,0,0,0,4.612,4.944,4.944,4.944,0,0,0-.332,0" transform="translate(5.26 0)"/></g><g transform="translate(-0.002 0.002)"><path class="a" d="M-8.537-1.6a8.014,8.014,0,0,0-.526-2.862,14.288,14.288,0,0,0-1.221-15.075,14.288,14.288,0,0,0-14.075-5.533A14.289,14.289,0,0,0-35.52-14.858c-.186-.012-.372-.028-.562-.028H-46.565A8.014,8.014,0,0,0-53.4-11.064q-1.277-.118-2.584-.116A27.647,27.647,0,0,0-71.74-6.268a7.985,7.985,0,0,0-1.249-.954l-9.04-5.587a7.976,7.976,0,0,0-4.208-1.2,8.013,8.013,0,0,0-6.827,3.8l-9.063,14.655-9.066-14.655a8.01,8.01,0,0,0-6.827-3.8,7.977,7.977,0,0,0-4.208,1.2l-9.039,5.586a8.019,8.019,0,0,0-3.588,4.978,8.017,8.017,0,0,0,.985,6.058l24.76,40.04L-116.146,47a8.017,8.017,0,0,0-4.072,10.542l17.829,40.617a8.017,8.017,0,0,0,7.34,4.8h0a8.017,8.017,0,0,0,7.342-4.8L-81.988,85.1l5.714,13.049a8.019,8.019,0,0,0,7.341,4.8h0a8.017,8.017,0,0,0,7.341-4.795l5.607-12.772a27.9,27.9,0,0,0,26.67,19.827h1.569a8.017,8.017,0,0,0,8.017-8.017V86.943h5.162a7.978,7.978,0,0,0,2.29,4.91L-4.994,99.2a8.019,8.019,0,0,0,5.676,2.372H.7a8.018,8.018,0,0,0,5.67-2.348l2.026-2.027A27.895,27.895,0,1,0,20.6,44.228q-.7,0-1.4.034V40.694c0-.043-.006-.085-.007-.127A7.985,7.985,0,0,0,26.733,33.9a18.365,18.365,0,0,0,6.44,1.253,7.985,7.985,0,0,0,5.206,1.921H43.9a8.017,8.017,0,0,0,8.017-8.017V4.255A8.017,8.017,0,0,0,43.9-3.762H38.378a7.988,7.988,0,0,0-5.246,1.953A18.323,18.323,0,0,0,23.915.835a7.98,7.98,0,0,0-5.083-1.82H13.308A7.979,7.979,0,0,0,9.337.067l-3.648-4.4A8.017,8.017,0,0,0-3.2-6.76,8.017,8.017,0,0,0-8.5.782ZM-.483.782,13.308,17.417V7.032h4.367a18.437,18.437,0,0,0,1.156,20.963v4.569L5.039,15.928V26.316H-.483ZM-16.555,35H-27.037V-1.6h10.481Zm-5.21-52.294a6.278,6.278,0,0,1,6.278,6.278,6.278,6.278,0,0,1-6.278,6.278,6.257,6.257,0,0,1-4.446-1.833,6.256,6.256,0,0,1-1.832-4.446,6.217,6.217,0,0,1,1.821-4.457,6.217,6.217,0,0,1,4.457-1.82M-46.565-.715V-6.869h10.484V40.215H-46.565v-6.09a18.783,18.783,0,0,1-9.417,2.449,19.8,19.8,0,0,1-14.037-5.8,19.8,19.8,0,0,1-5.8-14.038,20.011,20.011,0,0,1,.71-5.286l4.722-7.637a7.97,7.97,0,0,0,.714-1.483,19.725,19.725,0,0,1,13.689-5.5,18.782,18.782,0,0,1,9.417,2.45M-118.01-5.99l15.884,25.676L-86.245-5.99-77.7-.71a27.892,27.892,0,0,0-4.768,8.826L-102.127,39.9-127.05-.4ZM-68.93,94.934-81.987,65.115l-13.06,29.819-17.829-40.617,9.417-4.206,8.413,19.21L-81.988,39.5l13.057,29.82,8.413-19.21,9.417,4.206-.44,1A27.723,27.723,0,0,0-56.712,67.1Zm30.389-16.008a9.476,9.476,0,0,0,9.229,7.847h1.569V97.194h-1.569a19.8,19.8,0,0,1-14.039-5.8,19.8,19.8,0,0,1-5.8-14.039V72.082a20.115,20.115,0,0,1,.184-2.684l4.4-10.018a19.893,19.893,0,0,1,22.023-5.952A19.893,19.893,0,0,1-9.411,72.082V77.7l-1.227,1.228ZM20.6,52.243A19.869,19.869,0,1,1,7.354,86.9L.7,93.551l-7.127-7.187A8.031,8.031,0,0,0-1.794,81.42L.7,78.926V40.694H11.183v14A18.785,18.785,0,0,1,20.6,52.245M43.9,29.058H38.378V25.85a9.887,9.887,0,0,1-4.961,1.29,10.412,10.412,0,0,1-6.569-2.318V8.537A10.381,10.381,0,0,1,33.417,6.2a9.9,9.9,0,0,1,4.961,1.29V4.255H43.9Z" transform="translate(135.069 25.305)"/></g></g><g transform="translate(8.019 19.317)"><path class="f" d="M-1.679-1.732,14.2-27.408l9.042,5.587-24.924,40.3L-26.6-21.821l9.039-5.587Z" transform="translate(26.6 27.408)"/></g><g class="g"><g transform="translate(59.247 18.438)"><path class="f" d="M-2.681,0V47.083H-13.164V40.994a18.782,18.782,0,0,1-9.417,2.448,19.8,19.8,0,0,1-14.038-5.8,19.8,19.8,0,0,1-5.8-14.038A19.853,19.853,0,0,1-36.626,9.541,19.854,19.854,0,0,1-22.581,3.7a18.782,18.782,0,0,1,9.417,2.448V0ZM-31.935,23.6a9.3,9.3,0,0,0,2.723,6.631,9.3,9.3,0,0,0,6.631,2.722,9.35,9.35,0,0,0,6.656-2.716A9.35,9.35,0,0,0-13.164,23.6a9.386,9.386,0,0,0-9.386-9.386A9.386,9.386,0,0,0-31.935,23.6" transform="translate(42.419)"/></g><g transform="translate(107.025 8.018)"><path class="f" d="M-.423-.846A6.256,6.256,0,0,1-4.869-2.679,6.256,6.256,0,0,1-6.7-7.124,6.217,6.217,0,0,1-4.88-11.58,6.217,6.217,0,0,1-.423-13.4a6.255,6.255,0,0,1,4.445,1.832A6.255,6.255,0,0,1,5.854-7.124,6.3,6.3,0,0,1-.423-.846M4.787,38.892H-5.7V2.293H4.787Z" transform="translate(6.701 13.401)"/></g></g><g transform="translate(22.193 64.808)"><path class="f" d="M-1.2-2.011l13.057-29.82L24.913-2.011l8.413-19.21,9.417,4.206L24.913,23.6,11.854-6.217-1.2,23.6-19.032-17.015l9.417-4.206Z" transform="translate(19.032 31.831)"/></g><g class="g"><g transform="translate(85.917 77.552)"><path class="f" d="M-1.338-2.329H.231V8.092H-1.338a19.8,19.8,0,0,1-14.039-5.8,19.8,19.8,0,0,1-5.8-14.039v-5.273a19.8,19.8,0,0,1,5.8-14.039,19.8,19.8,0,0,1,14.039-5.8,19.854,19.854,0,0,1,14.062,5.793,19.854,19.854,0,0,1,5.836,14.045v6.843H-10.567A9.475,9.475,0,0,0-1.338-2.329m.063-24.107a9.43,9.43,0,0,0-8.664,5.777H7.325a9.507,9.507,0,0,0-8.6-5.777" transform="translate(21.176 36.857)"/></g><g transform="translate(128.484 66.001)"><path class="f" d="M-1.833-.779A19.869,19.869,0,0,1,17.286,13.587,19.869,19.869,0,0,1,8.747,35.925,19.869,19.869,0,0,1-15.08,33.875l-6.654,6.654-7.282-7.344,7.282-7.283V-12.33H-11.25v14A18.773,18.773,0,0,1-1.833-.779m-9.417,19.9a9.417,9.417,0,0,0,9.417,9.417A9.417,9.417,0,0,0,7.585,19.12,9.417,9.417,0,0,0-1.833,9.7a9.351,9.351,0,0,0-6.679,2.739A9.351,9.351,0,0,0-11.25,19.12" transform="translate(29.016 12.33)"/></g></g><g transform="translate(134.584 26.087)"><path class="h" d="M-1.3-2.146-15.094-18.781V-8.4h-5.523V-33.93L-6.826-17.295V-27.678H-1.3Z" transform="translate(20.617 33.93)"/></g><g class="g"><g transform="translate(158.033 29.561)"><path class="h" d="M-1.412,0V24.8H-6.936V21.6A9.9,9.9,0,0,1-11.9,22.885a10.43,10.43,0,0,1-7.4-3.054,10.43,10.43,0,0,1-3.055-7.4A10.459,10.459,0,0,1-19.3,5.026a10.459,10.459,0,0,1,7.4-3.075,9.886,9.886,0,0,1,4.961,1.29V0ZM-16.823,12.435a4.9,4.9,0,0,0,1.434,3.493A4.9,4.9,0,0,0-11.9,17.363,4.925,4.925,0,0,0-8.39,15.932a4.925,4.925,0,0,0,1.454-3.5,4.944,4.944,0,0,0-4.944-4.944,4.944,4.944,0,0,0-4.944,4.944" transform="translate(22.347)"/></g></g></g><text class="i" transform="translate(9.085 27.558)"><tspan x="0" y="0">escola</tspan></text></g></g></g></svg>