<svg xmlns="http://www.w3.org/2000/svg" xmlns:xlink="http://www.w3.org/1999/xlink" width="184.227" height="153.298" viewBox="0 0 184.227 153.298"><defs><style>.a{fill:#00145d;}.b{fill:none;}.c{isolation:isolate;}.d{clip-path:url(#a);}.e{fill:#ffac2d;}.f{clip-path:url(#b);}.g{fill:#ff611e;}.h{fill:#ffac41;}</style><clipPath id="a"><path class="a" d="M0-14.786H178.414V-139.322H0Z" transform="translate(0 139.322)"/></clipPath><clipPath id="b"><path class="b" d="M0-14.786H178.414V-139.322H0Z" transform="translate(0 139.322)"/></clipPath></defs><g transform="translate(-1566.5 16334.368)"><g transform="translate(1566.5 -16334.368)"><g transform="translate(0 0)"><path class="a" d="M3.76,0H126.7a3.76,3.76,0,0,1,3.76,3.76V35.342a3.76,3.76,0,0,1-3.76,3.76H3.76A3.76,3.76,0,0,1,0,35.342V3.76A3.76,3.76,0,0,1,3.76,0Z" transform="translate(53.764 114.196)"/><rect class="a" width="93.241" height="35.342" rx="10" transform="translate(34.966 87.27)"/><g class="c"><g class="d"><g transform="translate(66.535 31.129)"><path class="a" d="M-1.06-2.128A8.923,8.923,0,0,0,5.291-4.72a8.923,8.923,0,0,0,2.635-6.333A8.973,8.973,0,0,0,5.3-17.411,8.973,8.973,0,0,0-1.06-20.039,8.923,8.923,0,0,0-7.394-17.4a8.923,8.923,0,0,0-2.592,6.351,8.873,8.873,0,0,0,2.6,6.327,8.873,8.873,0,0,0,6.327,2.6" transform="translate(9.986 20.039)"/></g><g transform="translate(92.701 83.941)"><path class="a" d="M-.981,0A9,9,0,0,0-9.248,5.511H7.225A9.076,9.076,0,0,0-.981,0" transform="translate(9.248)"/></g><g transform="translate(139.546 84)"><path class="a" d="M-1.068-2.128A8.923,8.923,0,0,0,5.283-4.72a8.923,8.923,0,0,0,2.635-6.333,8.986,8.986,0,0,0-8.986-8.986,8.986,8.986,0,0,0-8.986,8.986A8.923,8.923,0,0,0-7.419-4.72,8.923,8.923,0,0,0-1.068-2.128" transform="translate(10.054 20.039)"/></g><g transform="translate(156.06 35.338)"><path class="a" d="M-.558,0A4.7,4.7,0,0,0-3.895,1.388,4.7,4.7,0,0,0-5.26,4.733,4.673,4.673,0,0,0-3.891,8.066,4.673,4.673,0,0,0-.558,9.435,4.717,4.717,0,0,0,4.159,4.717,4.717,4.717,0,0,0-.558,0" transform="translate(5.26 0)"/></g><g transform="translate(-0.002 0.002)"><path class="a" d="M-14.337-2.683a7.647,7.647,0,0,0-.5-2.731A13.634,13.634,0,0,0-16-19.8a13.634,13.634,0,0,0-13.43-5.28,13.634,13.634,0,0,0-10.648,9.739c-.178-.012-.355-.027-.536-.027h-10a7.646,7.646,0,0,0-6.519,3.647q-1.219-.113-2.466-.111A26.379,26.379,0,0,0-74.643-7.141a7.619,7.619,0,0,0-1.191-.91l-8.626-5.331a7.61,7.61,0,0,0-4.015-1.144A7.646,7.646,0,0,0-94.989-10.9l-8.647,13.983-8.65-13.983a7.643,7.643,0,0,0-6.514-3.626,7.611,7.611,0,0,0-4.015,1.145l-8.625,5.33a7.651,7.651,0,0,0-3.424,4.75,7.649,7.649,0,0,0,.94,5.78l23.625,38.2-6.713,3A7.649,7.649,0,0,0-120.9,53.741L-103.886,92.5a7.65,7.65,0,0,0,7,4.576h0a7.649,7.649,0,0,0,7.005-4.583l5.452-12.45,5.452,12.451a7.651,7.651,0,0,0,7,4.581h0a7.65,7.65,0,0,0,7-4.575l5.35-12.187A26.622,26.622,0,0,0-34.161,99.228h1.5a7.649,7.649,0,0,0,7.65-7.65V81.8h4.925A7.612,7.612,0,0,0-17.9,86.482l6.948,7.008a7.652,7.652,0,0,0,5.416,2.263h.016a7.65,7.65,0,0,0,5.41-2.241l1.933-1.934A26.616,26.616,0,1,0,13.464,41.041q-.672,0-1.335.032v-3.4c0-.041-.005-.081-.006-.121a7.619,7.619,0,0,0,7.194-6.359,17.524,17.524,0,0,0,6.145,1.2,7.619,7.619,0,0,0,4.967,1.832H35.7a7.65,7.65,0,0,0,7.65-7.65V2.9A7.649,7.649,0,0,0,35.7-4.75H30.428a7.622,7.622,0,0,0-5.005,1.863A17.483,17.483,0,0,0,16.628-.363,7.614,7.614,0,0,0,11.778-2.1H6.507a7.613,7.613,0,0,0-3.789,1L-.763-5.3A7.649,7.649,0,0,0-9.247-7.61,7.649,7.649,0,0,0-14.3-.414ZM-6.653-.414,6.506,15.459V5.55h4.167a17.592,17.592,0,0,0,1.1,20v4.359L-1.383,14.038v9.911h-5.27ZM-21.988,32.239h-10V-2.683h10Zm-4.971-49.9a5.99,5.99,0,0,1,5.99,5.99,5.99,5.99,0,0,1-5.99,5.99A5.97,5.97,0,0,1-31.2-7.426a5.97,5.97,0,0,1-1.748-4.242,5.932,5.932,0,0,1,1.737-4.253,5.932,5.932,0,0,1,4.253-1.737M-50.622-1.842V-7.714h10V37.212h-10V31.4a17.922,17.922,0,0,1-8.986,2.337A18.892,18.892,0,0,1-73,28.2a18.892,18.892,0,0,1-5.533-13.395,19.093,19.093,0,0,1,.678-5.044l4.506-7.286a7.606,7.606,0,0,0,.682-1.415A18.82,18.82,0,0,1-59.608-4.18a17.921,17.921,0,0,1,8.986,2.337m-68.17-5.033,15.155,24.5,15.154-24.5,8.149,5.038a26.614,26.614,0,0,0-4.549,8.422l-18.754,30.327L-127.418-1.545Zm46.831,96.3L-84.42,60.97-96.882,89.423l-17.012-38.755,8.986-4.014,8.027,18.33,12.46-28.453,12.459,28.453,8.027-18.33,8.986,4.014-.42.956A26.452,26.452,0,0,0-60.3,62.863Zm29-15.274a9.041,9.041,0,0,0,8.806,7.487h1.5v9.943h-1.5a18.892,18.892,0,0,1-13.4-5.533,18.892,18.892,0,0,1-5.533-13.4V67.618a19.192,19.192,0,0,1,.176-2.561l4.2-9.559A18.981,18.981,0,0,1-27.7,49.819a18.981,18.981,0,0,1,12.531,17.8v5.358l-1.171,1.172Zm56.429-25.46A18.958,18.958,0,1,1,.825,81.753L-5.525,88.1l-6.8-6.858A7.663,7.663,0,0,0-7.9,76.528l2.38-2.38V37.669h10V51.027a17.924,17.924,0,0,1,8.986-2.337M35.7,26.567h-5.27V23.5a9.434,9.434,0,0,1-4.734,1.231,9.934,9.934,0,0,1-6.268-2.211V6.985A9.9,9.9,0,0,1,25.694,4.76a9.443,9.443,0,0,1,4.734,1.231V2.9H35.7Z" transform="translate(135.069 25.305)"/></g></g><g transform="translate(7.651 18.432)"><path class="e" d="M-2.821-2.909l15.155-24.5,8.627,5.331L-2.821,16.379-26.6-22.077l8.624-5.331Z" transform="translate(26.6 27.408)"/></g><g class="f"><g transform="translate(56.531 17.593)"><path class="e" d="M-4.5,0V44.925h-10v-5.81a17.921,17.921,0,0,1-8.986,2.336,18.891,18.891,0,0,1-13.395-5.533,18.891,18.891,0,0,1-5.533-13.395A18.943,18.943,0,0,1-36.892,9.1a18.943,18.943,0,0,1,13.4-5.57A17.921,17.921,0,0,1-14.5,5.87V0ZM-32.416,22.523a8.871,8.871,0,0,0,2.6,6.327,8.871,8.871,0,0,0,6.327,2.6,8.922,8.922,0,0,0,6.351-2.591A8.922,8.922,0,0,0-14.5,22.523a8.955,8.955,0,0,0-8.955-8.955,8.955,8.955,0,0,0-8.955,8.955" transform="translate(42.419)"/></g><g transform="translate(102.119 7.65)"><path class="e" d="M-.711-1.422A5.969,5.969,0,0,1-4.952-3.17,5.969,5.969,0,0,1-6.7-7.412a5.932,5.932,0,0,1,1.737-4.252A5.932,5.932,0,0,1-.711-13.4,5.969,5.969,0,0,1,3.53-11.653,5.969,5.969,0,0,1,5.279-7.412a6.007,6.007,0,0,1-5.99,5.99M4.261,36.5h-10V1.574h10Z" transform="translate(6.701 13.401)"/></g></g><g transform="translate(21.176 61.838)"><path class="e" d="M-2.02-3.378,10.439-31.831,22.9-3.378l8.027-18.33,8.986,4.014L22.9,21.061,10.439-7.392-2.02,21.061-19.032-17.694l8.985-4.014Z" transform="translate(19.032 31.831)"/></g><g class="f"><g transform="translate(81.979 73.997)"><path class="e" d="M-2.247-3.912h1.5V6.032h-1.5A18.892,18.892,0,0,1-15.643.5a18.892,18.892,0,0,1-5.533-13.4v-5.031a18.892,18.892,0,0,1,5.533-13.4,18.892,18.892,0,0,1,13.4-5.533A18.943,18.943,0,0,1,11.17-31.329a18.943,18.943,0,0,1,5.569,13.4v6.53H-11.053A9.041,9.041,0,0,0-2.247-3.912m.06-23A9,9,0,0,0-10.454-21.4H6.019a9.071,9.071,0,0,0-8.206-5.512" transform="translate(21.176 36.857)"/></g><g transform="translate(122.595 62.976)"><path class="e" d="M-3.079-1.309A18.958,18.958,0,0,1,15.163,12.4,18.958,18.958,0,0,1,7.016,33.713a18.958,18.958,0,0,1-22.735-1.957l-6.349,6.349L-29.016,31.1l6.948-6.949V-12.33h10V1.028A17.913,17.913,0,0,1-3.079-1.308m-8.986,18.987a8.986,8.986,0,0,0,8.986,8.986,8.986,8.986,0,0,0,8.986-8.986A8.986,8.986,0,0,0-3.079,8.693a8.923,8.923,0,0,0-6.373,2.613,8.923,8.923,0,0,0-2.613,6.373" transform="translate(29.016 12.33)"/></g></g><g transform="translate(128.415 24.891)"><path class="g" d="M-2.188-3.6-15.347-19.476v9.909h-5.27V-33.93L-7.458-18.058v-9.907h5.27Z" transform="translate(20.617 33.93)"/></g><g class="f"><g transform="translate(150.789 28.206)"><path class="g" d="M-2.372,0V23.667h-5.27v-3.06a9.442,9.442,0,0,1-4.733,1.229,9.952,9.952,0,0,1-7.057-2.914,9.952,9.952,0,0,1-2.915-7.056A9.979,9.979,0,0,1-19.435,4.8a9.979,9.979,0,0,1,7.06-2.934A9.433,9.433,0,0,1-7.642,3.093V0ZM-17.077,11.865A4.673,4.673,0,0,0-15.708,15.2a4.673,4.673,0,0,0,3.333,1.369A4.7,4.7,0,0,0-9.03,15.2a4.7,4.7,0,0,0,1.388-3.336,4.717,4.717,0,0,0-4.717-4.717,4.717,4.717,0,0,0-4.717,4.717" transform="translate(22.347)"/></g></g></g><path class="h" d="M3.74-38.166a6.749,6.749,0,0,1,.55-2.787,6.356,6.356,0,0,1,1.47-2.084,6.522,6.522,0,0,1,2.109-1.317,6.776,6.776,0,0,1,2.467-.46,6.776,6.776,0,0,1,2.582.46,5.058,5.058,0,0,1,1.866,1.278,5.513,5.513,0,0,1,1.125,1.93,7.365,7.365,0,0,1,.383,2.416,7.8,7.8,0,0,1-.051.933q-.051.422-.1.652H7.6a3.071,3.071,0,0,0,1.278,2.109,4.294,4.294,0,0,0,2.4.652,6.116,6.116,0,0,0,1.649-.217,8.614,8.614,0,0,0,1.623-.652L15.782-33a9.361,9.361,0,0,1-2.4,1.087,9.1,9.1,0,0,1-2.608.4,8.3,8.3,0,0,1-2.761-.447,6.443,6.443,0,0,1-2.224-1.3,6.179,6.179,0,0,1-1.5-2.084A6.815,6.815,0,0,1,3.74-38.166Zm9.153-1.3a2.664,2.664,0,0,0-.588-1.79,2.356,2.356,0,0,0-1.892-.69,2.979,2.979,0,0,0-1.828.6A2.86,2.86,0,0,0,7.549-39.47Zm8.335,3.656a11.868,11.868,0,0,0,2.211,1.1,6.871,6.871,0,0,0,2.39.409,4.482,4.482,0,0,0,1.866-.281.869.869,0,0,0,.562-.793q0-.588-.933-.959t-2.467-.805a15.583,15.583,0,0,1-1.649-.55,7.027,7.027,0,0,1-1.444-.767A3.985,3.985,0,0,1,20.729-39.5a2.367,2.367,0,0,1-.4-1.355,3.28,3.28,0,0,1,.409-1.611A3.619,3.619,0,0,1,21.9-43.714a6.1,6.1,0,0,1,1.841-.805,9.353,9.353,0,0,1,2.442-.294,8.327,8.327,0,0,1,3.081.55,13.873,13.873,0,0,1,2.39,1.189l-1.687,2.25a11.466,11.466,0,0,0-1.79-.856,5.416,5.416,0,0,0-1.917-.345,4.033,4.033,0,0,0-1.7.256.8.8,0,0,0-.5.741.679.679,0,0,0,.256.511,2.382,2.382,0,0,0,.69.409,9.171,9.171,0,0,0,1.035.345q.6.166,1.266.345.946.256,1.79.575a7.1,7.1,0,0,1,1.483.754,3.519,3.519,0,0,1,1.023,1.048,2.645,2.645,0,0,1,.383,1.432A3.28,3.28,0,0,1,31.582-34a3.872,3.872,0,0,1-1.189,1.291,6.2,6.2,0,0,1-1.943.869,10.226,10.226,0,0,1-2.7.32,10.234,10.234,0,0,1-3.349-.562,12.416,12.416,0,0,1-2.863-1.381Zm17.257-5.752h-3.17v-2.787l3.349-.153.486-3.375h3.094v3.375h5.343v2.94H42.243v4.449a2.742,2.742,0,0,0,.639,2.058,2.875,2.875,0,0,0,2.02.6,6.846,6.846,0,0,0,1.368-.128,8.376,8.376,0,0,0,1.189-.332l.665,2.71q-.844.256-1.892.473a11.212,11.212,0,0,1-2.275.217,7.053,7.053,0,0,1-2.557-.409,4.361,4.361,0,0,1-1.7-1.138,4.287,4.287,0,0,1-.933-1.751,8.575,8.575,0,0,1-.281-2.275Zm24.825,9.741H60.241l-.281-1.815h-.1a7.055,7.055,0,0,1-1.866,1.547,4.822,4.822,0,0,1-2.4.575A3.575,3.575,0,0,1,52.444-32.9a6.477,6.477,0,0,1-.972-3.784v-7.823H55.23v7.337a3.508,3.508,0,0,0,.383,1.866,1.613,1.613,0,0,0,1.457.588,2.553,2.553,0,0,0,1.266-.307,4.462,4.462,0,0,0,1.214-1.15v-8.335h3.758ZM58.119-46.5H55.384l2.275-4.27h3.835Zm8.82,8.335a7.9,7.9,0,0,1,.46-2.787,6.646,6.646,0,0,1,1.214-2.084,5.326,5.326,0,0,1,1.726-1.317,4.665,4.665,0,0,1,2.02-.46,4.094,4.094,0,0,1,1.841.371,6.09,6.09,0,0,1,1.406.984l-.128-1.969v-4.321h3.758v17.922H76.169l-.281-1.3h-.077a6.578,6.578,0,0,1-1.636,1.15,4.184,4.184,0,0,1-1.892.46,5.1,5.1,0,0,1-2.186-.46A4.779,4.779,0,0,1,68.41-33.3a6.12,6.12,0,0,1-1.087-2.084A9.336,9.336,0,0,1,66.94-38.166Zm3.86-.051a4.712,4.712,0,0,0,.639,2.761,2.119,2.119,0,0,0,1.815.869,2.592,2.592,0,0,0,1.176-.268,3.253,3.253,0,0,0,1.048-.908V-40.9a3.219,3.219,0,0,0-1.035-.652,3.138,3.138,0,0,0-1.087-.192,2.311,2.311,0,0,0-1.8.869A3.977,3.977,0,0,0,70.8-38.217Zm12.809-6.289h8.846v12.681H88.7v-9.741H83.609Zm6.8-1.866a2.642,2.642,0,0,1-1.8-.614,2.093,2.093,0,0,1-.7-1.662,2.211,2.211,0,0,1,.7-1.7,2.546,2.546,0,0,1,1.8-.652,2.546,2.546,0,0,1,1.8.652,2.211,2.211,0,0,1,.7,1.7,2.093,2.093,0,0,1-.7,1.662A2.642,2.642,0,0,1,90.409-46.373Zm8.232,8.207a7.048,7.048,0,0,1,.537-2.825,6.122,6.122,0,0,1,1.444-2.084,6.374,6.374,0,0,1,2.071-1.291,6.674,6.674,0,0,1,2.416-.447,6.673,6.673,0,0,1,2.416.447,6.374,6.374,0,0,1,2.071,1.291,6.123,6.123,0,0,1,1.444,2.084,7.048,7.048,0,0,1,.537,2.825,7.048,7.048,0,0,1-.537,2.825,6.123,6.123,0,0,1-1.444,2.084,6.374,6.374,0,0,1-2.071,1.291,6.674,6.674,0,0,1-2.416.447,6.674,6.674,0,0,1-2.416-.447,6.374,6.374,0,0,1-2.071-1.291,6.122,6.122,0,0,1-1.444-2.084A7.048,7.048,0,0,1,98.642-38.166Zm3.86,0a4.667,4.667,0,0,0,.652,2.633,2.2,2.2,0,0,0,1.956.972,2.2,2.2,0,0,0,1.956-.972,4.667,4.667,0,0,0,.652-2.633,4.667,4.667,0,0,0-.652-2.633,2.2,2.2,0,0,0-1.956-.972,2.2,2.2,0,0,0-1.956.972A4.667,4.667,0,0,0,102.5-38.166Z" transform="translate(61.627 174.901)"/></g></g></g></svg>