<svg xmlns="http://www.w3.org/2000/svg" width="94.068" height="94.068" viewBox="0 0 94.068 94.068"><defs><style>.a{fill:#00145d;}</style></defs><g transform="translate(-1 -1)"><path class="a" d="M68.862,8.586c-.046,0-.09.012-.135.014A9.1,9.1,0,0,0,51.062,7.41a6,6,0,0,0-1.924-.341,6.062,6.062,0,0,0-5.859,4.573c-.071,0-.138-.021-.209-.021a6.069,6.069,0,0,0,0,12.138H68.862a7.586,7.586,0,0,0,0-15.172Zm0,12.138H43.069A3.034,3.034,0,1,1,46.1,17.689h3.034A6.05,6.05,0,0,0,46.173,12.5a3.033,3.033,0,0,1,6,.636h3.034a6.02,6.02,0,0,0-1.432-3.87,6.038,6.038,0,0,1,11.969.008,7.582,7.582,0,0,0-4.468,6.9H64.31a4.552,4.552,0,1,1,4.552,4.552Z" transform="translate(18.62 0)"/><path class="a" d="M52.758,57.379A10.634,10.634,0,0,0,63.379,46.758a1.516,1.516,0,0,0-1.517-1.517H58.827a10.58,10.58,0,0,0-7.586,3.2V35.294a6.006,6.006,0,0,0,3.034.844,6.069,6.069,0,1,0-6.069-6.069c0,.1.024.191.029.288a4.511,4.511,0,0,0-1.546-.288,4.552,4.552,0,0,0,0,9.1,4.5,4.5,0,0,0,1.517-.279V47.3a13.628,13.628,0,0,0-10.621-5.092H31.517A1.516,1.516,0,0,0,30,43.724,13.67,13.67,0,0,0,43.655,57.379h4.552v3.034H39.1a1.516,1.516,0,0,0-1.517,1.517V68A1.516,1.516,0,0,0,39.1,69.517H40.78l1.367,12.3a1.516,1.516,0,0,0,1.508,1.35H55.793a1.516,1.516,0,0,0,1.508-1.35l1.367-12.3h1.677A1.516,1.516,0,0,0,61.862,68V61.93a1.516,1.516,0,0,0-1.517-1.517h-9.1V57.379Zm6.069-9.1h1.364a7.6,7.6,0,0,1-7.433,6.069H51.394A7.6,7.6,0,0,1,58.827,48.275ZM54.433,80.137h-9.42l-1.18-10.621H55.614Zm4.394-13.655H40.621V63.448H58.827ZM54.276,27.034a3.034,3.034,0,1,1-3.034,3.034A3.037,3.037,0,0,1,54.276,27.034Zm-7.586,9.1a1.517,1.517,0,1,1,1.517-1.517A1.518,1.518,0,0,1,46.689,36.138ZM43.655,54.344a10.637,10.637,0,0,1-10.513-9.1h4.444a10.637,10.637,0,0,1,10.513,9.1Z" transform="translate(14.999 11.896)"/><path class="a" d="M35.9,45a6.051,6.051,0,0,0,1.81-11.831l2.667-12.444h.074A18.227,18.227,0,0,1,58.654,38.93h3.034A21.252,21.252,0,0,0,41.018,17.718l.7-3.267A4.539,4.539,0,1,0,36.383,8.1L26.64,4.443a4.543,4.543,0,0,0-8.95,1.109,4.5,4.5,0,0,0,.077.762L7.632,15.181a4.5,4.5,0,0,0-2.08-.526,4.552,4.552,0,1,0,2.308,8.454l6.909,4.75a21.079,21.079,0,0,0-3.145,10.73L1.143,61.047a1.516,1.516,0,0,0,1.375,2.159h9.1V81.413a1.516,1.516,0,0,0,1.517,1.517H28.31V95.068h3.034V81.413A1.516,1.516,0,0,0,29.827,79.9H14.655V61.689a1.516,1.516,0,0,0-1.517-1.517H4.9l9.613-20.6a1.517,1.517,0,0,0,.143-.642,18.075,18.075,0,0,1,2.614-9.352L29.9,38.258a5.762,5.762,0,0,0-.068.672c0,.1.024.191.029.288a4.511,4.511,0,0,0-1.546-.288,4.552,4.552,0,1,0,0,9.1,4.5,4.5,0,0,0,1.517-.279v6.516a10.58,10.58,0,0,0-7.586-3.2H19.207a1.516,1.516,0,0,0-1.517,1.517A10.634,10.634,0,0,0,28.31,63.206h1.517v7.586h3.034V63.206h1.517a7.6,7.6,0,0,0,7.586-7.586A1.516,1.516,0,0,0,40.448,54.1H37.413a7.508,7.508,0,0,0-4.552,1.557v-11.5A6.006,6.006,0,0,0,35.9,45ZM28.31,60.172A7.6,7.6,0,0,1,20.877,54.1h1.364a7.6,7.6,0,0,1,7.433,6.069ZM38.931,38.93A3.034,3.034,0,1,1,35.9,35.9,3.037,3.037,0,0,1,38.931,38.93ZM34.641,33a5.579,5.579,0,0,0-.628.2L29.049,21.133a18.153,18.153,0,0,1,3.813-.41h4.409ZM26.306,7.559l9.744,3.653a4.559,4.559,0,0,0,2.6,3.069l-.73,3.408h-5.06a21.2,21.2,0,0,0-4.978.613L24.3,9.59A4.552,4.552,0,0,0,26.306,7.559ZM40.448,8.586A1.517,1.517,0,1,1,38.931,10.1,1.518,1.518,0,0,1,40.448,8.586ZM22.241,4.034a1.517,1.517,0,1,1-1.517,1.517A1.518,1.518,0,0,1,22.241,4.034ZM4.034,19.207a1.517,1.517,0,1,1,1.517,1.517A1.518,1.518,0,0,1,4.034,19.207Zm5.776,1.561a4.4,4.4,0,0,0-.093-3.38L19.3,9a4.533,4.533,0,0,0,1.862.962l3.813,9.258a21.325,21.325,0,0,0-8.457,6.161Zm9.229,6.343a18.27,18.27,0,0,1,7.1-5.084l5.286,12.839a6.085,6.085,0,0,0-.4.484ZM28.31,45a1.517,1.517,0,1,1,1.517-1.517A1.518,1.518,0,0,1,28.31,45Zm9.1,12.138h1.258a4.56,4.56,0,0,1-4.292,3.034H33.121A4.56,4.56,0,0,1,37.413,57.137Z" transform="translate(0 0)"/></g></svg>