<svg xmlns="http://www.w3.org/2000/svg" width="168.164" height="168.162" viewBox="0 0 168.164 168.162"><defs><style>.a{fill:#ffac2d;stroke:#ff611e;stroke-width:2px;}</style></defs><g transform="translate(1 1)"><path class="a" d="M145.723,102.348h-.482l-.437-2.187h11.653a2.681,2.681,0,0,0,2.68-2.68V83.14a9.324,9.324,0,0,0,0-16.884v-4.9a14.8,14.8,0,0,0-13.564-14.74,9.3,9.3,0,0,0-2.232-1.576A11.106,11.106,0,0,0,138.4,43.88a39.928,39.928,0,0,0-17.769,4.194A17.517,17.517,0,0,0,110.9,63.831v2.431l-.038.021A23.846,23.846,0,0,0,95.28,57.656l-.477-.062V56.573a18.756,18.756,0,0,0,7.826-12.693h1.554a9.358,9.358,0,0,0,4.02-17.819v-6.3A10.74,10.74,0,0,0,99.895,9.308,10.74,10.74,0,0,0,89.443,1H78.722a18.781,18.781,0,0,0-18.76,18.76v6.3a9.359,9.359,0,0,0,4.02,17.819h1.554a18.756,18.756,0,0,0,7.826,12.693v1.021l-.477.062A23.991,23.991,0,0,0,57.194,66.5,24.107,24.107,0,0,0,9.042,68v6.3a9.326,9.326,0,0,0,0,16.884v6.786a5.359,5.359,0,0,1-5.36,5.36,2.68,2.68,0,0,0-2.3,4.066l1.144,1.908a26.327,26.327,0,0,0,5.92,6.8A21.375,21.375,0,0,0,1,132.321v34.84h5.36V140.238l5.446.083a47.6,47.6,0,0,0,1.34,8.732A42.1,42.1,0,0,1,14.4,159.288v7.874h5.36v-7.874a47.449,47.449,0,0,0-1.42-11.524,42.348,42.348,0,0,1-1.26-10.248v-7.874h-5.36v5.317l-5.36-.08v-2.557a15.993,15.993,0,0,1,3.35-9.806,39.386,39.386,0,0,0,22.518,7.126h1.839a38.934,38.934,0,0,0,12.99-2.24,37.052,37.052,0,0,0,2.184,8.011v2.1a42.245,42.245,0,0,1-1.26,10.238,47.449,47.449,0,0,0-1.42,11.524v7.885h5.36v-7.874a42.24,42.24,0,0,1,1.26-10.235,47.346,47.346,0,0,0,.949-4.969,37.765,37.765,0,0,0,5.832,6.194v16.884h5.36V154.03a37.209,37.209,0,0,0,37.534,0v13.132h5.36V150.3a37.732,37.732,0,0,0,8.053-9.493v26.355h5.36v-42.88h-.15c.064-.89.137-1.774.137-2.68a37.252,37.252,0,0,0-1.34-9.753l7.327,8.79a2.676,2.676,0,0,0,2.058.962h.142a2.68,2.68,0,0,0,2.088-1.19l3.125-4.706,3.13,4.7a2.68,2.68,0,0,0,2.088,1.19h.142a2.676,2.676,0,0,0,2.058-.962l9.67-11.6a16.1,16.1,0,0,1,9.7,14.764v43.374h5.36V123.788A21.465,21.465,0,0,0,145.723,102.348Zm-10.776,5.266-5.092-3.393,1.005-5.028a18.309,18.309,0,0,0,8.281,0l.935,4.682ZM19.762,89.441V75.979a20.7,20.7,0,0,0,13.4-6.378,20.7,20.7,0,0,0,13.4,6.378V89.441a13.4,13.4,0,1,1-26.8,0Zm31.946,2.68h.214v5.853a10.84,10.84,0,0,0,.582,3.444,37.365,37.365,0,0,0-4.476,9.916,21.555,21.555,0,0,0-4.146-.453H43.4l-1.024-5.119a18.759,18.759,0,0,0,9.318-13.641Zm11.186,5.36h42.39a32.339,32.339,0,0,1,6.606,8.04H56.275a32.339,32.339,0,0,1,6.606-8.04Zm8.386-5.36a31.99,31.99,0,0,1,25.632,0Zm-19.358-13.4h1.34a4.02,4.02,0,1,1,0,8.04h-1.34Zm.15,45.56h64.053a31.779,31.779,0,0,1-1.739,8.04H53.8a31.778,31.778,0,0,1-1.739-8.04Zm0-5.36a31.779,31.779,0,0,1,1.739-8.04h60.555a31.778,31.778,0,0,1,1.739,8.04Zm64.948-15.292a38.123,38.123,0,0,0-2.19-3.468H125.2l-.44,2.187h-.482a21.589,21.589,0,0,0-7.276,1.281Zm-.764-19.548h.268a18.734,18.734,0,0,0,5.9,10.72h-6.164Zm0-5.36h-1.34a4.02,4.02,0,0,1,0-8.04h1.327ZM147.578,94.8a18.734,18.734,0,0,0,5.9-10.72h.3V94.8Zm7.55-16.08h-1.364v-8.04h1.34a4.02,4.02,0,1,1,0,8.04Zm-1.34-17.367v3.966h0a2.638,2.638,0,0,0-.08-.649l-.748-2.924a13,13,0,0,0-4.653-7.113,9.44,9.44,0,0,0,.1-1.375c0-.131-.021-.268-.027-.391a9.419,9.419,0,0,1,5.395,8.485Zm-7.909-1.734a7.65,7.65,0,0,1,1.9,3.428l.651,2.6L148.4,80.908a13.4,13.4,0,0,1-26.8,0V66.824a26.58,26.58,0,0,1,5.151-2.348,37.706,37.706,0,0,1,11.65-1.836,11.031,11.031,0,0,0,4.934-1.166,9.214,9.214,0,0,0,2.53-1.855Zm-29.622,4.21a12.184,12.184,0,0,1,6.775-10.961A34.581,34.581,0,0,1,138.4,49.24a5.674,5.674,0,0,1,2.538.6,3.822,3.822,0,0,1,0,6.839,5.672,5.672,0,0,1-2.535.6,43.1,43.1,0,0,0-13.288,2.1,33.134,33.134,0,0,0-7.617,3.68,2.674,2.674,0,0,0-1.244,2.259ZM78.722,59.17a18.58,18.58,0,0,0,10.72,0v.791a5.36,5.36,0,1,1-10.72,0Zm25.46-20.65h-1.34V30.48h1.34a4.02,4.02,0,0,1,0,8.04ZM59.962,34.5a4.022,4.022,0,0,1,4.02-4.02h1.34v8.04h-1.34A4.022,4.022,0,0,1,59.962,34.5Zm5.36-9.38V19.76a13.415,13.415,0,0,1,13.4-13.4h10.72a5.359,5.359,0,0,1,5.36,5.36,2.681,2.681,0,0,0,2.68,2.68,5.359,5.359,0,0,1,5.36,5.36v5.36a2.678,2.678,0,0,0-1.072-2.144l-10.72-8.04a2.68,2.68,0,0,0-3.752.536,2.651,2.651,0,0,0-.4.761,9.067,9.067,0,0,1-8.611,6.207H68A2.681,2.681,0,0,0,65.322,25.12Zm5.36,16.08V27.8h7.606a14.417,14.417,0,0,0,12.146-6.628l7.048,5.288V41.2a13.4,13.4,0,1,1-26.8,0ZM73.55,62.973l.284-.035a10.653,10.653,0,0,0,20.5,0l.284.035a18.522,18.522,0,0,1,12.277,6.944,9.259,9.259,0,0,0,3.079,12.727,8.993,8.993,0,0,0,.925.5V95.407a37.873,37.873,0,0,0-8.053-6.25V78.721h-5.36V86.6a36.935,36.935,0,0,0-26.8,0V78.721h-5.36V89.157a37.887,37.887,0,0,0-8.04,6.236V91.172a9.345,9.345,0,0,0,1.2-16.214A18.652,18.652,0,0,1,73.55,62.973ZM14.4,68a18.76,18.76,0,0,1,37.52,0v5.36a2.681,2.681,0,0,0-2.68-2.68H48.17a15.346,15.346,0,0,1-12.794-6.847,2.784,2.784,0,0,0-4.46,0,15.337,15.337,0,0,1-12.789,6.847H17.082a2.681,2.681,0,0,0-2.68,2.68Zm-1.34,10.72H14.4v8.04h-1.34a4.02,4.02,0,1,1,0-8.04ZM7.97,107.807A10.742,10.742,0,0,0,14.4,97.974V92.121h.2a18.79,18.79,0,0,0,9.332,13.644l-1.024,5.116h-.482a21.254,21.254,0,0,0-9.214,2.112,21.051,21.051,0,0,1-5.266-5.186Zm26.1,16.474H32.229a34.021,34.021,0,0,1-18.46-5.489,15.958,15.958,0,0,1,8.659-2.551h2.68a2.678,2.678,0,0,0,2.629-2.144l1.273-6.36a18.222,18.222,0,0,0,8.279,0l1.273,6.362a2.679,2.679,0,0,0,2.64,2.141h2.68a16.192,16.192,0,0,1,3.071.324,37.249,37.249,0,0,0-.391,5.036v.241A33.661,33.661,0,0,1,34.068,124.281Zm37.2,26.8H96.9A31.99,31.99,0,0,1,71.267,151.081Zm34.018-5.36h-42.4a32.29,32.29,0,0,1-6.606-8.04H111.89A32.29,32.29,0,0,1,105.284,145.721Zm24.12-31.273-5.6-6.713c.155,0,.306-.027.461-.027h1.236l-.029.043,5.81,3.873Zm11.2,0-1.943-2.916,5.242-3.824h1.822c.163,0,.324.021.488.027Z" transform="translate(-0.999 -1)"/><rect class="a" width="5.11" height="42.586" transform="translate(147.426 123.576)"/></g></svg>