<svg xmlns="http://www.w3.org/2000/svg" xmlns:xlink="http://www.w3.org/1999/xlink" width="142.405" height="165.878" viewBox="0 0 142.405 165.878"><defs><style>.a,.d{fill:none;}.b{clip-path:url(#a);}.c{fill:#ffac2c;}.d{stroke:#ff601e;stroke-width:2px;}</style><clipPath id="a"><path class="a" d="M0,61.3H142.4V-104.579H0Z" transform="translate(0 104.579)"/></clipPath></defs><g transform="translate(0)"><g class="b" transform="translate(0 0)"><g transform="translate(0.975 110.224)"><path class="c" d="M51.134,5.686A15.6,15.6,0,0,0,29.827-.026c-.078.046-.155.09-.233.138L10.806,12.7A7.964,7.964,0,0,1,6.931,13.71H4.309A15.6,15.6,0,0,0-1.385-7.6,15.6,15.6,0,0,0-9.2-9.7h-46.66a15.6,15.6,0,0,0-8.265,2.4,3.9,3.9,0,0,0-3.6-2.4H-83.334a3.9,3.9,0,0,0-3.9,3.9V41.022a3.9,3.9,0,0,0,3.9,3.9h15.613a3.9,3.9,0,0,0,3.6-2.4,15.6,15.6,0,0,0,8.265,2.4H9.9a22.526,22.526,0,0,0,14.97-4.362L45.422,27.008A15.636,15.636,0,0,0,51.134,5.686M-71.628,37.122h-7.8V-1.9h7.8ZM41.323,20.37,20.581,34.046A15.08,15.08,0,0,1,9.9,37.122H-55.862a7.977,7.977,0,0,1-7.964-7.967V6.071A7.976,7.976,0,0,1-55.862-1.9H-9.2a7.8,7.8,0,0,1,7.8,7.8,7.8,7.8,0,0,1-7.8,7.8H-28.71a3.9,3.9,0,0,0-3.9,3.9,3.9,3.9,0,0,0,3.9,3.9H6.931a16.048,16.048,0,0,0,7.945-2.157L33.718,6.734a7.807,7.807,0,1,1,7.82,13.516c-.071.041-.143.081-.216.121Z" transform="translate(87.236 9.7)"/></g><g transform="translate(0.975 110.224)"><path class="d" d="M51.134,5.686A15.6,15.6,0,0,0,29.827-.026c-.078.046-.155.09-.233.138L10.806,12.7A7.964,7.964,0,0,1,6.931,13.71H4.309A15.6,15.6,0,0,0-1.385-7.6,15.6,15.6,0,0,0-9.2-9.7h-46.66a15.6,15.6,0,0,0-8.265,2.4,3.9,3.9,0,0,0-3.6-2.4H-83.334a3.9,3.9,0,0,0-3.9,3.9V41.022a3.9,3.9,0,0,0,3.9,3.9h15.613a3.9,3.9,0,0,0,3.6-2.4,15.6,15.6,0,0,0,8.265,2.4H9.9a22.526,22.526,0,0,0,14.97-4.362L45.422,27.008A15.636,15.636,0,0,0,51.134,5.686ZM-71.628,37.122h-7.8V-1.9h7.8ZM41.323,20.37,20.581,34.046A15.08,15.08,0,0,1,9.9,37.122H-55.862a7.977,7.977,0,0,1-7.964-7.967V6.071A7.976,7.976,0,0,1-55.862-1.9H-9.2a7.8,7.8,0,0,1,7.8,7.8,7.8,7.8,0,0,1-7.8,7.8H-28.71a3.9,3.9,0,0,0-3.9,3.9,3.9,3.9,0,0,0,3.9,3.9H6.931a16.048,16.048,0,0,0,7.945-2.157L33.718,6.734a7.807,7.807,0,1,1,7.82,13.516c-.071.041-.143.081-.216.121Z" transform="translate(87.236 9.7)"/></g><g transform="translate(16.583 0.975)"><path class="c" d="M17.3,34.6a46.82,46.82,0,0,0,46.82-46.82A46.82,46.82,0,0,0,17.3-59.037a46.82,46.82,0,0,0-46.82,46.822A46.871,46.871,0,0,0,17.3,34.6M-21.321-8.315H-9.9A64.237,64.237,0,0,0-1.706,21.644,38.813,38.813,0,0,1-21.321-8.315M21.2,25.975V-8.315h15.4c-.888,16.774-7.255,30.827-15.4,34.289m0-42.092V-50.405c8.148,3.463,14.515,17.514,15.4,34.288ZM13.4-50.405v34.288H-2c.888-16.774,7.255-30.825,15.4-34.288m0,42.092V25.975C5.252,22.512-1.115,8.459-2-8.313Zm22.91,29.958A64.251,64.251,0,0,0,44.5-8.315H55.925A38.81,38.81,0,0,1,36.311,21.644M55.925-16.117H44.5a64.256,64.256,0,0,0-8.192-29.959A38.813,38.813,0,0,1,55.925-16.117M-1.706-46.077A64.256,64.256,0,0,0-9.9-16.117H-21.321A38.816,38.816,0,0,1-1.706-46.077" transform="translate(29.518 59.037)"/></g><g transform="translate(16.583 0.975)"><path class="d" d="M17.3,34.6a46.82,46.82,0,0,0,46.82-46.82A46.82,46.82,0,0,0,17.3-59.037a46.82,46.82,0,0,0-46.82,46.822A46.871,46.871,0,0,0,17.3,34.6ZM-21.321-8.315H-9.9A64.237,64.237,0,0,0-1.706,21.644,38.813,38.813,0,0,1-21.321-8.315ZM21.2,25.975V-8.315h15.4C35.719,8.459,29.352,22.512,21.2,25.975Zm0-42.092V-50.405c8.148,3.463,14.515,17.514,15.4,34.288ZM13.4-50.405v34.288H-2C-1.115-32.891,5.252-46.943,13.4-50.405Zm0,42.092V25.975C5.252,22.512-1.115,8.459-2-8.313Zm22.91,29.958A64.251,64.251,0,0,0,44.5-8.315H55.925A38.81,38.81,0,0,1,36.311,21.644ZM55.925-16.117H44.5a64.256,64.256,0,0,0-8.192-29.959A38.813,38.813,0,0,1,55.925-16.117ZM-1.706-46.077A64.256,64.256,0,0,0-9.9-16.117H-21.321A38.816,38.816,0,0,1-1.706-46.077Z" transform="translate(29.518 59.037)"/></g></g></g></svg>