<svg xmlns="http://www.w3.org/2000/svg" width="125" height="125" viewBox="0 0 125 125"><defs><style>.a{fill:#fde7a9;stroke:#ffac2d;stroke-width:6px;stroke-dasharray:2 5;}.b{fill:#0f2b92;}.c{stroke:none;}.d{fill:none;}</style></defs><g transform="translate(0 0.321)"><g transform="translate(0)"><g class="a" transform="translate(0 -0.321)"><circle class="c" cx="62.5" cy="62.5" r="62.5"/><circle class="d" cx="62.5" cy="62.5" r="59.5"/></g><g transform="translate(33.62 33.132)"><path class="b" d="M24,162.931v35.176a2.935,2.935,0,0,0,2.931,2.931h21.5a2.935,2.935,0,0,0,2.931-2.931V162.931A2.935,2.935,0,0,0,48.428,160h-21.5A2.935,2.935,0,0,0,24,162.931Zm25.4,0v35.176a.978.978,0,0,1-.977.977h-21.5a.978.978,0,0,1-.977-.977V162.931a.978.978,0,0,1,.977-.977h4.481l1.668,1.668a.977.977,0,0,0,.691.286h7.817a.977.977,0,0,0,.691-.286l1.668-1.668h4.481A.978.978,0,0,1,49.4,162.931Z" transform="translate(-24 -142.412)"/><path class="b" d="M64,440h2.931v1.954H64Z" transform="translate(-59.114 -388.213)"/><path class="b" d="M184,440h2.931v1.954H184Z" transform="translate(-164.458 -388.213)"/><path class="b" d="M320,448h2.931v1.954H320Z" transform="translate(-283.847 -395.236)"/><path class="b" d="M107.176,88H74.931A2.935,2.935,0,0,0,72,90.931V94.84h1.954V90.931a.978.978,0,0,1,.977-.977h32.245a.978.978,0,0,1,.977.977V134.9a.978.978,0,0,1-.977.977H95.451v1.954h11.725a2.935,2.935,0,0,0,2.931-2.931V90.931A2.935,2.935,0,0,0,107.176,88Z" transform="translate(-66.137 -79.206)"/><path class="b" d="M177.039,16H138.931A2.935,2.935,0,0,0,136,18.931V22.84h1.954V18.931a.978.978,0,0,1,.977-.977h38.107a.978.978,0,0,1,.977.977V71.7a.978.978,0,0,1-.977.977h-8.794v1.954h8.794A2.935,2.935,0,0,0,179.97,71.7V18.931A2.935,2.935,0,0,0,177.039,16Z" transform="translate(-122.32 -16)"/><path class="b" d="M421.863,50.931a2.931,2.931,0,1,0-2.931,2.931A2.931,2.931,0,0,0,421.863,50.931Zm-2.931.977a.977.977,0,1,1,.977-.977A.977.977,0,0,1,418.931,51.908Z" transform="translate(-368.122 -44.092)"/><ellipse class="b" cx="0.912" cy="0.456" rx="0.912" ry="0.456" transform="translate(50.233 11.59)"/></g></g></g></svg>