<svg xmlns="http://www.w3.org/2000/svg" width="248.245" height="107.269" viewBox="0 0 248.245 107.269"><defs><style>.a{fill:#f26522;}.a,.c{stroke:#2e3192;stroke-miterlimit:10;stroke-width:5px;}.b,.c{fill:#fff;}.d{fill:#2e3192;}</style></defs><g transform="translate(0.8 0.8)"><rect class="a" width="222.294" height="55.041" transform="translate(22.651 48.929)"/><g transform="translate(39.459 62.186)"><path class="b" d="M33.6,59.8h4.735l2.486,7.457c.473,1.539.947,3.2,1.42,4.853h.118c.473-1.657.947-3.314,1.42-4.853L46.265,59.8h4.5l-5.8,15.861H39.518Z" transform="translate(-33.6 -51.514)"/><path class="b" d="M50.6,71.337c0-3.551,2.959-5.327,10.416-5.8-.118-1.42-1.184-2.249-3.314-2.249a10.494,10.494,0,0,0-4.853,1.539l-1.776-3.2A14.765,14.765,0,0,1,58.531,59.5c4.5,0,7.1,2.367,7.1,7.22v9.114H61.845l-.355-1.776h-.118a9.829,9.829,0,0,1-5.563,2.131C52.612,76.071,50.6,74.059,50.6,71.337Zm10.416-.355v-2.6c-4.616.237-5.918,1.3-5.918,2.6,0,1.065.829,1.539,2.131,1.539A6.662,6.662,0,0,0,61.016,70.982Z" transform="translate(-30.478 -51.569)"/><path class="b" d="M73.592,64.755H67.2V61.086H78.327V76.947H73.592Zm-.947-9a3.08,3.08,0,0,1,6.155,0,3.087,3.087,0,0,1-6.155,0Z" transform="translate(-27.429 -52.8)"/><path class="b" d="M99.518,59.855h3.788l.355,2.131h.118a7.854,7.854,0,0,1,5.445-2.486c3.551,0,5.208,2.486,5.208,6.392v9.824H109.7V66.484c0-2.131-.592-3.078-2.367-3.078a4.281,4.281,0,0,0-3.2,1.657V75.6H99.4V59.855Z" transform="translate(-21.514 -51.569)"/><path class="b" d="M115.4,71.318c0-3.551,2.959-5.327,10.416-5.8-.118-1.42-1.184-2.249-3.314-2.249a10.494,10.494,0,0,0-4.853,1.539l-1.657-3.078a14.765,14.765,0,0,1,7.457-2.131c4.5,0,7.1,2.367,7.1,7.22v9.114h-3.788l-.355-1.776h-.118a9.829,9.829,0,0,1-5.563,2.131C117.412,76.053,115.4,74.041,115.4,71.318Zm10.416-.355v-2.6c-4.616.237-5.918,1.3-5.918,2.6,0,1.065.829,1.539,2.131,1.539A6.662,6.662,0,0,0,125.816,70.963Z" transform="translate(-18.576 -51.551)"/><path class="b" d="M146.2,59.8h4.5l.947,7.339c.237,1.539.355,3.078.473,4.735h.118a30.4,30.4,0,0,1,.71-4.735l.947-5.208h3.433l1.065,5.208c.355,1.539.592,3.078.829,4.735h.118c.237-1.657.237-3.078.473-4.735l.829-7.339h4.38l-2.486,15.861h-5.563l-.829-5.208c-.237-1.42-.355-2.841-.592-4.735h-.118c-.118,1.3-.237,2.722-.592,4.735l-.829,5.208h-5.445Z" transform="translate(-12.919 -51.514)"/><path class="b" d="M163.8,67.786a8.082,8.082,0,0,1,8.286-8.286c4.853,0,7.457,3.314,7.457,7.575a9.659,9.659,0,0,1-.237,2.131H167.233v-3.2h8.878l-.71.947c0-2.486-1.065-3.906-3.2-3.906-2.367,0-3.906,1.539-3.906,4.735,0,3.314,1.775,4.735,4.853,4.735a8.192,8.192,0,0,0,4.024-1.065l1.539,2.841a11.815,11.815,0,0,1-6.273,1.894C167.588,76.071,163.8,73.112,163.8,67.786Z" transform="translate(-9.686 -51.569)"/><path class="b" d="M184.643,75.014h-.118l-.355,1.776H180.5V54.3h4.735v5.445l-.118,2.486h.118a6.279,6.279,0,0,1,4.38-1.776c3.906,0,6.392,3.2,6.392,8.049,0,5.445-3.314,8.641-6.865,8.641A6.983,6.983,0,0,1,184.643,75.014Zm6.392-6.392c0-2.841-.947-4.261-2.959-4.261a4.568,4.568,0,0,0-2.959,1.42v6.392a3.816,3.816,0,0,0,2.722,1.065C189.614,73.239,191.035,71.818,191.035,68.622Z" transform="translate(-6.619 -52.524)"/></g><g transform="translate(1.7 1.7)"><rect class="c" width="165.241" height="55.041"/><g transform="translate(17.518 11.482)"><path class="d" d="M16.5,27.886A8.082,8.082,0,0,1,24.786,19.6c4.853,0,7.457,3.314,7.457,7.575a9.658,9.658,0,0,1-.237,2.131H20.051v-3.2h8.878l-.71.947c0-2.486-1.065-3.906-3.2-3.906-2.367,0-3.906,1.539-3.906,4.735,0,3.314,1.776,4.735,4.853,4.735a8.192,8.192,0,0,0,4.024-1.065L31.533,34.4a11.815,11.815,0,0,1-6.273,1.894C20.406,36.29,16.5,33.212,16.5,27.886Z" transform="translate(-16.5 -9.894)"/><path class="d" d="M32.7,33.8l2.012-2.959A12.219,12.219,0,0,0,41.1,32.739c1.776,0,2.486-.592,2.486-1.3,0-.829-.71-1.184-3.906-1.894-4.261-.947-6.037-2.486-6.037-4.971,0-2.959,2.722-4.971,7.339-4.971a12.757,12.757,0,0,1,6.865,2.131L45.72,24.571a10.612,10.612,0,0,0-5.208-1.539c-1.42,0-2.249.473-2.249,1.3s.947,1.065,3.669,1.657c4.853,1.065,6.273,2.486,6.273,5.09,0,2.841-2.722,5.09-7.812,5.09A13.774,13.774,0,0,1,32.7,33.8Z" transform="translate(-13.525 -9.894)"/><path class="d" d="M52.724,30V24.441H48.7V20.89l4.261-.237.592-4.853h3.906v4.971h6.629v3.669H57.459V30c0,2.367,1.065,3.314,3.314,3.314a7.917,7.917,0,0,0,3.078-.592l.829,3.433a15.99,15.99,0,0,1-5.208.829C54.618,36.988,52.724,34.147,52.724,30Z" transform="translate(-10.586 -10.592)"/><path class="d" d="M65.3,31.286V21.58h4.735v9.233c0,2.131.592,3.078,2.367,3.078,1.184,0,2.012-.473,3.078-1.776V21.58h4.735V37.441H76.427l-.355-2.249h-.118a6.672,6.672,0,0,1-5.327,2.6C66.839,37.8,65.3,35.31,65.3,31.286ZM70.271,17.2l4.853-5.8,3.2,3.078-5.8,4.971Z" transform="translate(-7.537 -11.4)"/><path class="d" d="M81.1,28.959c0-5.208,3.314-8.286,6.747-8.286a5.256,5.256,0,0,1,4.024,1.657h.118l-.237-2.486V14.4h4.735V36.771H92.7l-.355-1.539h-.118a6.552,6.552,0,0,1-4.38,2.012C83.7,37.245,81.1,34.049,81.1,28.959Zm10.653,2.959V25.527a3.563,3.563,0,0,0-2.6-1.065c-1.657,0-3.2,1.42-3.2,4.38,0,3.078,1.184,4.5,3.078,4.5A3.167,3.167,0,0,0,91.753,31.918Z" transform="translate(-4.635 -10.849)"/><path class="d" d="M104.592,24.973H98.2V21.3h11.127V37.165h-4.735Zm-1.065-9.114a3.08,3.08,0,0,1,6.155,0,3.087,3.087,0,0,1-6.155,0Z" transform="translate(-1.494 -11.124)"/><path class="d" d="M113.5,27.986a8.052,8.052,0,1,1,16.1,0,8.052,8.052,0,1,1-16.1,0Zm11.363,0c0-2.722-1.065-4.5-3.314-4.5-2.131,0-3.314,1.776-3.314,4.5s1.065,4.5,3.314,4.5S124.863,30.708,124.863,27.986Z" transform="translate(1.316 -9.876)"/></g></g></g></svg>