<svg xmlns="http://www.w3.org/2000/svg" width="72.835" height="81.569" viewBox="0 0 72.835 81.569"><defs><style>.a{fill:#faae31;}.b{fill:#f0682f;}.c{fill:#c85927;}.d{fill:#be8828;}.e{fill:#ebebeb;}.f,.h{fill:#2e388d;}.g{fill:#ccd0d2;}.h{opacity:0.15;isolation:isolate;}</style></defs><g transform="translate(-8.198 32.714) rotate(-31)"><path class="a" d="M15.054,2.587c2.978,2.978,3.772,7.743.993,10.721-2.978,2.978-11.913,6.155-14.891,3.375-2.978-2.978.4-11.913,3.375-14.891C7.509-.986,12.076-.391,15.054,2.587Z" transform="translate(3.962 41.622)"/><path class="b" d="M18.861,0c4.566,9.331-6.353,30.774-11.515,24.818C5.361,22.435,5.361,18.464,0,13.3c0,0,1.985.4,4.169-1.787C9.729,7.545,18.861,0,18.861,0Z" transform="translate(27.553 37.657)"/><path class="b" d="M27.751,1.092C17.824-3.474-5.405,7.445,1.147,12.409c2.78,1.985,6.949,1.985,12.508,7.346,0,0-.4-1.985,1.787-4.169C19.81,10.225,27.751,1.092,27.751,1.092Z" transform="translate(0 15.917)"/><path class="c" d="M13.1,0h-.4C10.523,2.78,5.162,9.331,1.787,13.5A5.393,5.393,0,0,0,0,17.075a13.909,13.909,0,0,1,1.985,1.588,6.543,6.543,0,0,1,1.787-3.177C7.942,10.126,15.486.794,15.685.794,14.692.6,13.9.2,13.1,0Z" transform="translate(10.28 15.818)"/><path class="c" d="M18.266,0c-1.39,1.191-9.53,7.942-14.494,11.714A5.2,5.2,0,0,1,0,13.5a14.485,14.485,0,0,1,1.787,1.985A6.21,6.21,0,0,0,5.758,13.7C9.927,10.523,16.28,5.162,19.06,2.978A13.062,13.062,0,0,0,18.266,0Z" transform="translate(28.347 37.856)"/><path class="d" d="M0,.025A12.862,12.862,0,0,0,3.574,5.981,12.862,12.862,0,0,0,9.53,9.555,8.952,8.952,0,0,0,6.949,2.408,9.9,9.9,0,0,0,0,.025Z" transform="translate(12.066 41.603)"/><path class="e" d="M51.23.331c1.588,1.39-.794,22.435-15.089,36.532a135.864,135.864,0,0,1-16.082,13.5c-3.971,1.787-6.552,2.78-14.1-4.964C-1.781,37.657-.391,35.672,1.4,31.9a113.169,113.169,0,0,1,13.7-16.082C29.39,1.523,49.641-1.058,51.23.331Z" transform="translate(11.862 0)"/><path class="f" d="M13.5,2.383a7.676,7.676,0,0,1,0,11.118,7.676,7.676,0,0,1-11.118,0,7.676,7.676,0,0,1,0-11.118A7.677,7.677,0,0,1,13.5,2.383Z" transform="translate(31.722 15.818)"/><path class="g" d="M6.75,1.191a3.838,3.838,0,0,1,0,5.559,3.837,3.837,0,0,1-5.559,0,3.838,3.838,0,0,1,0-5.559A3.838,3.838,0,0,1,6.75,1.191Z" transform="translate(35.693 19.788)"/><path class="h" d="M10.926,28.628c5.162,8.537,39.708-18.464,25.215-4.169a135.864,135.864,0,0,1-16.082,13.5c-3.971,1.787-6.552,2.78-14.1-4.964-7.743-7.743-6.353-9.729-4.566-13.5a113.169,113.169,0,0,1,13.7-16.082C29.191-10.882,1.991,24.061,10.926,28.628Z" transform="translate(12.061 12.405)"/></g></svg>