<svg xmlns="http://www.w3.org/2000/svg" width="1193.267" height="535" viewBox="0 0 1193.267 535"><defs><style>.a,.b,.d{fill:#00145d;}.a,.b{font-size:17px;}.a,.c,.g{font-family:Usual-Regular, Usual;}.b{font-family:LucidaGrande, Lucida Grande;}.e,.g{fill:#fde7a9;}.f,.i{fill:#fff;font-family:Usual-ExtraBold, Usual;font-weight:800;}.f{font-size:25px;}.g{font-size:20px;}.h{font-family:Usual-Italic, Usual;font-style:italic;}.i{font-size:26px;}.j,.k{fill:none;stroke:#00145d;stroke-linecap:round;stroke-width:2px;}.k{stroke-linejoin:round;}</style></defs><g transform="translate(-637.995 -1489)"><text class="a" transform="translate(1239 1529)"><tspan x="-102.442" y="0">Ensino por competências</tspan></text><text class="b" transform="translate(1108 1952)"><tspan x="0" y="17">●</tspan><tspan class="c" y="17" xml:space="preserve"> Desafios práticos constante</tspan><tspan x="0" y="46">●</tspan><tspan class="c" y="46" xml:space="preserve"> Habilidades socioemocionais</tspan></text><g transform="translate(65)"><circle class="d" cx="153.5" cy="153.5" r="153.5" transform="translate(1020 1585.18)"/><g transform="translate(9439.894 6446.229)"><path class="e" d="M109.664,2H11.788A9.8,9.8,0,0,0,2,11.788V86.174a9.8,9.8,0,0,0,9.788,9.788H48.431l-2.936,11.745H43.108a9.8,9.8,0,0,0-9.788,9.788,1.957,1.957,0,0,0,1.958,1.958h50.9a1.957,1.957,0,0,0,1.958-1.958,9.8,9.8,0,0,0-9.788-9.788H75.957L73.021,95.961h36.643a9.8,9.8,0,0,0,9.788-9.788V11.788A9.8,9.8,0,0,0,109.664,2ZM11.788,5.915h97.876a5.88,5.88,0,0,1,5.873,5.873V78.343H5.915V11.788A5.88,5.88,0,0,1,11.788,5.915ZM83.881,115.536H37.57a5.884,5.884,0,0,1,5.538-3.915H78.343A5.884,5.884,0,0,1,83.881,115.536Zm-11.96-7.83H49.531l2.936-11.745H68.985Zm37.743-15.66H11.788a5.88,5.88,0,0,1-5.873-5.873V82.259H115.536v3.915A5.88,5.88,0,0,1,109.664,92.046Z" transform="translate(-8327.369 -4806)"/><path class="e" d="M11.958,70.6h7.83a1.957,1.957,0,0,0,1.958-1.958V56.9a1.96,1.96,0,0,0-1.083-1.752L17.83,53.729V22.922l7.83,2.349V43.194a1.957,1.957,0,0,0,1.382,1.871L52.49,52.9a1.966,1.966,0,0,0,1.151,0l25.448-7.83a1.957,1.957,0,0,0,1.382-1.871V25.271l12.307-3.692a1.958,1.958,0,0,0,0-3.751L53.627,6.083a1.928,1.928,0,0,0-1.124,0L13.353,17.828a1.958,1.958,0,0,0,0,3.751l.562.168V53.729l-2.833,1.417A1.955,1.955,0,0,0,10,56.9V68.642A1.957,1.957,0,0,0,11.958,70.6Zm64.6-28.85-23.49,7.227-23.49-7.227v-15.3L52.5,33.324a1.961,1.961,0,0,0,1.124,0l22.928-6.879ZM53.066,10,85.4,19.7,53.066,29.4,20.727,19.7Zm-39.151,48.1,1.958-.979,1.958.979v8.578H13.915Z" transform="translate(-8319.709 -4802.171)"/><rect class="e" width="3.543" height="4.133" transform="translate(-8219.461 -4735.508)"/><rect class="e" width="4.133" height="4.133" transform="translate(-8227.728 -4735.508)"/><rect class="e" width="4.133" height="4.133" transform="translate(-8235.402 -4735.508)"/></g><text class="f" transform="translate(1094 1779)"><tspan x="19.813" y="25">Escola de </tspan><tspan x="11.45" y="54">Tecnologia</tspan></text><text class="g" transform="translate(1121 1849)"><tspan x="9.36" y="20">Bolsistas</tspan></text></g><text class="a" transform="translate(1530 1501)"><tspan x="-94.664" y="17">Clientes têm prioridade </tspan><tspan x="-60.325" y="40">na contratação</tspan></text><text class="b" transform="translate(1507 1939)"><tspan x="0" y="17">●</tspan><tspan class="c" y="17" xml:space="preserve"> Maior diversidade, inclusão </tspan><tspan class="c" x="0" y="40">e alinhamento cultural </tspan><tspan x="0" y="72">●</tspan><tspan class="c" y="72" xml:space="preserve"> Menor </tspan><tspan class="h" y="72">turnover</tspan></text><circle class="d" cx="153.5" cy="153.5" r="153.5" transform="translate(1472 1585.101)"/><g transform="translate(10134.714 7088.18)"><path class="e" d="M66.31,91.965l11.966-9.987a11.692,11.692,0,0,1,11.431-2l12.572,4.563a5.312,5.312,0,0,0,1.909.326h23.56V81.14H116.573V21.587A5.6,5.6,0,0,0,110.986,16H32.762a5.6,5.6,0,0,0-5.587,5.587V81.163H16v3.725l29.194.023h0a5.736,5.736,0,0,0,1.769-.279l15.621-5.215a1.692,1.692,0,0,1,.582-.093h12.5l-11.757,9.8a7.109,7.109,0,0,0,9.08,10.942l.023-.023L79.207,94.9,95.69,111.382a2.091,2.091,0,1,1-2.957,2.957l-1.862-1.862L78.765,100.37,76.134,103,88.24,115.106a2.091,2.091,0,1,1-2.957,2.957L83.421,116.2,75.04,107.82l-2.631,2.631,8.381,8.381a2.091,2.091,0,0,1-2.957,2.957h0l-3.725-3.725-2.049-2.049a5.812,5.812,0,0,0-5.564-5.238,5.8,5.8,0,0,0-5.587-5.587A5.78,5.78,0,0,0,53.2,99.927a5.836,5.836,0,0,0-9.662-2.351L39.816,101.3a5.779,5.779,0,0,0-1.7,4.1L16,105.375V109.1H27.175v13.061a5.6,5.6,0,0,0,5.587,5.587H51.387v-3.725H32.762a1.868,1.868,0,0,1-1.862-1.862V109.123h8.567c.116.14.233.256.349.4a5.689,5.689,0,0,0,3.888,1.7,5.8,5.8,0,0,0,5.587,5.587A5.78,5.78,0,0,0,57,122.067a5.819,5.819,0,0,0,7.31,3.771,4.956,4.956,0,0,0,.815-.326l.768.768a5.812,5.812,0,0,0,9.429-1.769,5.812,5.812,0,0,0,8.218-.21,5.889,5.889,0,0,0,1.327-2.235,5.826,5.826,0,0,0,7.4-3.562,1.481,1.481,0,0,0,.047-.163,5.825,5.825,0,0,0,7.427-7.357h3.4a9.394,9.394,0,0,0,5.192-1.583l2.77-1.862a1.859,1.859,0,0,1,1.048-.326h.722v14.946a1.868,1.868,0,0,1-1.862,1.862H92.384v3.725h18.625a5.6,5.6,0,0,0,5.587-5.587V107.238h11.175v-3.725H112.15a5.535,5.535,0,0,0-3.12.955l-2.77,1.862a5.535,5.535,0,0,1-3.12.955H96.878l-9.592-9.592a13.522,13.522,0,0,0,8.893-2.98l1.094-.861-2.328-2.91-1.094.861a9.909,9.909,0,0,1-13.2-.722L79.44,89.87,70.64,97.2a3.4,3.4,0,0,1-4.33-5.238ZM63.167,75.6a5.736,5.736,0,0,0-1.769.279L45.776,81.093a1.692,1.692,0,0,1-.582.093H30.9v-59.6a1.868,1.868,0,0,1,1.862-1.862h78.224a1.868,1.868,0,0,1,1.862,1.862v59.6h-8.66a1.882,1.882,0,0,1-.629-.116L90.988,76.507a15.362,15.362,0,0,0-6.076-.885H63.167Zm-19.23,31.895a2.087,2.087,0,0,1-2.1-2.1,2,2,0,0,1,.605-1.467l3.725-3.725a2.091,2.091,0,0,1,2.957,2.957L45.4,106.888A2.1,2.1,0,0,1,43.937,107.494Zm5.587,5.587a2.087,2.087,0,0,1-2.1-2.1,2,2,0,0,1,.605-1.467l3.725-3.725,1.862-1.862a2.091,2.091,0,0,1,2.957,2.957h0l-5.587,5.587A2.1,2.1,0,0,1,49.524,113.081Zm7.054,4.959a2.091,2.091,0,0,1-2.957-2.957l5.587-5.587a2.091,2.091,0,0,1,2.957,2.957h0l-3.725,3.725Zm7.45,3.725a2.091,2.091,0,1,1-2.957-2.957h0l3.725-3.725a2.091,2.091,0,0,1,2.957,2.957h0Zm7.45,1.862a2.094,2.094,0,0,1-2.957,0h0l-.535-.535,2.4-2.4a6.106,6.106,0,0,0,.512-.582l.582.582A2.066,2.066,0,0,1,71.478,123.627Z" transform="translate(-8581.1 -5468)"/><rect class="e" width="22.35" height="3.725" transform="translate(-8544.612 -5407.3)"/><rect class="e" width="9.312" height="3.725" transform="translate(-8539.025 -5399.851)"/><rect class="e" width="22.35" height="3.725" transform="translate(-8496.188 -5407.3)"/><rect class="e" width="9.312" height="3.725" transform="translate(-8490.602 -5399.851)"/><rect class="e" width="26.075" height="3.725" transform="translate(-8522.263 -5442.687)"/><rect class="e" width="70.774" height="3.725" transform="translate(-8544.612 -5433.375)"/><rect class="e" width="70.774" height="3.725" transform="translate(-8544.612 -5425.925)"/><rect class="e" width="39.112" height="3.725" transform="translate(-8544.612 -5418.475)"/></g><text class="f" transform="translate(1490 1788.101)"><tspan x="-77.787" y="25">Contratação </tspan><tspan x="-67.35" y="56">inteligente</tspan></text><g transform="translate(129)"><circle class="d" cx="153.5" cy="153.5" r="153.5" transform="translate(568 1585.18)"/><g transform="translate(9177.476 5567.18)"><path class="e" d="M84.924,9.558q.406.159.81.324A1.8,1.8,0,0,0,87.1,6.541q-.431-.176-.866-.345a1.8,1.8,0,0,0-1.309,3.363Z" transform="translate(-8521.181 -3923.593)"/><path class="e" d="M116.365,88.916c.28,1.02.535,2.082.752,3.2l.329.329c.02,0,.041.007.061.007a1.8,1.8,0,0,0,1.614-1q.208-.415.41-.832a1.8,1.8,0,0,0-3.167-1.706Z" transform="translate(-8524.364 -3931.597)"/><path class="e" d="M76.6,7.021q.426.1.849.2A1.805,1.805,0,1,0,78.3,3.711Q77.85,3.6,77.4,3.5A1.8,1.8,0,1,0,76.6,7.021Z" transform="translate(-8520.343 -3923.337)"/><path class="e" d="M68,5.758q.433.03.864.069c.054,0,.108.007.162.007a1.8,1.8,0,0,0,.157-3.6q-.464-.041-.929-.074A1.8,1.8,0,1,0,68,5.758Z" transform="translate(-8519.478 -3923.21)"/><path class="e" d="M5.894,47.856a1.778,1.778,0,0,0,.528.08,1.806,1.806,0,0,0,1.725-1.278q.128-.416.262-.83a1.8,1.8,0,1,0-3.431-1.119q-.145.445-.282.894a1.8,1.8,0,0,0,1.2,2.253Z" transform="translate(-8513.451 -3927.244)"/><path class="e" d="M2.809,53.691q-.075.457-.143.916a1.805,1.805,0,0,0,1.52,2.051,1.832,1.832,0,0,0,.267.019,1.8,1.8,0,0,0,1.783-1.539q.064-.432.134-.861a1.8,1.8,0,0,0-3.562-.585Z" transform="translate(-8513.259 -3928.095)"/><path class="e" d="M2.006,62.884c0,.278-.006.555-.006.859v.067a1.8,1.8,0,0,0,3.609,0v-.093q0-.391.006-.781a1.8,1.8,0,0,0-3.609-.053Z" transform="translate(-8513.195 -3928.967)"/><path class="e" d="M122.82,45.395a1.8,1.8,0,1,0-3.446,1.072q.129.416.252.835a1.8,1.8,0,0,0,1.73,1.3,1.833,1.833,0,0,0,.511-.074,1.806,1.806,0,0,0,1.221-2.242Q122.958,45.839,122.82,45.395Z" transform="translate(-8524.649 -3927.309)"/><path class="e" d="M119.587,36.816a1.8,1.8,0,0,0-1.345-.992l-.525,4.221c0,.013-.005.027-.007.041a1.79,1.79,0,0,0,2.275-2.431Q119.79,37.232,119.587,36.816Z" transform="translate(-8524.495 -3926.498)"/><path class="e" d="M121.329,54.937q.066.43.124.861a1.805,1.805,0,0,0,1.786,1.561,1.781,1.781,0,0,0,.245-.017,1.8,1.8,0,0,0,1.545-2.031q-.063-.463-.133-.921a1.8,1.8,0,0,0-3.568.546Z" transform="translate(-8524.847 -3928.162)"/><path class="e" d="M125.6,64.713q.008-.464.008-.929V63.6a1.8,1.8,0,1,0-3.609,0v.185q0,.436-.007.871a1.8,1.8,0,0,0,1.775,1.834h.03A1.8,1.8,0,0,0,125.6,64.713Z" transform="translate(-8524.913 -3929.035)"/><path class="e" d="M124.768,73.927q.075-.457.145-.916a1.8,1.8,0,1,0-3.57-.536q-.065.432-.136.861a1.8,1.8,0,0,0,3.561.59Z" transform="translate(-8524.834 -3929.927)"/><path class="e" d="M120.855,84.151a1.806,1.806,0,0,0,1.715-1.246q.145-.444.282-.891a1.8,1.8,0,1,0-3.45-1.061q-.128.418-.264.833a1.807,1.807,0,0,0,1.716,2.365Z" transform="translate(-8524.626 -3930.781)"/><path class="e" d="M59.411,121.836q-.438-.033-.875-.071a1.805,1.805,0,1,0-.308,3.6c.306.026.612.051.919.073.045,0,.089.005.134.005a1.8,1.8,0,0,0,.13-3.6Z" transform="translate(-8518.525 -3934.89)"/><path class="e" d="M42.5,117.978q-.406-.16-.81-.326a1.8,1.8,0,0,0-1.375,3.338q.43.177.865.347a1.8,1.8,0,1,0,1.32-3.359Z" transform="translate(-8516.828 -3934.476)"/><path class="e" d="M50.812,120.543q-.423-.1-.843-.2a1.8,1.8,0,1,0-.86,3.505q.453.111.909.214a1.8,1.8,0,0,0,.794-3.521Z" transform="translate(-8517.661 -3934.747)"/><path class="e" d="M2.683,73.019a1.8,1.8,0,1,0,3.569-.541q-.065-.43-.123-.861a1.8,1.8,0,0,0-3.577.481Q2.614,72.561,2.683,73.019Z" transform="translate(-8513.248 -3929.841)"/><path class="e" d="M68.109,121.836q-.435.032-.871.058a1.8,1.8,0,0,0,.1,3.606c.036,0,.071,0,.107,0,.309-.018.617-.039.925-.062a1.8,1.8,0,0,0-.265-3.6Z" transform="translate(-8519.4 -3934.897)"/><path class="e" d="M76.7,120.545q-.422.1-.847.186a1.8,1.8,0,0,0,.743,3.532q.456-.1.91-.2a1.8,1.8,0,1,0-.806-3.518Z" transform="translate(-8520.268 -3934.767)"/><path class="e" d="M85.013,117.979q-.4.159-.807.31a1.8,1.8,0,1,0,1.26,3.382q.439-.163.873-.335a1.8,1.8,0,1,0-1.326-3.357Z" transform="translate(-8521.108 -3934.509)"/><path class="e" d="M8.1,90.616a1.786,1.786,0,0,0,1.4.987l.514-4.132c0-.038.014-.076.019-.114a1.787,1.787,0,0,0-1.447.025,1.8,1.8,0,0,0-.88,2.4C7.836,90.06,7.969,90.338,8.1,90.616Z" transform="translate(-8513.736 -3931.517)"/><path class="e" d="M4.73,82.022a1.8,1.8,0,1,0,3.448-1.066c-.086-.278-.17-.557-.251-.835a1.8,1.8,0,1,0-3.464,1.015Q4.593,81.58,4.73,82.022Z" transform="translate(-8513.429 -3930.698)"/><path class="e" d="M41.749,9.759a1.8,1.8,0,0,0,.664-.128q.4-.159.806-.31a1.8,1.8,0,1,0-1.262-3.382q-.438.164-.872.337a1.805,1.805,0,0,0,.664,3.483Z" transform="translate(-8516.9 -3923.569)"/><path class="e" d="M11.269,38.624c-.281-1.022-.537-2.087-.754-3.206l-.236-.235a1.8,1.8,0,0,0-1.81.978q-.21.416-.411.837a1.8,1.8,0,1,0,3.211,1.626Z" transform="translate(-8513.768 -3926.435)"/><path class="e" d="M59.167,5.778c.046,0,.093,0,.14-.005q.435-.033.871-.06a1.8,1.8,0,0,0-.222-3.6c-.309.019-.617.04-.925.063a1.8,1.8,0,0,0,.136,3.6Z" transform="translate(-8518.602 -3923.206)"/><path class="e" d="M50.306,7.113a1.776,1.776,0,0,0,.4-.046q.425-.1.852-.188a1.8,1.8,0,1,0-.753-3.53q-.454.1-.905.2a1.8,1.8,0,0,0,.4,3.564Z" transform="translate(-8517.736 -3923.323)"/><path class="e" d="M55.427,79.672a6.134,6.134,0,0,0-3.162-1.4,6.817,6.817,0,0,0-2.659-4.406,7.492,7.492,0,0,0-5.021-1.21,6.834,6.834,0,0,0-3.7-3.082,7.663,7.663,0,0,0-4.4-.058,5.329,5.329,0,0,0-2.316-2.655,6.453,6.453,0,0,0-5.329-.089,1.8,1.8,0,0,0-.551.376s-4.478,4.482-4.491,4.494a6.808,6.808,0,0,0-2.223,4.329l-7.612,7.6a4.128,4.128,0,0,0-1.106,2.276l-.7,5.607a1.323,1.323,0,0,1-.079.189L.53,103.179a1.8,1.8,0,1,0,2.55,2.554L14.638,94.192a4.138,4.138,0,0,0,1.106-2.276l.7-5.61a1.222,1.222,0,0,1,.079-.187l6.646-6.635a6.691,6.691,0,0,0,4.288,2.347,5.26,5.26,0,0,0,2.083,3.4q.039.03.079.058a6,6,0,0,0,3.33,1,6.5,6.5,0,0,0,5.319-2.969,1.8,1.8,0,1,0-2.916-2.127c-1.538,2.106-3.064,1.511-3.66,1.142a1.882,1.882,0,0,1-.563-2.228l1.367-1.46a1.8,1.8,0,1,0-2.635-2.467l-1.441,1.539-.066.074c-.379.454-.619.461-.7.451a3.36,3.36,0,0,1-1.847-1.214,1.808,1.808,0,0,0-.224-.234c-.406-.353-.408-.581-.41-.678a3.161,3.161,0,0,1,1.03-1.782c.077-.068,4.353-4.348,4.353-4.348a2.672,2.672,0,0,1,1.891.041,3.012,3.012,0,0,1,1.065,2.153,1.8,1.8,0,0,0,2.674,1.292,5.2,5.2,0,0,1,3.548-.48,3.847,3.847,0,0,1,2.186,2.367,1.8,1.8,0,0,0,2.147,1.025,4.754,4.754,0,0,1,3.438.416,4.15,4.15,0,0,1,1.357,3.312,1.82,1.82,0,0,0,2,1.694,3.2,3.2,0,0,1,2.192.59,2.561,2.561,0,0,1,.683,1.912c-.013.033-.022.057-.016.056l-4.469,4.461a46.039,46.039,0,0,0-2.533-5.244,4.753,4.753,0,0,0-5.991-1.922c-1.4.631-3.08,2.151-3.138,5.812-.013.851-.017,2.058.025,3.186a14.3,14.3,0,0,0-11.259,2.8,1.8,1.8,0,0,0,2.322,2.763,10.51,10.51,0,0,1,11.611-.741,1.8,1.8,0,1,0,1.779-3.141c-.253-.143-.5-.276-.755-.4a41.087,41.087,0,0,1-.115-4.405c.034-2.138.771-2.469,1.01-2.577a1.164,1.164,0,0,1,1.362.395c1.965,3.508,3.9,8.05,3.645,10.621-1.086,1.381-6.31,7.291-17.422,9.179a4.387,4.387,0,0,0-2.184,1.131L15.62,118.248a1.8,1.8,0,1,0,2.55,2.554l11.975-11.959a1.224,1.224,0,0,1,.252-.142c14.183-2.408,19.808-10.675,20.041-11.026a1.807,1.807,0,0,0,.266-.646,10.747,10.747,0,0,0-.215-4.342l5.785-5.775a3.828,3.828,0,0,0,1.074-2.555,6.028,6.028,0,0,0-1.921-4.686Z" transform="translate(-8513 -3929.468)"/><path class="e" d="M66.366,42.366a6.134,6.134,0,0,0,3.162,1.4,6.817,6.817,0,0,0,2.659,4.406,7.507,7.507,0,0,0,5.021,1.21,6.834,6.834,0,0,0,3.7,3.082,7.663,7.663,0,0,0,4.4.058,5.143,5.143,0,0,0,4.92,3.293,7.28,7.28,0,0,0,2.725-.549,1.8,1.8,0,0,0,.551-.376s4.477-4.482,4.491-4.494a6.809,6.809,0,0,0,2.223-4.329l7.612-7.6a4.128,4.128,0,0,0,1.106-2.276l.7-5.607a1.322,1.322,0,0,1,.079-.189l11.558-11.54a1.8,1.8,0,0,0-2.55-2.554L107.154,27.845a4.138,4.138,0,0,0-1.106,2.276l-.7,5.61a1.222,1.222,0,0,1-.079.187l-6.646,6.636a6.691,6.691,0,0,0-4.288-2.347,5.26,5.26,0,0,0-2.083-3.4q-.039-.03-.079-.058c-1.932-1.325-5.828-1.894-8.649,1.971a1.8,1.8,0,1,0,2.916,2.127c1.537-2.106,3.063-1.512,3.66-1.142a1.882,1.882,0,0,1,.563,2.228L89.3,43.4a1.8,1.8,0,1,0,2.635,2.467l1.441-1.539.066-.074c.38-.454.626-.446.7-.451a3.36,3.36,0,0,1,1.847,1.214,1.809,1.809,0,0,0,.224.234c.406.353.408.581.41.678a3.161,3.161,0,0,1-1.03,1.782c-.077.068-4.353,4.348-4.353,4.348a2.682,2.682,0,0,1-1.891-.041,3.012,3.012,0,0,1-1.065-2.153A1.8,1.8,0,0,0,85.6,48.568a5.182,5.182,0,0,1-3.548.48,3.848,3.848,0,0,1-2.186-2.367,1.805,1.805,0,0,0-2.147-1.025,4.763,4.763,0,0,1-3.438-.416,4.15,4.15,0,0,1-1.357-3.312,1.82,1.82,0,0,0-2-1.694,3.206,3.206,0,0,1-2.192-.59,2.561,2.561,0,0,1-.683-1.912c.012-.033.021-.057.016-.056l4.469-4.461a46.041,46.041,0,0,0,2.533,5.244,4.71,4.71,0,0,0,4.1,2.321,4.6,4.6,0,0,0,1.889-.4c1.4-.631,3.08-2.151,3.138-5.812.013-.851.017-2.057-.025-3.185a13.19,13.19,0,0,0,2.533.248,14.541,14.541,0,0,0,8.726-3.045,1.8,1.8,0,0,0-2.322-2.763,10.509,10.509,0,0,1-11.611.741,1.8,1.8,0,1,0-1.779,3.141c.253.143.5.271.754.4a40.991,40.991,0,0,1,.115,4.411c-.034,2.138-.771,2.469-1.01,2.577a1.163,1.163,0,0,1-1.362-.395c-1.965-3.508-3.9-8.05-3.645-10.621,1.086-1.381,6.31-7.291,17.422-9.179a4.387,4.387,0,0,0,2.184-1.131L106.172,3.79a1.8,1.8,0,1,0-2.55-2.554L91.647,13.195a1.224,1.224,0,0,1-.252.142C77.212,15.745,71.587,24.011,71.354,24.362a1.807,1.807,0,0,0-.266.646A10.747,10.747,0,0,0,71.3,29.35l-5.785,5.775a3.828,3.828,0,0,0-1.074,2.555A6.028,6.028,0,0,0,66.366,42.366Z" transform="translate(-8519.293 -3923.069)"/><path class="e" d="M13.03,30.108a1.2,1.2,0,0,1,.141.249c2.412,14.163,10.692,19.78,11.043,20.013a1.816,1.816,0,0,0,.644.264,7.676,7.676,0,0,0,1.5.137,13.259,13.259,0,0,0,2.851-.354l5.786,5.777a3.831,3.831,0,0,0,2.527,1.075h.03a6.035,6.035,0,0,0,4.7-1.924,6.119,6.119,0,0,0,1.4-3.151,6.825,6.825,0,0,0,4.419-2.664,7.476,7.476,0,0,0,1.207-5.006,6.824,6.824,0,0,0,3.089-3.7,7.637,7.637,0,0,0,.059-4.376,5.281,5.281,0,0,0,2.659-2.325,6.445,6.445,0,0,0,.086-5.322,1.8,1.8,0,0,0-.377-.551s-4.49-4.471-4.5-4.484a6.812,6.812,0,0,0-4.337-2.221l-7.609-7.6a4.131,4.131,0,0,0-2.278-1.1l-5.617-.7a1.289,1.289,0,0,1-.191-.08L18.694.528a1.8,1.8,0,1,0-2.55,2.554L27.7,14.622a4.136,4.136,0,0,0,2.278,1.1l5.619.7a1.275,1.275,0,0,1,.189.08l6.641,6.631a6.674,6.674,0,0,0-2.347,4.279,5.265,5.265,0,0,0-3.4,2.079q-.03.038-.058.079c-1.328,1.93-1.9,5.825,1.974,8.644A1.8,1.8,0,0,0,40.719,35.3c-2.108-1.534-1.513-3.053-1.144-3.648a1.9,1.9,0,0,1,2.238-.562l1.461,1.365a1.8,1.8,0,1,0,2.465-2.637L44.2,28.374l-.075-.067c-.453-.378-.452-.614-.451-.692a3.348,3.348,0,0,1,1.215-1.84,1.8,1.8,0,0,0,.233-.223c.355-.406.585-.409.683-.411h.009a3.194,3.194,0,0,1,1.778,1.03c.069.077,4.358,4.348,4.358,4.348a2.684,2.684,0,0,1-.038,1.867,3,3,0,0,1-2.164,1.076,1.812,1.812,0,0,0-1.3,2.667,5.093,5.093,0,0,1,.482,3.559,3.858,3.858,0,0,1-2.366,2.169,1.8,1.8,0,0,0-1.027,2.149,4.73,4.73,0,0,1-.413,3.423,4.158,4.158,0,0,1-3.322,1.36,1.82,1.82,0,0,0-1.694,2,3.2,3.2,0,0,1-.588,2.182,2.569,2.569,0,0,1-1.922.685c-.031-.011-.065-.027-.058-.017l-4.463-4.456a46.082,46.082,0,0,0,5.247-2.528,4.744,4.744,0,0,0,1.925-5.988c-.631-1.4-2.153-3.075-5.819-3.134-.853-.014-2.062-.018-3.192.025a14.256,14.256,0,0,0-2.8-11.242,1.8,1.8,0,0,0-2.76,2.326,10.464,10.464,0,0,1,.742,11.585,1.8,1.8,0,1,0,3.138,1.784c.144-.253.277-.5.4-.754a40.665,40.665,0,0,1,4.415-.114c2.144.033,2.477.768,2.585,1.007a1.158,1.158,0,0,1-.4,1.354C33.05,45.469,28.5,47.4,25.921,47.146c-1.381-1.083-7.3-6.3-9.192-17.4a4.385,4.385,0,0,0-1.135-2.181L3.6,15.6a1.8,1.8,0,1,0-2.55,2.554Z" transform="translate(-8513.051 -3923)"/><path class="e" d="M109,91.694a1.2,1.2,0,0,1-.141-.249c-2.412-14.163-10.692-19.78-11.043-20.013a1.815,1.815,0,0,0-.644-.264,10.775,10.775,0,0,0-4.35.214l-5.782-5.773a3.831,3.831,0,0,0-2.527-1.075h-.03a6.035,6.035,0,0,0-4.7,1.924,6.119,6.119,0,0,0-1.4,3.151,6.825,6.825,0,0,0-4.419,2.664,7.476,7.476,0,0,0-1.207,5.006,6.824,6.824,0,0,0-3.089,3.7,7.637,7.637,0,0,0-.059,4.376,5.281,5.281,0,0,0-2.659,2.325A6.445,6.445,0,0,0,66.867,93a1.8,1.8,0,0,0,.377.551s4.49,4.471,4.5,4.484a6.813,6.813,0,0,0,4.337,2.221l7.609,7.6a4.131,4.131,0,0,0,2.278,1.1l5.617.7a1.29,1.29,0,0,1,.191.08l11.557,11.54a1.8,1.8,0,0,0,2.55-2.554L94.328,107.18a4.136,4.136,0,0,0-2.278-1.1l-5.619-.7a1.275,1.275,0,0,1-.189-.08L79.6,98.668a6.672,6.672,0,0,0,2.347-4.282,5.261,5.261,0,0,0,3.4-2.077q.03-.038.058-.079c1.328-1.93,1.9-5.825-1.974-8.644a1.8,1.8,0,0,0-2.124,2.919c2.108,1.534,1.513,3.053,1.144,3.648a1.9,1.9,0,0,1-2.239.562l-1.46-1.365a1.8,1.8,0,0,0-2.465,2.637s1.59,1.485,1.616,1.507c.453.378.452.614.451.692a3.348,3.348,0,0,1-1.215,1.84,1.8,1.8,0,0,0-.233.223c-.355.406-.585.409-.683.411a3.1,3.1,0,0,1-1.788-1.03L70.08,91.281a2.684,2.684,0,0,1,.038-1.867,3,3,0,0,1,2.164-1.076,1.812,1.812,0,0,0,1.3-2.667,5.093,5.093,0,0,1-.482-3.559,3.858,3.858,0,0,1,2.366-2.169,1.8,1.8,0,0,0,1.027-2.149A4.73,4.73,0,0,1,76.9,74.37a4.158,4.158,0,0,1,3.322-1.36,1.82,1.82,0,0,0,1.694-2,3.2,3.2,0,0,1,.588-2.182,2.569,2.569,0,0,1,1.922-.685c.031.011.063.024.058.017l4.462,4.455A46.229,46.229,0,0,0,83.7,75.145a4.744,4.744,0,0,0-1.925,5.988c.631,1.4,2.153,3.075,5.819,3.134.852.012,2.062.016,3.192-.026a14.256,14.256,0,0,0,2.8,11.244,1.8,1.8,0,1,0,2.76-2.326,10.464,10.464,0,0,1-.742-11.585,1.8,1.8,0,0,0-3.138-1.784c-.144.253-.277.5-.4.754a40.429,40.429,0,0,1-4.415.114c-2.144-.033-2.477-.768-2.585-1.007a1.158,1.158,0,0,1,.4-1.354c3.513-1.962,8.07-3.883,10.643-3.639,1.381,1.083,7.3,6.3,9.192,17.4a4.385,4.385,0,0,0,1.135,2.181l11.991,11.973a1.8,1.8,0,0,0,2.55-2.554Z" transform="translate(-8519.478 -3929.302)"/></g><text class="i" transform="translate(721.5 1805)"><tspan x="-52.442" y="0">Squads </tspan><tspan x="-37.336" y="33">Ágeis</tspan></text><text class="g" transform="translate(669 1849)"><tspan x="12.07" y="20">Trainees</tspan></text></g><text class="a" transform="translate(712 1489)"><tspan x="-119.068" y="17">Squads estendidos entregam </tspan><tspan x="-100.674" y="40">soluções de média/baixa </tspan><tspan x="-136.578" y="63">complexidade e alto nível de valor</tspan></text><text class="a" transform="translate(722 1930)"><tspan x="8.863" y="17">100% da receita é reinvestida </tspan><tspan x="12.279" y="40">na para formar mais pessoas </tspan><tspan x="28.744" y="63">em territórios de conflito </tspan><tspan x="7.91" y="86">armado e exclusão de direitos</tspan></text><g transform="translate(2063.041 2998.758) rotate(180)"><path class="j" d="M-1.291,0H65.175" transform="translate(986.965 1476.777)"/><g transform="translate(1053.344 1486.714) rotate(-160)"><g transform="translate(-0.015 -0.041)"><path class="k" d="M0,0,7.514,7.515,15.03,0" transform="matrix(0.326, 0.946, -0.946, 0.326, 7.106, 0)"/></g></g></g><g transform="translate(2459.674 2998.758) rotate(180)"><path class="j" d="M-1.291,0H65.175" transform="translate(986.965 1476.777)"/><g transform="translate(1053.344 1486.714) rotate(-160)"><g transform="translate(-0.015 -0.041)"><path class="k" d="M0,0,7.514,7.515,15.03,0" transform="matrix(0.326, 0.946, -0.946, 0.326, 7.106, 0)"/></g></g></g><g transform="translate(9441 6252.443)"><g transform="translate(0 -8.24)"><g transform="translate(-9316 -6250.467)"><g transform="translate(2198.128 368.74) rotate(90)"><g transform="matrix(-0.921, 0.391, -0.391, -0.921, 1522.302, 1621.17)"><g transform="translate(-0.015 -0.041)"><path class="k" d="M0,0,7.514,7.515,15.03,0" transform="matrix(0.326, 0.946, -0.946, 0.326, 7.106, 0)"/></g></g></g></g><path class="k" d="M611.166,925.912a180.644,180.644,0,0,1,.391-286.571" transform="translate(-9342.729 -5292.545)"/></g><g transform="translate(-7689.005 -4661.445)"><g transform="translate(0 0.001)"><g transform="translate(0 17.554) rotate(-90)"><g transform="matrix(-0.921, 0.391, -0.391, -0.921, 17.554, 15.334)"><g transform="translate(0 0)"><path class="k" d="M0,0,7.515,7.515,15.03,0" transform="translate(7.106 0) rotate(71)"/></g></g></g></g><path class="k" d="M541.115,639.341a180.643,180.643,0,0,1-.391,286.571" transform="translate(-533.291 -632.102)"/></g></g><g transform="translate(414.959 500)"><path class="j" d="M-1.291,0H65.175" transform="translate(986.965 1476.777)"/><g transform="translate(1053.344 1486.714) rotate(-160)"><g transform="translate(-0.015 -0.041)"><path class="k" d="M0,0,7.514,7.515,15.03,0" transform="matrix(0.326, 0.946, -0.946, 0.326, 7.106, 0)"/></g></g></g><g transform="translate(18.326 500)"><path class="j" d="M-1.291,0H65.175" transform="translate(986.965 1476.777)"/><g transform="translate(1053.344 1486.714) rotate(-160)"><g transform="translate(-0.015 -0.041)"><path class="k" d="M0,0,7.514,7.515,15.03,0" transform="matrix(0.326, 0.946, -0.946, 0.326, 7.106, 0)"/></g></g></g></g></svg>