<svg xmlns="http://www.w3.org/2000/svg" width="125" height="125" viewBox="0 0 125 125"><defs><style>.a{fill:#fde7a9;stroke:#ffac2d;stroke-width:6px;stroke-dasharray:2 5;}.b{fill:#0f2b92;}.c{stroke:none;}.d{fill:none;}</style></defs><g transform="translate(0 0.111)"><g class="a" transform="translate(0 -0.111)"><circle class="c" cx="62.5" cy="62.5" r="62.5"/><circle class="d" cx="62.5" cy="62.5" r="59.5"/></g><g transform="translate(33.184 38.656)"><path class="b" d="M35.307,61.353a.885.885,0,0,0,0-1.77A.885.885,0,0,0,35.307,61.353Z" transform="translate(-30.36 -56.21)"/><path class="b" d="M62.14,61.353a.885.885,0,0,0,0-1.77A.885.885,0,0,0,62.14,61.353Z" transform="translate(-54.027 -56.21)"/><path class="b" d="M88.974,61.353a.885.885,0,1,0,0-1.77A.885.885,0,1,0,88.974,61.353Z" transform="translate(-77.695 -56.21)"/><path class="b" d="M59.527,31H48.49a.885.885,0,0,0,0,1.77H58.642v4.975H1.77V32.77h42a.885.885,0,0,0,0-1.77H.885A.885.885,0,0,0,0,31.885V83.212a.885.885,0,0,0,.885.885H59.527a.885.885,0,0,0,.885-.885V31.885A.885.885,0,0,0,59.527,31Zm-.885,8.515V63.062H53.8V49.879a.885.885,0,0,0-.885-.885H32.624a.885.885,0,0,0-.885.885V63.062H28.673V54.8a.885.885,0,0,0-.885-.885H7.5a.885.885,0,0,0-.885.885v8.258H1.77V39.515ZM33.509,50.764h18.52V71.5H33.509ZM1.77,82.327v-17.5H6.613V77.389a.885.885,0,0,0,.885.885h8.08a.885.885,0,0,0,0-1.77H8.383V55.688H26.9V76.5H20.275a.885.885,0,0,0,0,1.77h7.513a.885.885,0,0,0,.885-.885V64.832h3.066v7.556a.885.885,0,0,0,.885.885h20.29a.885.885,0,0,0,.885-.885V64.832h4.843v17.5Z" transform="translate(0 -31)"/><path class="b" d="M57.131,150.27h20.29a.885.885,0,0,0,0-1.77H57.131A.885.885,0,0,0,57.131,150.27Z" transform="translate(-49.633 -134.636)"/><path class="b" d="M57.131,185.27h14.12a.885.885,0,0,0,0-1.77H57.131A.885.885,0,0,0,57.131,185.27Z" transform="translate(-49.633 -165.506)"/><path class="b" d="M351.674,416.648H339.585a.885.885,0,0,0,0,1.77h12.089A.885.885,0,0,0,351.674,416.648Z" transform="translate(-298.76 -371.144)"/><path class="b" d="M408.706,150.27h3.933a.885.885,0,0,0,0-1.77h-3.933A.885.885,0,0,0,408.706,150.27Z" transform="translate(-359.724 -134.636)"/><path class="b" d="M301.809,222.27a7.66,7.66,0,1,0,10.269,3.448,7.669,7.669,0,0,0-10.269-3.448Zm6.033,12.133a5.968,5.968,0,0,1-7.9-2.652,5.89,5.89,0,1,1,7.9,2.652Z" transform="translate(-262.45 -198.996)"/><path class="b" d="M331.943,261.5a.885.885,0,0,0,0,1.77A.885.885,0,0,0,331.943,261.5Z" transform="translate(-292.022 -234.303)"/><path class="b" d="M385.943,286.167a.885.885,0,0,0,0,1.77A.885.885,0,0,0,385.943,286.167Z" transform="translate(-339.65 -256.059)"/><path class="b" d="M359.943,307.5a.885.885,0,0,0,0,1.77A.885.885,0,0,0,359.943,307.5Z" transform="translate(-316.718 -274.875)"/><path class="b" d="M94.259,288.754a5.592,5.592,0,0,0-.093-1.016l2.193-.874a.885.885,0,0,0-.655-1.644l-2.134.85a5.588,5.588,0,0,0-10.3,4.1l-2.124.846a.886.886,0,0,0,.655,1.644l2.187-.871A5.593,5.593,0,0,0,94.259,288.754Zm-9.4,0a3.82,3.82,0,0,1,7.048-2.022l-6.973,2.778A3.822,3.822,0,0,1,84.86,288.754Zm3.815,3.815a3.809,3.809,0,0,1-2.992-1.451l6.791-2.706A3.861,3.861,0,0,1,88.674,292.568Z" transform="translate(-71.111 -253.422)"/></g></g></svg>