<svg xmlns="http://www.w3.org/2000/svg" width="29.686" height="28.185" viewBox="0 0 29.686 28.185"><defs><style>.a{fill:#0f2b92;}</style></defs><path class="a" d="M29.9,17.622l-.937-.181a6.817,6.817,0,0,0-.567-1.366l.535-.785a.482.482,0,0,0-.057-.612l-1.79-1.79a.482.482,0,0,0-.611-.058l-.788.534a6.932,6.932,0,0,0-1.366-.567l-.18-.934a.482.482,0,0,0-.473-.39H22.88V3.865a2.491,2.491,0,0,0-2.489-2.488H7.968A2.492,2.492,0,0,0,5.48,3.865V6.96l-.114.595a5.421,5.421,0,0,0-1,.416L3.79,7.578a.482.482,0,0,0-.612.058L1.756,9.061a.482.482,0,0,0-.059.61l.39.578a5.641,5.641,0,0,0-.414,1l-.688.132a.482.482,0,0,0-.385.473v2.012a.482.482,0,0,0,.385.473l.684.131a5.542,5.542,0,0,0,.418,1l-.385.578a.482.482,0,0,0,.059.61L3.184,18.08a.482.482,0,0,0,.611.059l.578-.391a5.43,5.43,0,0,0,1,.416l.114.595v8.315a2.492,2.492,0,0,0,2.488,2.488H20.388a2.483,2.483,0,0,0,2.471-2.313h.8a.481.481,0,0,0,.473-.391l.18-.933a6.8,6.8,0,0,0,1.366-.567l.787.534a.482.482,0,0,0,.611-.059l1.79-1.789a.482.482,0,0,0,.057-.612l-.535-.786a6.81,6.81,0,0,0,.567-1.367l.94-.182a.482.482,0,0,0,.39-.473V18.1A.481.481,0,0,0,29.9,17.622ZM22.88,16.75a2.653,2.653,0,0,1,0,5.219ZM4.6,16.768a.482.482,0,0,0-.52.012l-.5.336-.862-.86.335-.5a.483.483,0,0,0,.013-.519,4.583,4.583,0,0,1-.54-1.3.48.48,0,0,0-.377-.361l-.589-.113V12.249l.59-.114a.482.482,0,0,0,.376-.361,4.571,4.571,0,0,1,.54-1.3.483.483,0,0,0-.013-.519L2.72,9.461,3.58,8.6l.5.336a.482.482,0,0,0,.521.013A4.53,4.53,0,0,1,5.9,8.41a.482.482,0,0,0,.361-.378l.113-.588H7.586l.114.588a.482.482,0,0,0,.361.378,4.459,4.459,0,0,1,1.3.539.484.484,0,0,0,.522-.013l.5-.336.862.861-.337.494a.482.482,0,0,0-.013.52,4.541,4.541,0,0,1,.539,1.3.482.482,0,0,0,.378.361l.59.114v1.217l-.59.113a.482.482,0,0,0-.378.361,4.553,4.553,0,0,1-.539,1.3.482.482,0,0,0,.013.52l.336.494-.861.86-.5-.336a.482.482,0,0,0-.521-.012,4.46,4.46,0,0,1-1.3.539.483.483,0,0,0-.361.378l-.114.588H6.368l-.113-.588a.483.483,0,0,0-.361-.378,4.53,4.53,0,0,1-1.3-.539Zm3.855,2.1.007-.017.129-.678a5.421,5.421,0,0,0,1-.416l.578.391a.482.482,0,0,0,.611-.059L12.2,16.66a.482.482,0,0,0,.058-.611l-.393-.58a5.477,5.477,0,0,0,.413-1l.686-.132a.482.482,0,0,0,.39-.473V11.852a.482.482,0,0,0-.39-.473l-.686-.133a5.566,5.566,0,0,0-.413-1l.391-.578a.482.482,0,0,0-.058-.611L10.774,7.636a.482.482,0,0,0-.612-.058l-.578.392a5.461,5.461,0,0,0-1-.416l-.132-.683L8.45,6.854v-.5H9.84a1.605,1.605,0,0,0,1.167.5H17.35a1.613,1.613,0,0,0,1.168-.5h1.388V24.584H8.45Zm13.463,8.209A1.526,1.526,0,0,1,20.391,28.6H7.968a1.527,1.527,0,0,1-1.525-1.525V19.236H7.486v5.83a.482.482,0,0,0,.482.482h12.42a.482.482,0,0,0,.482-.482V5.873a.482.482,0,0,0-.482-.482H18.295a.482.482,0,0,0-.39.2.692.692,0,0,1-.554.305H11.008a.678.678,0,0,1-.549-.3.481.481,0,0,0-.392-.2h-2.1a.482.482,0,0,0-.482.482v.607H6.444V3.865A1.527,1.527,0,0,1,7.968,2.341h12.42a1.526,1.526,0,0,1,1.525,1.525V27.072Zm7.4-6.842-.841.161a.48.48,0,0,0-.377.361,5.851,5.851,0,0,1-.691,1.667.482.482,0,0,0,.013.521l.482.706-1.231,1.222-.707-.482a.483.483,0,0,0-.519-.013,5.813,5.813,0,0,1-1.666.689.483.483,0,0,0-.361.378l-.162.84h-.385V22.933a3.6,3.6,0,0,0,0-7.147v-3.35h.385l.162.838a.482.482,0,0,0,.358.376,6.027,6.027,0,0,1,1.67.693.483.483,0,0,0,.518-.014l.707-.482L27.9,15.075l-.482.705a.482.482,0,0,0-.013.521,5.851,5.851,0,0,1,.691,1.667.481.481,0,0,0,.376.359l.842.163Z" transform="translate(-0.6 -1.377)"/><path class="a" d="M18.073,3.412H14.688a.482.482,0,1,0,0,.964h3.385a.482.482,0,0,0,0-.964Z" transform="translate(-1.094 -1.451)"/><path class="a" d="M11.814,3.412h-.668a.482.482,0,1,0,0,.964h.668a.482.482,0,1,0,0-.964Z" transform="translate(-0.966 -1.451)"/><path class="a" d="M15.6,27.5H13.67a.482.482,0,1,0,0,.964H15.6a.482.482,0,1,0,0-.964Z" transform="translate(-1.057 -2.326)"/><path class="a" d="M10.8,27.5h-.753a.482.482,0,1,0,0,.964H10.8a.482.482,0,1,0,0-.964Z" transform="translate(-0.926 -2.326)"/><path class="a" d="M19.264,27.5h-.753a.482.482,0,1,0,0,.964h.753a.482.482,0,0,0,0-.964Z" transform="translate(-1.233 -2.326)"/><path class="a" d="M10.194,13.173A3.093,3.093,0,1,0,7.1,16.267h0A3.1,3.1,0,0,0,10.194,13.173Zm-5.222,0A2.13,2.13,0,1,1,7.1,15.3,2.129,2.129,0,0,1,4.972,13.173Z" transform="translate(-0.724 -1.693)"/></svg>