<svg xmlns="http://www.w3.org/2000/svg" width="125" height="125" viewBox="0 0 125 125"><defs><style>.a{fill:#fde7a9;stroke:#ffac2d;stroke-width:6px;stroke-dasharray:2 5;}.b{fill:#0f2b92;}.c{stroke:none;}.d{fill:none;}</style></defs><g transform="translate(-888 -2568)"><g transform="translate(887.912 2568)"><g transform="translate(0 0)"><g transform="translate(0 0)"><g class="a" transform="translate(0.088)"><circle class="c" cx="62.5" cy="62.5" r="62.5"/><circle class="d" cx="62.5" cy="62.5" r="59.5"/></g></g><g transform="translate(32.818 33.278)"><path class="b" d="M17,18H27.1v2.021H17Z" transform="translate(-1.981 -1.96)"/><path class="b" d="M17,14H27.1v2.021H17Z" transform="translate(-1.981 -1.97)"/><path class="b" d="M17,10h2.021v2.021H17Z" transform="translate(-1.962 -1.917)"/><path class="b" d="M21,10h6.062v2.021H21Z" transform="translate(-1.964 -1.917)"/><path class="b" d="M36.073,20.145A7.073,7.073,0,1,0,29,13.073a7.073,7.073,0,0,0,7.073,7.073Zm0-2.021a5.02,5.02,0,0,1-2.781-.841l3.2-3.2h4.533A5.061,5.061,0,0,1,36.073,18.124Zm4.951-6.062h-3.94V8.122A5.068,5.068,0,0,1,41.023,12.062Zm-5.961-3.94v4.531l-3.2,3.2a5.043,5.043,0,0,1,3.2-7.731Z" transform="translate(-1.988 -1.959)"/><path class="b" d="M17,34H27.1v2.021H17Z" transform="translate(-1.981 -1.92)"/><path class="b" d="M17,30H27.1v2.021H17Z" transform="translate(-1.981 -1.93)"/><path class="b" d="M17,26h2.021v2.021H17Z" transform="translate(-1.962 -1.94)"/><path class="b" d="M21,26h6.062v2.021H21Z" transform="translate(-1.964 -1.94)"/><path class="b" d="M59.157,50.133a2.942,2.942,0,0,0-1.474.391,3.008,3.008,0,0,0-2.537-1.394,3.068,3.068,0,0,0-1,.191V48.127h2.006a2.012,2.012,0,0,0,2.006-2.006V8.017a2.012,2.012,0,0,0-2.006-2.006H47.124V4.006A2.012,2.012,0,0,0,45.119,2H15.036A2.012,2.012,0,0,0,13.03,4.006V6.011H4.006A2.012,2.012,0,0,0,2,8.017v38.1a2.012,2.012,0,0,0,2.006,2.006H21.925l-.752,6.017H17.041a2.012,2.012,0,0,0-2.006,2.006V60.16a2.012,2.012,0,0,0,2.006,2.006H42.8l.291.5,1.735-1-4.322-7.481a1.013,1.013,0,0,1,.371-1.374.993.993,0,0,1,1.364.371l2.006,3.47a1.025,1.025,0,0,0,1.133.471,1,1,0,0,0,.742-.973V46.122a1,1,0,1,1,2.006,0v8.022a1,1,0,0,0,2.006,0V51.135a1,1,0,1,1,2.006,0v3.008a1,1,0,0,0,2.006,0V52.138a1,1,0,0,1,2.006,0v2.006a1,1,0,0,0,2.006,0v-1a1,1,0,0,1,2.006,0v9.025h2.006V53.141A3.017,3.017,0,0,0,59.157,50.133ZM49.13,26.066a3.018,3.018,0,0,1,2.828,2.006H32.263a3.018,3.018,0,0,1,2.828-2.006ZM4.006,46.122V8.017H13.03v2.006H8.017a2.012,2.012,0,0,0-2.006,2.006V38.1A2.012,2.012,0,0,0,8.017,40.1H30.077v6.017ZM13.03,12.028V38.1H8.017V12.028Zm17.047,36.1v6.017H23.188l.752-6.017ZM17.041,60.16V56.149H30.077v1A4.938,4.938,0,0,0,31.11,60.16ZM30.077,29.075V38.1H15.036V4.006H45.119V24.061H35.091A5.014,5.014,0,0,0,30.077,29.075ZM41.649,60.16H35.091a3.017,3.017,0,0,1-3.008-3.008V54.144H38.41a3.077,3.077,0,0,0,.361,1.043Zm-.541-16.044a4.993,4.993,0,0,1-2.758-.832L41.519,40.1h4.5a5.031,5.031,0,0,1-4.914,4.011ZM36.926,41.86A5.007,5.007,0,0,1,40.1,34.189v4.5Zm5.184-3.76V34.189A5.024,5.024,0,0,1,46.021,38.1ZM52.138,48.318a3.068,3.068,0,0,0-1-.191,3.008,3.008,0,0,0-1,.17V46.122a3.017,3.017,0,0,0-3.008-3.008,2.858,2.858,0,0,0-.291.03A6.955,6.955,0,0,0,48.127,39.1a7.035,7.035,0,1,0-3.911,6.287,2.931,2.931,0,0,0-.1.732v6.017h-.16a3.008,3.008,0,0,0-4.081-1.063,2.919,2.919,0,0,0-1.063,1.063H32.083V30.077H52.138Zm0-23.224a4.938,4.938,0,0,0-3.008-1.033H47.124V12.028h5.014Zm0-15.072H47.124V8.017h9.025v38.1H54.144V12.028a2.012,2.012,0,0,0-2.006-2.006Z" transform="translate(-2 -2)"/></g></g></g></g></svg>