<svg xmlns="http://www.w3.org/2000/svg" width="40.216" height="33.299" viewBox="0 0 40.216 33.299"><defs><style>.a{fill:#0f2b92;}</style></defs><path class="a" d="M165.608,60.726h-8.57v.918h8.57a.81.81,0,0,1,.8.8V83.252H128.146V62.44a.8.8,0,0,1,.735-.8h12.548v-.918H128.881a1.7,1.7,0,0,0-1.653,1.714V85.333a1.711,1.711,0,0,0,1.714,1.714h12.61V90.9h-2.265v.918h16.1V90.9h-2.265V87.047h12.61a1.711,1.711,0,0,0,1.714-1.714V62.44A1.96,1.96,0,0,0,165.608,60.726ZM152.08,90.842h-9.671V86.986h9.671Zm13.528-4.775H128.881a.759.759,0,0,1-.735-.8V84.109H166.4v1.163A.772.772,0,0,1,165.608,86.068Z" transform="translate(-127.228 -58.522)"/><path class="a" d="M177.728,81.445V83.71a3.061,3.061,0,0,0,6.121,0V81.445a3.079,3.079,0,0,0-2.448-3c.612-1.775.245-2.326-.367-3a2.411,2.411,0,0,1-.735-2.02h-.918a3.222,3.222,0,0,0,.979,2.632c.428.428.673.735.061,2.326A3.106,3.106,0,0,0,177.728,81.445Zm5.2,0V83.71a2.142,2.142,0,0,1-4.285,0V81.445a2.142,2.142,0,1,1,4.285,0Z" transform="translate(-146.816 -63.448)"/><rect class="a" width="0.918" height="1.102" transform="translate(33.544 16.895)"/><path class="a" d="M147.84,88.985l2.816-2.51-2.816-2.448-.612.673,2.02,1.775-2.02,1.775Z" transform="translate(-134.986 -67.56)"/><path class="a" d="M135.183,84.026l-2.755,2.448,2.755,2.51.612-.735-2.02-1.775,2.02-1.775Z" transform="translate(-129.245 -67.56)"/><rect class="a" width="9.365" height="0.918" transform="matrix(0.443, -0.896, 0.896, 0.443, 6.927, 22.922)"/><path class="a" d="M151.481,63.553l-1.653.306v2.816l1.653.306a6.678,6.678,0,0,0,.673,1.653l-.979,1.408L153.195,72l1.408-.979a6.269,6.269,0,0,0,1.653.673l.306,1.653h2.816l.306-1.653a6.677,6.677,0,0,0,1.653-.673l1.408.979,1.959-2.02-.979-1.408a5.532,5.532,0,0,0,.673-1.653l1.653-.306V63.8l-1.653-.306a6.678,6.678,0,0,0-.673-1.653l.979-1.408-2.02-1.959-1.408.979a6.269,6.269,0,0,0-1.653-.673l-.306-1.653H156.5l-.306,1.653a7.8,7.8,0,0,0-1.653.673l-1.408-.979-1.959,2.02.979,1.408A5.533,5.533,0,0,0,151.481,63.553Zm.8.49a5.217,5.217,0,0,1,.8-1.9l.184-.245-.857-1.285.857-.918,1.285.857.245-.184a5.7,5.7,0,0,1,1.9-.8l.306-.061.245-1.53h1.285l.306,1.53.306.061a6.009,6.009,0,0,1,1.959.8l.245.184,1.285-.857.918.918-.857,1.285.184.245a5.7,5.7,0,0,1,.8,1.9l.061.306,1.53.245v1.285l-1.53.306-.061.245a6.009,6.009,0,0,1-.8,1.959l-.184.245.857,1.285-.918.918-1.285-.857-.245.184a5.218,5.218,0,0,1-1.9.8h-.306l-.245,1.53h-1.285l-.306-1.53-.306-.061a5.218,5.218,0,0,1-1.9-.8l-.245-.184-1.285.857-.918-.918.857-1.285-.184-.245a5.7,5.7,0,0,1-.8-1.9l-.061-.306-1.53-.245V64.594l1.53-.306Z" transform="translate(-135.994 -57.126)"/><path class="a" d="M160.8,71.771a3.673,3.673,0,1,0-3.673-3.673A3.684,3.684,0,0,0,160.8,71.771Zm0-6.427a2.755,2.755,0,1,1-2.755,2.755A2.743,2.743,0,0,1,160.8,65.344Z" transform="translate(-138.826 -59.958)"/></svg>