<svg xmlns="http://www.w3.org/2000/svg" width="40.937" height="34.562" viewBox="0 0 40.937 34.562"><defs><style>.a{fill:#0f2b92;}</style></defs><path class="a" d="M240.315-1.349a3.134,3.134,0,0,0,3.125-3.125V-6.787a3.144,3.144,0,0,0-2.5-3.062c.625-1.812.25-2.375-.375-3.062a2.462,2.462,0,0,1-.75-2.062h-.937a3.29,3.29,0,0,0,1,2.687c.438.438.688.75.063,2.375a3.173,3.173,0,0,0-2.812,3.125v2.312A3.231,3.231,0,0,0,240.315-1.349Zm-2.187-5.5a2.214,2.214,0,0,1,2.187-2.187A2.214,2.214,0,0,1,242.5-6.849v2.312a2.214,2.214,0,0,1-2.187,2.187,2.214,2.214,0,0,1-2.187-2.187Z" transform="translate(-205.941 25.474)"/><rect class="a" width="0.937" height="1.125" transform="translate(33.938 17.563)"/><path class="a" d="M203.428-17.974h15.625v-10H203.428Zm.937-.937v-.25l3.188-3,1.625,1.5,2.187-2.437,3.812,3.625,1.563-1.437,1.375,1.312v.75h-13.75Zm13.75-8.125v6.125l-1.375-1.312-1.563,1.437L211.3-24.412l-2.187,2.437-1.562-1.437-3.187,3v-6.625Z" transform="translate(-193.303 30.349)"/><path class="a" d="M221.428-21.974a1.521,1.521,0,0,0,1.5-1.5,1.521,1.521,0,0,0-1.5-1.5,1.521,1.521,0,0,0-1.5,1.5A1.481,1.481,0,0,0,221.428-21.974Zm0-2a.56.56,0,0,1,.563.563.56.56,0,0,1-.562.563.56.56,0,0,1-.562-.562A.56.56,0,0,1,221.428-23.974Z" transform="translate(-199.491 29.224)"/><rect class="a" width="15.625" height="0.937" transform="translate(10.125 14.063)"/><rect class="a" width="15.625" height="0.937" transform="translate(10.125 16.813)"/><rect class="a" width="11.187" height="0.937" transform="translate(12.313 19.563)"/><path class="a" d="M228.165-2.087V-28.9H215.353v-2.875H194.978V-28.9h-7.75V-2.087h14.625V1.851H199.54v.937h16.437V1.851h-2.312V-2.087Zm-32.25-28.75h18.5V-9.274h-18.5Zm-.938,2.875V-9.274H193.79v.937h22.75v-.937h-1.187V-27.962h11.875v22H188.165v-22ZM188.165-3.024v-2h39.062v2ZM212.6,1.788h-9.875V-2.149H212.6Z" transform="translate(-187.228 31.774)"/></svg>