<svg xmlns="http://www.w3.org/2000/svg" xmlns:xlink="http://www.w3.org/1999/xlink" width="1247.227" height="1124.195" viewBox="0 0 1247.227 1124.195"><defs><style>.a{fill:#0f2b92;mix-blend-mode:darken;}.a,.h{isolation:isolate;}.b{fill:#fff;}.c{fill:#f0682f;}.d{fill:#c85927;}.e{fill:#ebebeb;}.f,.h{fill:#2e388d;}.g{fill:#ccd0d2;}.h{opacity:0.15;}.i{filter:url(#c);}.j{filter:url(#a);}</style><filter id="a" x="286.01" y="113.361" width="658.299" height="357.721" filterUnits="userSpaceOnUse"><feOffset input="SourceAlpha"/><feGaussianBlur stdDeviation="11" result="b"/><feFlood flood-opacity="0.161"/><feComposite operator="in" in2="b"/><feComposite in="SourceGraphic"/></filter><filter id="c" x="416.629" y="0" width="397.769" height="397.77" filterUnits="userSpaceOnUse"><feOffset dy="3" input="SourceAlpha"/><feGaussianBlur stdDeviation="3" result="d"/><feFlood flood-opacity="0.161"/><feComposite operator="in" in2="d"/><feComposite in="SourceGraphic"/></filter></defs><g transform="translate(-344.99 -11828.365)"><path class="a" d="M1257.968,539.651,1163.2,308.1c-.063-.175-.254-.207-.333-.35-.1-.143-.048-.334-.175-.461l-115.624-130.8c-.111-.127-.286-.1-.4-.191-.111-.127-.127-.286-.27-.366l-2.734-1.653L832.743,46.9c-.175-.111-.366-.016-.556-.1-.222-.079-.334-.3-.588-.318l-256.581-30.4c-.191,0-.334.159-.54.191h0c-.222,0-.413-.127-.636-.064L327.4,92.493c-.223.079-.318.3-.493.381-.159.111-.366.064-.524.191l-193.1,166.276c-.175.127-.143.334-.27.493-.143.175-.35.207-.445.4L19.626,492.988c-.1.207.016.4-.032.6-.064.207-.254.334-.254.54L11,752.494c-.016.254.191.4.238.62.032.223-.079.445.016.652l68.532,153.18c.064.111.238.079.3.19a3.4,3.4,0,0,0,.636.922l.1.111,162.414,108.774c.159.111.366.1.54.175.1.032.127.143.238.191l226.781,67.054a2.1,2.1,0,0,0,.62.1l.032.016h.08l.079.016h.032L731.3,1099.667l.175.016a2.651,2.651,0,0,0,.7-.1l243.167-61.38c.1-.016.127-.127.207-.159a1.821,1.821,0,0,0,.525-.143L1156.06,933.9l.048-.064.063-.016.048-.079a1.8,1.8,0,0,0,.461-.525c.1-.1.238-.063.3-.159l91.784-132.312.016-.143a2.489,2.489,0,0,0,.207-.747c.079-.254.286-.4.3-.652l8.932-258.377c0-.222-.191-.366-.222-.572C1257.92,540.032,1258.047,539.842,1257.968,539.651ZM671.839,291,899.383,393.909,704.42,514.237ZM698.73,514.7,466.72,433.452l199.4-142.166ZM462.969,429.1,444.724,223.676l217.1,63.621Zm233.647,90.926L511.3,679.861,464.32,438.7Zm206.2-121.5L913.1,642.782,707.726,518.926Zm-228.291-112.6,171.934-99.349L901.1,388.41Zm-4.291-4.116L638.352,135.389,840.61,183.355Zm-5.8.318-214.8-62.922,182.9-83.567ZM457.359,430.655,254.831,384.23l184.3-158.663Zm-2.384,5.34L284.647,612.315l-32.534-222.84Zm3.83,4.291L505.722,681.2,287.984,617.1Zm241.1,84.473,19.66,209.792L515.481,683.819Zm5.706-.413,204.5,123.348L725.256,734.01ZM908.6,399.615l182.5,144.009-172.252,99.54ZM852.879,188.377l203.514,122.712L907.314,389.316ZM640.895,130.128l91.72-74.492,107.55,121.711ZM445.852,214.6,483.329,78.125,627.1,131.813ZM251.8,379.3l7.057-173.38,175.653,16.1Zm27.336,234.871L135.949,562.792,246.932,393.623Zm-1.224,5.658L152.573,775.921,134.789,568.449Zm226.48,66.895-150.1,176.145L286.808,622.709Zm213.765,53.354L604.5,910.425,514.209,689.4ZM912,653.113,853.992,887.746,727.434,739.3Zm180.834-103.878-22.489,247.427L920.871,648.6ZM910.7,393.989l149.27-78.322,32.343,221.6ZM854.93,182.894l119.438-42.419,80.945,163.24Zm-5.817-4.021L742.342,58.02l224.827,78.91ZM634.061,128.316,494.2,76.075,723.842,55.4ZM439.352,216.7l-173.92-15.925L476.844,80.255ZM245.915,383.245l-144.073,19.6L252.908,211.47Zm-3.067,6.183-110,167.658L98.711,409.024ZM146.74,774.888,38.73,652.382l90.465-82.137ZM281.4,624.616l67.213,239.242L154.957,782.1Zm227.163,66.068L599.254,912.7,358.376,866.909Zm214.512,52.352L849.637,891.5,609.585,913.1Zm194.693-89.479,149.81,148.412L859.555,889Zm180.643-102.464,112.906,134.378L1076.1,796.391Zm-31.9-230.183L1187.783,467l-89.5,71.631Zm1.7-6.914,90-1.907,28.655,144.82Zm-4.244-5.642-78.64-158.663,168.135,156.756ZM748.667,54.206l81.85-2,120.312,72.95ZM493.707,70.354l81.5-48.427,138.24,28.656ZM265.273,194.29l64.638-96.409L467.2,79.174ZM101.715,393.766,137.554,263.5l108.615-52.7Zm26.685,169.5L39.747,643.752,95.119,418.941Zm18.452,220.392L83.739,897.425,39.445,661.87Zm201.638,86.4-102.973,138.7L155.593,788.619ZM598.7,918.42,472.013,1076.478,358.455,872.758ZM850,897.2,731.264,1091.593,609.092,918.9Zm217.277-88.891-93.5,221.664-113.669-135ZM1210.542,693.53l-57.121,230.691-77-120.662ZM1100.259,544.4l89.3-71.5,21.98,203.927Zm94.247-78.29-25.429-128.577,77,188.113ZM997.524,153.285l45.55,27.3,76.192,86.205ZM733.123,48.834,640.116,29.556,790.9,47.42ZM480.452,71.593,362.19,87.709,552.464,28.793ZM254.179,200.551,153.606,249.344,314.129,111.136ZM92.608,405.273,34.995,474.409l89.13-183.679Zm-3.131,12.7L36.171,634.311,25.141,495.15Zm-54.9,248.921L75.109,882.469,16.86,752.271ZM149.951,789.907l88.669,217.039L86.171,904.847Zm202.687,84.171,113.033,202.766-216.133-63.907Zm251.114,47.155L725.67,1093.58l-248.4-14.527Zm252.02-22.505,113.685,135L737.51,1092.292Zm217.388-89.622,77.416,121.313L980.55,1028.671Zm142.372-111.921,27.734,101.367-82.152,118.437Zm-19.866-221,56.484,65.242L1216.629,670.58ZM23.393,545.611l8.423,106.374-14.05,67.626ZM1244.172,780.18l-25.827-94.342,33.281-120.9Z" transform="translate(333.995 11852.878)"/><g transform="translate(-13 446.064)"><g class="j" transform="matrix(1, 0, 0, 1, 357.99, 11382.3)"><ellipse class="b" cx="296.149" cy="145.86" rx="296.149" ry="145.86" transform="translate(319.01 146.36)"/></g><g transform="translate(740 11621.869) rotate(-45)"><path class="c" d="M98.085,0C121.832,48.526,65.046,160.034,38.2,129.06,27.877,116.67,27.877,96.021,0,69.176c0,0,10.325,2.065,21.682-9.292C50.591,39.234,98.085,0,98.085,0Z" transform="translate(143.282 195.829)"/><path class="c" d="M144.315,5.679C92.691-18.068-28.109,38.718,5.963,64.53c14.455,10.325,36.137,10.325,65.046,38.2,0,0-2.065-10.325,9.292-21.682C103.015,53.173,144.315,5.679,144.315,5.679Z" transform="translate(0 82.773)"/><path class="d" d="M68.144,0H66.079C54.722,14.455,26.845,48.527,9.292,70.209,2.065,77.436,0,84.663,0,88.793a72.335,72.335,0,0,1,10.325,8.26,34.025,34.025,0,0,1,9.292-16.52C41.3,52.656,80.533,4.13,81.566,4.13,76.4,3.1,72.274,1.033,68.144,0Z" transform="translate(53.457 82.257)"/><path class="d" d="M94.988,0C87.761,6.195,45.429,41.3,19.617,60.916,11.357,69.176,4.13,70.209,0,70.209c4.13,4.13,7.227,7.227,9.292,10.325,3.1,0,11.357-1.033,20.65-9.292,21.682-16.52,54.721-44.4,69.176-55.754C98.085,10.325,97.053,4.13,94.988,0Z" transform="translate(147.412 196.861)"/><g class="i" transform="matrix(0.71, 0.71, -0.71, 0.71, -100.72, -439.52)"><path class="e" d="M266.409,1.723c8.26,7.227-4.13,116.67-78.469,189.976-46.462,45.429-76.4,64.014-83.631,70.209C83.66,271.2,70.238,276.362,31,236.1-9.262,195.829-2.035,185.5,7.257,165.888c6.195-7.227,24.78-38.2,71.241-83.631C152.837,7.918,258.15-5.5,266.409,1.723Z" transform="translate(425.63 195.95) rotate(-45)"/></g><path class="f" d="M70.208,12.39c16.52,16.52,16.52,42.331,0,57.819-16.52,16.52-42.332,16.52-57.819,0-16.52-16.52-16.52-42.331,0-57.819A39.922,39.922,0,0,1,70.208,12.39Z" transform="translate(164.964 82.257)"/><path class="g" d="M35.1,6.195a19.961,19.961,0,0,1,0,28.909c-8.26,8.26-21.682,8.26-28.909,0a19.961,19.961,0,0,1,0-28.909A19.961,19.961,0,0,1,35.1,6.195Z" transform="translate(185.614 102.906)"/><path class="h" d="M56.816,148.874c26.844,44.4,206.5-96.021,131.124-21.682-46.462,45.429-76.4,64.014-83.631,70.209C83.66,206.692,70.238,211.855,31,171.588-9.262,131.322-2.035,121,7.257,101.38c6.195-7.227,24.78-38.2,71.241-83.631C151.8-56.589,10.355,125.127,56.816,148.874Z" transform="translate(62.719 64.508)"/></g></g></g></svg>