<svg xmlns="http://www.w3.org/2000/svg" width="67.902" height="56.223" viewBox="0 0 67.902 56.223"><defs><style>.a{fill:#0f2b92;}</style></defs><path class="a" d="M192.03,60.726H177.56v1.55H192.03a1.368,1.368,0,0,1,1.344,1.344v35.14H128.778V63.62a1.353,1.353,0,0,1,1.24-1.344h21.187v-1.55H130.018a2.868,2.868,0,0,0-2.79,2.894v38.654a2.889,2.889,0,0,0,2.894,2.894h21.29v6.511h-3.824v1.55H174.77v-1.55h-3.824v-6.511h21.29a2.889,2.889,0,0,0,2.894-2.894V63.62A3.309,3.309,0,0,0,192.03,60.726Zm-22.841,50.849h-16.33v-6.511h16.33Zm22.841-8.061H130.018a1.282,1.282,0,0,1-1.24-1.344v-1.964h64.595v1.964A1.3,1.3,0,0,1,192.03,103.514Z" transform="translate(-127.228 -57.005)"/><path class="a" d="M177.728,86.965v3.824a5.168,5.168,0,0,0,10.335,0V86.965a5.2,5.2,0,0,0-4.134-5.064c1.034-3,.413-3.927-.62-5.064a4.071,4.071,0,0,1-1.24-3.411h-1.55a5.441,5.441,0,0,0,1.654,4.444c.723.723,1.137,1.24.1,3.927A5.244,5.244,0,0,0,177.728,86.965Zm8.785,0v3.824a3.617,3.617,0,0,1-7.235,0V86.965a3.617,3.617,0,1,1,7.235,0Z" transform="translate(-125.535 -56.58)"/><rect class="a" width="1.55" height="1.86" transform="translate(56.637 28.526)"/><path class="a" d="M148.262,92.4l4.754-4.237-4.754-4.134-1.034,1.137,3.411,3-3.411,3Z" transform="translate(-126.558 -56.224)"/><path class="a" d="M137.079,84.026l-4.651,4.134,4.651,4.237,1.034-1.24-3.411-3,3.411-3Z" transform="translate(-127.054 -56.224)"/><rect class="a" width="15.812" height="1.55" transform="matrix(0.443, -0.896, 0.896, 0.443, 11.696, 38.703)"/><path class="a" d="M152.618,67.978l-2.79.517v4.754l2.79.517a11.275,11.275,0,0,0,1.137,2.791L152.1,78.933l3.411,3.307,2.377-1.654a10.585,10.585,0,0,0,2.79,1.137l.517,2.79h4.754l.517-2.79a11.275,11.275,0,0,0,2.791-1.137l2.377,1.654,3.307-3.411-1.654-2.377a9.341,9.341,0,0,0,1.137-2.79l2.79-.517V68.391l-2.79-.517a11.275,11.275,0,0,0-1.137-2.79l1.654-2.377L171.532,59.4l-2.377,1.654a10.585,10.585,0,0,0-2.79-1.137l-.517-2.79h-4.754l-.517,2.79a13.178,13.178,0,0,0-2.79,1.137L155.409,59.4,152.1,62.81l1.654,2.377A9.341,9.341,0,0,0,152.618,67.978Zm1.344.827a8.81,8.81,0,0,1,1.344-3.2l.31-.413-1.447-2.17,1.447-1.55,2.17,1.447.413-.31a9.629,9.629,0,0,1,3.2-1.344l.517-.1.413-2.584h2.17l.517,2.584.517.1a10.145,10.145,0,0,1,3.307,1.344l.413.31,2.17-1.447,1.55,1.55-1.447,2.17.31.413a9.629,9.629,0,0,1,1.344,3.2l.1.517,2.584.413v2.17l-2.584.517-.1.413a10.145,10.145,0,0,1-1.344,3.307l-.31.413,1.447,2.17-1.55,1.55-2.17-1.447-.413.31a8.81,8.81,0,0,1-3.2,1.344h-.517l-.413,2.584h-2.17l-.517-2.584-.517-.1a8.81,8.81,0,0,1-3.2-1.344l-.413-.31-2.17,1.447-1.55-1.55,1.447-2.17-.31-.413a9.629,9.629,0,0,1-1.344-3.2l-.1-.517-2.584-.413v-2.17l2.584-.517Z" transform="translate(-126.47 -57.126)"/><path class="a" d="M163.329,76.828a6.2,6.2,0,1,0-6.2-6.2A6.219,6.219,0,0,0,163.329,76.828Zm0-10.852a4.651,4.651,0,1,1-4.651,4.651A4.631,4.631,0,0,1,163.329,65.976Z" transform="translate(-126.226 -56.881)"/></svg>