<svg xmlns="http://www.w3.org/2000/svg" width="50.122" height="47.589" viewBox="0 0 50.122 47.589"><defs><style>.a{fill:#0f2b92;}</style></defs><path class="a" d="M50.063,28.806,48.482,28.5a11.51,11.51,0,0,0-.957-2.306l.9-1.326a.814.814,0,0,0-.1-1.033l-3.023-3.023a.814.814,0,0,0-1.032-.1l-1.331.9a11.7,11.7,0,0,0-2.306-.957l-.3-1.577a.814.814,0,0,0-.8-.659h-1.32V5.578a4.206,4.206,0,0,0-4.2-4.2H13.041a4.207,4.207,0,0,0-4.2,4.2V10.8l-.192,1a9.153,9.153,0,0,0-1.686.7l-.976-.662a.814.814,0,0,0-1.033.1l-2.4,2.406a.813.813,0,0,0-.1,1.03l.659.976a9.525,9.525,0,0,0-.7,1.684l-1.162.223a.814.814,0,0,0-.651.8v3.4a.814.814,0,0,0,.651.8l1.155.221a9.358,9.358,0,0,0,.706,1.689l-.651.976a.813.813,0,0,0,.1,1.03l2.4,2.4a.813.813,0,0,0,1.032.1l.976-.661a9.168,9.168,0,0,0,1.687.7l.192,1v14.04a4.207,4.207,0,0,0,4.2,4.2H34.01a4.193,4.193,0,0,0,4.172-3.9h1.35a.813.813,0,0,0,.8-.661l.3-1.575a11.485,11.485,0,0,0,2.307-.957l1.329.9a.813.813,0,0,0,1.032-.1l3.023-3.02a.814.814,0,0,0,.1-1.033l-.9-1.328a11.5,11.5,0,0,0,.957-2.309l1.586-.308a.814.814,0,0,0,.659-.8V29.607A.813.813,0,0,0,50.063,28.806ZM38.218,27.334a4.479,4.479,0,0,1,0,8.812Zm-30.867.029a.814.814,0,0,0-.879.02l-.838.568L4.18,26.5l.566-.836a.815.815,0,0,0,.023-.877,7.738,7.738,0,0,1-.911-2.2.81.81,0,0,0-.636-.61l-.994-.19V19.734l1-.192a.813.813,0,0,0,.635-.61,7.718,7.718,0,0,1,.911-2.193.815.815,0,0,0-.023-.877l-.566-.835,1.451-1.455.836.568a.814.814,0,0,0,.88.021,7.649,7.649,0,0,1,2.193-.91.815.815,0,0,0,.61-.638l.19-.993h2.053l.192.993a.815.815,0,0,0,.61.638,7.53,7.53,0,0,1,2.188.91.816.816,0,0,0,.882-.021l.836-.568,1.455,1.453-.569.835a.814.814,0,0,0-.023.879,7.668,7.668,0,0,1,.91,2.193.815.815,0,0,0,.638.61l1,.192v2.055l-1,.19a.815.815,0,0,0-.638.61,7.687,7.687,0,0,1-.91,2.2.814.814,0,0,0,.023.879l.568.835L17.1,27.95l-.838-.568a.814.814,0,0,0-.88-.02,7.53,7.53,0,0,1-2.188.91.815.815,0,0,0-.61.638l-.192.993H10.34l-.19-.993a.815.815,0,0,0-.61-.638,7.649,7.649,0,0,1-2.193-.91ZM13.859,30.9l.011-.029.218-1.145a9.153,9.153,0,0,0,1.686-.7l.976.661a.813.813,0,0,0,1.032-.1l2.4-2.4a.814.814,0,0,0,.1-1.032l-.664-.979a9.247,9.247,0,0,0,.7-1.686l1.158-.223a.814.814,0,0,0,.659-.8v-3.4a.814.814,0,0,0-.659-.8l-1.158-.225a9.4,9.4,0,0,0-.7-1.684l.661-.976a.814.814,0,0,0-.1-1.032l-2.4-2.4a.814.814,0,0,0-1.033-.1l-.976.662a9.221,9.221,0,0,0-1.681-.7l-.223-1.154-.011-.028V9.782H16.2a2.711,2.711,0,0,0,1.97.853H28.882a2.723,2.723,0,0,0,1.972-.853H33.2V40.56H13.854ZM36.591,44.761a2.577,2.577,0,0,1-2.576,2.574H13.041a2.578,2.578,0,0,1-2.574-2.574V31.53h1.76v9.844a.814.814,0,0,0,.814.814H34.01a.814.814,0,0,0,.814-.814V8.969a.814.814,0,0,0-.814-.814H30.476a.814.814,0,0,0-.659.337,1.169,1.169,0,0,1-.936.516H18.172a1.145,1.145,0,0,1-.927-.511.811.811,0,0,0-.662-.342H13.041a.814.814,0,0,0-.814.814V9.994h-1.76V5.578A2.578,2.578,0,0,1,13.041,3H34.01a2.577,2.577,0,0,1,2.576,2.574V44.761Zm12.5-11.552-1.42.272a.81.81,0,0,0-.636.61,9.879,9.879,0,0,1-1.167,2.815.814.814,0,0,0,.023.88l.814,1.193-2.078,2.063-1.194-.814a.815.815,0,0,0-.877-.023,9.815,9.815,0,0,1-2.813,1.163.815.815,0,0,0-.61.638l-.273,1.419H38.21V37.773a6.084,6.084,0,0,0,0-12.066V20.051h.651l.273,1.416a.814.814,0,0,0,.605.635,10.176,10.176,0,0,1,2.82,1.17.815.815,0,0,0,.875-.024l1.194-.814L46.7,24.5,45.886,25.7a.814.814,0,0,0-.023.88A9.879,9.879,0,0,1,47.03,29.39a.811.811,0,0,0,.635.607l1.422.275Z" transform="translate(-0.6 -1.377)"/><path class="a" d="M20.735,3.412H15.02a.814.814,0,1,0,0,1.627h5.716a.814.814,0,0,0,0-1.627Z" transform="translate(7.932 -0.101)"/><path class="a" d="M12.605,3.412H11.478a.814.814,0,0,0,0,1.627h1.128a.814.814,0,1,0,0-1.627Z" transform="translate(5.711 -0.101)"/><path class="a" d="M17.256,27.5H14a.814.814,0,1,0,0,1.627h3.254a.814.814,0,1,0,0-1.627Z" transform="translate(7.294 15.004)"/><path class="a" d="M11.654,27.5H10.384a.814.814,0,1,0,0,1.627h1.271a.814.814,0,1,0,0-1.627Z" transform="translate(5.025 15.004)"/><path class="a" d="M20.114,27.5H18.844a.814.814,0,1,0,0,1.627h1.271a.814.814,0,1,0,0-1.627Z" transform="translate(10.33 15.004)"/><path class="a" d="M14.453,15.3A5.223,5.223,0,1,0,9.23,20.526h0A5.227,5.227,0,0,0,14.453,15.3Zm-8.817,0a3.6,3.6,0,1,1,3.6,3.6A3.595,3.595,0,0,1,5.636,15.3Z" transform="translate(1.536 4.08)"/></svg>