<svg xmlns="http://www.w3.org/2000/svg" width="52.724" height="52.724" viewBox="0 0 52.724 52.724"><defs><style>.a{fill:#0f2b92;}</style></defs><path class="a" d="M90.45,82.288V74.635A4.257,4.257,0,0,0,86.2,70.383H64.088a4.2,4.2,0,0,0-1.849.441,10.943,10.943,0,0,0-4.693-3.22,6.8,6.8,0,1,0-7.31.009,11.064,11.064,0,0,0-7.408,10.424v4.252h-1.7V107.8H93.852V82.288ZM69.191,95.895v-3.4H81.1v3.4Zm-5.1-5.1a2.554,2.554,0,0,1-2.551-2.551v-.85H88.75v.85A2.554,2.554,0,0,1,86.2,90.792ZM86.2,72.084a2.554,2.554,0,0,1,2.551,2.551V85.69H61.537V74.635a2.554,2.554,0,0,1,2.551-2.551Zm-37.417-10.2a5.1,5.1,0,1,1,5.1,5.1A5.107,5.107,0,0,1,48.781,61.879ZM44.53,78.036a9.365,9.365,0,0,1,9.354-9.354,9.264,9.264,0,0,1,7.009,3.179,4.215,4.215,0,0,0-1.056,2.774v7.653H48.781V74.635h-1.7v7.653H44.53Zm15.307,5.953v4.252a4.257,4.257,0,0,0,4.252,4.252h3.4v3.4h-3.4v1.7H86.2v-1.7H82.8v-3.4h3.4a4.257,4.257,0,0,0,4.252-4.252V83.989h1.7V101H42.829V83.989ZM42.829,106.1v-3.4H92.151v3.4Z" transform="translate(-41.128 -55.076)"/><path class="a" d="M52.781,104.682c2.585,0,7.653-1.027,7.653-3.4v-6.8c0-2.374-5.068-3.4-7.653-3.4s-7.653,1.027-7.653,3.4v6.8C45.128,103.655,50.2,104.682,52.781,104.682Zm0-1.7c-2.924,0-5.787-1.153-5.953-1.7v-1.3a14.234,14.234,0,0,0,11.907,0v1.286C58.568,101.828,55.705,102.981,52.781,102.981Zm0-10.2c2.89,0,5.721,1.128,5.948,1.7-.227.573-3.058,1.7-5.948,1.7-2.918,0-5.773-1.149-5.953-1.677v-.008C47.008,93.926,49.864,92.777,52.781,92.777Zm-5.953,3.8a14.236,14.236,0,0,0,11.906,0v1.287c-.173.568-3.032,1.719-5.954,1.719s-5.787-1.153-5.953-1.7Z" transform="translate(-41.726 -60.462)"/><path class="a" d="M68.679,63.58a2.535,2.535,0,0,0,1.412-.429l2.967,2.225a2.5,2.5,0,0,0-.128.755,2.551,2.551,0,0,0,5.1,0,2.509,2.509,0,0,0-.256-1.093l3.414-3.414a2.466,2.466,0,0,0,2.186,0l1.714,1.714a2.527,2.527,0,0,0-.255,1.094,2.551,2.551,0,1,0,5.1,0,2.509,2.509,0,0,0-.256-1.093L93.1,59.923a2.527,2.527,0,0,0,1.094.255,2.551,2.551,0,1,0-2.551-2.551A2.509,2.509,0,0,0,91.9,58.72l-3.414,3.414a2.466,2.466,0,0,0-2.186,0l-1.714-1.714a2.527,2.527,0,0,0,.255-1.094,2.551,2.551,0,1,0-5.1,0,2.509,2.509,0,0,0,.256,1.093l-3.414,3.414a2.509,2.509,0,0,0-2.506.174L71.1,61.784a2.5,2.5,0,0,0,.128-.755,2.551,2.551,0,1,0-2.551,2.551Zm25.512-6.8a.85.85,0,1,1-.85.85A.852.852,0,0,1,94.191,56.777ZM88.238,64.43a.85.85,0,1,1-.85-.85A.852.852,0,0,1,88.238,64.43Zm-5.953-5.953a.85.85,0,1,1-.85.85A.852.852,0,0,1,82.285,58.478Zm-6.8,6.8a.85.85,0,1,1-.85.85A.852.852,0,0,1,75.482,65.281Zm-6.8-5.1a.85.85,0,1,1-.85.85A.852.852,0,0,1,68.679,60.178Z" transform="translate(-44.868 -55.076)"/><path class="a" d="M90.238,85.58h-1.7v-8.5h-5.1v8.5h-1.7v-5.1h-5.1v5.1h-1.7v-6.8h-5.1v6.8h-1.7v1.7h22.11Zm-5.1-6.8h1.7v6.8h-1.7Zm-6.8,3.4h1.7v3.4h-1.7Zm-6.8-1.7h1.7v5.1h-1.7Z" transform="translate(-45.168 -58.367)"/></svg>