<svg xmlns="http://www.w3.org/2000/svg" width="69.12" height="58.356" viewBox="0 0 69.12 58.356"><defs><style>.a{fill:#0f2b92;}</style></defs><path class="a" d="M242.51,8.031a5.292,5.292,0,0,0,5.276-5.276v-3.9a5.308,5.308,0,0,0-4.221-5.171c1.055-3.06.422-4.01-.633-5.171a4.156,4.156,0,0,1-1.266-3.482h-1.583c0,2.744.95,3.8,1.688,4.538s1.161,1.266.106,4.01a5.358,5.358,0,0,0-4.749,5.276v3.9A5.455,5.455,0,0,0,242.51,8.031Zm-3.693-9.286a3.739,3.739,0,0,1,3.693-3.693A3.739,3.739,0,0,1,246.2-1.256v3.9a3.693,3.693,0,1,1-7.387,0Z" transform="translate(-184.47 32.702)"/><rect class="a" width="1.583" height="1.899" transform="translate(57.301 29.653)"/><path class="a" d="M203.428-11.09H229.81V-27.974H203.428Zm1.583-1.583v-.422l5.382-5.065,2.744,2.533,3.693-4.116,6.437,6.121,2.638-2.427,2.322,2.216v1.266H205.011Zm23.216-13.718V-16.05l-2.322-2.216-2.638,2.427-6.543-6.121-3.693,4.116-2.638-2.427-5.382,5.065V-26.391Z" transform="translate(-186.333 31.984)"/><path class="a" d="M222.461-19.909a2.568,2.568,0,0,0,2.533-2.533,2.568,2.568,0,0,0-2.533-2.533,2.568,2.568,0,0,0-2.533,2.533A2.5,2.5,0,0,0,222.461-19.909Zm0-3.377a.946.946,0,0,1,.95.95.946.946,0,0,1-.95.95.946.946,0,0,1-.95-.95A.946.946,0,0,1,222.461-23.286Z" transform="translate(-185.421 32.15)"/><rect class="a" width="26.382" height="1.583" transform="translate(17.096 23.744)"/><rect class="a" width="26.382" height="1.583" transform="translate(17.096 28.387)"/><rect class="a" width="18.889" height="1.583" transform="translate(20.789 33.03)"/><path class="a" d="M256.348,18.351V-26.92H234.715v-4.854h-34.4v4.854H187.228V18.351h24.693V25h-3.9v1.583H235.77V25h-3.9V18.351ZM201.9-30.191h31.236V6.216H201.9Zm-1.583,4.854V6.216h-2.005V7.8H236.72V6.216h-2.005V-25.337h20.05V11.808H188.811V-25.337Zm-11.5,42.105V13.391h65.954v3.377Zm41.261,8.126H213.4V18.246h16.673Z" transform="translate(-187.228 31.774)"/></svg>