<svg xmlns="http://www.w3.org/2000/svg" width="70" height="70" viewBox="0 0 70 70"><defs><style>.a{isolation:isolate;}.b{fill:#25d366;}.c{fill:#fff;fill-rule:evenodd;}</style></defs><g class="a" transform="translate(-76 -76)"><g transform="translate(76 76)"><circle class="b" cx="35" cy="35" r="35"/></g><g transform="translate(91.644 89.918)"><g transform="translate(0)"><path class="c" d="M185.658,158.316a20.2,20.2,0,0,0-34.482,14.273,20.294,20.294,0,0,0,2.695,10.095L151,193.15l10.7-2.812a20.237,20.237,0,0,0,9.646,2.46h0a20.216,20.216,0,0,0,20.189-20.189A19.874,19.874,0,0,0,185.658,158.316ZM171.385,189.4h0a16.807,16.807,0,0,1-8.552-2.343l-.605-.371-6.346,1.66,1.7-6.19-.391-.644a16.79,16.79,0,1,1,14.2,7.888Zm9.2-12.574c-.508-.254-2.987-1.464-3.456-1.64s-.8-.254-1.132.254-1.308,1.64-1.6,1.972-.586.371-1.093.117a13.8,13.8,0,0,1-4.061-2.5,15.275,15.275,0,0,1-2.812-3.5.74.74,0,0,1,.215-1.035c.234-.234.508-.586.762-.879a3.7,3.7,0,0,0,.508-.84.924.924,0,0,0-.039-.879c-.117-.254-1.132-2.734-1.562-3.749-.41-.976-.82-.859-1.132-.859-.293-.02-.625-.02-.976-.02a1.851,1.851,0,0,0-1.347.625,5.635,5.635,0,0,0-1.757,4.218,9.756,9.756,0,0,0,2.07,5.213c.254.332,3.554,5.428,8.611,7.615a24.491,24.491,0,0,0,2.87,1.054,6.747,6.747,0,0,0,3.183.2c.976-.137,2.987-1.23,3.4-2.4a4.038,4.038,0,0,0,.293-2.4C181.421,177.2,181.089,177.08,180.581,176.826Z" transform="translate(-151 -152.4)"/></g></g></g></svg>