<svg xmlns="http://www.w3.org/2000/svg" width="66.27" height="58.245" viewBox="0 0 66.27 58.245"><defs><style>.a{fill:#0f2b92;}</style></defs><g transform="translate(0 -31)"><path class="a" d="M35.393,61.525a.971.971,0,0,0,0-1.942A.971.971,0,0,0,35.393,61.525Z" transform="translate(-29.967 -24.883)"/><path class="a" d="M62.226,61.525a.971.971,0,0,0,0-1.942A.971.971,0,0,0,62.226,61.525Z" transform="translate(-53.326 -24.883)"/><path class="a" d="M89.059,61.525a.971.971,0,1,0,0-1.942A.971.971,0,1,0,89.059,61.525Z" transform="translate(-76.687 -24.883)"/><path class="a" d="M65.3,31H53.192a.971.971,0,0,0,0,1.942H64.329V38.4H1.942V32.942H48.019a.971.971,0,0,0,0-1.942H.971A.971.971,0,0,0,0,31.971v56.3a.971.971,0,0,0,.971.971H65.3a.971.971,0,0,0,.971-.971v-56.3A.971.971,0,0,0,65.3,31Zm-.971,9.341v25.83H59.016V51.709a.971.971,0,0,0-.971-.971H35.787a.971.971,0,0,0-.971.971V66.171H31.454V57.112a.971.971,0,0,0-.971-.971H8.225a.971.971,0,0,0-.971.971v9.059H1.942V40.341ZM36.758,52.68H57.075V75.43H36.758ZM1.942,87.3V68.112H7.254V81.887a.971.971,0,0,0,.971.971h8.863a.971.971,0,0,0,0-1.942H9.2V58.082H29.512V80.916H22.241a.971.971,0,0,0,0,1.942h8.242a.971.971,0,0,0,.971-.971V68.112h3.363V76.4a.971.971,0,0,0,.971.971H58.045a.971.971,0,0,0,.971-.971V68.112h5.313V87.3Z" transform="translate(0 0)"/><path class="a" d="M57.215,150.442H79.473a.971.971,0,0,0,0-1.942H57.215A.971.971,0,0,0,57.215,150.442Z" transform="translate(-48.99 -102.291)"/><path class="a" d="M57.215,185.441H72.7a.971.971,0,0,0,0-1.941H57.215A.971.971,0,0,0,57.215,185.441Z" transform="translate(-48.99 -132.761)"/><path class="a" d="M352.93,416.648H339.669a.971.971,0,0,0,0,1.941H352.93A.971.971,0,0,0,352.93,416.648Z" transform="translate(-294.884 -335.732)"/><path class="a" d="M408.789,150.442H413.1a.971.971,0,0,0,0-1.942h-4.314A.971.971,0,0,0,408.789,150.442Z" transform="translate(-355.058 -102.291)"/><path class="a" d="M302.221,222.348a8.4,8.4,0,1,0,11.265,3.783,8.412,8.412,0,0,0-11.265-3.783Zm6.618,13.309a6.546,6.546,0,0,1-8.662-2.909,6.461,6.461,0,1,1,8.662,2.909Z" transform="translate(-259.046 -165.817)"/><path class="a" d="M332.026,261.5a.971.971,0,0,0,0,1.942A.971.971,0,0,0,332.026,261.5Z" transform="translate(-288.234 -200.665)"/><path class="a" d="M386.026,286.167a.971.971,0,0,0,0,1.941A.971.971,0,0,0,386.026,286.167Z" transform="translate(-335.244 -222.14)"/><path class="a" d="M360.026,307.5a.971.971,0,0,0,0,1.941A.971.971,0,0,0,360.026,307.5Z" transform="translate(-312.61 -240.711)"/><path class="a" d="M95.581,289.294a6.134,6.134,0,0,0-.1-1.115l2.406-.959a.971.971,0,0,0-.719-1.8l-2.341.933a6.13,6.13,0,0,0-11.3,4.5l-2.33.928a.972.972,0,0,0,.719,1.8l2.4-.956A6.135,6.135,0,0,0,95.581,289.294Zm-10.31,0A4.191,4.191,0,0,1,93,287.077l-7.649,3.048A4.192,4.192,0,0,1,85.27,289.294Zm4.184,4.184a4.179,4.179,0,0,1-3.282-1.591l7.45-2.968A4.235,4.235,0,0,1,89.455,293.479Z" transform="translate(-70.189 -219.536)"/></g></svg>