<svg xmlns="http://www.w3.org/2000/svg" width="166.533" height="166.534" viewBox="0 0 166.533 166.534"><defs><style>.a{fill:#ffac2d;stroke:#ff611e;stroke-width:2px;}</style></defs><path class="a" d="M159.5,112.782a5.38,5.38,0,0,0,.339-2.37v-2.031a7.514,7.514,0,0,0-7.448-7.448h-3.724V78.081a2.6,2.6,0,0,0-2.539-2.539h-2.539v-.508a6.014,6.014,0,0,1,.339-1.693l1.693-5.417h14.388a2.6,2.6,0,0,0,2.539-2.539V21.2a2.6,2.6,0,0,0-2.539-2.539h-7.956a7.082,7.082,0,0,0-6.94-5.586h-1.523a8.577,8.577,0,0,0-2.2.339,7.442,7.442,0,0,0-7.279-5.925h-1.862a9.99,9.99,0,0,0-2.37.339A7.46,7.46,0,0,0,122.6,1.4h-2.37a7.315,7.315,0,0,0-7.279,6.432,5.38,5.38,0,0,0-2.37-.339H108.55a7.514,7.514,0,0,0-7.448,7.448v3.724H78.081A2.6,2.6,0,0,0,75.542,21.2v2.539h-.508a6.014,6.014,0,0,1-1.693-.339l-5.417-1.693V7.325a2.6,2.6,0,0,0-2.539-2.539H21.2a2.6,2.6,0,0,0-2.539,2.539V15.28a7.082,7.082,0,0,0-5.586,6.94v1.523a8.576,8.576,0,0,0,.339,2.2,7.442,7.442,0,0,0-5.925,7.279v1.862a9.99,9.99,0,0,0,.339,2.37A7.46,7.46,0,0,0,1.4,44.734V47.1a7.315,7.315,0,0,0,6.432,7.279,5.38,5.38,0,0,0-.339,2.37v2.031a7.514,7.514,0,0,0,7.448,7.448h3.724V89.083A2.6,2.6,0,0,0,21.2,91.623h2.539v.508a6.014,6.014,0,0,1-.339,1.693L21.713,99.24H7.325a2.6,2.6,0,0,0-2.539,2.539v44.35a2.6,2.6,0,0,0,2.539,2.539H15.28a7.082,7.082,0,0,0,6.94,5.586h1.523a8.576,8.576,0,0,0,2.2-.339,7.442,7.442,0,0,0,7.279,5.925h1.862a9.991,9.991,0,0,0,2.37-.339,7.46,7.46,0,0,0,7.279,6.432H47.1a7.315,7.315,0,0,0,7.279-6.432,5.38,5.38,0,0,0,2.37.339h2.031a7.514,7.514,0,0,0,7.448-7.448v-3.724H89.083a2.6,2.6,0,0,0,2.539-2.539v-2.539h.508a6.014,6.014,0,0,1,1.693.339l5.417,1.693v14.388a2.6,2.6,0,0,0,2.539,2.539h44.35a2.6,2.6,0,0,0,2.539-2.539v-7.956a7.082,7.082,0,0,0,5.586-6.94v-1.523a8.576,8.576,0,0,0-.339-2.2,7.442,7.442,0,0,0,5.925-7.279v-1.862a9.991,9.991,0,0,0-.339-2.37,7.46,7.46,0,0,0,6.432-7.279v-2.37A7.5,7.5,0,0,0,159.5,112.782ZM143.589,95.854h0a8.535,8.535,0,0,0-8.125-5.925H122.6a13.525,13.525,0,0,0-8.294,2.708l-9.987,7.109V80.62h39.271ZM89.253,99.409H64.031a5.573,5.573,0,0,1-1.016-3.216v-4.4h2.37a2.6,2.6,0,0,0,2.539-2.539V64.031h0a5.573,5.573,0,0,1,3.216-1.016h4.4v2.37a2.6,2.6,0,0,0,2.539,2.539h25.052a5.573,5.573,0,0,1,1.016,3.216v4.4h-2.37a2.6,2.6,0,0,0-2.539,2.539v25.052h0a5.573,5.573,0,0,1-3.216,1.016h-4.4v-2.37A2.221,2.221,0,0,0,89.253,99.409ZM157.47,62.846H147.313L150.7,52.182a30.035,30.035,0,0,0,1.523-9.479V23.744h5.247ZM106.011,38.979V14.773a2.314,2.314,0,0,1,2.37-2.37h2.031a2.314,2.314,0,0,1,2.37,2.37V30.007a2.539,2.539,0,1,0,5.078,0V8.848a2.314,2.314,0,0,1,2.37-2.37h2.37a2.314,2.314,0,0,1,2.37,2.37V30.176a2.539,2.539,0,0,0,5.078,0V14.942a2.314,2.314,0,0,1,2.37-2.37h1.862a2.314,2.314,0,0,1,2.37,2.37V30.515a2.539,2.539,0,1,0,5.078,0V20.359a2.058,2.058,0,0,1,2.031-2.031h1.523a2.058,2.058,0,0,1,2.031,2.031V43.041A31.175,31.175,0,0,1,146.129,51l-7.109,20.821a10.629,10.629,0,0,0-.508,3.216v.508H109.4v-4.4a9.787,9.787,0,0,0-2.031-6.094L96.7,49.981a8.459,8.459,0,0,1-1.693-5.247V31.869a3.682,3.682,0,0,1,2.37-3.385l3.555-1.185v11.68a2.539,2.539,0,1,0,5.078,0ZM80.62,23.744H95.685a8.535,8.535,0,0,0-5.925,8.125V44.734a13.525,13.525,0,0,0,2.708,8.294l7.109,9.987H80.62ZM62.846,9.864V20.02L52.182,16.635A30.035,30.035,0,0,0,42.7,15.111H23.744V9.864ZM12.4,58.953V56.922a2.314,2.314,0,0,1,2.37-2.37H30.007a2.539,2.539,0,1,0,0-5.078H8.848a2.314,2.314,0,0,1-2.37-2.37v-2.37a2.314,2.314,0,0,1,2.37-2.37H30.176a2.539,2.539,0,1,0,0-5.078H14.942a2.314,2.314,0,0,1-2.37-2.37V33.054a2.314,2.314,0,0,1,2.37-2.37H30.515a2.539,2.539,0,1,0,0-5.078H20.359a2.058,2.058,0,0,1-2.031-2.031V22.051a2.058,2.058,0,0,1,2.031-2.031H43.041A31.176,31.176,0,0,1,51,21.2l20.821,7.109a10.629,10.629,0,0,0,3.216.508h.508V57.937h-4.4a9.787,9.787,0,0,0-6.094,2.031L49.981,70.633a8.459,8.459,0,0,1-5.247,1.693H31.869a3.682,3.682,0,0,1-3.385-2.37L27.3,66.4h11.68a2.539,2.539,0,1,0,0-5.078H14.773A2.548,2.548,0,0,1,12.4,58.953ZM23.744,71.479h0A8.535,8.535,0,0,0,31.869,77.4H44.734A13.525,13.525,0,0,0,53.028,74.7l9.987-7.109V86.544H23.744Zm-7.109,43.672a30.035,30.035,0,0,0-1.523,9.479v19.128H9.864V104.487H20.02Zm44.688,13.2v24.206a2.314,2.314,0,0,1-2.37,2.37H56.922a2.314,2.314,0,0,1-2.37-2.37V137.326a2.539,2.539,0,1,0-5.078,0v21.328a2.314,2.314,0,0,1-2.37,2.37h-2.37a2.314,2.314,0,0,1-2.37-2.37v-21.5a2.539,2.539,0,0,0-5.078,0v15.235a2.314,2.314,0,0,1-2.37,2.37H33.054a2.314,2.314,0,0,1-2.37-2.37V136.818a2.539,2.539,0,0,0-5.078,0v10.156a2.058,2.058,0,0,1-2.031,2.031H22.051a2.058,2.058,0,0,1-2.031-2.031V124.631a31.176,31.176,0,0,1,1.185-7.956l7.109-21.159a10.629,10.629,0,0,0,.508-3.216v-.508H57.937v4.4a9.787,9.787,0,0,0,2.031,6.094l10.664,15.065a8.459,8.459,0,0,1,1.693,5.247v12.865a3.682,3.682,0,0,1-2.37,3.385L66.4,140.035v-11.68a2.539,2.539,0,1,0-5.078,0Zm25.391,15.235H71.648a8.535,8.535,0,0,0,5.925-8.125V122.6a13.525,13.525,0,0,0-2.708-8.294l-7.109-9.987H86.714Zm17.774,13.88V147.313l10.664,3.385a30.035,30.035,0,0,0,9.479,1.523h19.128v5.247Zm56.368-34.87a2.314,2.314,0,0,1-2.37,2.37H137.157a2.539,2.539,0,0,0,0,5.078h15.235a2.314,2.314,0,0,1,2.37,2.37v1.862a2.314,2.314,0,0,1-2.37,2.37H136.818a2.539,2.539,0,1,0,0,5.078h10.156a2.058,2.058,0,0,1,2.031,2.031v1.523a2.058,2.058,0,0,1-2.031,2.031H124.631a31.175,31.175,0,0,1-7.956-1.185l-21.159-7.109a10.629,10.629,0,0,0-3.216-.508h-.508V109.4h4.4a9.787,9.787,0,0,0,6.094-2.031L117.352,96.7a8.459,8.459,0,0,1,5.247-1.693h12.865a3.682,3.682,0,0,1,3.385,2.37l1.185,3.555h-11.68a2.539,2.539,0,1,0,0,5.078h24.206a2.314,2.314,0,0,1,2.37,2.37v2.031a2.314,2.314,0,0,1-2.37,2.37H137.326a2.539,2.539,0,1,0,0,5.078h21.328a2.314,2.314,0,0,1,2.37,2.37l-.169,2.37Z" transform="translate(-0.4 -0.4)"/></svg>