<svg xmlns="http://www.w3.org/2000/svg" width="39.644" height="39.644" viewBox="0 0 39.644 39.644"><defs><style>.a{fill:#00145d;stroke:#fde7a9;stroke-width:0.5px;}</style></defs><g transform="translate(0.25 0.25)"><g transform="translate(0 0)"><path class="a" d="M27.829,20a7.829,7.829,0,1,0,7.829,7.829A7.829,7.829,0,0,0,27.829,20Zm6.244,5.944-.105-.026-1.863-1.24a.652.652,0,0,0-.2-.09L29.536,24l-1.165-1.748a.664.664,0,0,0-.251-.222l-1.277-.638a6.454,6.454,0,0,1,.985-.085A6.534,6.534,0,0,1,34.073,25.944ZM22.349,24.306l.318.536.631,1.892a.646.646,0,0,0,.412.412l1.51.5v1.217l-1.068,1.068-1.9,1.266A6.47,6.47,0,0,1,22.349,24.306Zm.7,7.953.03-.044,1.847-1.232a.653.653,0,0,0,.1-.082l1.3-1.3a.652.652,0,0,0,.19-.463V27.176a.652.652,0,0,0-.446-.618l-1.647-.55-.55-1.647a.653.653,0,0,0-.057-.127l-.6-1.018a6.547,6.547,0,0,1,1.816-1.274l2.349,1.174,1.209,1.814a.652.652,0,0,0,.385.271l2.5.625,1.863,1.24a.671.671,0,0,0,.2.091l.783.2c.012.158.024.316.024.476a6.484,6.484,0,0,1-.186,1.519.638.638,0,0,0-.309-.2L31.3,28.513l-1.957-.652a.652.652,0,0,0-.568.076l-1.957,1.3a.652.652,0,0,0-.256.337l-.625,1.874-1.2,1.793-.239.181a6.578,6.578,0,0,1-1.446-1.169Zm4.776,2.094a6.472,6.472,0,0,1-2.039-.331l1.277-1.916a.626.626,0,0,0,.076-.156l.582-1.745L29.23,29.2l1.7.565,2.355.587.315.5A6.524,6.524,0,0,1,27.829,34.353Z" transform="translate(-8.257 -8.257)"/><path class="a" d="M13.091,39H2.652A.652.652,0,0,0,2,39.652v13.7a.652.652,0,0,0,.652.652H13.091a.652.652,0,0,0,.652-.652v-13.7A.652.652,0,0,0,13.091,39ZM3.3,40.3h9.134v3.262H3.3Zm9.134,4.567v3.262H3.3V44.872Zm0,7.829H3.3V49.438h9.134Z" transform="translate(-2 -14.861)"/><rect class="a" width="1.07" height="1.07" transform="translate(2.675 26.349)"/><rect class="a" width="1.07" height="1.07" transform="translate(2.675 30.63)"/><rect class="a" width="1.07" height="1.07" transform="translate(2.675 35.446)"/><rect class="a" width="4.816" height="1.07" transform="translate(4.281 26.349)"/><rect class="a" width="4.816" height="1.07" transform="translate(4.281 30.63)"/><rect class="a" width="4.816" height="1.07" transform="translate(4.281 35.446)"/><path class="a" d="M12.262,24v1.3H10.3V24H9v1.957a.652.652,0,0,0,.652.652h2.61v1.3l1.957-1.957Z" transform="translate(-4.433 -9.647)"/><path class="a" d="M14.219,32.957,12.262,31v1.3H9.652A.652.652,0,0,0,9,32.957v1.957h1.3v-1.3h1.957v1.3Z" transform="translate(-4.433 -12.08)"/><path class="a" d="M47,25.957l1.957,1.957v-1.3h2.61a.652.652,0,0,0,.652-.652V24h-1.3v1.3H48.957V24Z" transform="translate(-17.642 -9.647)"/><path class="a" d="M48.957,34.914v-1.3h1.957v1.3h1.3V32.957a.652.652,0,0,0-.652-.652h-2.61V31L47,32.957Z" transform="translate(-17.642 -12.08)"/><path class="a" d="M51.219,38C50.686,38,46,38.055,46,39.957V51.7c0,1.9,4.686,1.957,5.219,1.957s5.219-.055,5.219-1.957V39.957C56.438,38.055,51.753,38,51.219,38Zm0,1.3a8.5,8.5,0,0,1,3.8.652,8.5,8.5,0,0,1-3.8.652,8.5,8.5,0,0,1-3.8-.652A8.5,8.5,0,0,1,51.219,39.3Zm3.914,4.475c-.249.266-1.617.744-3.914.744s-3.665-.479-3.914-.744V41.332a13.456,13.456,0,0,0,7.829,0Zm-3.914,8.573c-2.269,0-3.64-.468-3.914-.736V49.161a13.456,13.456,0,0,0,7.829,0v2.456C54.86,51.884,53.488,52.353,51.219,52.353Zm3.914-4.65c-.274.267-1.645.736-3.914.736s-3.64-.468-3.914-.736V45.247a13.456,13.456,0,0,0,7.829,0Z" transform="translate(-17.294 -14.514)"/><path class="a" d="M2.652,15.048H13.091a.652.652,0,0,0,.652-.652V5.914a.652.652,0,0,0-.191-.461L10.29,2.191A.652.652,0,0,0,9.829,2H2.652A.652.652,0,0,0,2,2.652V14.4A.652.652,0,0,0,2.652,15.048ZM10.481,4.227l1.035,1.035H10.481ZM3.3,3.3H9.176v2.61a.652.652,0,0,0,.652.652h2.61v7.176H3.3Z" transform="translate(-2 -2)"/><path class="a" d="M54.4,2H49.829a.652.652,0,0,0-.461.191L48.254,3.3h-5.6A.652.652,0,0,0,42,3.957v9.786a.652.652,0,0,0,.652.652H54.4a.652.652,0,0,0,.652-.652V2.652A.652.652,0,0,0,54.4,2ZM48.524,4.61a.652.652,0,0,0,.461-.191L50.1,3.3h3.644v2.61H43.3V4.61Zm5.219,8.481H43.3V7.219H53.743Z" transform="translate(-15.904 -2)"/><rect class="a" width="2.675" height="1.07" transform="translate(28.894 6.552)"/><rect class="a" width="3.21" height="1.07" transform="translate(2.675 2.806)"/><rect class="a" width="6.421" height="1.07" transform="translate(2.675 5.482)"/><rect class="a" width="1.07" height="1.605" transform="translate(2.675 7.622)"/><rect class="a" width="3.745" height="1.605" transform="translate(5.351 7.622)"/></g></g></svg>