<svg xmlns="http://www.w3.org/2000/svg" width="32.975" height="31.809" viewBox="0 0 32.975 31.809"><defs><style>.a{fill:#ff611e;stroke:#ff611e;fill-rule:evenodd;}</style></defs><g transform="translate(-9.031 -10.5)"><g transform="translate(9.531 11)"><path class="a" d="M24.96,994.171a15.4,15.4,0,1,1,15.38-16.861.793.793,0,1,1-1.58.148,13.819,13.819,0,1,0-1.234,7.159l-5.838,1.7a.791.791,0,0,1-.444-1.518l7.394-2.16a.8.8,0,0,1,.543.037.767.767,0,0,1,.074.037.893.893,0,0,1,.284.272l.012.012a.792.792,0,0,1,.049.123l.012.012a.789.789,0,0,1,.037.173l1.827,7.443a.795.795,0,1,1-1.543.383L38.661,985.9a15.46,15.46,0,0,1-13.7,8.27Z" transform="translate(-9.531 -963.362)"/></g></g></svg>