<svg xmlns="http://www.w3.org/2000/svg" width="39.644" height="39.644" viewBox="0 0 39.644 39.644"><defs><style>.a{fill:#00145d;stroke:#fde7a9;stroke-width:0.5px;}</style></defs><g transform="translate(0.25 0.25)"><g transform="translate(0 0)"><path class="a" d="M38.25,1H9.208A1.9,1.9,0,0,0,7.314,2.894v16.9a5.041,5.041,0,0,0,.369,8.144A9.486,9.486,0,0,0,1,36.987v3.157H19.941V36.987a9.419,9.419,0,0,0-.352-2.525h3.371l.381-1.525,1.349.809,3.375-3.376-.808-1.348,1.524-.38v-3.65h9.47A1.9,1.9,0,0,0,40.144,23.1V2.894A1.9,1.9,0,0,0,38.25,1ZM6.682,23.729a3.788,3.788,0,1,1,3.788,3.788A3.792,3.792,0,0,1,6.682,23.729ZM11.1,18.721V4.788H36.356V21.2H14.838A5.056,5.056,0,0,0,11.1,18.721ZM10.47,31.936a3.16,3.16,0,0,0,3.095-2.546c.162.066.319.142.476.218L10.47,37.914,6.9,29.609c.157-.076.314-.152.476-.218A3.16,3.16,0,0,0,10.47,31.936ZM12.342,29A1.883,1.883,0,0,1,8.6,29a7.946,7.946,0,0,1,3.743,0ZM2.263,36.987A8.2,8.2,0,0,1,5.8,30.247l3.712,8.634H5.419V33.83H4.157v5.051H2.263Zm16.415,1.894H16.784V33.83H15.521v5.051H11.429l3.712-8.634a8.2,8.2,0,0,1,3.536,6.74Zm8.839-11.226-1.231.307-.337.128-.294.721.818,1.364-1.982,1.981-1.363-.818-.77.318L21.973,33.2H19.144a9.512,9.512,0,0,0-5.887-5.262,5.064,5.064,0,0,0,2.1-2.945h.988a4.42,4.42,0,1,0,8.458,0h2.716Zm-4.055-2.664a3.157,3.157,0,1,1-5.781,0ZM38.881,23.1a.632.632,0,0,1-.631.631H15.521a5.021,5.021,0,0,0-.166-1.263H37.619V3.525H9.839v15.2a5,5,0,0,0-1.263.328V2.894a.632.632,0,0,1,.631-.631H38.25a.632.632,0,0,1,.631.631Z" transform="translate(-1 -1)"/><path class="a" d="M31.627,11.525H29.1V9H19v6.314H29.1V12.788h2.525v2.525h4.419v1.263H31.627V22.89h10.1V16.576H37.309V15.314h4.419V9h-10.1Zm-3.788,2.525H20.263V10.263h7.576Zm12.627,7.576H32.89V17.839h7.576ZM32.89,10.263h7.576v3.788H32.89Z" transform="translate(-7.636 -3.949)"/><rect class="a" width="1.346" height="1.346" transform="translate(26.425 7.735)"/><rect class="a" width="2.243" height="1.346" transform="translate(29.116 7.735)"/><rect class="a" width="4.934" height="1.346" transform="translate(26.425 14.911)"/><rect class="a" width="5.831" height="1.346" transform="translate(13.867 7.735)"/><rect class="a" width="1.346" height="1.346" transform="translate(13.867 12.668)"/><rect class="a" width="1.346" height="1.346" transform="translate(16.558 12.668)"/><rect class="a" width="0.897" height="1.346" transform="translate(19.249 12.668)"/><rect class="a" width="8.97" height="1.346" transform="translate(11.176 14.911)"/><rect class="a" width="5.382" height="1.346" transform="translate(14.764 17.602)"/><rect class="a" width="7.625" height="1.346" transform="translate(29.116 26.572)"/><rect class="a" width="7.625" height="1.346" transform="translate(29.116 28.815)"/><rect class="a" width="1.346" height="1.346" transform="translate(35.395 31.506)"/><rect class="a" width="1.346" height="1.346" transform="translate(32.704 31.506)"/><rect class="a" width="1.346" height="1.346" transform="translate(30.013 31.506)"/></g></g></svg>