<svg xmlns="http://www.w3.org/2000/svg" width="95.8" height="95.8" viewBox="0 0 95.8 95.8"><defs><style>.a{fill:#00145d;}</style></defs><g transform="translate(-1.938 -0.529)"><g transform="translate(1.938 0.529)"><path class="a" d="M5.316.529A4.781,4.781,0,0,0,.529,5.316V34.062a4.779,4.779,0,0,0,4.787,4.784H25.577l2.47,3.2H8.509a8.193,8.193,0,0,0-7.98,8.414V87.916a8.2,8.2,0,0,0,7.98,8.414H88.352a8.186,8.186,0,0,0,7.977-8.414V50.456a8.19,8.19,0,0,0-7.977-8.414H45.236v-3.2h7.98a4.787,4.787,0,0,0,4.8-4.784V5.316a4.794,4.794,0,0,0-4.8-4.787Zm0,3.2h47.9a1.582,1.582,0,0,1,1.6,1.59V34.062a1.592,1.592,0,0,1-1.6,1.59H43.645a1.6,1.6,0,0,0-1.6,1.6V54.925Q34.831,45.6,27.616,36.28a1.6,1.6,0,0,0-1.263-.627H5.316a1.568,1.568,0,0,1-1.59-1.59V5.316a1.581,1.581,0,0,1,1.59-1.59Zm4.8,7.977a1.6,1.6,0,0,0-1.6,1.6V30.869a1.6,1.6,0,0,0,1.6,1.59H29.266a1.6,1.6,0,0,0,1.6-1.59v-6.39a1.6,1.6,0,0,0-1.6-1.6H24.479V19.7a1.6,1.6,0,0,0-1.6-1.6H18.093V13.306a1.6,1.6,0,0,0-1.59-1.6Zm25.54,0a1.6,1.6,0,1,0,0,3.193h7.993a1.6,1.6,0,1,0,0-3.193ZM11.7,14.9H14.9v14.37H11.7Zm23.95,3.2a1.6,1.6,0,0,0,0,3.193H48.429a1.6,1.6,0,1,0,0-3.193Zm-17.56,3.193h3.193v7.98H18.093Zm17.56,3.193a1.6,1.6,0,0,0,0,3.2H48.429a1.6,1.6,0,0,0,0-3.2ZM24.479,26.07h3.2v3.2h-3.2ZM8.509,45.236h4.8v47.9h-4.8a5,5,0,0,1-4.784-5.22V50.456a5,5,0,0,1,4.784-5.22Zm7.993,0H30.514l11.86,15.346a1.6,1.6,0,0,0,2.863-.979V45.236h39.92v47.9L61.2,93.126A11.458,11.458,0,0,0,49.82,81.691H47.026a11.469,11.469,0,0,0-11.37,11.445H16.5Zm71.85,0a5,5,0,0,1,4.784,5.22V87.916a5.006,5.006,0,0,1-4.784,5.22ZM64.4,48.429A1.6,1.6,0,0,0,62.8,50.02v7.993A1.6,1.6,0,0,0,64.4,59.6H73.97a1.6,1.6,0,0,0,1.606-1.59V57.4l4.076,2.039a1.6,1.6,0,0,0,2.311-1.425V50.02a1.6,1.6,0,0,0-2.311-1.425l-4.076,2.036V50.02a1.6,1.6,0,0,0-1.606-1.59Zm1.59,3.2h6.387v4.784H65.993Zm12.776.989V55.43l-2.828-1.413ZM48.429,64.633a7.068,7.068,0,1,0,7.191,7.073A7.131,7.131,0,0,0,48.429,64.633ZM8.513,67.589a1.6,1.6,0,1,0,1.6,1.6A1.6,1.6,0,0,0,8.513,67.589Zm39.917.237a3.875,3.875,0,1,1-3.995,3.879A3.949,3.949,0,0,1,48.429,67.826ZM49.82,84.884A8.277,8.277,0,0,1,58,93.127l-19.154.009a8.286,8.286,0,0,1,8.177-8.251Z" transform="translate(-0.529 -0.529)"/></g></g></svg>