<svg xmlns="http://www.w3.org/2000/svg" width="99.643" height="93" viewBox="0 0 99.643 93"><defs><style>.a{fill:#00145d;}</style></defs><g transform="translate(-2 -4)"><g transform="translate(2 4)"><path class="a" d="M101.477,62.847,91.513,42.918A1.661,1.661,0,0,0,90.018,42H13.625a1.661,1.661,0,0,0-1.486.918L2.174,62.847A1.661,1.661,0,0,0,2,63.589v4.982a3.321,3.321,0,0,0,3.321,3.321h93a3.321,3.321,0,0,0,3.321-3.321V63.589A1.661,1.661,0,0,0,101.477,62.847ZM14.651,45.321h74.34l8.3,16.607H6.348Zm-9.33,23.25V65.25h93v3.321Z" transform="translate(-2 21.107)"/><rect class="a" width="3" height="4" transform="translate(13.643 76)"/><rect class="a" width="4" height="4" transform="translate(19.643 76)"/><rect class="a" width="46" height="4" transform="translate(26.643 76)"/><rect class="a" width="3" height="4" transform="translate(76.643 76)"/><rect class="a" width="4" height="4" transform="translate(82.643 76)"/><rect class="a" width="3" height="3" transform="translate(21.643 70)"/><rect class="a" width="4" height="3" transform="translate(14.643 70)"/><rect class="a" width="3" height="3" transform="translate(28.643 70)"/><rect class="a" width="4" height="3" transform="translate(34.643 70)"/><rect class="a" width="3" height="3" transform="translate(41.643 70)"/><rect class="a" width="3" height="3" transform="translate(48.643 70)"/><rect class="a" width="3" height="3" transform="translate(54.643 70)"/><rect class="a" width="3" height="3" transform="translate(61.643 70)"/><rect class="a" width="4" height="3" transform="translate(67.643 70)"/><rect class="a" width="3" height="3" transform="translate(74.643 70)"/><rect class="a" width="3" height="3" transform="translate(81.643 70)"/><path class="a" d="M10.982,63.786H87.375A4.982,4.982,0,0,0,92.357,58.8V8.982A4.982,4.982,0,0,0,87.375,4H10.982A4.982,4.982,0,0,0,6,8.982V58.8a4.982,4.982,0,0,0,4.982,4.982ZM9.321,58.8v-38.2H45.857V60.464H10.982A1.661,1.661,0,0,1,9.321,58.8ZM89.036,8.982V58.8a1.661,1.661,0,0,1-1.661,1.661h-38.2V7.321h38.2A1.661,1.661,0,0,1,89.036,8.982ZM10.982,7.321H45.857v9.964H9.321v-8.3A1.661,1.661,0,0,1,10.982,7.321Z" transform="translate(0.643 -4)"/><rect class="a" width="3" height="3" transform="translate(13.643 7)"/><rect class="a" width="4" height="3" transform="translate(19.643 7)"/><rect class="a" width="3" height="3" transform="translate(26.643 7)"/><path class="a" d="M11.661,30.286H24.946a1.661,1.661,0,0,0,1.661-1.661V18.661A1.661,1.661,0,0,0,24.946,17H11.661A1.661,1.661,0,0,0,10,18.661v9.964A1.661,1.661,0,0,0,11.661,30.286Zm1.661-9.964h9.964v6.643H13.321Z" transform="translate(3.286 4.589)"/><rect class="a" width="10" height="4" transform="translate(33.643 23)"/><rect class="a" width="10" height="3" transform="translate(33.643 30)"/><rect class="a" width="6" height="3" transform="translate(13.643 42)"/><rect class="a" width="20" height="3" transform="translate(23.643 42)"/><rect class="a" width="30" height="3" transform="translate(13.643 48)"/><path class="a" d="M41.469,22.606l2.348-2.348-3.808-3.808,3.808-3.808-2.348-2.348-4.982,4.982a1.661,1.661,0,0,0,0,2.348Z" transform="translate(20.464 0.158)"/><path class="a" d="M49.641,22.606l4.982-4.982a1.661,1.661,0,0,0,0-2.348l-4.982-4.982-2.348,2.348L51.1,16.449l-3.808,3.808Z" transform="translate(27.926 0.158)"/><rect class="a" width="10.504" height="3.32" transform="translate(66.513 21.062) rotate(-71.547)"/><rect class="a" width="6" height="4" transform="translate(56.643 28)"/><rect class="a" width="13" height="4" transform="translate(66.643 28)"/><rect class="a" width="10" height="3" transform="translate(59.643 35)"/><rect class="a" width="7" height="3" transform="translate(72.643 35)"/><rect class="a" width="6" height="3" transform="translate(56.643 42)"/><rect class="a" width="10" height="3" transform="translate(66.643 42)"/><rect class="a" width="13" height="3" transform="translate(59.643 48)"/><rect class="a" width="3" height="3" transform="translate(76.643 48)"/></g></g></svg>