<svg xmlns="http://www.w3.org/2000/svg" width="63.24" height="64.312" viewBox="0 0 63.24 64.312"><defs><style>.a{fill:#0f2b92;}</style></defs><g transform="translate(-24 -16)"><path class="a" d="M24,163.216V201.8a3.219,3.219,0,0,0,3.216,3.216H50.8a3.219,3.219,0,0,0,3.216-3.216V163.216A3.219,3.219,0,0,0,50.8,160H27.216A3.219,3.219,0,0,0,24,163.216Zm27.868,0V201.8a1.073,1.073,0,0,1-1.072,1.072H27.216a1.073,1.073,0,0,1-1.072-1.072V163.216a1.073,1.073,0,0,1,1.072-1.072h4.915l1.83,1.83a1.072,1.072,0,0,0,.758.314h8.575a1.072,1.072,0,0,0,.758-.314l1.83-1.83H50.8A1.073,1.073,0,0,1,51.868,163.216Z" transform="translate(0 -124.707)"/><path class="a" d="M64,440h3.216v2.144H64Z" transform="translate(-34.641 -367.191)"/><path class="a" d="M184,440h3.216v2.144H184Z" transform="translate(-138.563 -367.191)"/><path class="a" d="M320,448h3.216v2.144H320Z" transform="translate(-256.341 -374.12)"/><path class="a" d="M110.587,88H75.216A3.219,3.219,0,0,0,72,91.216V95.5h2.144V91.216a1.073,1.073,0,0,1,1.072-1.072h35.371a1.073,1.073,0,0,1,1.072,1.072v48.234a1.073,1.073,0,0,1-1.072,1.072H97.725v2.144h12.862a3.219,3.219,0,0,0,3.216-3.216V91.216A3.219,3.219,0,0,0,110.587,88Z" transform="translate(-41.569 -62.353)"/><path class="a" d="M181.018,16h-41.8A3.219,3.219,0,0,0,136,19.216V23.5h2.144V19.216a1.073,1.073,0,0,1,1.072-1.072h41.8a1.073,1.073,0,0,1,1.072,1.072V77.1a1.073,1.073,0,0,1-1.072,1.072h-9.647v2.144h9.647a3.219,3.219,0,0,0,3.216-3.216V19.216A3.219,3.219,0,0,0,181.018,16Z" transform="translate(-96.994)"/><path class="a" d="M422.431,51.216a3.216,3.216,0,1,0-3.216,3.216A3.216,3.216,0,0,0,422.431,51.216Zm-3.216,1.072a1.072,1.072,0,1,1,1.072-1.072A1.072,1.072,0,0,1,419.216,52.287Z" transform="translate(-339.479 -27.713)"/><ellipse class="a" cx="1" cy="0.5" rx="1" ry="0.5" transform="translate(79.105 28.714)"/></g></svg>