<svg xmlns="http://www.w3.org/2000/svg" width="259.205" height="29.645" viewBox="0 0 259.205 29.645"><defs><style>.a{mix-blend-mode:luminosity;isolation:isolate;}.b,.c{fill:#992937;}.c{fill-rule:evenodd;}</style></defs><g class="a"><path class="b" d="M689.991,174.153h.453v.156a.946.946,0,0,0,.226.679,1.032,1.032,0,0,0,1.29,0,.837.837,0,0,0,.24-.625.822.822,0,0,0-.154-.489,3.324,3.324,0,0,0-.783-.611l-.168-.109a5.722,5.722,0,0,1-.679-.471,1.032,1.032,0,0,1-.271-.391,1.305,1.305,0,0,1-.1-.511,1.066,1.066,0,0,1,.353-.839,1.4,1.4,0,0,1,.966-.312,1.278,1.278,0,0,1,.928.312,1.222,1.222,0,0,1,.321.905v.1h-.453V171.9a.99.99,0,0,0-.2-.679.807.807,0,0,0-.627-.226.905.905,0,0,0-.62.208.7.7,0,0,0-.226.55.827.827,0,0,0,.183.543,4.108,4.108,0,0,0,.93.7,3.063,3.063,0,0,1,.842.665,1.1,1.1,0,0,1,.195.654,1.249,1.249,0,0,1-.355.944,1.383,1.383,0,0,1-1,.339,1.324,1.324,0,0,1-.964-.324,1.272,1.272,0,0,1-.33-.941v-.167Z" transform="translate(-538.137 -146.181)"/><path class="b" d="M710.991,174.153h.453v.156a.946.946,0,0,0,.226.679,1.032,1.032,0,0,0,1.29,0,.837.837,0,0,0,.24-.625.821.821,0,0,0-.154-.489,3.322,3.322,0,0,0-.783-.611l-.168-.109a5.733,5.733,0,0,1-.679-.471,1.031,1.031,0,0,1-.271-.391,1.3,1.3,0,0,1-.1-.511,1.066,1.066,0,0,1,.353-.839,1.4,1.4,0,0,1,.966-.312,1.279,1.279,0,0,1,.928.312,1.222,1.222,0,0,1,.321.905v.1h-.453V171.9a.991.991,0,0,0-.2-.679.808.808,0,0,0-.627-.226.905.905,0,0,0-.62.208.7.7,0,0,0-.226.55.828.828,0,0,0,.183.543,4.107,4.107,0,0,0,.93.7,3.06,3.06,0,0,1,.842.665,1.1,1.1,0,0,1,.195.654,1.249,1.249,0,0,1-.355.944,1.383,1.383,0,0,1-1,.339,1.324,1.324,0,0,1-.964-.324,1.272,1.272,0,0,1-.33-.941v-.167Z" transform="translate(-554.034 -146.181)"/><path class="b" d="M749.991,174.153h.453v.156a.946.946,0,0,0,.226.679.869.869,0,0,0,.652.226.878.878,0,0,0,.638-.226.837.837,0,0,0,.24-.625.821.821,0,0,0-.154-.489,3.318,3.318,0,0,0-.783-.611l-.167-.109a5.718,5.718,0,0,1-.679-.471,1.031,1.031,0,0,1-.271-.391,1.3,1.3,0,0,1-.1-.511,1.066,1.066,0,0,1,.353-.839,1.4,1.4,0,0,1,.966-.312,1.278,1.278,0,0,1,.928.312,1.222,1.222,0,0,1,.321.905v.1h-.453V171.9a.991.991,0,0,0-.2-.679.808.808,0,0,0-.627-.226.905.905,0,0,0-.62.208.7.7,0,0,0-.226.55.828.828,0,0,0,.183.543,4.106,4.106,0,0,0,.93.7,3.059,3.059,0,0,1,.842.665,1.1,1.1,0,0,1,.195.654,1.249,1.249,0,0,1-.355.944,1.383,1.383,0,0,1-1,.339,1.323,1.323,0,0,1-.964-.324,1.271,1.271,0,0,1-.33-.941v-.167Z" transform="translate(-583.557 -146.181)"/><path class="b" d="M770.991,174.153h.453v.156a.945.945,0,0,0,.226.679.869.869,0,0,0,.652.226.878.878,0,0,0,.638-.226.838.838,0,0,0,.24-.625.821.821,0,0,0-.154-.489,3.32,3.32,0,0,0-.783-.611l-.167-.109a5.719,5.719,0,0,1-.679-.471,1.032,1.032,0,0,1-.272-.391,1.3,1.3,0,0,1-.1-.511,1.065,1.065,0,0,1,.353-.839,1.4,1.4,0,0,1,.966-.312,1.278,1.278,0,0,1,.928.312,1.221,1.221,0,0,1,.321.905v.1h-.453V171.9a.991.991,0,0,0-.2-.679.808.808,0,0,0-.627-.226.9.9,0,0,0-.62.208.7.7,0,0,0-.226.55.827.827,0,0,0,.183.543,4.111,4.111,0,0,0,.93.7,3.063,3.063,0,0,1,.842.665,1.1,1.1,0,0,1,.195.654,1.25,1.25,0,0,1-.355.944,1.383,1.383,0,0,1-1,.339,1.323,1.323,0,0,1-.964-.324,1.271,1.271,0,0,1-.33-.941v-.167Z" transform="translate(-599.454 -146.181)"/><path class="b" d="M987.991,175.153h.453v.156a.947.947,0,0,0,.226.679.869.869,0,0,0,.652.226.878.878,0,0,0,.638-.226.837.837,0,0,0,.24-.625.821.821,0,0,0-.154-.489,3.321,3.321,0,0,0-.783-.611l-.167-.109a5.713,5.713,0,0,1-.679-.471,1.029,1.029,0,0,1-.272-.391,1.306,1.306,0,0,1-.1-.511,1.066,1.066,0,0,1,.353-.839,1.4,1.4,0,0,1,.966-.312,1.278,1.278,0,0,1,.928.312,1.223,1.223,0,0,1,.321.905v.1h-.453V172.9a.991.991,0,0,0-.2-.679.808.808,0,0,0-.627-.226.905.905,0,0,0-.62.208.7.7,0,0,0-.226.55.828.828,0,0,0,.183.543,4.109,4.109,0,0,0,.93.7,3.062,3.062,0,0,1,.842.665,1.1,1.1,0,0,1,.195.654,1.25,1.25,0,0,1-.355.944,1.383,1.383,0,0,1-1,.339,1.324,1.324,0,0,1-.964-.324,1.271,1.271,0,0,1-.33-.941v-.167Z" transform="translate(-761.499 -146.954)"/><path class="b" d="M509.73,176.8V172h.453v4.428h1.609v.376Z" transform="translate(-401.701 -147.243)"/><path class="b" d="M791.729,173.125a7.769,7.769,0,0,1,.086-1.4,1.523,1.523,0,0,1,.294-.652,1.132,1.132,0,0,1,.452-.315,1.812,1.812,0,0,1,.643-.106,1.849,1.849,0,0,1,.638.1,1.131,1.131,0,0,1,.453.317,1.485,1.485,0,0,1,.3.665,7.632,7.632,0,0,1,.088,1.389,7.866,7.866,0,0,1-.086,1.387,1.413,1.413,0,0,1-.3.668,1.225,1.225,0,0,1-.453.317,1.834,1.834,0,0,1-.636.111,1.779,1.779,0,0,1-.631-.111,1.161,1.161,0,0,1-.468-.317,1.481,1.481,0,0,1-.294-.679A7.9,7.9,0,0,1,791.729,173.125Zm.453,0a4.11,4.11,0,0,0,.226,1.679.975.975,0,0,0,1.609,0,6.4,6.4,0,0,0,0-3.374.971.971,0,0,0-1.609,0,4.052,4.052,0,0,0-.231,1.695Z" transform="translate(-615.136 -146.198)"/><path class="b" d="M815.647,173.489h-.894V175.8h-.423V171h.959a2.048,2.048,0,0,1,1.22.256,1.211,1.211,0,0,1,.3.959,1.4,1.4,0,0,1-.163.744.829.829,0,0,1-.534.344.763.763,0,0,1,.507.276,1.309,1.309,0,0,1,.145.717v.579c0,.127.011.226.011.3a2.635,2.635,0,0,0,.02.306c0,.034.018.143.045.326h-.468q-.027-.305-.041-.55c-.011-.163-.016-.335-.016-.514v-.631a.715.715,0,0,0-.188-.473A.679.679,0,0,0,815.647,173.489Zm-.894-.342h.511a1.344,1.344,0,0,0,.864-.215.975.975,0,0,0,.249-.765.8.8,0,0,0-.21-.638,1.333,1.333,0,0,0-.815-.176h-.6Z" transform="translate(-632.271 -146.469)"/><path class="b" d="M949.647,174.489h-.894V176.8h-.423V172h.959a2.048,2.048,0,0,1,1.22.256,1.211,1.211,0,0,1,.3.959,1.4,1.4,0,0,1-.163.744.828.828,0,0,1-.534.344.763.763,0,0,1,.507.276,1.308,1.308,0,0,1,.145.717v.579c0,.127.011.226.011.3a2.636,2.636,0,0,0,.02.306c0,.034.018.143.045.326h-.469q-.027-.306-.041-.55c-.011-.163-.016-.335-.016-.514v-.631a.715.715,0,0,0-.188-.473A.679.679,0,0,0,949.647,174.489Zm-.894-.342h.511a1.344,1.344,0,0,0,.864-.215.975.975,0,0,0,.249-.765.8.8,0,0,0-.21-.638,1.334,1.334,0,0,0-.815-.176h-.6Z" transform="translate(-730.815 -147.243)"/><path class="b" d="M1032.608,174.489h-.905V176.8h-.423V172h.959a2.049,2.049,0,0,1,1.22.256,1.212,1.212,0,0,1,.3.959,1.4,1.4,0,0,1-.163.744.828.828,0,0,1-.534.344.763.763,0,0,1,.507.276,1.308,1.308,0,0,1,.145.717v.876a2.636,2.636,0,0,0,.02.306c0,.034.018.143.045.326h-.468q-.027-.306-.041-.55c0-.163-.016-.335-.016-.514v-.432a.818.818,0,0,0-.011-.2.716.716,0,0,0-.188-.473A.679.679,0,0,0,1032.608,174.489Zm-.905-.342h.511a1.344,1.344,0,0,0,.864-.215.975.975,0,0,0,.249-.765.8.8,0,0,0-.21-.638,1.334,1.334,0,0,0-.815-.176h-.6Z" transform="translate(-794.995 -147.243)"/><path class="b" d="M497,176.8V172h.452v4.8Z" transform="translate(-392.112 -147.243)"/><path class="b" d="M835,175.8V171h.453v4.8Z" transform="translate(-648.028 -146.469)"/><path class="b" d="M1053,176.8V172h.453v4.8Z" transform="translate(-811.8 -147.243)"/><path class="b" d="M527,176.8V172h.453v4.8Z" transform="translate(-414.826 -147.243)"/><path class="b" d="M539,172h1.079a2.811,2.811,0,0,1,.735.077,1.088,1.088,0,0,1,.452.251,1.39,1.39,0,0,1,.376.7,3.755,3.755,0,0,1,.081.575c.02.226.029.5.029.81a6.162,6.162,0,0,1-.111,1.371,1.358,1.358,0,0,1-.376.679,1.131,1.131,0,0,1-.452.247,2.825,2.825,0,0,1-.74.079H539Zm.435,4.435h.543a2.774,2.774,0,0,0,.622-.052.774.774,0,0,0,.357-.179,1.022,1.022,0,0,0,.269-.545,6.572,6.572,0,0,0,.081-1.242,8.881,8.881,0,0,0-.05-1.1,1.52,1.52,0,0,0-.165-.566.753.753,0,0,0-.38-.308,2.2,2.2,0,0,0-.735-.093h-.543Z" transform="translate(-423.837 -147.239)"/><path class="b" d="M559.8,175.8h-.453l1.557-4.8h.489l1.516,4.8h-.473l-.4-1.281h-1.865Zm.5-1.654h1.638l-.806-2.715Z" transform="translate(-439.213 -146.469)"/><path class="b" d="M583,171h1.079a2.81,2.81,0,0,1,.735.077,1.088,1.088,0,0,1,.453.251,1.389,1.389,0,0,1,.376.7,3.762,3.762,0,0,1,.081.575c.02.226.029.5.029.81a6.163,6.163,0,0,1-.111,1.371,1.359,1.359,0,0,1-.376.679,1.13,1.13,0,0,1-.453.247,2.824,2.824,0,0,1-.74.079H583Zm.434,4.435h.543a2.775,2.775,0,0,0,.622-.052.774.774,0,0,0,.357-.179,1.022,1.022,0,0,0,.269-.545,6.552,6.552,0,0,0,.082-1.242,8.845,8.845,0,0,0-.05-1.1,1.524,1.524,0,0,0-.165-.566.754.754,0,0,0-.38-.308,2.2,2.2,0,0,0-.735-.093h-.543Z" transform="translate(-457.144 -146.466)"/><path class="b" d="M607.17,175.8H605V171h2.168v.376h-1.733v1.774h1.631v.339h-1.631v1.9h1.733Z" transform="translate(-473.82 -146.469)"/><path class="b" d="M668.333,175.8h-.453l1.557-4.8h.489l1.516,4.8h-.473l-.4-1.281h-1.855Zm.5-1.654h1.64l-.808-2.715Z" transform="translate(-521.363 -146.469)"/><path class="b" d="M846.333,175.8h-.453l1.557-4.8h.489l1.516,4.8h-.473l-.4-1.281h-1.855Zm.5-1.654h1.641l-.808-2.715Z" transform="translate(-656.097 -146.469)"/><path class="b" d="M1008.332,176.774h-.453l1.548-4.8h.489l1.516,4.8h-.473l-.4-1.281h-1.855Zm.5-1.654h1.641l-.808-2.715Z" transform="translate(-776.89 -147.22)"/><path class="b" d="M1064.333,176.774h-.453l1.548-4.8h.489l1.516,4.8h-.473l-.4-1.281h-1.855Zm.5-1.654h1.64l-.808-2.715Z" transform="translate(-820.219 -147.22)"/><path class="b" d="M1086.84,176.8V172h.453v4.428h1.606v.376Z" transform="translate(-837.983 -147.243)"/><path class="b" d="M734.159,175.8H732V171h2.17v.376h-1.733v1.774h1.631v.339h-1.631v1.9h1.733Z" transform="translate(-569.962 -146.469)"/><path class="b" d="M885.159,176.8H883V172h2.17v.376h-1.733v1.774h1.631v.339h-1.631v1.9h1.733Z" transform="translate(-684.274 -147.243)"/><path class="b" d="M972.159,176.8H970V172h2.17v.376h-1.733v1.774h1.631v.339h-1.631v1.9h1.733Z" transform="translate(-747.581 -147.243)"/><path class="b" d="M900.84,176.8V172h.715l1.158,3.448.122.416.14.577.179-.726c.016-.072.032-.131.045-.174l.029-.093,1.15-3.448h.706v4.8h-.41v-3.948l.023-.579-1.5,4.526h-.487l-1.5-4.546.023.586V176.8Z" transform="translate(-697.657 -147.243)"/><path class="b" d="M929.425,176.8H929V172h1.131a1.334,1.334,0,0,1,.978.3,1.358,1.358,0,0,1,.3.982,1.344,1.344,0,0,1-.315,1,1.542,1.542,0,0,1-1.075.3h-.593Zm0-4.469v1.917h.625a1.021,1.021,0,0,0,.742-.213,1.086,1.086,0,0,0,.206-.756,1.039,1.039,0,0,0-.208-.735,1.007,1.007,0,0,0-.74-.213Z" transform="translate(-715.859 -147.243)"/><path class="b" d="M369.737,175.1h.453v.02a1.552,1.552,0,0,1-.346,1.077,1.269,1.269,0,0,1-.989.385,1.357,1.357,0,0,1-.638-.143,1.228,1.228,0,0,1-.452-.419,1.459,1.459,0,0,1-.2-.545,7.625,7.625,0,0,1-.061-1.177v-.186a9.258,9.258,0,0,1,.032-1.068,2.779,2.779,0,0,1,.109-.579,1.1,1.1,0,0,1,.453-.615,1.383,1.383,0,0,1,.8-.226,1.274,1.274,0,0,1,.966.319.991.991,0,0,1,.226.41,2.1,2.1,0,0,1,.077.613v.027h-.453a1.265,1.265,0,0,0-.19-.772.735.735,0,0,0-.615-.244.758.758,0,0,0-.733.405,3.528,3.528,0,0,0-.213,1.482v.532c0,.217.011.367.011.453a2.594,2.594,0,0,0,.016.326c.011.088.027.192.052.312a.9.9,0,0,0,.283.532.79.79,0,0,0,.539.188.8.8,0,0,0,.634-.265,1.05,1.05,0,0,0,.226-.729Z" transform="translate(-294.014 -146.946)"/><path class="b" d="M389.2,174.125a7.788,7.788,0,0,1,.086-1.4,1.522,1.522,0,0,1,.294-.652,1.131,1.131,0,0,1,.453-.315,1.81,1.81,0,0,1,.643-.106,1.849,1.849,0,0,1,.638.1,1.131,1.131,0,0,1,.453.317,1.484,1.484,0,0,1,.3.665,7.637,7.637,0,0,1,.088,1.389,7.878,7.878,0,0,1-.086,1.387,1.413,1.413,0,0,1-.3.667,1.224,1.224,0,0,1-.464.317,1.835,1.835,0,0,1-.636.111,1.778,1.778,0,0,1-.631-.111,1.16,1.16,0,0,1-.468-.317,1.48,1.48,0,0,1-.294-.679A7.886,7.886,0,0,1,389.2,174.125Zm.453,0a4.109,4.109,0,0,0,.226,1.679.975.975,0,0,0,1.609,0,6.4,6.4,0,0,0,0-3.374.971.971,0,0,0-1.609,0,4.049,4.049,0,0,0-.231,1.695Z" transform="translate(-310.434 -146.971)"/><path class="b" d="M412.81,176.8V172h.679l2.036,4.526c-.025-.158-.045-.333-.063-.525v-4h.421v4.8h-.652l-2.036-4.5a1.775,1.775,0,0,0,.029.226,1.631,1.631,0,0,1,.014.226c0,.066,0,.158.011.281a1.357,1.357,0,0,1,0,.226V176.8Z" transform="translate(-328.305 -147.243)"/><path class="b" d="M435.514,176.8v-4.428H434.34V172h2.77v.376h-1.179V176.8Z" transform="translate(-344.61 -147.243)"/><path class="b" d="M454.373,176.8h-.453l1.559-4.8h.5l1.516,4.8h-.473l-.4-1.281h-1.858Zm.5-1.654h1.638l-.806-2.715Z" transform="translate(-359.41 -147.243)"/><path class="b" d="M476.92,176.8V172h.959a2.016,2.016,0,0,1,1.22.256,1.211,1.211,0,0,1,.3.959,1.4,1.4,0,0,1-.163.744.828.828,0,0,1-.534.344.905.905,0,0,1,.606.369,1.41,1.41,0,0,1,.192.8,1.984,1.984,0,0,1-.1.679.927.927,0,0,1-.319.432,1.061,1.061,0,0,1-.4.167,4.2,4.2,0,0,1-.806.054Zm.423-2.654h.511a1.33,1.33,0,0,0,.86-.213.923.923,0,0,0,.247-.729.892.892,0,0,0-.2-.679,1.456,1.456,0,0,0-.885-.176h-.536Zm0,2.3h.536a1.46,1.46,0,0,0,.946-.206,1.086,1.086,0,0,0,.226-.785.955.955,0,0,0-.249-.751,1.476,1.476,0,0,0-.937-.226h-.511Z" transform="translate(-376.848 -147.243)"/><path class="b" d="M638.156,175.808H636V171h2.168v.376h-1.733v1.774h1.631v.353h-1.631v1.9h1.733Z" transform="translate(-497.288 -146.469)"/><path class="b" d="M322.81,77.208l4.942-.932a2.943,2.943,0,0,0,3.2,2.206q2.009,0,2.007-1.131a1.048,1.048,0,0,0-.464-.905,4.663,4.663,0,0,0-1.656-.579q-4.562-.921-5.856-2.4a5.114,5.114,0,0,1-1.3-3.48,5.562,5.562,0,0,1,1.862-4.281A7.647,7.647,0,0,1,330.9,64q5.3,0,7,4.464l-4.412,1.4a2.685,2.685,0,0,0-2.781-1.826q-1.74,0-1.74,1.131a.905.905,0,0,0,.394.785,4.652,4.652,0,0,0,1.523.534,29.075,29.075,0,0,1,4.421,1.222,4.8,4.8,0,0,1,2.186,1.81,5.261,5.261,0,0,1,.876,3.034,5.476,5.476,0,0,1-2.134,4.476,8.662,8.662,0,0,1-5.6,1.713Q324.294,82.754,322.81,77.208Z" transform="translate(-259.939 -63.681)"/><path class="b" d="M408.058,93.462l4.725.333a5.883,5.883,0,0,1-2.141,3.408,7.145,7.145,0,0,1-4.654,1.405,6.952,6.952,0,0,1-5.2-1.98,6.76,6.76,0,0,1-1.944-4.912,7.32,7.32,0,0,1,1.919-5.132,6.6,6.6,0,0,1,5.118-2.093,6.668,6.668,0,0,1,5.012,1.973,7.381,7.381,0,0,1,1.908,5.383q0,.281-.014.774h-8.651a3.637,3.637,0,0,0,.432,1.9,1.71,1.71,0,0,0,1.552.609A1.793,1.793,0,0,0,408.058,93.462Zm-.344-3.519a2.546,2.546,0,0,0-.525-1.846,1.81,1.81,0,0,0-1.272-.473q-1.81,0-1.8,2.319Z" transform="translate(-317.462 -79.535)"/><path class="b" d="M479.714,83.425h-4.752v-1.8a3.613,3.613,0,0,1-3.48,2.079,4.347,4.347,0,0,1-3.62-1.833,8.7,8.7,0,0,1-1.392-5.327,8.627,8.627,0,0,1,1.4-5.184,4.354,4.354,0,0,1,3.7-1.921,3.9,3.9,0,0,1,3.168,1.534V65.23h4.978Zm-4.978-8.718q0-1.835-1.444-1.835c-.679,0-1.107.387-1.315,1.161a11.088,11.088,0,0,0-.312,2.84q0,3.292,1.6,3.292a1.294,1.294,0,0,0,1.034-.52,2.461,2.461,0,0,0,.425-1.584Z" transform="translate(-368.624 -64.633)"/><path class="b" d="M541.879,62.69V66.9H536.81V62.69Zm0,5.2V81.451H536.81V67.9Z" transform="translate(-422.102 -62.667)"/><path class="b" d="M590.573,98.323h-4.917V89.845a2.291,2.291,0,0,0-.226-1.192.929.929,0,0,0-.83-.339q-1.421,0-1.423,2.172v7.838h-4.865V89.845q0-1.627-1.195-1.625-1.231,0-1.231,1.625v8.479H571V84.767h4.548v1.826a3.87,3.87,0,0,1,3.543-2.107,3.827,3.827,0,0,1,3.634,2.107,4.186,4.186,0,0,1,3.86-2.107,4.3,4.3,0,0,1,2.193.548,3.351,3.351,0,0,1,1.371,1.405,6.309,6.309,0,0,1,.425,2.661Z" transform="translate(-447.419 -79.531)"/><path class="b" d="M675.589,93.462l4.734.333a5.883,5.883,0,0,1-2.141,3.408,7.145,7.145,0,0,1-4.654,1.405,6.953,6.953,0,0,1-5.2-1.98,6.76,6.76,0,0,1-1.944-4.912,7.32,7.32,0,0,1,1.919-5.132,6.6,6.6,0,0,1,5.118-2.093,6.664,6.664,0,0,1,5.012,1.973,7.348,7.348,0,0,1,1.894,5.383q0,.281-.014.774h-8.646a3.608,3.608,0,0,0,.432,1.9,1.732,1.732,0,0,0,1.55.62A1.808,1.808,0,0,0,675.589,93.462Zm-.344-3.519a2.546,2.546,0,0,0-.525-1.846,1.81,1.81,0,0,0-1.272-.473q-1.8,0-1.81,2.319Z" transform="translate(-519.767 -79.535)"/><path class="b" d="M749.393,98.319h-5.069V89.788a2.028,2.028,0,0,0-.31-1.358,1.1,1.1,0,0,0-.783-.294q-1.385,0-1.383,2.036v8.146H736.78V84.762h4.7v1.919a3.767,3.767,0,0,1,3.722-2.2,4.652,4.652,0,0,1,2.38.568,3.329,3.329,0,0,1,1.392,1.466,8.182,8.182,0,0,1,.419,3.125Z" transform="translate(-573.07 -79.526)"/><path class="b" d="M807.4,70.372v3.455h-2.58v5c0,.679.125,1.091.369,1.22a1.623,1.623,0,0,0,.763.192,5.657,5.657,0,0,0,1.448-.226V83.8a14.584,14.584,0,0,1-2.942.308,4.815,4.815,0,0,1-3.437-1.054,4.481,4.481,0,0,1-1.1-3.358V73.827H798V70.372h1.93l.077-4.412,4.813-.079v4.492Z" transform="translate(-619.545 -65.136)"/><path class="b" d="M858.564,98.356h-4.826a9.306,9.306,0,0,1-.179-1.892,4.58,4.58,0,0,1-4.154,2.172,4.449,4.449,0,0,1-3.424-1.226A4.016,4.016,0,0,1,844.85,94.6a4.084,4.084,0,0,1,1.86-3.473q1.86-1.328,6.6-1.584v-.305a1.433,1.433,0,0,0-.389-1.188,1.864,1.864,0,0,0-1.131-.292q-1.751,0-1.957,1.48l-4.623-.453q.991-4.254,6.745-4.254a11.767,11.767,0,0,1,2.871.328,4.73,4.73,0,0,1,2.07,1.018,3.581,3.581,0,0,1,1.023,1.466,11.165,11.165,0,0,1,.26,2.973v5.408A7.806,7.806,0,0,0,858.564,98.356Zm-5.258-6.336q-3.243.36-3.24,2.172c0,.819.428,1.226,1.283,1.226a2,2,0,0,0,1.385-.507,3.084,3.084,0,0,0,.573-2.238Z" transform="translate(-654.733 -79.564)"/><path class="b" d="M935.431,65.24V76.705a13.623,13.623,0,0,1-.453,4.019,3.962,3.962,0,0,1-1.758,2.186,6.714,6.714,0,0,1-3.544.808,13.264,13.264,0,0,1-3.557-.453V78.921a7.322,7.322,0,0,0,2.082.333,2.065,2.065,0,0,0,1.627-.554,3.111,3.111,0,0,0,.482-2V65.24Z" transform="translate(-713.63 -64.64)"/><path class="b" d="M982.406,76.825v6.612H977V65.24h7.406a10.229,10.229,0,0,1,4.211.679,5.19,5.19,0,0,1,2.285,2.036,5.758,5.758,0,0,1,.846,3.08,5.454,5.454,0,0,1-1.729,4.2,6.52,6.52,0,0,1-4.611,1.6Zm-.077-3.906h1.778q2.349,0,2.351-1.81,0-1.7-2.172-1.706h-1.957Z" transform="translate(-752.997 -64.64)"/><path class="b" d="M1068.111,65.24v18.2h-4.94V70.426l-3.208,13.011h-3.379l-3.335-13.011V83.437h-3.989V65.24h6.956l2.516,9.676,2.4-9.664Z" transform="translate(-808.907 -64.64)"/><path class="c" d="M112.9,78.119V92.133H98.516A14.624,14.624,0,0,1,112.9,78.119m0-8.438v2.785A20.281,20.281,0,0,0,92.864,92.133h-2.67A23.008,23.008,0,0,1,112.9,69.681ZM96.378,62.59h6.245A31.9,31.9,0,0,0,81.31,92.133H78.88A34.423,34.423,0,0,1,96.371,62.59Zm-31.271,0H76.165A47.518,47.518,0,0,0,65.58,92.133H65.1Z" transform="translate(-65.1 -62.59)"/></g></svg>