<svg xmlns="http://www.w3.org/2000/svg" width="314" height="643.178" viewBox="0 0 314 643.178"><defs><style>.a{fill:#e5243b;}.b{fill:#fff;}.c{fill:none;stroke:#fff;stroke-linecap:round;stroke-miterlimit:10;stroke-width:1.307px;}.d{fill:#c5192d;}.e{fill:#ff3a21;}.f{fill:#a21942;}.g{fill:#dd1367;}.h{fill:#fd6925;}.i{fill:#19486a;}.j{fill:#f1f1f1;}.k{fill:#56c22b;}.l{fill:#dda63a;}.m{fill:#4c9f38;}.n{fill:#3f7e44;}.o{fill:#fcc30b;}.p{fill:#ff9f24;}.q{fill:#0a97d9;}.r{fill:#26bde2;}.s{fill:#ff6924;}.t{fill:#e8203a;}.u{fill:#bf8b2e;}.v{fill:#00689d;}</style></defs><g transform="translate(5700.635 91.95)"><g transform="translate(-5700.634 -91.951)"><rect class="a" width="148.937" height="148.943"/><path class="b" d="M-2344.693,363.8h.044v22.988h5.048V356.757h-4.031l-4.649,5.448v5.269h.044Z" transform="translate(2365.488 -344.212)"/><g transform="translate(109.017 66.934)"><path class="b" d="M-2242.942,419.647a4.125,4.125,0,0,1,4.126-4.125,4.121,4.121,0,0,1,4.118,4.125,4.122,4.122,0,0,1-4.118,4.124,4.126,4.126,0,0,1-4.126-4.124" transform="translate(2248.625 -415.522)"/><path class="b" d="M-2234.459,426.15a5.5,5.5,0,0,1,4.989,5.476v11.429a1.6,1.6,0,0,1-1.6,1.6,1.6,1.6,0,0,1-1.6-1.6V433.24c0-.368-.106-.866-.78-.866-.465,0-.562.493-.579.807V462.6a2.3,2.3,0,0,1-2.294,2.3,2.3,2.3,0,0,1-2.3-2.3V445.648a.623.623,0,0,0-.651-.674h0a.632.632,0,0,0-.663.674V462.6a2.3,2.3,0,0,1-2.294,2.3,2.3,2.3,0,0,1-2.3-2.3V433.18c-.016-.314-.116-.807-.578-.807-.677,0-.779.5-.779.866v9.816a1.6,1.6,0,0,1-1.6,1.6,1.6,1.6,0,0,1-1.6-1.6V431.626a5.5,5.5,0,0,1,5-5.476,2.425,2.425,0,0,1,.3-.025h9.012a2.61,2.61,0,0,1,.314.025" transform="translate(2249.083 -416.312)"/></g><g transform="translate(75.068 69.316)"><path class="b" d="M-2270.062,422a3.9,3.9,0,0,0-3.9-3.909,3.908,3.908,0,0,0-3.906,3.909,3.9,3.9,0,0,0,3.906,3.9,3.9,3.9,0,0,0,3.9-3.9" transform="translate(2285.176 -418.096)"/><path class="b" d="M-2282.419,431.629l-3.246,10.566s-.579,1.937,1.065,2.42,2.132-1.407,2.132-1.407l2.617-8.818s.142-.677.652-.531.318.872.318.872l-4.555,16.526h4.236v11.837a2.034,2.034,0,0,0,2.036,2.031,2.031,2.031,0,0,0,2.031-2.031V451.257h1.156v11.837a2.031,2.031,0,0,0,2.033,2.031,2.034,2.034,0,0,0,2.037-2.031V451.257h4.234l-4.552-16.526s-.191-.726.318-.872.652.531.652.531l2.617,8.818s.5,1.892,2.131,1.407,1.065-2.42,1.065-2.42l-3.246-10.566s-1.159-3.054-3.728-3.054h-8.273c-2.568,0-3.731,3.054-3.731,3.054" transform="translate(2285.763 -418.876)"/></g><g transform="translate(51.683 69.316)"><path class="b" d="M-2295.329,422a3.906,3.906,0,0,0-3.9-3.909,3.907,3.907,0,0,0-3.9,3.909,3.9,3.9,0,0,0,3.9,3.9,3.9,3.9,0,0,0,3.9-3.9" transform="translate(2310.442 -418.096)"/><path class="b" d="M-2307.687,431.629l-3.244,10.566s-.581,1.937,1.063,2.42,2.131-1.407,2.131-1.407l2.617-8.818s.142-.677.652-.531.318.872.318.872l-4.554,16.526h4.236v11.837a2.036,2.036,0,0,0,2.036,2.031,2.032,2.032,0,0,0,2.033-2.031V451.257h1.156v11.837a2.029,2.029,0,0,0,2.033,2.031,2.031,2.031,0,0,0,2.035-2.031V451.257h4.236l-4.551-16.526s-.193-.726.315-.872.653.531.653.531l2.615,8.818s.5,1.892,2.132,1.407,1.065-2.42,1.065-2.42l-3.246-10.566s-1.157-3.054-3.727-3.054h-8.273c-2.566,0-3.731,3.054-3.731,3.054" transform="translate(2311.03 -418.876)"/></g><g transform="translate(95.381 88.577)"><path class="b" d="M-2255.528,445.407a3.247,3.247,0,0,0,3.249-3.253,3.243,3.243,0,0,0-3.249-3.247,3.245,3.245,0,0,0-3.25,3.247,3.249,3.249,0,0,0,3.25,3.253" transform="translate(2263.441 -438.907)"/><path class="b" d="M-2263.7,456.128a1.13,1.13,0,0,0,.474,1.538,1.085,1.085,0,0,0,1.394-.454l1.766-5.634s.307-.378.307.013v13.263h.008a1.664,1.664,0,0,0,1.668,1.668,1.664,1.664,0,0,0,1.666-1.668V459.62s-.1-.739.5-.739.5.739.5.739v5.234a1.668,1.668,0,0,0,1.67,1.668,1.67,1.67,0,0,0,1.671-1.668V451.591c0-.391.206-.112.206-.112l1.384,3.858a9.258,9.258,0,0,0,.787,1.8,1.231,1.231,0,0,0,1.611-.665,1.214,1.214,0,0,0-.132-1.187l.011-.012c-.04-.125-2.07-5.1-2.308-5.8-.733-2.14-2.066-2.121-3.352-2.156s-2.053,0-2.053,0-.82-.033-2.517.017-2.228.921-4.1,5.727c-.266.693-1.169,2.932-1.18,3.066Z" transform="translate(2263.816 -439.532)"/></g><g transform="translate(15.729 66.934)"><g transform="translate(2.265)"><path class="b" d="M-2333.04,419.647a4.126,4.126,0,0,0-4.126-4.125,4.121,4.121,0,0,0-4.119,4.125,4.122,4.122,0,0,0,4.119,4.124,4.127,4.127,0,0,0,4.126-4.124" transform="translate(2346.972 -415.522)"/><path class="b" d="M-2342.437,426.15a5.5,5.5,0,0,0-4.992,5.476v11.429a1.6,1.6,0,0,0,1.6,1.6,1.6,1.6,0,0,0,1.6-1.6V433.24c0-.368.107-.866.78-.866.465,0,.561.493.582.807V462.6a2.294,2.294,0,0,0,2.293,2.3,2.3,2.3,0,0,0,2.3-2.3V445.648a.628.628,0,0,1,.655-.674h0a.63.63,0,0,1,.661.674V462.6a2.3,2.3,0,0,0,2.3,2.3,2.3,2.3,0,0,0,2.3-2.3V433.18c.014-.314.119-.807.579-.807.677,0,.779.5.779.866v9.816a1.6,1.6,0,0,0,1.6,1.6,1.6,1.6,0,0,0,1.6-1.6V431.626a5.5,5.5,0,0,0-5-5.476,2.441,2.441,0,0,0-.3-.025h-9.012a2.578,2.578,0,0,0-.314.025" transform="translate(2347.43 -416.312)"/></g><line class="c" x1="3.661" y2="19.408" transform="translate(0 28.406)"/></g><g transform="translate(37.381 88.577)"><path class="b" d="M-2324.3,444.045a1.19,1.19,0,0,0-1-.555,1.185,1.185,0,0,0-1.185,1.181,2.162,2.162,0,0,0,.116.52l3.276,5.929a2.093,2.093,0,0,1,.2.782v12.732h.006a1.6,1.6,0,0,0,1.6,1.6,1.6,1.6,0,0,0,1.6-1.6v-5.025s-.091-.711.483-.711.483.711.483.711v5.025a1.6,1.6,0,0,0,1.6,1.6,1.6,1.6,0,0,0,1.6-1.6V451.9a2.119,2.119,0,0,1,.2-.782l3.029-5.474a5.344,5.344,0,0,0,.37-.976,1.184,1.184,0,0,0-1.185-1.181,1.173,1.173,0,0,0-1,.555l-.013-.006c-.1.081-1.612,2.782-2.113,3.283a1.313,1.313,0,0,1-1,.475h-3.938a1.312,1.312,0,0,1-1-.475c-.506-.5-2.017-3.2-2.114-3.283Z" transform="translate(2326.484 -439.248)"/><path class="b" d="M-2318.877,445.407a3.247,3.247,0,0,0,3.249-3.253,3.243,3.243,0,0,0-3.249-3.247,3.243,3.243,0,0,0-3.248,3.247,3.248,3.248,0,0,0,3.248,3.253" transform="translate(2326.159 -438.907)"/><path class="b" d="M-2319.046,450.858l3.673,2.679,1.745,6.427h-10.842l1.75-6.427Z" transform="translate(2326.333 -439.797)"/></g><g transform="translate(42.835 10.31)"><path class="b" d="M-2320.59,356.523h4.9V358.2h-2.847v3.5h2.036v1.658h-2.036v3.712h2.847v1.676h-4.9Z" transform="translate(2320.59 -354.504)"/><path class="b" d="M-2311.857,363.136v5.6h-2.054V356.523h2.991c2.072,0,2.829,1.027,2.829,2.739v1.568c0,1.316-.468,2.091-1.64,2.361l1.964,5.55h-2.162Zm0-4.938V362h.686a.889.889,0,0,0,1.008-1.009v-1.8c0-.666-.305-.991-1.008-.991Z" transform="translate(2320.092 -354.504)"/><path class="b" d="M-2304.165,363.136v5.6h-2.054V356.523h2.991c2.074,0,2.83,1.027,2.83,2.739v1.568c0,1.316-.469,2.091-1.639,2.361l1.964,5.55h-2.162Zm0-4.938V362h.685a.889.889,0,0,0,1.009-1.009v-1.8c0-.666-.305-.991-1.009-.991Z" transform="translate(2319.52 -354.504)"/><path class="b" d="M-2298.879,368.741l2.306-12.218h2.342l2.324,12.218h-2.107l-.379-2.234h-2.18l-.361,2.234Zm2.576-3.874h1.639l-.811-4.9h-.018Z" transform="translate(2318.973 -354.504)"/><path class="b" d="M-2284.089,359.8v5.659c0,1.874-.775,3.28-2.974,3.28h-3.172V356.523h3.172C-2284.864,356.523-2284.089,357.91-2284.089,359.8Zm-3.226,7.263c.847,0,1.171-.5,1.171-1.244v-6.4a1.071,1.071,0,0,0-1.171-1.226h-.865v8.867Z" transform="translate(2318.329 -354.504)"/><path class="b" d="M-2282.134,356.523h2.055v12.218h-2.055Z" transform="translate(2317.726 -354.504)"/><path class="b" d="M-2278.435,365.575v-5.91c0-1.91.9-3.3,3.064-3.3,2.27,0,2.9,1.262,2.9,3.064v1.441h-1.874v-1.6c0-.757-.252-1.189-.99-1.189s-1.046.522-1.046,1.261V365.9c0,.739.306,1.262,1.046,1.262s.99-.469.99-1.189v-2.253h1.874v2.108c0,1.748-.721,3.045-2.9,3.045C-2277.533,368.873-2278.435,367.468-2278.435,365.575Z" transform="translate(2317.45 -354.493)"/><path class="b" d="M-2271.132,368.741l2.306-12.218h2.342l2.325,12.218h-2.107l-.378-2.234h-2.181l-.361,2.234Zm2.577-3.874h1.64l-.811-4.9h-.019Z" transform="translate(2316.906 -354.504)"/><path class="b" d="M-2260.6,369.972c.577-.018.668-.144.668-.289,0-.126-.11-.2-.289-.2h-.091v-.666c-1.747-.217-2.469-1.532-2.469-3.244v-5.91c0-1.91.9-3.3,3.065-3.3,2.27,0,2.9,1.262,2.9,3.064v1.441h-1.875v-1.6c0-.757-.252-1.189-.99-1.189s-1.046.522-1.046,1.261V365.9c0,.739.306,1.262,1.046,1.262s.99-.469.99-1.189v-2.253h1.875v2.108c0,1.711-.686,2.974-2.722,3.045v.163c.487.071.758.252.758.648,0,.559-.524.865-1.821.865Z" transform="translate(2316.284 -354.493)"/><path class="b" d="M-2255.478,368.578l2.306-12.218h2.343l2.324,12.218h-2.107l-.379-2.234h-2.181l-.36,2.234Zm1.6-12.7c.036-.847.36-1.532,1.261-1.532.522,0,.955.306,1.225.306a.242.242,0,0,0,.253-.27h1.008c-.036.847-.36,1.532-1.261,1.532-.522,0-.954-.306-1.225-.306a.242.242,0,0,0-.252.27Zm.973,8.83h1.64l-.811-4.9h-.019Z" transform="translate(2315.741 -354.342)"/><path class="b" d="M-2247.125,365.575v-5.91c0-1.91.937-3.3,3.1-3.3,2.18,0,3.117,1.387,3.117,3.3v5.91c0,1.893-.937,3.3-3.117,3.3C-2246.188,368.873-2247.125,367.468-2247.125,365.575Zm4.163.325v-6.559c0-.74-.325-1.261-1.063-1.261-.721,0-1.046.522-1.046,1.261V365.9c0,.739.325,1.262,1.046,1.262C-2243.287,367.161-2242.962,366.638-2242.962,365.9Z" transform="translate(2315.119 -354.493)"/><path class="b" d="M-2314.445,379.274v5.659c0,1.874-.774,3.279-2.973,3.279h-3.172V375.995h3.172C-2315.219,375.995-2314.445,377.382-2314.445,379.274Zm-3.226,7.263c.847,0,1.172-.505,1.172-1.244v-6.4a1.071,1.071,0,0,0-1.172-1.225h-.864v8.867Z" transform="translate(2320.59 -355.955)"/><path class="b" d="M-2313.132,388.212l2.307-12.217h2.341l2.325,12.217h-2.107l-.378-2.234h-2.18l-.361,2.234Zm2.577-3.874h1.64l-.811-4.9h-.019Z" transform="translate(2320.034 -355.955)"/><path class="b" d="M-2302.248,375.995h3.046c2.072,0,2.829,1.026,2.829,2.739v2.577c0,1.712-.757,2.757-2.829,2.757h-.992v4.145h-2.054Zm2.054,1.675v4.812h.758a.882.882,0,0,0,1.009-1.009v-2.812c0-.666-.306-.991-1.009-.991Z" transform="translate(2319.224 -355.955)"/><path class="b" d="M-2294.557,385.047v-5.91c0-1.91.938-3.3,3.1-3.3,2.18,0,3.117,1.387,3.117,3.3v5.91c0,1.892-.937,3.3-3.117,3.3C-2293.619,388.345-2294.557,386.939-2294.557,385.047Zm4.163.325v-6.56c0-.739-.324-1.262-1.062-1.262-.722,0-1.046.523-1.046,1.262v6.56c0,.738.323,1.261,1.046,1.261C-2290.718,386.632-2290.394,386.11-2290.394,385.372Z" transform="translate(2318.651 -355.943)"/><path class="b" d="M-2286.379,375.995h2.974c2.054,0,2.74.954,2.74,2.684v1.244a1.78,1.78,0,0,1-1.226,1.946,1.854,1.854,0,0,1,1.533,2.036v1.622c0,1.731-.775,2.685-2.831,2.685h-3.189Zm2.054,5.153h.721a.865.865,0,0,0,.972-.991v-1.5a.864.864,0,0,0-.991-.991h-.7Zm0,1.568v3.821h.9a.885.885,0,0,0,1.01-.992v-1.837c0-.649-.307-.991-1.028-.991Z" transform="translate(2318.042 -355.955)"/><path class="b" d="M-2276.517,382.608v5.6h-2.055V375.995h2.992c2.072,0,2.829,1.026,2.829,2.739V380.3c0,1.315-.468,2.09-1.639,2.36l1.964,5.55h-2.162Zm0-4.938v3.8h.685a.889.889,0,0,0,1.009-1.01v-1.8c0-.666-.305-.991-1.009-.991Z" transform="translate(2317.461 -355.955)"/><path class="b" d="M-2270.88,375.995h4.9v1.675h-2.847v3.5h2.036v1.659h-2.036v3.712h2.847v1.675h-4.9Z" transform="translate(2316.888 -355.955)"/><path class="b" d="M-2262.211,386.537h3.117v1.675h-5.263v-1.675l3.226-8.867h-2.9v-1.675h5.064v1.675Z" transform="translate(2316.402 -355.955)"/><path class="b" d="M-2257.619,388.212l2.306-12.217h2.342l2.325,12.217h-2.109l-.378-2.234h-2.18l-.361,2.234Zm2.577-3.874h1.639l-.811-4.9h-.018Z" transform="translate(2315.9 -355.955)"/></g></g><g transform="translate(-5535.572 -91.951)"><rect class="d" width="148.937" height="148.943"/><path class="b" d="M-2164.036,386.719h4.783v-4.872h2.039v-3.94h-2.039V356.688h-4.961l-8.724,22.059v3.1h8.9Zm-4.474-8.812,4.518-12.359h.045v12.359Z" transform="translate(2187.368 -344.206)"/><path class="b" d="M-2119.321,428.248l-26.712-15.424v49.9l26.712,8.059Z" transform="translate(2185.364 -348.387)"/><path class="b" d="M-2114,428.35V470.8l26.885-8.083V412.826Z" transform="translate(2182.979 -348.387)"/><path class="b" d="M-2062.8,411.206a3.16,3.16,0,0,0-3.158-3.162,3.16,3.16,0,0,0-3.161,3.162v3.407h6.319Z" transform="translate(2179.636 -348.031)"/><path class="b" d="M-2068.336,462.207h-.784l3.162,11.046,3.156-11.046h0V417.814h-6.32v44.393Z" transform="translate(2179.636 -348.759)"/><path class="b" d="M-2084.219,414.958l-2.863-2.262v51.368l-29.68,9.591h-3.017l-29.548-8.255V412.7l-2.865,2.262v52.451l32.278,8.935h3.286l29.78-9.455,2.63-.774Z" transform="translate(2185.823 -348.378)"/><g transform="translate(42.532 10.457)"><path class="b" d="M-2142.575,356.663h4.863v1.663h-2.825v3.468h2.021v1.645h-2.021v3.684h2.825v1.663h-4.863Z" transform="translate(2142.575 -354.661)"/><path class="b" d="M-2129.948,359.917v5.614c0,1.859-.769,3.254-2.949,3.254h-3.147V356.663h3.147C-2130.717,356.663-2129.948,358.039-2129.948,359.917Zm-3.2,7.205c.84,0,1.163-.5,1.163-1.234v-6.347a1.062,1.062,0,0,0-1.163-1.215h-.858v8.8Z" transform="translate(2142.088 -354.661)"/><path class="b" d="M-2122.194,356.663v9.172c0,1.878-.8,3.093-2.878,3.093-2.145,0-3.039-1.215-3.039-3.093v-9.172h2.038v9.368c0,.716.286,1.2,1,1.2s1-.482,1-1.2v-9.368Z" transform="translate(2141.498 -354.661)"/><path class="b" d="M-2120.371,365.645v-5.864c0-1.9.894-3.272,3.039-3.272,2.253,0,2.879,1.25,2.879,3.039v1.43h-1.859v-1.591c0-.751-.251-1.18-.984-1.18s-1.036.518-1.036,1.251v6.508c0,.732.3,1.251,1.036,1.251s.984-.466.984-1.18V363.8h1.859v2.091c0,1.734-.715,3.022-2.879,3.022C-2119.477,368.917-2120.371,367.522-2120.371,365.645Z" transform="translate(2140.921 -354.65)"/><path class="b" d="M-2113.069,368.785l2.289-12.123h2.324l2.306,12.123h-2.092l-.375-2.218h-2.163l-.357,2.218Zm2.557-3.845h1.626l-.8-4.863h-.018Z" transform="translate(2140.378 -354.661)"/><path class="b" d="M-2102.52,370.008c.572-.018.661-.144.661-.287,0-.125-.107-.2-.286-.2h-.089v-.662c-1.734-.215-2.449-1.52-2.449-3.218v-5.864c0-1.9.893-3.272,3.039-3.272,2.252,0,2.878,1.25,2.878,3.039v1.43h-1.859v-1.591c0-.751-.25-1.18-.983-1.18s-1.037.518-1.037,1.251v6.508c0,.732.3,1.251,1.037,1.251s.983-.466.983-1.18V363.8h1.859v2.091c0,1.7-.679,2.951-2.7,3.022v.161c.483.071.751.25.751.643,0,.554-.519.859-1.806.859Z" transform="translate(2139.753 -354.65)"/><path class="b" d="M-2097.381,368.624l2.289-12.122h2.324l2.307,12.122h-2.093l-.375-2.218h-2.164l-.357,2.218Zm1.592-12.6c.036-.841.358-1.52,1.252-1.52.517,0,.947.3,1.215.3a.241.241,0,0,0,.251-.268h1c-.036.84-.358,1.521-1.252,1.521-.518,0-.948-.3-1.215-.3a.239.239,0,0,0-.251.268Zm.965,8.76h1.627l-.8-4.863h-.018Z" transform="translate(2139.209 -354.5)"/><path class="b" d="M-2089,365.645v-5.864c0-1.9.929-3.272,3.075-3.272,2.163,0,3.093,1.376,3.093,3.272v5.864c0,1.877-.93,3.272-3.093,3.272C-2088.066,368.917-2089,367.522-2089,365.645Zm4.13.322v-6.508c0-.733-.322-1.251-1.055-1.251-.715,0-1.036.518-1.036,1.251v6.508c0,.732.322,1.251,1.036,1.251C-2085.187,367.218-2084.865,366.7-2084.865,365.967Z" transform="translate(2138.585 -354.65)"/><path class="b" d="M-2136.479,379.228v5.615c0,1.858-.769,3.253-2.95,3.253h-3.146V375.975h3.146C-2137.248,375.975-2136.479,377.351-2136.479,379.228Zm-3.2,7.205c.84,0,1.163-.5,1.163-1.234v-6.346a1.063,1.063,0,0,0-1.163-1.216h-.858v8.8Z" transform="translate(2142.575 -356.099)"/><path class="b" d="M-2134.629,375.975h4.863v1.662h-2.825v3.469h2.021v1.645h-2.021v3.683h2.825V388.1h-4.863Z" transform="translate(2141.983 -356.099)"/><path class="b" d="M-2123.654,388.908v-.823c-1.626-.286-2.323-1.484-2.323-3.129v-5.864c0-1.895.929-3.272,3.075-3.272,2.163,0,3.093,1.377,3.093,3.272v5.864a2.911,2.911,0,0,1-1.5,2.861l1.5.287v1.519Zm1.807-3.523v-6.615c0-.733-.322-1.252-1.055-1.252-.715,0-1.037.519-1.037,1.252v6.615c0,.715.322,1.251,1.037,1.251C-2122.169,386.637-2121.847,386.1-2121.847,385.385Z" transform="translate(2141.339 -356.088)"/><path class="b" d="M-2112.05,375.975v9.172c0,1.877-.8,3.093-2.879,3.093-2.145,0-3.039-1.216-3.039-3.093v-9.172h2.039v9.368c0,.715.285,1.2,1,1.2s1-.483,1-1.2v-9.368Z" transform="translate(2140.742 -356.099)"/><path class="b" d="M-2110.635,388.1l2.288-12.122h2.325l2.306,12.122h-2.093l-.375-2.217h-2.164l-.357,2.217Zm2.556-3.844h1.627l-.8-4.864h-.019Z" transform="translate(2140.196 -356.099)"/><path class="b" d="M-2102.016,375.975h2.038v10.458h2.431V388.1h-4.469Z" transform="translate(2139.554 -356.099)"/><path class="b" d="M-2096.007,375.975h2.039V388.1h-2.039Z" transform="translate(2139.107 -356.099)"/><path class="b" d="M-2086.324,379.228v5.615c0,1.858-.769,3.253-2.95,3.253h-3.147V375.975h3.147C-2087.094,375.975-2086.324,377.351-2086.324,379.228Zm-3.2,7.205c.84,0,1.163-.5,1.163-1.234v-6.346a1.063,1.063,0,0,0-1.163-1.216h-.857v8.8Z" transform="translate(2138.84 -356.099)"/><path class="b" d="M-2084.926,388.1l2.289-12.122h2.324l2.307,12.122h-2.093l-.375-2.217h-2.164l-.358,2.217Zm2.557-3.844h1.627l-.8-4.864h-.018Z" transform="translate(2138.281 -356.099)"/><path class="b" d="M-2070.209,379.228v5.615c0,1.858-.77,3.253-2.95,3.253h-3.146V375.975h3.146C-2070.979,375.975-2070.209,377.351-2070.209,379.228Zm-3.2,7.205c.84,0,1.161-.5,1.161-1.234v-6.346a1.062,1.062,0,0,0-1.161-1.216h-.858v8.8Z" transform="translate(2137.64 -356.099)"/><path class="b" d="M-2068.359,375.975h4.863v1.662h-2.825v3.469h2.021v1.645h-2.021v3.683h2.825V388.1h-4.863Z" transform="translate(2137.048 -356.099)"/></g></g><g transform="translate(-5700.635 72.794)"><rect class="e" width="148.937" height="148.945"/><path class="b" d="M-1985.25,366.195a4.554,4.554,0,0,0-4.252,2.082h-.045V360.79h8.682v-4.119h-13.287v16.921h4.6v-.667c0-1.771.8-2.746,2.215-2.746,1.551,0,2.172,1.065,2.172,2.7v7.264c0,1.6-.577,2.7-2.127,2.7-1.729,0-2.347-1.151-2.347-2.922v-3.766h-4.609v3.411c0,4.562,1.817,7.486,6.956,7.486,5.094,0,7.175-2.7,7.175-6.866v-7.353c0-4.74-2.435-6.643-5.138-6.643" transform="translate(2008.998 -344.204)"/><g transform="translate(49.966 56.358)"><path class="b" d="M-1897.682,404.094h-18.51a.237.237,0,0,0-.235.236v6.151a.237.237,0,0,0,.235.237h7.37l-8.184,8.186a24.113,24.113,0,0,0-14.948-5.177,24.273,24.273,0,0,0-24.245,24.244,24.276,24.276,0,0,0,21.116,24.036v7.088h-7.3a.235.235,0,0,0-.239.234v6.593a.234.234,0,0,0,.239.235h7.3v6.976a.234.234,0,0,0,.235.235h6.589a.237.237,0,0,0,.239-.235v-6.976h7.3a.235.235,0,0,0,.235-.235v-6.593a.235.235,0,0,0-.235-.234h-7.3v-7.2a24.281,24.281,0,0,0,20.31-23.921,24.1,24.1,0,0,0-4.429-13.945l8.068-8.069v6.885a.238.238,0,0,0,.239.235h6.15a.238.238,0,0,0,.24-.235V404.33a.238.238,0,0,0-.24-.236m-34.272,51.723a17.865,17.865,0,0,1-17.844-17.846,17.865,17.865,0,0,1,17.844-17.846,17.866,17.866,0,0,1,17.846,17.846,17.866,17.866,0,0,1-17.846,17.846" transform="translate(1956.199 -404.094)"/><path class="b" d="M-1919.986,432.783h-21.645a.224.224,0,0,0-.234.211v5.24a.222.222,0,0,0,.234.215h21.645a.224.224,0,0,0,.24-.215v-5.24a.226.226,0,0,0-.24-.211" transform="translate(1955.131 -406.231)"/><path class="b" d="M-1919.986,442.892h-21.645a.227.227,0,0,0-.234.218v5.24a.223.223,0,0,0,.234.211h21.645a.224.224,0,0,0,.24-.211v-5.24a.229.229,0,0,0-.24-.218" transform="translate(1955.131 -406.983)"/></g><g transform="translate(42.532 12.321)"><path class="b" d="M-1964.231,356.668h2.055v12.218h-2.055Z" transform="translate(1964.231 -356.525)"/><path class="b" d="M-1957.431,362.351h2.92v6.523h-1.478v-1.334a1.851,1.851,0,0,1-1.964,1.478c-1.766,0-2.578-1.406-2.578-3.3v-5.91c0-1.91.919-3.3,3.082-3.3,2.27,0,2.938,1.261,2.938,3.063v1.082h-1.875v-1.244c0-.756-.288-1.189-1.026-1.189s-1.064.523-1.064,1.262v6.559c0,.739.306,1.261,1.01,1.261.667,0,1.009-.378,1.009-1.171v-2.163h-.973Z" transform="translate(1963.955 -356.513)"/><path class="b" d="M-1946.6,356.668v9.245c0,1.892-.811,3.117-2.9,3.117-2.163,0-3.064-1.225-3.064-3.117v-9.245h2.055v9.443c0,.72.289,1.207,1.01,1.207s1.009-.487,1.009-1.207v-9.443Z" transform="translate(1963.362 -356.525)"/><path class="b" d="M-1945.011,368.886l2.306-12.218h2.343l2.324,12.218h-2.108l-.379-2.234h-2.181l-.36,2.234Zm2.577-3.874h1.64l-.811-4.9h-.019Z" transform="translate(1962.799 -356.525)"/><path class="b" d="M-1936.366,356.668h2.054v10.543h2.452v1.675h-4.505Z" transform="translate(1962.156 -356.525)"/><path class="b" d="M-1924.146,359.948v5.659c0,1.874-.774,3.279-2.973,3.279h-3.172V356.668h3.172C-1924.92,356.668-1924.146,358.055-1924.146,359.948Zm-3.225,7.263c.847,0,1.172-.505,1.172-1.244v-6.4a1.071,1.071,0,0,0-1.172-1.225h-.865v8.866Z" transform="translate(1961.703 -356.525)"/><path class="b" d="M-1922.54,368.886l2.307-12.218h2.342l2.325,12.218h-2.107l-.38-2.234h-2.179l-.361,2.234Zm2.577-3.874h1.639l-.811-4.9h-.018Z" transform="translate(1961.126 -356.525)"/><path class="b" d="M-1907.75,359.948v5.659c0,1.874-.775,3.279-2.974,3.279h-3.172V356.668h3.172C-1908.525,356.668-1907.75,358.055-1907.75,359.948Zm-3.226,7.263c.847,0,1.171-.505,1.171-1.244v-6.4a1.07,1.07,0,0,0-1.171-1.225h-.865v8.866Z" transform="translate(1960.482 -356.525)"/><path class="b" d="M-1905.795,356.668h4.9v1.676h-2.847v3.5h2.036V363.5h-2.036v3.713h2.847v1.675h-4.9Z" transform="translate(1959.879 -356.525)"/><path class="b" d="M-1958.085,379.421v5.658c0,1.874-.775,3.28-2.974,3.28h-3.172V376.141h3.172C-1958.86,376.141-1958.085,377.528-1958.085,379.421Zm-3.226,7.262c.847,0,1.171-.5,1.171-1.244v-6.4a1.07,1.07,0,0,0-1.171-1.225h-.865v8.866Z" transform="translate(1964.231 -357.975)"/><path class="b" d="M-1956.13,376.141h4.9v1.676h-2.847v3.5h2.036v1.658h-2.036v3.712h2.847v1.676h-4.9Z" transform="translate(1963.628 -357.975)"/><path class="b" d="M-1944.111,381.823h2.919v6.524h-1.478v-1.334a1.851,1.851,0,0,1-1.965,1.478c-1.765,0-2.577-1.406-2.577-3.3v-5.911c0-1.91.919-3.3,3.082-3.3,2.27,0,2.938,1.262,2.938,3.064v1.081h-1.875v-1.243c0-.757-.288-1.189-1.026-1.189s-1.063.522-1.063,1.262v6.559c0,.739.306,1.262,1.009,1.262.666,0,1.009-.379,1.009-1.172v-2.162h-.972Z" transform="translate(1962.963 -357.963)"/><path class="b" d="M-1939.248,375.948h4.9v1.676h-2.847v3.5h2.036v1.658h-2.036v3.712h2.847v1.676h-4.9Zm.848-.451v-.991l1.3-.955h.9l1.3.955v.991l-1.73-.522Z" transform="translate(1962.37 -357.782)"/><path class="b" d="M-1930.839,380.682v7.677h-1.73V376.141h2.018l2.218,7.01v-7.01h1.711v12.218h-1.8Z" transform="translate(1961.873 -357.975)"/><path class="b" d="M-1924.683,376.141h4.9v1.676h-2.847v3.5h2.036v1.658h-2.036v3.712h2.847v1.676h-4.9Z" transform="translate(1961.285 -357.975)"/><path class="b" d="M-1915.949,382.755v5.6H-1918V376.141h2.991c2.073,0,2.829,1.027,2.829,2.74v1.567c0,1.316-.468,2.091-1.639,2.361l1.964,5.55h-2.162Zm0-4.938v3.8h.685a.889.889,0,0,0,1.009-1.009v-1.8c0-.666-.306-.99-1.009-.99Z" transform="translate(1960.788 -357.975)"/><path class="b" d="M-1910.313,385.194v-5.911c0-1.91.938-3.3,3.1-3.3,2.18,0,3.117,1.387,3.117,3.3v5.911c0,1.892-.937,3.3-3.117,3.3C-1909.375,388.492-1910.313,387.086-1910.313,385.194Zm4.163.324v-6.559c0-.739-.324-1.262-1.062-1.262-.721,0-1.046.522-1.046,1.262v6.559c0,.739.325,1.262,1.046,1.262C-1906.474,386.779-1906.15,386.256-1906.15,385.518Z" transform="translate(1960.215 -357.963)"/></g></g><g transform="translate(-5535.574 72.796)"><rect class="f" width="148.937" height="148.942"/><path class="b" d="M-1801.783,379.346v-3.278c0-2.877-1.017-4.96-3.365-6.024,1.991-.972,2.923-2.744,2.923-5.225v-1.242c0-4.694-2.436-7.219-7.087-7.219-4.605,0-7,2.525-7,7.219v1.242c0,2.437.888,4.253,2.834,5.225-2.347,1.064-3.322,3.147-3.322,6.024v3.278c0,4.562,2.171,7.751,7.487,7.751,5.359,0,7.529-3.189,7.529-7.751m-9.789-16.076c0-1.819.622-2.881,2.26-2.881,1.682,0,2.3,1.063,2.3,2.881V365.3c0,1.816-.622,2.881-2.3,2.881-1.638,0-2.26-1.065-2.26-2.881Zm4.74,16.608c0,1.817-.665,3.1-2.479,3.1-1.773,0-2.436-1.285-2.436-3.1v-4.872c0-1.815.663-3.1,2.436-3.1,1.815,0,2.479,1.286,2.479,3.1Z" transform="translate(1830.722 -344.182)"/><path class="b" d="M-1722.135,422.339l-15.139,14.4a2.508,2.508,0,0,0-.864,2.163v40.361a.863.863,0,0,0,.864.861h15.638a.862.862,0,0,0,.862-.861V422.7c0-.476-.373-1.346-1.361-.363" transform="translate(1824.864 -349.063)"/><path class="b" d="M-1769.256,442.61l-15.141,14.4a2.511,2.511,0,0,0-.862,2.161v21.6a.864.864,0,0,0,.862.86h15.639a.862.862,0,0,0,.862-.86v-37.8c0-.478-.376-1.348-1.36-.362" transform="translate(1828.373 -350.572)"/><path class="b" d="M-1719.174,403.47a.432.432,0,0,0-.128-.329.456.456,0,0,0-.28-.123l-.083.006-.124.007-11.591,2.615-.211.022a.457.457,0,0,0-.226.118.443.443,0,0,0,0,.623l.132.131,2.647,2.646-26.267,26.266-12.131-12.132a.344.344,0,0,0-.493,0l-3.292,3.293,0,0-19.447,19.442a.355.355,0,0,0,0,.5l3.3,3.294a.343.343,0,0,0,.49,0l19.2-19.2,8.8,8.8a.25.25,0,0,0,.028.042l3.293,3.288a.344.344,0,0,0,.493,0l29.81-29.81,2.78,2.778a.433.433,0,0,0,.618,0,.426.426,0,0,0,.127-.285l0-.037,2.546-11.834Z" transform="translate(1828.784 -347.657)"/><path class="b" d="M-1745.6,445.336l-7.325,7.385a.351.351,0,0,1-.472-.018l-6.636-6.765c-1.214-1.21-1.476-.229-1.476.247v34.784a.859.859,0,0,0,.856.862h15.642a.863.863,0,0,0,.861-.862V445.609c0-.476-.376-1.348-1.45-.273" transform="translate(1826.604 -350.77)"/><g transform="translate(41.563 12.365)"><path class="b" d="M-1786.935,356.673h3.442v1.176h-2V360.3h1.43v1.163h-1.43v2.607h2v1.176h-3.442Z" transform="translate(1786.935 -356.571)"/><path class="b" d="M-1778.312,359.685h-.038l-.974,5.567h-.671l-1.075-5.567h-.026v5.567h-1.189v-8.579h1.684l.936,4.833h.013l.835-4.833H-1777v8.579h-1.316Z" transform="translate(1786.589 -356.571)"/><path class="b" d="M-1775.582,356.673h2.139c1.455,0,1.986.721,1.986,1.923v1.809c0,1.2-.531,1.936-1.986,1.936h-.7v2.91h-1.443Zm1.443,1.176v3.379h.531a.62.62,0,0,0,.709-.709v-1.974c0-.468-.216-.7-.709-.7Z" transform="translate(1786.089 -356.571)"/><path class="b" d="M-1768.778,361.316v3.935h-1.442v-8.579h2.1c1.456,0,1.987.721,1.987,1.923v1.1c0,.924-.33,1.468-1.151,1.658l1.379,3.9h-1.519Zm0-3.467v2.67h.481a.624.624,0,0,0,.708-.709v-1.265c0-.468-.215-.7-.708-.7Z" transform="translate(1785.69 -356.571)"/><path class="b" d="M-1764.858,356.673h3.442v1.176h-2V360.3h1.43v1.163h-1.43v2.607h2v1.176h-3.442Z" transform="translate(1785.291 -356.571)"/><path class="b" d="M-1758.168,360.663h2.05v4.58h-1.038v-.936a1.3,1.3,0,0,1-1.379,1.038c-1.24,0-1.809-.988-1.809-2.316v-4.151a2.033,2.033,0,0,1,2.164-2.316c1.594,0,2.062.886,2.062,2.152v.759h-1.316V358.6c0-.532-.2-.836-.721-.836s-.747.367-.747.886v4.606c0,.518.216.886.709.886.468,0,.709-.266.709-.823V361.8h-.684Z" transform="translate(1784.955 -356.563)"/><path class="b" d="M-1754.791,363.03v-4.151a2.042,2.042,0,0,1,2.177-2.316,2.045,2.045,0,0,1,2.189,2.316v4.151a2.051,2.051,0,0,1-2.189,2.316A2.048,2.048,0,0,1-1754.791,363.03Zm2.924.228v-4.606c0-.518-.228-.886-.747-.886s-.734.367-.734.886v4.606c0,.518.228.886.734.886S-1751.867,363.776-1751.867,363.257Z" transform="translate(1784.541 -356.563)"/><path class="b" d="M-1749.169,363.4v-1.151h1.342v1.177c0,.48.215.759.708.759.456,0,.658-.3.658-.759v-.329a1.548,1.548,0,0,0-.645-1.214l-.848-.848a2.894,2.894,0,0,1-1.2-2.291v-.291a1.79,1.79,0,0,1,2.025-1.886c1.442,0,2.011.709,2.011,1.949v.7h-1.315v-.747c0-.493-.228-.734-.684-.734a.633.633,0,0,0-.683.709v.177c0,.481.265.76.683,1.164l.924.911a2.882,2.882,0,0,1,1.164,2.228v.417a1.858,1.858,0,0,1-2.1,2.012A1.788,1.788,0,0,1-1749.169,363.4Z" transform="translate(1784.122 -356.563)"/><path class="b" d="M-1737.932,358.976v3.973c0,1.316-.544,2.3-2.088,2.3h-2.228v-8.579h2.228C-1738.476,356.673-1737.932,357.648-1737.932,358.976Zm-2.266,5.1c.595,0,.823-.354.823-.874V358.71a.752.752,0,0,0-.823-.861h-.607v6.226Z" transform="translate(1783.607 -356.571)"/><path class="b" d="M-1736.6,356.673h1.442v8.579h-1.442Z" transform="translate(1783.186 -356.571)"/><path class="b" d="M-1731.864,360.663h2.05v4.58h-1.037v-.936a1.3,1.3,0,0,1-1.379,1.038c-1.24,0-1.81-.988-1.81-2.316v-4.151a2.033,2.033,0,0,1,2.164-2.316c1.595,0,2.063.886,2.063,2.152v.759h-1.316V358.6c0-.532-.2-.836-.721-.836s-.747.367-.747.886v4.606c0,.518.215.886.709.886.468,0,.708-.266.708-.823V361.8h-.683Z" transform="translate(1782.996 -356.563)"/><path class="b" d="M-1727.272,359.861v5.39h-1.215v-8.579h1.417l1.557,4.922v-4.922h1.2v8.579h-1.265Z" transform="translate(1782.582 -356.571)"/><path class="b" d="M-1722.988,363.03v-4.151a2.042,2.042,0,0,1,2.177-2.316,2.045,2.045,0,0,1,2.189,2.316v4.151a2.051,2.051,0,0,1-2.189,2.316A2.048,2.048,0,0,1-1722.988,363.03Zm2.923.228v-4.606c0-.518-.228-.886-.746-.886s-.734.367-.734.886v4.606c0,.518.228.886.734.886S-1720.065,363.776-1720.065,363.257Z" transform="translate(1782.173 -356.563)"/><path class="b" d="M-1717.367,363.4v-1.151h1.341v1.177c0,.48.216.759.709.759.455,0,.658-.3.658-.759v-.329a1.551,1.551,0,0,0-.645-1.214l-.848-.848a2.893,2.893,0,0,1-1.2-2.291v-.291a1.79,1.79,0,0,1,2.024-1.886c1.443,0,2.012.709,2.012,1.949v.7h-1.316v-.747c0-.493-.228-.734-.683-.734a.633.633,0,0,0-.683.709v.177c0,.481.266.76.683,1.164l.924.911a2.882,2.882,0,0,1,1.164,2.228v.417a1.859,1.859,0,0,1-2.1,2.012A1.787,1.787,0,0,1-1717.367,363.4Z" transform="translate(1781.754 -356.563)"/><path class="b" d="M-1710.445,356.673H-1707v1.176h-2V360.3h1.43v1.163H-1709v2.607h2v1.176h-3.442Z" transform="translate(1781.238 -356.571)"/><path class="b" d="M-1786.935,376.709v-4.15a2.023,2.023,0,0,1,2.151-2.316c1.595,0,2.037.886,2.037,2.151v1.013h-1.316V372.28c0-.531-.177-.836-.7-.836s-.734.367-.734.886v4.606c0,.519.215.886.734.886s.7-.329.7-.835v-1.582h1.316v1.48c0,1.228-.506,2.139-2.037,2.139A2.029,2.029,0,0,1-1786.935,376.709Z" transform="translate(1786.935 -357.582)"/><path class="b" d="M-1780.021,375v3.935h-1.442v-8.58h2.1c1.455,0,1.987.721,1.987,1.923v1.1c0,.924-.329,1.468-1.152,1.658l1.38,3.9h-1.519Zm0-3.468v2.67h.481a.624.624,0,0,0,.708-.708v-1.266c0-.467-.215-.7-.708-.7Z" transform="translate(1786.528 -357.59)"/><path class="b" d="M-1776.1,370.352h3.442v1.176h-2v2.455h1.43v1.164h-1.43v2.606h2v1.177h-3.442Z" transform="translate(1786.128 -357.59)"/><path class="b" d="M-1771.6,377.075v-1.151h1.341V377.1c0,.48.216.759.709.759.455,0,.658-.3.658-.759v-.33a1.549,1.549,0,0,0-.646-1.214l-.848-.848a2.893,2.893,0,0,1-1.2-2.291v-.291a1.789,1.789,0,0,1,2.024-1.885c1.443,0,2.012.708,2.012,1.948v.7h-1.316v-.747c0-.493-.228-.734-.683-.734a.634.634,0,0,0-.684.709v.177c0,.481.267.76.684,1.164l.924.912a2.883,2.883,0,0,1,1.164,2.227v.417a1.858,1.858,0,0,1-2.1,2.012A1.787,1.787,0,0,1-1771.6,377.075Z" transform="translate(1785.793 -357.582)"/><path class="b" d="M-1766.211,376.709v-4.15a2.023,2.023,0,0,1,2.151-2.316c1.594,0,2.037.886,2.037,2.151v1.013h-1.316V372.28c0-.531-.177-.836-.7-.836s-.734.367-.734.886v4.606c0,.519.215.886.734.886s.7-.329.7-.835v-1.582h1.316v1.48c0,1.228-.506,2.139-2.037,2.139A2.029,2.029,0,0,1-1766.211,376.709Z" transform="translate(1785.391 -357.582)"/><path class="b" d="M-1760.741,370.352h1.443v8.58h-1.443Z" transform="translate(1784.984 -357.59)"/><path class="b" d="M-1754.21,373.364h-.038l-.975,5.568h-.671l-1.075-5.568h-.025v5.568h-1.189v-8.58h1.683l.937,4.834h.013l.835-4.834h1.822v8.58h-1.316Z" transform="translate(1784.793 -357.59)"/><path class="b" d="M-1751.48,370.352h3.442v1.176h-2v2.455h1.429v1.164h-1.429v2.606h2v1.177h-3.442Z" transform="translate(1784.295 -357.59)"/><path class="b" d="M-1745.615,373.54v5.391h-1.215v-8.58h1.418l1.556,4.922v-4.922h1.2v8.58h-1.265Z" transform="translate(1783.948 -357.59)"/><path class="b" d="M-1741.508,370.352h3.834v1.176h-1.189v7.4h-1.455v-7.4h-1.189Z" transform="translate(1783.552 -357.59)"/><path class="b" d="M-1736.749,376.709v-4.15a2.042,2.042,0,0,1,2.177-2.316,2.045,2.045,0,0,1,2.189,2.316v4.15a2.051,2.051,0,0,1-2.189,2.316A2.048,2.048,0,0,1-1736.749,376.709Zm2.924.228V372.33c0-.518-.228-.886-.747-.886s-.734.367-.734.886v4.606c0,.519.228.886.734.886S-1733.825,377.456-1733.825,376.936Z" transform="translate(1783.198 -357.582)"/><path class="b" d="M-1729.513,370.352h3.442v1.176h-2v2.455h1.43v1.164h-1.43v2.606h2v1.177h-3.442Z" transform="translate(1782.658 -357.59)"/><path class="b" d="M-1725,376.709v-4.15a2.024,2.024,0,0,1,2.152-2.316c1.594,0,2.037.886,2.037,2.151v1.013h-1.316V372.28c0-.531-.177-.836-.7-.836s-.734.367-.734.886v4.606c0,.519.215.886.734.886s.7-.329.7-.835v-1.582h1.316v1.48c0,1.228-.506,2.139-2.037,2.139A2.03,2.03,0,0,1-1725,376.709Z" transform="translate(1782.322 -357.582)"/><path class="b" d="M-1719.528,376.709v-4.15a2.042,2.042,0,0,1,2.177-2.316,2.045,2.045,0,0,1,2.189,2.316v4.15a2.051,2.051,0,0,1-2.189,2.316A2.048,2.048,0,0,1-1719.528,376.709Zm2.923.228V372.33c0-.518-.228-.886-.746-.886s-.734.367-.734.886v4.606c0,.519.228.886.734.886S-1716.605,377.456-1716.605,376.936Z" transform="translate(1781.915 -357.582)"/><path class="b" d="M-1712.609,373.54v5.391h-1.215v-8.58h1.417l1.557,4.922v-4.922h1.2v8.58h-1.265Z" transform="translate(1781.49 -357.59)"/><path class="b" d="M-1708.325,376.581v-4.15a2.042,2.042,0,0,1,2.177-2.316,2.045,2.045,0,0,1,2.189,2.316v4.15a2.051,2.051,0,0,1-2.189,2.316A2.048,2.048,0,0,1-1708.325,376.581Zm.949-6.681v-.7l.911-.67h.633l.911.67v.7l-1.215-.367Zm1.973,6.909V372.2c0-.518-.228-.886-.746-.886s-.734.367-.734.886v4.606c0,.519.228.886.734.886S-1705.4,377.328-1705.4,376.809Z" transform="translate(1781.08 -357.454)"/><path class="b" d="M-1698.647,373.364h-.038l-.974,5.568h-.671l-1.076-5.568h-.025v5.568h-1.19v-8.58h1.683l.936,4.834h.013l.835-4.834h1.822v8.58h-1.316Z" transform="translate(1780.656 -357.59)"/><path class="b" d="M-1695.919,370.352h1.443v8.58h-1.443Z" transform="translate(1780.157 -357.59)"/><path class="b" d="M-1693.361,376.709v-4.15a2.024,2.024,0,0,1,2.151-2.316c1.595,0,2.038.886,2.038,2.151v1.013h-1.316V372.28c0-.531-.178-.836-.7-.836s-.734.367-.734.886v4.606c0,.519.215.886.734.886s.7-.329.7-.835v-1.582h1.316v1.48c0,1.228-.506,2.139-2.038,2.139A2.029,2.029,0,0,1-1693.361,376.709Z" transform="translate(1779.966 -357.582)"/><path class="b" d="M-1687.889,376.709v-4.15a2.042,2.042,0,0,1,2.176-2.316,2.045,2.045,0,0,1,2.19,2.316v4.15a2.051,2.051,0,0,1-2.19,2.316A2.047,2.047,0,0,1-1687.889,376.709Zm2.923.228V372.33c0-.518-.228-.886-.747-.886s-.734.367-.734.886v4.606c0,.519.228.886.734.886S-1684.966,377.456-1684.966,376.936Z" transform="translate(1779.559 -357.582)"/></g></g><g transform="translate(-5535.574 237.54)"><rect class="g" width="148.937" height="148.942" transform="translate(0 0)"/><path class="b" d="M-1459.923,363.721v23.011h5.054V356.671h-4.036l-4.654,5.454V367.4h.042l3.547-3.681Z" transform="translate(1474.292 -344.206)"/><path class="b" d="M-1435.444,378.945V364.4c0-4.7-2.349-8.113-7.492-8.113-5.1,0-7.45,3.412-7.45,8.113v14.544c0,4.654,2.353,8.113,7.45,8.113,5.143,0,7.492-3.459,7.492-8.113m-9.886.8V363.6c0-1.818.664-3.1,2.394-3.1,1.773,0,2.438,1.286,2.438,3.1v16.14c0,1.819-.665,3.1-2.438,3.1-1.73,0-2.394-1.283-2.394-3.1" transform="translate(1473.311 -344.177)"/><g transform="translate(47.538 10.432)"><path class="b" d="M-1421.738,363.268v5.6h-2.054V356.655h2.991c2.072,0,2.829,1.027,2.829,2.739v1.568c0,1.315-.468,2.09-1.64,2.36l1.964,5.55h-2.162Zm0-4.938v3.8h.686a.889.889,0,0,0,1.008-1.01v-1.8c0-.666-.306-.991-1.008-.991Z" transform="translate(1423.792 -354.636)"/><path class="b" d="M-1416.1,356.655h4.9v1.675h-2.847v3.5h2.036v1.658h-2.036V367.2h2.847v1.675h-4.9Z" transform="translate(1423.219 -354.636)"/><path class="b" d="M-1403.277,359.934v5.659c0,1.874-.774,3.279-2.973,3.279h-3.172V356.655h3.172C-1404.051,356.655-1403.277,358.042-1403.277,359.934Zm-3.225,7.263c.847,0,1.172-.505,1.172-1.244v-6.4a1.071,1.071,0,0,0-1.172-1.225h-.865V367.2Z" transform="translate(1422.722 -354.636)"/><path class="b" d="M-1395.356,356.655V365.9c0,1.892-.811,3.117-2.9,3.117-2.163,0-3.065-1.225-3.065-3.117v-9.244h2.055V366.1c0,.721.289,1.208,1.01,1.208s1.009-.487,1.009-1.208v-9.442Z" transform="translate(1422.119 -354.636)"/><path class="b" d="M-1391.235,370.1c.577-.018.667-.144.667-.289,0-.126-.108-.2-.289-.2h-.09v-.666c-1.748-.217-2.469-1.532-2.469-3.244V359.8c0-1.91.9-3.3,3.064-3.3,2.27,0,2.9,1.262,2.9,3.064V361h-1.874v-1.6c0-.757-.253-1.189-.991-1.189s-1.046.522-1.046,1.261v6.56c0,.739.306,1.261,1.046,1.261s.991-.469.991-1.19v-2.252h1.874v2.108c0,1.711-.685,2.974-2.721,3.045v.162c.487.072.757.253.757.649,0,.559-.524.865-1.821.865Z" transform="translate(1421.53 -354.625)"/><path class="b" d="M-1386.114,368.71l2.307-12.217h2.342l2.325,12.217h-2.109l-.378-2.234h-2.18l-.361,2.234Zm1.6-12.7c.036-.847.36-1.532,1.262-1.532.523,0,.954.306,1.224.306a.242.242,0,0,0,.253-.27h1.01c-.036.847-.361,1.532-1.262,1.532-.522,0-.954-.306-1.224-.306a.242.242,0,0,0-.253.27Zm.974,8.829h1.639l-.811-4.9h-.018Z" transform="translate(1420.986 -354.474)"/><path class="b" d="M-1377.761,365.707V359.8c0-1.91.938-3.3,3.1-3.3,2.18,0,3.117,1.387,3.117,3.3v5.91c0,1.893-.937,3.3-3.117,3.3C-1376.823,369-1377.761,367.6-1377.761,365.707Zm4.163.325v-6.56c0-.739-.325-1.261-1.062-1.261-.722,0-1.046.522-1.046,1.261v6.56c0,.739.324,1.261,1.046,1.261C-1373.923,367.293-1373.6,366.77-1373.6,366.032Z" transform="translate(1420.364 -354.625)"/><path class="b" d="M-1361.2,359.934v5.659c0,1.874-.775,3.279-2.974,3.279h-3.172V356.655h3.172C-1361.973,356.655-1361.2,358.042-1361.2,359.934Zm-3.226,7.263c.847,0,1.172-.505,1.172-1.244v-6.4a1.071,1.071,0,0,0-1.172-1.225h-.865V367.2Z" transform="translate(1419.588 -354.636)"/><path class="b" d="M-1359.885,368.872l2.306-12.217h2.341l2.325,12.217h-2.108l-.378-2.234h-2.181l-.361,2.234Zm2.577-3.874h1.64l-.811-4.9h-.019Z" transform="translate(1419.032 -354.636)"/><path class="b" d="M-1351.551,366.23v-1.64h1.909v1.676c0,.684.307,1.081,1.01,1.081.648,0,.937-.432.937-1.081V365.8a2.212,2.212,0,0,0-.918-1.73l-1.208-1.207c-1.172-1.153-1.712-1.857-1.712-3.262v-.415a2.549,2.549,0,0,1,2.884-2.685c2.054,0,2.865,1.009,2.865,2.775v.991h-1.874V359.2c0-.7-.325-1.045-.973-1.045a.9.9,0,0,0-.974,1.009v.253c0,.685.379,1.081.974,1.658l1.315,1.3c1.117,1.136,1.658,1.82,1.658,3.172v.594A2.646,2.646,0,0,1-1348.65,369C-1350.74,369-1351.551,367.834-1351.551,366.23Z" transform="translate(1418.412 -354.625)"/><path class="b" d="M-1417.647,379.406v5.659c0,1.874-.775,3.28-2.974,3.28h-3.171V376.127h3.171C-1418.422,376.127-1417.647,377.514-1417.647,379.406Zm-3.225,7.263c.847,0,1.172-.5,1.172-1.244v-6.4a1.071,1.071,0,0,0-1.172-1.226h-.865v8.867Z" transform="translate(1423.792 -356.087)"/><path class="b" d="M-1415.692,376.127h4.9V377.8h-2.847v3.5h2.036v1.658h-2.036v3.712h2.847v1.676h-4.9Z" transform="translate(1423.189 -356.087)"/><path class="b" d="M-1409.227,385.7v-1.64h1.91v1.676c0,.685.306,1.081,1.009,1.081.649,0,.937-.432.937-1.081v-.468a2.208,2.208,0,0,0-.918-1.731l-1.208-1.207c-1.171-1.153-1.711-1.856-1.711-3.262v-.415a2.548,2.548,0,0,1,2.883-2.685c2.055,0,2.865,1.009,2.865,2.776v.99h-1.875v-1.063c0-.7-.324-1.046-.973-1.046a.9.9,0,0,0-.973,1.009v.253c0,.685.378,1.081.973,1.658l1.315,1.3c1.117,1.136,1.658,1.821,1.658,3.172v.6a2.645,2.645,0,0,1-2.99,2.865C-1408.416,388.477-1409.227,387.306-1409.227,385.7Z" transform="translate(1422.707 -356.075)"/><path class="b" d="M-1401.5,376.127h2.054v12.218h-2.054Z" transform="translate(1422.132 -356.087)"/><path class="b" d="M-1394.7,381.809h2.92v6.524h-1.478V387a1.85,1.85,0,0,1-1.964,1.477c-1.766,0-2.578-1.4-2.578-3.3v-5.91c0-1.91.919-3.3,3.082-3.3,2.27,0,2.938,1.262,2.938,3.064v1.081h-1.875v-1.243c0-.757-.288-1.189-1.026-1.189s-1.063.522-1.063,1.261V385.5c0,.739.306,1.262,1.009,1.262.667,0,1.009-.379,1.009-1.172v-2.162h-.973Z" transform="translate(1421.856 -356.075)"/><path class="b" d="M-1383.868,376.127v9.244c0,1.892-.811,3.117-2.9,3.117-2.163,0-3.063-1.225-3.063-3.117v-9.244h2.054v9.442c0,.721.289,1.208,1.01,1.208s1.009-.487,1.009-1.208v-9.442Z" transform="translate(1421.263 -356.087)"/><path class="b" d="M-1382.57,388.345l2.307-12.218h2.342l2.325,12.218h-2.108l-.379-2.235h-2.18l-.361,2.235Zm2.578-3.874h1.639l-.811-4.9h-.018Z" transform="translate(1420.722 -356.087)"/><path class="b" d="M-1373.925,376.127h2.055v10.542h2.451v1.676h-4.505Z" transform="translate(1420.078 -356.087)"/><path class="b" d="M-1361.7,379.406v5.659c0,1.874-.775,3.28-2.974,3.28h-3.172V376.127h3.172C-1362.479,376.127-1361.7,377.514-1361.7,379.406Zm-3.226,7.263c.847,0,1.172-.5,1.172-1.244v-6.4a1.071,1.071,0,0,0-1.172-1.226h-.865v8.867Z" transform="translate(1419.626 -356.087)"/><path class="b" d="M-1360.391,388.345l2.306-12.218h2.342l2.324,12.218h-2.107l-.379-2.235h-2.181l-.36,2.235Zm2.576-3.874h1.64l-.811-4.9H-1357Z" transform="translate(1419.07 -356.087)"/><path class="b" d="M-1345.6,379.406v5.659c0,1.874-.775,3.28-2.974,3.28h-3.171V376.127h3.171C-1346.376,376.127-1345.6,377.514-1345.6,379.406Zm-3.225,7.263c.847,0,1.171-.5,1.171-1.244v-6.4a1.071,1.071,0,0,0-1.171-1.226h-.865v8.867Z" transform="translate(1418.426 -356.087)"/><path class="b" d="M-1343.647,376.127h4.9V377.8h-2.847v3.5h2.036v1.658h-2.036v3.712h2.847v1.676h-4.9Z" transform="translate(1417.823 -356.087)"/><path class="b" d="M-1337.181,385.7v-1.64h1.909v1.676c0,.685.307,1.081,1.01,1.081.648,0,.937-.432.937-1.081v-.468a2.211,2.211,0,0,0-.918-1.731l-1.208-1.207c-1.171-1.153-1.711-1.856-1.711-3.262v-.415a2.548,2.548,0,0,1,2.883-2.685c2.054,0,2.865,1.009,2.865,2.776v.99h-1.874v-1.063c0-.7-.325-1.046-.973-1.046a.9.9,0,0,0-.973,1.009v.253c0,.685.378,1.081.973,1.658l1.315,1.3c1.117,1.136,1.658,1.821,1.658,3.172v.6a2.645,2.645,0,0,1-2.991,2.865C-1336.37,388.477-1337.181,387.306-1337.181,385.7Z" transform="translate(1417.342 -356.075)"/></g><g transform="translate(34.366 52.227)"><g transform="translate(25.093 25.888)"><path class="b" d="M-1382.975,446.7h-27.636a.32.32,0,0,0-.3.335v8.306a.319.319,0,0,0,.3.338h27.636a.319.319,0,0,0,.3-.338v-8.306a.32.32,0,0,0-.3-.335" transform="translate(1410.912 -429.025)"/><path class="b" d="M-1382.975,427.6h-27.636a.32.32,0,0,0-.3.335v8.306a.319.319,0,0,0,.3.338h27.636a.319.319,0,0,0,.3-.338v-8.306a.32.32,0,0,0-.3-.335" transform="translate(1410.912 -427.603)"/></g><path class="b" d="M-1383.313,412.964l-13.265-13.266a.232.232,0,0,0-.325,0l-13.265,13.266a.23.23,0,0,0,.163.392h26.531A.229.229,0,0,0-1383.313,412.964Z" transform="translate(1435.955 -399.632)"/><path class="b" d="M-1367.723,454.343l13.266-13.266a.228.228,0,0,0,0-.324l-13.266-13.266a.229.229,0,0,0-.391.162v26.531A.229.229,0,0,0-1367.723,454.343Z" transform="translate(1432.818 -401.701)"/><path class="b" d="M-1410.169,469.932-1396.9,483.2a.23.23,0,0,0,.325,0l13.265-13.266a.229.229,0,0,0-.162-.391h-26.531A.229.229,0,0,0-1410.169,469.932Z" transform="translate(1435.955 -404.838)"/><path class="b" d="M-1424.692,427.488l-13.266,13.266a.229.229,0,0,0,0,.324l13.266,13.266a.229.229,0,0,0,.391-.162V427.649A.229.229,0,0,0-1424.692,427.488Z" transform="translate(1438.025 -401.701)"/></g></g><g transform="translate(-5700.635 237.54)"><rect class="h" width="148.937" height="148.941" transform="translate(0 0)"/><path class="b" d="M-1623.595,364.209c0-4.65-2.038-8.013-7.351-8.013-5.358,0-7.437,2.92-7.437,7.569v4.428c0,4.915,1.946,7.393,5.579,7.393a4.319,4.319,0,0,0,4.16-2.433h.044v6.461c0,1.815-.709,3.1-2.523,3.1s-2.48-1.062-2.48-2.923V377.8h-4.6v1.595c0,4.426,1.594,7.525,7.173,7.525,5.31,0,7.438-3.409,7.438-8.1Zm-5,4.6c-.089,1.681-.8,2.743-2.39,2.743-1.725,0-2.391-1.063-2.391-3.012v-5.223c0-1.9.706-3.01,2.434-3.01,1.683,0,2.346,1.15,2.346,3.01Z" transform="translate(1652.373 -344.171)"/><g transform="translate(42.463 10.446)"><path class="b" d="M-1607.619,356.67h2.054v12.218h-2.054Z" transform="translate(1607.619 -354.652)"/><path class="b" d="M-1602.131,361.212v7.676h-1.73V356.67h2.017l2.219,7.01v-7.01h1.711v12.218h-1.8Z" transform="translate(1607.339 -354.652)"/><path class="b" d="M-1595.918,365.723v-5.91c0-1.91.938-3.3,3.1-3.3,2.179,0,3.118,1.387,3.118,3.3v5.91c0,1.892-.939,3.3-3.118,3.3C-1594.979,369.021-1595.918,367.615-1595.918,365.723Zm4.163.324v-6.559c0-.739-.323-1.261-1.062-1.261-.722,0-1.045.523-1.045,1.261v6.559c0,.739.323,1.261,1.045,1.261C-1592.078,367.308-1591.755,366.786-1591.755,366.047Z" transform="translate(1606.747 -354.641)"/><path class="b" d="M-1581.517,356.67l-2.325,12.218h-2.236l-2.324-12.218h2.091l1.4,8.524h.019l1.442-8.524Z" transform="translate(1606.188 -354.652)"/><path class="b" d="M-1581.312,368.888l2.306-12.218h2.341l2.325,12.218h-2.108l-.378-2.234h-2.18l-.362,2.234Zm2.576-3.874h1.639l-.81-4.9h-.017Z" transform="translate(1605.66 -354.652)"/><path class="b" d="M-1570.722,370.119c.577-.018.667-.143.667-.288,0-.126-.108-.2-.288-.2h-.09v-.667c-1.749-.216-2.469-1.532-2.469-3.243v-5.91c0-1.91.9-3.3,3.063-3.3,2.27,0,2.9,1.261,2.9,3.063v1.442h-1.874v-1.6c0-.757-.254-1.189-.991-1.189s-1.047.523-1.047,1.261v6.559c0,.739.307,1.261,1.047,1.261s.991-.468.991-1.189v-2.253h1.874v2.108c0,1.712-.685,2.974-2.722,3.046v.162c.486.072.757.253.757.649,0,.559-.522.864-1.82.864Z" transform="translate(1605.033 -354.641)"/><path class="b" d="M-1565.541,368.725l2.307-12.218h2.341l2.324,12.218h-2.107l-.378-2.234h-2.18l-.361,2.234Zm1.6-12.7c.037-.847.36-1.531,1.262-1.531.522,0,.954.306,1.224.306a.243.243,0,0,0,.253-.271h1.009c-.036.848-.359,1.533-1.261,1.533-.522,0-.954-.307-1.224-.307a.242.242,0,0,0-.254.27Zm.973,8.83h1.64l-.81-4.9h-.018Z" transform="translate(1604.485 -354.49)"/><path class="b" d="M-1557.131,365.723v-5.91c0-1.91.938-3.3,3.1-3.3,2.179,0,3.118,1.387,3.118,3.3v5.91c0,1.892-.939,3.3-3.118,3.3C-1556.193,369.021-1557.131,367.615-1557.131,365.723Zm4.163.324v-6.559c0-.739-.323-1.261-1.062-1.261-.722,0-1.045.523-1.045,1.261v6.559c0,.739.323,1.261,1.045,1.261C-1553.291,367.308-1552.968,366.786-1552.968,366.047Z" transform="translate(1603.859 -354.641)"/><path class="b" d="M-1546.6,356.67h4.9v1.676h-2.847v3.5h2.035V363.5h-2.035v3.713h2.847v1.675h-4.9Z" transform="translate(1603.074 -354.652)"/><path class="b" d="M-1607.619,376.142h2.054V388.36h-2.054Z" transform="translate(1607.619 -356.102)"/><path class="b" d="M-1602.131,380.683v7.677h-1.73V376.142h2.017l2.219,7.01v-7.01h1.711V388.36h-1.8Z" transform="translate(1607.339 -356.102)"/><path class="b" d="M-1595.918,376.142h4.812v1.676h-2.756v3.5h2.054v1.658h-2.054v5.388h-2.055Z" transform="translate(1606.747 -356.102)"/><path class="b" d="M-1587.436,382.756v5.6h-2.056V376.142h2.991c2.074,0,2.829,1.027,2.829,2.74v1.567c0,1.316-.468,2.091-1.64,2.361l1.965,5.55h-2.161Zm0-4.938v3.8h.685a.89.89,0,0,0,1.009-1.009v-1.8c0-.666-.307-.99-1.009-.99Z" transform="translate(1606.269 -356.102)"/><path class="b" d="M-1582.092,388.36l2.306-12.218h2.342l2.324,12.218h-2.108l-.378-2.234h-2.181l-.361,2.234Zm2.576-3.874h1.64l-.81-4.9h-.019Z" transform="translate(1605.718 -356.102)"/><path class="b" d="M-1573.389,376.142h4.9v1.676h-2.847v3.5h2.037v1.658h-2.037v3.712h2.847v1.676h-4.9Z" transform="translate(1605.07 -356.102)"/><path class="b" d="M-1566.865,385.717v-1.64h1.908v1.676c0,.685.307,1.081,1.01,1.081.647,0,.937-.432.937-1.081v-.468a2.211,2.211,0,0,0-.918-1.73l-1.208-1.208c-1.172-1.153-1.712-1.857-1.712-3.262v-.415a2.548,2.548,0,0,1,2.884-2.685c2.053,0,2.865,1.01,2.865,2.775v.992h-1.874v-1.063c0-.7-.326-1.046-.973-1.046a.9.9,0,0,0-.974,1.01v.253c0,.684.38,1.081.974,1.658l1.314,1.3c1.117,1.136,1.658,1.82,1.658,3.172v.6a2.645,2.645,0,0,1-2.989,2.864C-1566.055,388.492-1566.865,387.321-1566.865,385.717Z" transform="translate(1604.584 -356.091)"/><path class="b" d="M-1559.623,376.142h5.461v1.676h-1.694V388.36h-2.073V377.818h-1.694Z" transform="translate(1604.044 -356.102)"/><path class="b" d="M-1550.384,382.756v5.6h-2.053V376.142h2.991c2.071,0,2.829,1.027,2.829,2.74v1.567c0,1.316-.468,2.091-1.64,2.361l1.963,5.55h-2.162Zm0-4.938v3.8h.686a.889.889,0,0,0,1.008-1.009v-1.8c0-.666-.305-.99-1.008-.99Z" transform="translate(1603.509 -356.102)"/><path class="b" d="M-1538.724,376.142v9.244c0,1.893-.81,3.117-2.9,3.117-2.162,0-3.063-1.224-3.063-3.117v-9.244h2.055v9.442c0,.721.288,1.208,1.009,1.208s1.009-.487,1.009-1.208v-9.442Z" transform="translate(1602.932 -356.102)"/><path class="b" d="M-1536.978,376.142h5.46v1.676h-1.694V388.36h-2.073V377.818h-1.694Z" transform="translate(1602.358 -356.102)"/><path class="b" d="M-1523.828,376.142v9.244c0,1.893-.812,3.117-2.9,3.117-2.164,0-3.064-1.224-3.064-3.117v-9.244h2.054v9.442c0,.721.289,1.208,1.011,1.208s1.008-.487,1.008-1.208v-9.442Z" transform="translate(1601.823 -356.102)"/><path class="b" d="M-1519.774,382.756v5.6h-2.055V376.142h2.991c2.074,0,2.829,1.027,2.829,2.74v1.567c0,1.316-.468,2.091-1.639,2.361l1.965,5.55h-2.162Zm0-4.938v3.8h.685a.89.89,0,0,0,1.009-1.009v-1.8c0-.666-.307-.99-1.009-.99Z" transform="translate(1601.23 -356.102)"/><path class="b" d="M-1514.43,388.36l2.307-12.218h2.343l2.325,12.218h-2.108l-.38-2.234h-2.18l-.36,2.234Zm2.579-3.874h1.639l-.812-4.9h-.018Z" transform="translate(1600.679 -356.102)"/></g><path class="b" d="M-1537.966,445.563l-17.705-10.219V414.9a1.207,1.207,0,0,0-.6-1.046l-18.3-10.569a1.208,1.208,0,0,0-1.208,0l-18.307,10.569a1.206,1.206,0,0,0-.6,1.046v20.442l-17.7,10.219a1.206,1.206,0,0,0-.6,1.046v21.142a1.206,1.206,0,0,0,.6,1.046l18.306,10.568a1.215,1.215,0,0,0,.6.161,1.211,1.211,0,0,0,.6-.161l17.7-10.219,17.7,10.219a1.211,1.211,0,0,0,.6.161,1.211,1.211,0,0,0,.6-.161l18.309-10.568a1.206,1.206,0,0,0,.6-1.046V446.609A1.206,1.206,0,0,0-1537.966,445.563Zm-38.425,20.1-14.684-8.479,14.684-8.48Zm17.1-29.617-14.682,8.475V427.564Zm-17.1,8.475-14.683-8.475,14.683-8.479Zm3.623,2.092,15.889-9.172,15.894,9.172-15.894,9.177Zm14.682-12.659-14.682-8.478,14.682-8.477Zm-19.514-8.478-14.684,8.479V417Zm-17.1,50.754-15.892-9.173V448.7l15.892,9.177Zm2.415,0V459.272l14.684,8.479Zm52.506-9.173-15.894,9.173V457.878l15.894-9.177Z" transform="translate(1650.483 -347.666)"/></g><g transform="translate(-5700.635 402.283)"><rect class="i" width="148.936" height="148.944" transform="translate(0)"/><path class="b" d="M393.674,319.807v30.029h-5.049V326.849h-.045l-3.543,3.676h-.043v-5.27l4.651-5.448Z" transform="translate(-371.389 -307.324)"/><path class="b" d="M396.861,319.807H409.53v4.65l-6.6,25.379h-5.007l6.734-25.911h-7.795Z" transform="translate(-372.272 -307.324)"/><path class="b" d="M485.7,401.319a19.422,19.422,0,0,0-18.686-19.383,19.4,19.4,0,0,0-36.58,0,19.384,19.384,0,0,0-11.2,34.675,19.386,19.386,0,0,0,29.582,21.383,19.387,19.387,0,0,0,29.425-21.405,19.378,19.378,0,0,0,7.456-15.269m-21.483-12.925A15.5,15.5,0,0,1,451.014,403.7a15.353,15.353,0,0,1,13.005-17.686,15.394,15.394,0,0,1,.2,2.38M448.8,432.963a15.447,15.447,0,0,1-.142-22.069,15.447,15.447,0,0,1,.142,22.069m-15.362-46.951A15.342,15.342,0,0,1,446.443,403.7a15.348,15.348,0,0,1-13.005-17.687m11.551,22.236a15.433,15.433,0,0,1-20.953,6.815,15.436,15.436,0,0,1,20.953-6.815m7.427-.1a15.443,15.443,0,0,1,21.056,6.9,15.44,15.44,0,0,1-21.056-6.9M448.728,372.9a15.511,15.511,0,0,1,14.2,9.316,19.462,19.462,0,0,0-14.2,10.9,19.448,19.448,0,0,0-14.2-10.9,15.509,15.509,0,0,1,14.2-9.316m-33.067,28.417a15.514,15.514,0,0,1,13.831-15.4,19.756,19.756,0,0,0-.162,2.479,19.359,19.359,0,0,0,6.337,14.331,19.44,19.44,0,0,0-14.873,10.08,15.442,15.442,0,0,1-5.133-11.486m6.72,20.676a15.36,15.36,0,0,1,.339-3.211,19.363,19.363,0,0,0,17.8-.487,19.3,19.3,0,0,0,5.148,17.061,15.461,15.461,0,0,1-23.287-13.363m52.7-.129a15.468,15.468,0,0,1-23.132,13.458,19.327,19.327,0,0,0,4.965-17.042,19.352,19.352,0,0,0,17.852.487,15.333,15.333,0,0,1,.315,3.1m-13.169-19.255a19.349,19.349,0,0,0,6.219-14.217,19.584,19.584,0,0,0-.163-2.479,15.466,15.466,0,0,1,8.743,26.848,19.439,19.439,0,0,0-14.8-10.153" transform="translate(-373.382 -310.988)"/><g transform="translate(47.55 12.327)"><path class="b" d="M421.67,319.794h3.021c2.056,0,2.806,1.019,2.806,2.717v2.557c0,1.7-.751,2.735-2.806,2.735h-.983v4.112H421.67Zm2.038,1.662v4.774h.75a.876.876,0,0,0,1-1V322.44c0-.662-.3-.984-1-.984Z" transform="translate(-421.67 -319.651)"/><path class="b" d="M428.08,331.915l2.288-12.121h2.325L435,331.915h-2.092l-.376-2.217h-2.164l-.356,2.217Zm2.556-3.844h1.627l-.8-4.864h-.018Z" transform="translate(-422.147 -319.651)"/><path class="b" d="M438.6,326.355v5.56h-2.038V319.794h2.967c2.056,0,2.808,1.019,2.808,2.717v1.555c0,1.306-.465,2.074-1.627,2.342l1.948,5.507h-2.145Zm0-4.9v3.772h.679a.882.882,0,0,0,1-1V322.44c0-.662-.3-.984-1-.984Z" transform="translate(-422.779 -319.651)"/><path class="b" d="M444.091,328.776v-5.865c0-1.9.893-3.272,3.038-3.272,2.253,0,2.878,1.252,2.878,3.039v1.431h-1.859v-1.592c0-.751-.25-1.18-.983-1.18s-1.037.519-1.037,1.251V329.1c0,.733.3,1.251,1.037,1.251s.983-.465.983-1.18v-2.234h1.859v2.092c0,1.734-.715,3.021-2.878,3.021C444.984,332.047,444.091,330.653,444.091,328.776Z" transform="translate(-423.34 -319.639)"/><path class="b" d="M451.776,319.794h4.863v1.662h-2.825v3.469h2.02v1.645h-2.02v3.684h2.825v1.662h-4.863Z" transform="translate(-423.912 -319.651)"/><path class="b" d="M460.342,326.355v5.56H458.3V319.794h2.967c2.056,0,2.808,1.019,2.808,2.717v1.555c0,1.306-.465,2.074-1.627,2.342l1.948,5.507h-2.145Zm0-4.9v3.772h.678a.882.882,0,0,0,1-1V322.44c0-.662-.3-.984-1-.984Z" transform="translate(-424.399 -319.651)"/><path class="b" d="M465.835,319.794h2.038v12.121h-2.038Z" transform="translate(-424.96 -319.651)"/><path class="b" d="M469.058,331.915l2.289-12.121h2.325l2.306,12.121h-2.093l-.375-2.217h-2.164l-.357,2.217Zm2.557-3.844h1.627l-.8-4.864h-.018Z" transform="translate(-425.2 -319.651)"/><path class="b" d="M477.228,329.294v-1.627h1.9v1.662c0,.679.3,1.073,1,1.073.644,0,.93-.429.93-1.073v-.465a2.191,2.191,0,0,0-.912-1.717l-1.2-1.2c-1.162-1.144-1.7-1.841-1.7-3.236V322.3a2.528,2.528,0,0,1,2.861-2.664c2.038,0,2.842,1,2.842,2.753v.984H481.09V322.32c0-.7-.322-1.037-.966-1.037a.9.9,0,0,0-.965,1v.25c0,.68.376,1.074.965,1.646l1.3,1.287c1.11,1.126,1.646,1.806,1.646,3.146v.59a2.625,2.625,0,0,1-2.967,2.842C478.032,332.047,477.228,330.885,477.228,329.294Z" transform="translate(-425.808 -319.639)"/><path class="b" d="M421.67,339.1h3.021c2.056,0,2.806,1.019,2.806,2.717v2.557c0,1.7-.751,2.736-2.806,2.736h-.983v4.111H421.67Zm2.038,1.663v4.773h.75a.875.875,0,0,0,1-1v-2.79c0-.662-.3-.983-1-.983Z" transform="translate(-421.67 -321.089)"/><path class="b" d="M429.2,339.1h4.863v1.663h-2.825v3.468h2.02v1.646h-2.02v3.683h2.825v1.662H429.2Z" transform="translate(-422.231 -321.089)"/><path class="b" d="M435.728,339.1h2.038v10.459H440.2v1.662h-4.469Z" transform="translate(-422.717 -321.089)"/><path class="b" d="M441.308,351.226,443.6,339.1h2.325l2.306,12.121h-2.093l-.375-2.217H443.6l-.357,2.217Zm2.557-3.844h1.627l-.8-4.863h-.018Z" transform="translate(-423.133 -321.089)"/><path class="b" d="M449.477,348.605v-1.627h1.9v1.663c0,.679.3,1.073,1,1.073.644,0,.93-.429.93-1.073v-.466a2.189,2.189,0,0,0-.912-1.716l-1.2-1.2c-1.162-1.144-1.7-1.842-1.7-3.237v-.411a2.528,2.528,0,0,1,2.861-2.664c2.038,0,2.842,1,2.842,2.753v.983h-1.859v-1.055c0-.7-.322-1.037-.966-1.037a.894.894,0,0,0-.965,1v.251c0,.679.376,1.073.965,1.645l1.305,1.287c1.11,1.126,1.646,1.806,1.646,3.147v.59a2.625,2.625,0,0,1-2.967,2.843C450.281,351.358,449.477,350.2,449.477,348.605Z" transform="translate(-423.741 -321.077)"/><path class="b" d="M464.785,343.36h-.055l-1.376,7.867h-.947l-1.52-7.867h-.036v7.867h-1.68V339.1h2.377l1.323,6.83h.018l1.181-6.83h2.574v12.121h-1.859Z" transform="translate(-424.463 -321.089)"/><path class="b" d="M468.6,339.1h4.863v1.663h-2.824v3.468h2.019v1.646h-2.019v3.683h2.824v1.662H468.6Z" transform="translate(-425.165 -321.089)"/><path class="b" d="M474.871,339.1h5.417v1.663h-1.68v10.458h-2.056V340.768h-1.681Z" transform="translate(-425.633 -321.089)"/><path class="b" d="M480.529,351.226l2.289-12.121h2.324l2.307,12.121h-2.093l-.375-2.217h-2.164l-.357,2.217Zm2.557-3.844h1.627l-.805-4.863h-.018Z" transform="translate(-426.054 -321.089)"/><path class="b" d="M488.7,348.605v-1.627h1.9v1.663c0,.679.3,1.073,1,1.073.644,0,.93-.429.93-1.073v-.466a2.188,2.188,0,0,0-.913-1.716l-1.2-1.2c-1.162-1.144-1.7-1.842-1.7-3.237v-.411a2.528,2.528,0,0,1,2.861-2.664c2.038,0,2.843,1,2.843,2.753v.983h-1.859v-1.055c0-.7-.322-1.037-.966-1.037a.894.894,0,0,0-.965,1v.251c0,.679.376,1.073.965,1.645l1.3,1.287c1.109,1.126,1.645,1.806,1.645,3.147v.59a2.625,2.625,0,0,1-2.967,2.843C489.5,351.358,488.7,350.2,488.7,348.605Z" transform="translate(-426.662 -321.077)"/></g></g><g transform="translate(-5535.575 402.283)"><rect class="j" width="148.937" height="148.936" transform="translate(0 0)"/><g transform="translate(14.184 17.075)"><g transform="translate(21.314)"><path class="k" d="M237.094,47.119a22.223,22.223,0,0,1,3.493-4.493L229.134,30.066a39.242,39.242,0,0,0-7.272,9.465Z" transform="translate(-217.071 -19.273)"/><path class="l" d="M268.658,37.626a21.957,21.957,0,0,1,4.8,3.01L284.947,28.1a39.081,39.081,0,0,0-10.18-6.351Z" transform="translate(-220.557 -18.654)"/><path class="d" d="M295.854,42.985,280.63,50.574a21.746,21.746,0,0,1,1.525,5.379l16.934-1.6a38.582,38.582,0,0,0-3.236-11.369" transform="translate(-221.448 -20.236)"/><path class="m" d="M279.179,47.437,294.4,39.849a39.113,39.113,0,0,0-7.115-9.443L275.8,42.942a22.116,22.116,0,0,1,3.377,4.494" transform="translate(-221.089 -19.299)"/><path class="n" d="M233.684,60.292c0-.342.01-.684.026-1.025l-16.938-1.515c-.054.839-.086,1.686-.086,2.541a39.072,39.072,0,0,0,1.153,9.422L234.2,65.02a21.934,21.934,0,0,1-.516-4.729" transform="translate(-216.686 -21.335)"/><path class="o" d="M276.816,75.539a22.2,22.2,0,0,1-4.132,3.885l8.943,14.481a39.272,39.272,0,0,0,8.758-8.134Z" transform="translate(-220.857 -22.66)"/><path class="e" d="M282.493,60.3a21.744,21.744,0,0,1-.5,4.674l16.358,4.7a38.847,38.847,0,0,0,1.145-9.374q0-1.2-.078-2.392l-16.936,1.6c.009.266.016.528.016.792" transform="translate(-221.55 -21.347)"/><path class="p" d="M239.645,75.889l-13.538,10.29a39.322,39.322,0,0,0,8.84,8.009l8.943-14.465a22.232,22.232,0,0,1-4.245-3.834" transform="translate(-217.388 -22.686)"/><path class="q" d="M233.985,55.7a21.638,21.638,0,0,1,1.622-5.457l-15.218-7.581a38.687,38.687,0,0,0-3.358,11.518Z" transform="translate(-216.712 -20.211)"/><path class="f" d="M278.961,95.634l-8.929-14.461a21.855,21.855,0,0,1-5.213,2.119l3.151,16.728a38.734,38.734,0,0,0,10.991-4.385" transform="translate(-220.271 -23.08)"/><path class="r" d="M281.095,68.1a21.988,21.988,0,0,1-2.378,4.9L292.3,83.246A38.81,38.81,0,0,0,297.439,72.8Z" transform="translate(-221.306 -22.106)"/><path class="s" d="M261.5,83.989a21.734,21.734,0,0,1-5.727.08l-3.15,16.728a39.163,39.163,0,0,0,12.025-.094Z" transform="translate(-219.363 -23.289)"/><path class="t" d="M260.311,35.433a21.772,21.772,0,0,1,5.437,1.05l6.109-15.878a38.716,38.716,0,0,0-11.546-2.185Z" transform="translate(-219.935 -18.406)"/><path class="g" d="M252.259,83.459a21.875,21.875,0,0,1-5.394-2.04L237.918,95.89a38.771,38.771,0,0,0,11.194,4.28Z" transform="translate(-218.267 -23.098)"/><path class="i" d="M251.162,36.4a21.77,21.77,0,0,1,5.552-.988V18.4a38.8,38.8,0,0,0-11.7,2.132Z" transform="translate(-218.796 -18.405)"/><path class="u" d="M237.6,73.359a21.845,21.845,0,0,1-2.592-5.2l-16.348,4.692a38.827,38.827,0,0,0,5.4,10.793Z" transform="translate(-216.833 -22.111)"/><path class="v" d="M243.161,40.368a22.053,22.053,0,0,1,4.712-2.851l-6.147-15.859A38.975,38.975,0,0,0,231.7,27.8Z" transform="translate(-217.804 -18.647)"/></g><g transform="translate(0 89.428)"><path d="M193.657,115.23H200.7v2.162h-2.185v13.6h-2.673v-13.6h-2.185Z" transform="translate(-193.657 -115.044)"/><path d="M207.554,124.04H205v6.95h-2.65V115.23H205V121.9h2.557V115.23h2.673v15.76h-2.673Z" transform="translate(-194.304 -115.044)"/><path d="M212.268,115.23h6.322v2.162h-3.672V121.9h2.627v2.139h-2.627v4.788h3.672v2.162h-6.322Z" transform="translate(-195.043 -115.044)"/><path d="M226.789,122.561h3.766v8.414h-1.907v-1.72a2.388,2.388,0,0,1-2.533,1.907c-2.279,0-3.324-1.813-3.324-4.255v-7.624c0-2.465,1.186-4.255,3.975-4.255,2.928,0,3.789,1.628,3.789,3.951v1.4h-2.418v-1.6c0-.976-.371-1.535-1.324-1.535s-1.372.674-1.372,1.627v8.461c0,.953.4,1.628,1.3,1.628.86,0,1.3-.489,1.3-1.511v-2.79h-1.255Z" transform="translate(-195.827 -115.029)"/><path d="M232.586,115.23h2.65v13.6H238.4v2.162h-5.811Z" transform="translate(-196.556 -115.044)"/><path d="M239.468,126.907v-7.624c0-2.465,1.208-4.255,4-4.255,2.813,0,4.021,1.79,4.021,4.255v7.624c0,2.442-1.209,4.255-4.021,4.255C240.676,131.162,239.468,129.349,239.468,126.907Zm5.37.418v-8.461c0-.953-.419-1.627-1.372-1.627-.93,0-1.349.674-1.349,1.627v8.461c0,.953.418,1.628,1.349,1.628C244.419,128.954,244.838,128.279,244.838,127.326Z" transform="translate(-197.069 -115.029)"/><path d="M249.514,115.23h3.835c2.65,0,3.534,1.232,3.534,3.463v1.6a2.3,2.3,0,0,1-1.581,2.51,2.391,2.391,0,0,1,1.975,2.626v2.093c0,2.231-1,3.463-3.649,3.463h-4.114Zm2.65,6.649h.93a1.116,1.116,0,0,0,1.254-1.279v-1.93a1.114,1.114,0,0,0-1.278-1.278h-.906Zm0,2.021v4.927h1.162a1.139,1.139,0,0,0,1.3-1.277v-2.371c0-.837-.4-1.279-1.325-1.279Z" transform="translate(-197.817 -115.044)"/><path d="M258.5,130.99l2.976-15.76H264.5l3,15.76h-2.72l-.488-2.882h-2.813l-.465,2.882Zm3.324-5h2.115L262.9,119.67h-.023Z" transform="translate(-198.487 -115.044)"/><path d="M269.205,115.23h2.65v13.6h3.162v2.162h-5.811Z" transform="translate(-199.284 -115.044)"/><path d="M282.948,122.561h3.765v8.414h-1.907v-1.72a2.387,2.387,0,0,1-2.533,1.907c-2.279,0-3.324-1.813-3.324-4.255v-7.624c0-2.465,1.186-4.255,3.975-4.255,2.928,0,3.789,1.628,3.789,3.951v1.4H284.3v-1.6c0-.976-.372-1.535-1.325-1.535s-1.371.674-1.371,1.627v8.461c0,.953.394,1.628,1.3,1.628.86,0,1.3-.489,1.3-1.511v-2.79h-1.254Z" transform="translate(-200.009 -115.029)"/><path d="M288.694,126.907v-7.624c0-2.465,1.209-4.255,4-4.255,2.813,0,4.02,1.79,4.02,4.255v7.624c0,2.442-1.208,4.255-4.02,4.255C289.9,131.162,288.694,129.349,288.694,126.907Zm5.37.418v-8.461c0-.953-.418-1.627-1.371-1.627-.93,0-1.349.674-1.349,1.627v8.461c0,.953.418,1.628,1.349,1.628C293.646,128.954,294.064,128.279,294.064,127.326Z" transform="translate(-200.735 -115.029)"/><path d="M297.937,130.99l2.975-15.76h3.022l3,15.76h-2.719l-.489-2.882h-2.813l-.465,2.882Zm3.324-5h2.115l-1.045-6.323h-.024Z" transform="translate(-201.423 -115.044)"/><path d="M308.586,115.23h2.65v13.6H314.4v2.162h-5.811Z" transform="translate(-202.216 -115.044)"/><path d="M315.492,127.581v-2.115h2.464v2.162c0,.883.4,1.395,1.3,1.395.837,0,1.208-.558,1.208-1.395v-.6a2.846,2.846,0,0,0-1.185-2.231l-1.558-1.558c-1.51-1.487-2.208-2.394-2.208-4.207v-.535c0-1.952,1.139-3.463,3.719-3.463,2.65,0,3.7,1.3,3.7,3.58v1.278h-2.417v-1.372c0-.906-.418-1.348-1.255-1.348a1.164,1.164,0,0,0-1.256,1.3v.325c0,.883.488,1.395,1.256,2.139l1.7,1.673c1.44,1.464,2.138,2.348,2.138,4.091v.767c0,2.162-1.162,3.7-3.859,3.7S315.492,129.65,315.492,127.581Z" transform="translate(-202.731 -115.029)"/><g transform="translate(0.668 19.42)"><path d="M196.491,139.671h-.317l-1.432-3.092.022,3.743h-.385v-4.247h.52l1.434,3.126,1.433-3.126h.521v4.247H197.9l.022-3.743Z" transform="translate(-194.379 -136.017)"/><path d="M200.551,137.543c.963,0,1.077.657,1.077,1.472v.181h-1.87c.022.492.153.939.792.939a2.156,2.156,0,0,0,.935-.158v.341a2.294,2.294,0,0,1-.935.169c-.956,0-1.188-.657-1.188-1.473S199.6,137.543,200.551,137.543Zm-.792,1.33h1.473c0-.5-.028-.98-.68-.98S199.777,138.363,199.759,138.873Z" transform="translate(-194.75 -136.126)"/><path d="M203.964,140.4a1.286,1.286,0,0,1-.255.022c-.47,0-.905-.215-.905-.77v-1.807h-.567v-.175l.567-.165v-.764l.4-.113v.905h.879v.312H203.2V139.6c0,.345.188.488.544.488.073,0,.147-.006.221-.012Z" transform="translate(-194.964 -136.058)"/><path d="M205.765,137.893a2.469,2.469,0,0,0-.85.143v-.34a2.266,2.266,0,0,1,.85-.153c.85,0,1.07.385,1.07.951v1.937h-.22l-.085-.226a1.492,1.492,0,0,1-.855.282.862.862,0,0,1-.991-.912c0-.481.267-.838,1.008-.883l.748-.045v-.159C206.439,138.075,206.292,137.893,205.765,137.893Zm-.1,1.105c-.4.04-.577.249-.577.578,0,.255.063.56.6.56a1.372,1.372,0,0,0,.753-.226v-.985Z" transform="translate(-195.146 -136.126)"/><path d="M208.711,138.805c.8.073,1,.345,1,.81,0,.436-.278.872-1.137.872a2.777,2.777,0,0,1-.844-.142v-.34a2.507,2.507,0,0,0,.85.13c.589,0,.747-.248.747-.515s-.079-.441-.64-.488c-.821-.073-.991-.362-.991-.752s.261-.838,1.059-.838a2.125,2.125,0,0,1,.816.141v.34a2.358,2.358,0,0,0-.822-.13c-.56,0-.679.21-.679.488C208.065,138.63,208.167,138.76,208.711,138.805Z" transform="translate(-195.37 -136.126)"/><path d="M211.531,138.193c0-1.207.4-2.181,1.671-2.181a2.549,2.549,0,0,1,1.189.239v.385a2.771,2.771,0,0,0-1.189-.267c-.928,0-1.262.8-1.262,1.824s.334,1.822,1.262,1.822a2.547,2.547,0,0,0,.917-.124v-1.45h-.888v-.355H214.5v2.055a3.063,3.063,0,0,1-1.3.232C211.934,140.373,211.531,139.4,211.531,138.193Z" transform="translate(-195.656 -136.012)"/><path d="M215.665,139.755v-3.681h.385V139.8c0,.2.061.255.238.255v.322C215.88,140.378,215.665,140.208,215.665,139.755Z" transform="translate(-195.964 -136.017)"/><path d="M218.132,140.487c-.968,0-1.189-.606-1.189-1.473s.221-1.472,1.189-1.472,1.189.605,1.189,1.472S219.106,140.487,218.132,140.487Zm0-2.594c-.748,0-.793.482-.793,1.122s.045,1.121.793,1.121.793-.48.793-1.121S218.868,137.893,218.132,137.893Z" transform="translate(-196.059 -136.126)"/><path d="M222.564,138.905c0,.815-.249,1.473-1.161,1.473a1.617,1.617,0,0,1-.883-.289l-.085.232h-.221v-4.247h.4v1.592a1.469,1.469,0,0,1,.792-.232C222.315,137.434,222.564,138.091,222.564,138.905Zm-1.953-.939v1.88a1.488,1.488,0,0,0,.792.18c.679,0,.764-.56.764-1.121s-.085-1.122-.764-1.122A1.487,1.487,0,0,0,220.611,137.966Z" transform="translate(-196.303 -136.017)"/><path d="M224.445,137.893a2.477,2.477,0,0,0-.85.143v-.34a2.269,2.269,0,0,1,.85-.153c.85,0,1.07.385,1.07.951v1.937h-.22l-.085-.226a1.489,1.489,0,0,1-.854.282.863.863,0,0,1-.992-.912c0-.481.267-.838,1.009-.883l.748-.045v-.159C225.12,138.075,224.973,137.893,224.445,137.893Zm-.1,1.105c-.4.04-.578.249-.578.578,0,.255.062.56.6.56a1.375,1.375,0,0,0,.754-.226v-.985Z" transform="translate(-196.538 -136.126)"/><path d="M226.735,136.379a.284.284,0,1,1-.284.284A.28.28,0,0,1,226.735,136.379Zm-.192,3.4v-2.266h.385v2.311c0,.2.061.255.238.255v.322C226.757,140.4,226.543,140.231,226.543,139.778Z" transform="translate(-196.768 -136.039)"/><path d="M228.829,138.805c.8.073,1,.345,1,.81,0,.436-.277.872-1.137.872a2.778,2.778,0,0,1-.844-.142v-.34a2.507,2.507,0,0,0,.85.13c.589,0,.747-.248.747-.515s-.079-.441-.64-.488c-.821-.073-.99-.362-.99-.752s.26-.838,1.058-.838a2.125,2.125,0,0,1,.816.141v.34a2.358,2.358,0,0,0-.822-.13c-.56,0-.679.21-.679.488C228.183,138.63,228.285,138.76,228.829,138.805Z" transform="translate(-196.869 -136.126)"/><path d="M232.076,140.255v1.592h-.4V137.6h.221l.085.232a1.624,1.624,0,0,1,.883-.288c.912,0,1.162.657,1.162,1.472s-.25,1.473-1.162,1.473A1.483,1.483,0,0,1,232.076,140.255Zm1.558-1.24c0-.56-.085-1.122-.765-1.122a1.49,1.49,0,0,0-.793.182v1.88a1.491,1.491,0,0,0,.793.18C233.549,140.135,233.634,139.575,233.634,139.015Z" transform="translate(-197.157 -136.126)"/><path d="M235.91,137.893a2.473,2.473,0,0,0-.85.143v-.34a2.269,2.269,0,0,1,.85-.153c.85,0,1.07.385,1.07.951v1.937h-.22l-.085-.226a1.49,1.49,0,0,1-.855.282.862.862,0,0,1-.991-.912c0-.481.267-.838,1.009-.883l.748-.045v-.159C236.585,138.075,236.437,137.893,235.91,137.893Zm-.1,1.105c-.4.04-.578.249-.578.578,0,.255.062.56.6.56a1.375,1.375,0,0,0,.754-.226v-.985Z" transform="translate(-197.391 -136.126)"/><path d="M239.475,137.938a1.113,1.113,0,0,0-.341-.045,1.525,1.525,0,0,0-.82.182v2.355h-.4V137.6h.221l.085.239a1.528,1.528,0,0,1,.911-.294,2.014,2.014,0,0,1,.341.028Z" transform="translate(-197.622 -136.126)"/><path d="M241.1,137.893a2.469,2.469,0,0,0-.85.143v-.34a2.266,2.266,0,0,1,.85-.153c.85,0,1.07.385,1.07.951v1.937h-.22l-.085-.226a1.492,1.492,0,0,1-.855.282.862.862,0,0,1-.991-.912c0-.481.267-.838,1.009-.883l.747-.045v-.159C241.77,138.075,241.623,137.893,241.1,137.893Zm-.1,1.105c-.4.04-.578.249-.578.578,0,.255.063.56.6.56a1.372,1.372,0,0,0,.753-.226v-.985Z" transform="translate(-197.778 -136.126)"/><path d="M245.239,140.487c-.968,0-1.188-.606-1.188-1.473s.22-1.472,1.188-1.472,1.189.605,1.189,1.472S246.214,140.487,245.239,140.487Zm0-2.594c-.748,0-.792.482-.792,1.122s.044,1.121.792,1.121.793-.48.793-1.121S245.976,137.893,245.239,137.893Z" transform="translate(-198.078 -136.126)"/><path d="M248.392,140.321v-4.247h1.155c1.387,0,1.789.917,1.789,2.124s-.4,2.123-1.789,2.123Zm.385-.356h.792c1.02,0,1.36-.749,1.36-1.767s-.34-1.767-1.36-1.767h-.792Z" transform="translate(-198.402 -136.017)"/><path d="M253.432,137.543c.963,0,1.076.657,1.076,1.472v.181H252.64c.022.492.153.939.792.939a2.156,2.156,0,0,0,.935-.158v.341a2.294,2.294,0,0,1-.935.169c-.956,0-1.188-.657-1.188-1.473S252.476,137.543,253.432,137.543Zm-.792,1.33h1.472c0-.5-.029-.98-.68-.98S252.657,138.363,252.64,138.873Z" transform="translate(-198.689 -136.126)"/><path d="M256.333,138.805c.8.073,1,.345,1,.81,0,.436-.278.872-1.137.872a2.778,2.778,0,0,1-.844-.142v-.34a2.507,2.507,0,0,0,.85.13c.589,0,.747-.248.747-.515s-.079-.441-.64-.488c-.821-.073-.991-.362-.991-.752s.261-.838,1.059-.838a2.126,2.126,0,0,1,.816.141v.34a2.358,2.358,0,0,0-.822-.13c-.56,0-.679.21-.679.488C255.687,138.63,255.789,138.76,256.333,138.805Z" transform="translate(-198.917 -136.126)"/><path d="M259.3,137.543c.963,0,1.077.657,1.077,1.472v.181h-1.87c.022.492.153.939.792.939a2.156,2.156,0,0,0,.935-.158v.341a2.294,2.294,0,0,1-.935.169c-.956,0-1.188-.657-1.188-1.473S258.347,137.543,259.3,137.543Zm-.792,1.33h1.473c0-.5-.028-.98-.68-.98S258.529,138.363,258.511,138.873Z" transform="translate(-199.126 -136.126)"/><path d="M262.991,138.375c0-.367-.216-.482-.566-.482a1.358,1.358,0,0,0-.765.182v2.355h-.4V137.6h.221l.085.239a1.4,1.4,0,0,1,.855-.294c.673,0,.963.305.963.85v2.038h-.4Z" transform="translate(-199.36 -136.126)"/><path d="M264.451,137.6l.81,2.322.81-2.322h.436l-1.1,2.889h-.283l-1.1-2.889Z" transform="translate(-199.565 -136.13)"/><path d="M268.323,140.487c-.968,0-1.188-.606-1.188-1.473s.22-1.472,1.188-1.472,1.189.605,1.189,1.472S269.3,140.487,268.323,140.487Zm0-2.594c-.748,0-.792.482-.792,1.122s.044,1.121.792,1.121.793-.48.793-1.121S269.06,137.893,268.323,137.893Z" transform="translate(-199.798 -136.126)"/><path d="M270.5,139.755v-3.681h.385V139.8c0,.2.062.255.238.255v.322C270.719,140.378,270.5,140.208,270.5,139.755Z" transform="translate(-200.048 -136.017)"/><path d="M272,137.6l.81,2.322.81-2.322h.436l-1.105,2.889h-.282l-1.105-2.889Z" transform="translate(-200.128 -136.13)"/><path d="M275.031,136.379a.284.284,0,1,1-.284.284A.28.28,0,0,1,275.031,136.379Zm-.192,3.4v-2.266h.385v2.311c0,.2.062.255.238.255v.322C275.053,140.4,274.839,140.231,274.839,139.778Z" transform="translate(-200.364 -136.039)"/><path d="M279.525,138.375c0-.367-.215-.482-.538-.482a1.453,1.453,0,0,0-.77.188,1.217,1.217,0,0,1,.033.294v2.056h-.4v-2.056c0-.367-.215-.482-.539-.482a1.436,1.436,0,0,0-.736.17v2.368h-.4V137.6h.221l.085.232a1.418,1.418,0,0,1,.826-.288.9.9,0,0,1,.794.322,1.579,1.579,0,0,1,.877-.322c.605,0,.935.282.935.85v2.038h-.4Z" transform="translate(-200.472 -136.126)"/><path d="M282.081,137.543c.964,0,1.076.657,1.076,1.472v.181h-1.87c.023.492.153.939.793.939a2.159,2.159,0,0,0,.935-.158v.341a2.294,2.294,0,0,1-.935.169c-.956,0-1.188-.657-1.188-1.473S281.125,137.543,282.081,137.543Zm-.793,1.33h1.472c0-.5-.028-.98-.679-.98S281.306,138.363,281.288,138.873Z" transform="translate(-200.822 -136.126)"/><path d="M285.768,138.375c0-.367-.215-.482-.565-.482a1.353,1.353,0,0,0-.764.182v2.355h-.4V137.6h.221l.085.239a1.4,1.4,0,0,1,.855-.294c.673,0,.963.305.963.85v2.038h-.4Z" transform="translate(-201.057 -136.126)"/><path d="M288.52,140.4a1.271,1.271,0,0,1-.255.022c-.47,0-.906-.215-.906-.77v-1.807h-.566v-.175l.566-.165v-.764l.4-.113v.905h.878v.312h-.878V139.6c0,.345.187.488.544.488.073,0,.147-.006.22-.012Z" transform="translate(-201.262 -136.058)"/><path d="M290.459,140.487c-.968,0-1.188-.606-1.188-1.473s.22-1.472,1.188-1.472,1.189.605,1.189,1.472S291.433,140.487,290.459,140.487Zm0-2.594c-.748,0-.793.482-.793,1.122s.045,1.121.793,1.121.793-.48.793-1.121S291.2,137.893,290.459,137.893Z" transform="translate(-201.446 -136.126)"/><path d="M293.874,137.2c0,.607.351.663,1.019.748.833.107,1.348.312,1.348,1.144,0,.578-.306,1.28-1.569,1.28a3.5,3.5,0,0,1-1.19-.227v-.367a3.233,3.233,0,0,0,1.195.237c.885,0,1.15-.413,1.15-.923,0-.606-.249-.725-.958-.814-1-.125-1.387-.357-1.387-1.082,0-.493.238-1.185,1.427-1.185a2.623,2.623,0,0,1,1.105.2v.379a2.6,2.6,0,0,0-1.11-.22C294.066,136.369,293.874,136.754,293.874,137.2Z" transform="translate(-201.76 -136.012)"/><path d="M297.525,139.659c0,.367.215.48.565.48a1.358,1.358,0,0,0,.764-.18V137.6h.4v2.832h-.221l-.085-.238a1.411,1.411,0,0,1-.855.294c-.675,0-.963-.305-.963-.85V137.6h.4Z" transform="translate(-202.031 -136.13)"/><path d="M301.125,138.805c.8.073,1,.345,1,.81,0,.436-.278.872-1.137.872a2.777,2.777,0,0,1-.844-.142v-.34a2.507,2.507,0,0,0,.85.13c.589,0,.747-.248.747-.515s-.079-.441-.64-.488c-.821-.073-.991-.362-.991-.752s.261-.838,1.059-.838a2.125,2.125,0,0,1,.816.141v.34a2.357,2.357,0,0,0-.822-.13c-.56,0-.679.21-.679.488C300.479,138.63,300.581,138.76,301.125,138.805Z" transform="translate(-202.253 -136.126)"/><path d="M304.419,140.4a1.286,1.286,0,0,1-.255.022c-.47,0-.905-.215-.905-.77v-1.807h-.567v-.175l.567-.165v-.764l.4-.113v.905h.879v.312h-.879V139.6c0,.345.188.488.544.488.073,0,.148-.006.221-.012Z" transform="translate(-202.446 -136.058)"/><path d="M306.357,137.543c.963,0,1.076.657,1.076,1.472v.181h-1.869c.022.492.153.939.792.939a2.156,2.156,0,0,0,.935-.158v.341a2.294,2.294,0,0,1-.935.169c-.957,0-1.188-.657-1.188-1.473S305.4,137.543,306.357,137.543Zm-.792,1.33h1.473c0-.5-.029-.98-.68-.98S305.582,138.363,305.565,138.873Z" transform="translate(-202.63 -136.126)"/><path d="M310.045,138.375c0-.367-.216-.482-.566-.482a1.357,1.357,0,0,0-.764.182v2.355h-.4V137.6h.222l.084.239a1.406,1.406,0,0,1,.855-.294c.674,0,.963.305.963.85v2.038h-.4Z" transform="translate(-202.865 -136.126)"/><path d="M312.8,140.4a1.286,1.286,0,0,1-.255.022c-.47,0-.905-.215-.905-.77v-1.807h-.567v-.175l.567-.165v-.764l.4-.113v.905h.879v.312h-.879V139.6c0,.345.188.488.544.488.073,0,.147-.006.221-.012Z" transform="translate(-203.07 -136.058)"/><path d="M314.6,137.783a2.469,2.469,0,0,0-.85.143v-.34a2.265,2.265,0,0,1,.85-.153c.85,0,1.07.385,1.07.951v1.937h-.22l-.085-.226a1.492,1.492,0,0,1-.855.282.862.862,0,0,1-.991-.912c0-.481.267-.838,1.008-.883l.748-.045v-.159C315.272,137.966,315.125,137.783,314.6,137.783Zm-.1,1.105c-.4.04-.578.249-.578.578,0,.255.063.56.6.56a1.372,1.372,0,0,0,.753-.226v-.985Zm-.04-1.683.284-1.132h.453l-.453,1.132Z" transform="translate(-203.252 -136.017)"/><path d="M316.765,137.6l.81,2.322.81-2.322h.436l-1.105,2.889h-.283l-1.1-2.889Z" transform="translate(-203.461 -136.13)"/><path d="M320.635,137.543c.964,0,1.077.657,1.077,1.472v.181h-1.87c.022.492.153.939.792.939a2.156,2.156,0,0,0,.935-.158v.341a2.294,2.294,0,0,1-.935.169c-.956,0-1.188-.657-1.188-1.473S319.679,137.543,320.635,137.543Zm-.792,1.33h1.473c0-.5-.028-.98-.68-.98S319.861,138.363,319.843,138.873Z" transform="translate(-203.694 -136.126)"/><path d="M322.694,139.755v-3.681h.385V139.8c0,.2.062.255.238.255v.322C322.91,140.378,322.694,140.208,322.694,139.755Z" transform="translate(-203.935 -136.017)"/></g></g></g></g></g></svg>