<svg xmlns="http://www.w3.org/2000/svg" width="668.384" height="325.505" viewBox="0 0 668.384 325.505"><defs><style>.a{fill:#e5243b;}.b{fill:#fff;}.c{fill:none;stroke:#fff;stroke-linecap:round;stroke-miterlimit:10;stroke-width:1.307px;}.d{fill:#c5192d;}.e{fill:#ff3a21;}.f{fill:#a21942;}.g{fill:#dd1367;}.h{fill:#fd6925;}.i{fill:#19486a;}.j{fill:#f1f1f1;}.k{fill:#56c22b;}.l{fill:#dda63a;}.m{fill:#4c9f38;}.n{fill:#3f7e44;}.o{fill:#fcc30b;}.p{fill:#ff9f24;}.q{fill:#0a97d9;}.r{fill:#26bde2;}.s{fill:#ff6924;}.t{fill:#e8203a;}.u{fill:#bf8b2e;}.v{fill:#00689d;}</style></defs><g transform="translate(-959.217 -3145)"><g transform="translate(959.217 3145.001)"><rect class="a" width="154.548" height="154.553"/><path class="b" d="M-2344.558,364.065h.046v23.854h5.238V356.757h-4.183l-4.824,5.654v5.468h.046Z" transform="translate(2366.136 -343.739)"/><g transform="translate(113.123 69.455)"><path class="b" d="M-2242.942,419.8a4.281,4.281,0,0,1,4.281-4.28,4.276,4.276,0,0,1,4.273,4.28,4.277,4.277,0,0,1-4.273,4.279,4.282,4.282,0,0,1-4.281-4.279" transform="translate(2248.84 -415.522)"/><path class="b" d="M-2233.909,426.151a5.7,5.7,0,0,1,5.177,5.683v11.86a1.66,1.66,0,0,1-1.656,1.659,1.66,1.66,0,0,1-1.661-1.659V433.508c0-.382-.11-.9-.81-.9-.483,0-.583.512-.6.837v30.532a2.382,2.382,0,0,1-2.381,2.383,2.388,2.388,0,0,1-2.389-2.383V446.383a.646.646,0,0,0-.676-.7h0a.655.655,0,0,0-.687.7v17.594a2.382,2.382,0,0,1-2.381,2.383,2.383,2.383,0,0,1-2.384-2.383V433.446c-.016-.326-.12-.837-.6-.837-.7,0-.808.517-.808.9v10.186a1.663,1.663,0,0,1-1.661,1.659,1.658,1.658,0,0,1-1.656-1.659v-11.86a5.7,5.7,0,0,1,5.184-5.683,2.518,2.518,0,0,1,.313-.026h9.351a2.712,2.712,0,0,1,.326.026" transform="translate(2249.083 -415.942)"/></g><g transform="translate(77.896 71.927)"><path class="b" d="M-2269.768,422.152a4.051,4.051,0,0,0-4.048-4.056,4.055,4.055,0,0,0-4.053,4.056,4.051,4.051,0,0,0,4.053,4.052,4.047,4.047,0,0,0,4.048-4.052" transform="translate(2285.451 -418.096)"/><path class="b" d="M-2282.293,431.744l-3.368,10.964s-.6,2.01,1.105,2.511,2.212-1.46,2.212-1.46l2.716-9.151s.147-.7.676-.551.33.9.33.9l-4.726,17.149h4.4v12.282a2.111,2.111,0,0,0,2.113,2.107,2.107,2.107,0,0,0,2.107-2.107V452.111h1.2v12.282a2.107,2.107,0,0,0,2.11,2.107,2.111,2.111,0,0,0,2.114-2.107V452.111h4.394l-4.723-17.149s-.2-.753.33-.9.677.551.677.551l2.715,9.151s.516,1.963,2.211,1.46,1.105-2.511,1.105-2.511l-3.368-10.964s-1.2-3.169-3.868-3.169h-8.585c-2.665,0-3.871,3.169-3.871,3.169" transform="translate(2285.763 -418.511)"/></g><g transform="translate(53.63 71.927)"><path class="b" d="M-2295.035,422.152a4.053,4.053,0,0,0-4.049-4.056,4.054,4.054,0,0,0-4.052,4.056,4.05,4.05,0,0,0,4.052,4.052,4.049,4.049,0,0,0,4.049-4.052" transform="translate(2310.718 -418.096)"/><path class="b" d="M-2307.561,431.744l-3.366,10.964s-.6,2.01,1.1,2.511,2.211-1.46,2.211-1.46l2.716-9.151s.147-.7.676-.551.33.9.33.9l-4.725,17.149h4.4v12.282a2.113,2.113,0,0,0,2.113,2.107,2.108,2.108,0,0,0,2.11-2.107V452.111h1.2v12.282a2.105,2.105,0,0,0,2.11,2.107,2.108,2.108,0,0,0,2.111-2.107V452.111h4.4l-4.722-17.149s-.2-.753.327-.9.678.551.678.551l2.713,9.151s.517,1.963,2.212,1.46,1.105-2.511,1.105-2.511l-3.368-10.964s-1.2-3.169-3.867-3.169h-8.585c-2.663,0-3.871,3.169-3.871,3.169" transform="translate(2311.031 -418.511)"/></g><g transform="translate(98.974 91.914)"><path class="b" d="M-2255.405,445.652a3.37,3.37,0,0,0,3.371-3.376,3.365,3.365,0,0,0-3.371-3.369,3.367,3.367,0,0,0-3.373,3.369,3.372,3.372,0,0,0,3.373,3.376" transform="translate(2263.617 -438.907)"/><path class="b" d="M-2263.69,456.46a1.172,1.172,0,0,0,.492,1.6,1.126,1.126,0,0,0,1.446-.472l1.833-5.846s.318-.392.318.013v13.762h.008a1.727,1.727,0,0,0,1.731,1.731,1.727,1.727,0,0,0,1.729-1.731v-5.431s-.1-.767.519-.767.523.767.523.767v5.431a1.731,1.731,0,0,0,1.733,1.731,1.733,1.733,0,0,0,1.734-1.731V451.752c0-.405.213-.116.213-.116l1.437,4a9.6,9.6,0,0,0,.816,1.868,1.278,1.278,0,0,0,1.671-.69,1.259,1.259,0,0,0-.137-1.231l.012-.012c-.042-.13-2.147-5.295-2.4-6.02-.761-2.22-2.145-2.2-3.478-2.238s-2.131,0-2.131,0-.851-.035-2.611.017-2.312.956-4.251,5.943c-.276.719-1.213,3.043-1.224,3.182Z" transform="translate(2263.816 -439.24)"/></g><g transform="translate(16.322 69.455)"><g transform="translate(2.35)"><path class="b" d="M-2332.729,419.8a4.282,4.282,0,0,0-4.282-4.28,4.276,4.276,0,0,0-4.274,4.28,4.277,4.277,0,0,0,4.274,4.279,4.283,4.283,0,0,0,4.282-4.279" transform="translate(2347.187 -415.522)"/><path class="b" d="M-2342.25,426.151a5.7,5.7,0,0,0-5.18,5.683v11.86a1.662,1.662,0,0,0,1.66,1.659,1.66,1.66,0,0,0,1.659-1.659V433.508c0-.382.111-.9.81-.9.482,0,.582.512.6.837v30.532a2.38,2.38,0,0,0,2.38,2.383,2.385,2.385,0,0,0,2.384-2.383V446.383a.651.651,0,0,1,.68-.7h0a.654.654,0,0,1,.687.7v17.594a2.383,2.383,0,0,0,2.382,2.383,2.382,2.382,0,0,0,2.383-2.383V433.446c.014-.326.123-.837.6-.837.7,0,.808.517.808.9v10.186a1.662,1.662,0,0,0,1.66,1.659,1.659,1.659,0,0,0,1.656-1.659v-11.86a5.7,5.7,0,0,0-5.183-5.683,2.546,2.546,0,0,0-.314-.026h-9.351a2.679,2.679,0,0,0-.325.026" transform="translate(2347.43 -415.942)"/></g><line class="c" x1="3.799" y2="20.139" transform="translate(0 29.476)"/></g><g transform="translate(38.789 91.914)"><path class="b" d="M-2324.214,444.066a1.234,1.234,0,0,0-1.041-.576,1.23,1.23,0,0,0-1.229,1.225,2.243,2.243,0,0,0,.12.54l3.4,6.152a2.172,2.172,0,0,1,.208.812V465.43h.007a1.659,1.659,0,0,0,1.663,1.661,1.656,1.656,0,0,0,1.658-1.661v-5.214s-.094-.738.5-.738.5.738.5.738v5.214a1.66,1.66,0,0,0,1.663,1.661,1.662,1.662,0,0,0,1.666-1.661V452.219a2.2,2.2,0,0,1,.205-.812l3.142-5.68a5.543,5.543,0,0,0,.384-1.012,1.228,1.228,0,0,0-1.229-1.225,1.217,1.217,0,0,0-1.04.576l-.013-.007c-.1.085-1.673,2.887-2.193,3.406a1.361,1.361,0,0,1-1.041.493h-4.086a1.36,1.36,0,0,1-1.042-.493c-.526-.52-2.093-3.322-2.194-3.406Z" transform="translate(2326.484 -439.089)"/><path class="b" d="M-2318.755,445.652a3.37,3.37,0,0,0,3.371-3.376,3.365,3.365,0,0,0-3.371-3.369,3.366,3.366,0,0,0-3.37,3.369,3.37,3.37,0,0,0,3.37,3.376" transform="translate(2326.311 -438.907)"/><path class="b" d="M-2318.842,450.858l3.812,2.78,1.811,6.669h-11.25l1.816-6.669Z" transform="translate(2326.404 -439.38)"/></g><g transform="translate(44.449 10.699)"><path class="b" d="M-2320.59,356.523h5.086v1.738h-2.954v3.628h2.113v1.72h-2.113v3.852h2.954V369.2h-5.086Z" transform="translate(2320.59 -354.428)"/><path class="b" d="M-2311.78,363.385V369.2h-2.131V356.523h3.1c2.15,0,2.936,1.066,2.936,2.842v1.627c0,1.366-.486,2.17-1.7,2.45l2.038,5.759h-2.243Zm0-5.124v3.946h.712a.922.922,0,0,0,1.046-1.047V359.29c0-.691-.317-1.029-1.046-1.029Z" transform="translate(2320.325 -354.428)"/><path class="b" d="M-2304.088,363.385V369.2h-2.132V356.523h3.1c2.151,0,2.936,1.066,2.936,2.842v1.627c0,1.366-.486,2.17-1.7,2.45l2.038,5.759h-2.243Zm0-5.124v3.946h.711a.923.923,0,0,0,1.047-1.047V359.29c0-.691-.317-1.029-1.047-1.029Z" transform="translate(2320.021 -354.428)"/><path class="b" d="M-2298.879,369.2l2.393-12.678h2.43l2.412,12.678h-2.187l-.394-2.318h-2.262l-.375,2.318Zm2.674-4.02h1.7l-.841-5.086h-.018Z" transform="translate(2319.73 -354.428)"/><path class="b" d="M-2283.858,359.926V365.8c0,1.945-.8,3.4-3.086,3.4h-3.291V356.523h3.291C-2284.662,356.523-2283.858,357.963-2283.858,359.926Zm-3.347,7.536c.879,0,1.215-.523,1.215-1.291v-6.637a1.111,1.111,0,0,0-1.215-1.273h-.9v9.2Z" transform="translate(2319.388 -354.428)"/><path class="b" d="M-2282.134,356.523H-2280V369.2h-2.132Z" transform="translate(2319.067 -354.428)"/><path class="b" d="M-2278.435,365.922v-6.133c0-1.982.935-3.422,3.18-3.422,2.356,0,3.01,1.309,3.01,3.179v1.5h-1.945v-1.663c0-.786-.261-1.234-1.028-1.234s-1.085.542-1.085,1.309v6.806c0,.766.318,1.309,1.085,1.309s1.028-.487,1.028-1.234V364h1.945v2.188c0,1.814-.748,3.16-3.01,3.16C-2277.5,369.344-2278.435,367.886-2278.435,365.922Z" transform="translate(2318.92 -354.422)"/><path class="b" d="M-2271.132,369.2l2.393-12.678h2.43l2.413,12.678h-2.187l-.393-2.318h-2.263l-.375,2.318Zm2.674-4.02h1.7l-.841-5.086h-.019Z" transform="translate(2318.631 -354.428)"/><path class="b" d="M-2260.518,370.485c.6-.018.693-.15.693-.3,0-.131-.114-.206-.3-.206h-.094v-.691c-1.813-.225-2.562-1.589-2.562-3.366v-6.133c0-1.982.936-3.422,3.18-3.422,2.355,0,3.011,1.309,3.011,3.179v1.5h-1.946v-1.663c0-.786-.261-1.234-1.027-1.234s-1.085.542-1.085,1.309v6.806c0,.766.318,1.309,1.085,1.309s1.027-.487,1.027-1.234V364h1.946v2.188c0,1.776-.711,3.086-2.824,3.16v.169c.5.074.786.261.786.672,0,.58-.543.9-1.889.9Z" transform="translate(2318.3 -354.422)"/><path class="b" d="M-2255.478,369.115l2.393-12.678h2.431l2.411,12.678h-2.187l-.393-2.318h-2.263l-.373,2.318Zm1.664-13.183c.037-.879.374-1.589,1.309-1.589.542,0,.99.318,1.271.318a.252.252,0,0,0,.263-.28h1.046c-.038.879-.374,1.589-1.309,1.589-.542,0-.99-.318-1.271-.318a.251.251,0,0,0-.262.28Zm1.009,9.163h1.7l-.841-5.086h-.019Z" transform="translate(2318.011 -354.342)"/><path class="b" d="M-2247.125,365.922v-6.133c0-1.982.972-3.422,3.217-3.422,2.263,0,3.235,1.44,3.235,3.422v6.133c0,1.964-.972,3.422-3.235,3.422C-2246.153,369.344-2247.125,367.886-2247.125,365.922Zm4.32.337v-6.806c0-.767-.337-1.309-1.1-1.309-.748,0-1.085.542-1.085,1.309v6.806c0,.766.337,1.309,1.085,1.309C-2243.142,367.568-2242.8,367.025-2242.8,366.259Z" transform="translate(2317.68 -354.422)"/><path class="b" d="M-2314.214,379.4v5.872c0,1.945-.8,3.4-3.085,3.4h-3.291V375.995h3.291C-2315.017,375.995-2314.214,377.435-2314.214,379.4Zm-3.347,7.536c.879,0,1.216-.524,1.216-1.291V379a1.112,1.112,0,0,0-1.216-1.272h-.9v9.2Z" transform="translate(2320.59 -355.2)"/><path class="b" d="M-2313.132,388.672l2.394-12.677h2.429l2.413,12.677h-2.187l-.393-2.318h-2.263l-.375,2.318Zm2.674-4.02h1.7l-.841-5.086h-.019Z" transform="translate(2320.295 -355.2)"/><path class="b" d="M-2302.248,375.995h3.161c2.15,0,2.935,1.065,2.935,2.842v2.674c0,1.777-.785,2.861-2.935,2.861h-1.03v4.3h-2.131Zm2.131,1.738v4.993h.787a.915.915,0,0,0,1.047-1.047v-2.918c0-.691-.318-1.029-1.047-1.029Z" transform="translate(2319.864 -355.2)"/><path class="b" d="M-2294.557,385.394v-6.133c0-1.982.973-3.422,3.217-3.422,2.262,0,3.234,1.44,3.234,3.422v6.133c0,1.963-.973,3.422-3.234,3.422C-2293.584,388.816-2294.557,387.357-2294.557,385.394Zm4.32.337v-6.807c0-.766-.336-1.309-1.1-1.309-.749,0-1.085.543-1.085,1.309v6.807c0,.765.336,1.308,1.085,1.308C-2290.573,387.039-2290.237,386.5-2290.237,385.731Z" transform="translate(2319.559 -355.194)"/><path class="b" d="M-2286.379,375.995h3.086c2.131,0,2.843.99,2.843,2.785v1.291a1.848,1.848,0,0,1-1.272,2.02,1.924,1.924,0,0,1,1.59,2.113v1.683c0,1.8-.8,2.786-2.937,2.786h-3.309Zm2.132,5.347h.748a.9.9,0,0,0,1.009-1.029v-1.552a.9.9,0,0,0-1.028-1.029h-.729Zm0,1.627v3.965h.934a.918.918,0,0,0,1.048-1.03V384c0-.673-.318-1.029-1.066-1.029Z" transform="translate(2319.235 -355.2)"/><path class="b" d="M-2276.44,382.857v5.815h-2.132V375.995h3.1c2.15,0,2.935,1.065,2.935,2.842v1.627c0,1.365-.485,2.169-1.7,2.449l2.038,5.759h-2.244Zm0-5.124v3.946h.711a.923.923,0,0,0,1.047-1.048v-1.87c0-.691-.317-1.029-1.047-1.029Z" transform="translate(2318.926 -355.2)"/><path class="b" d="M-2270.88,375.995h5.086v1.738h-2.954v3.627h2.113v1.721h-2.113v3.852h2.954v1.738h-5.086Z" transform="translate(2318.621 -355.2)"/><path class="b" d="M-2262.131,386.934h3.235v1.738h-5.461v-1.738l3.348-9.2h-3.011v-1.738h5.255v1.738Z" transform="translate(2318.363 -355.2)"/><path class="b" d="M-2257.619,388.672l2.393-12.677h2.43l2.413,12.677h-2.188l-.393-2.318h-2.262l-.375,2.318Zm2.674-4.02h1.7l-.841-5.086h-.018Z" transform="translate(2318.096 -355.2)"/></g></g><g transform="translate(1130.496 3145.001)"><rect class="d" width="154.548" height="154.553"/><path class="b" d="M-2163.7,387.85h4.963v-5.056h2.116v-4.088h-2.116V356.688h-5.149l-9.052,22.89v3.216h9.238Zm-4.643-9.144,4.688-12.824h.047v12.824Z" transform="translate(2187.912 -343.736)"/><path class="b" d="M-2118.315,428.829l-27.718-16V464.6l27.718,8.363Z" transform="translate(2186.846 -345.96)"/><path class="b" d="M-2114,428.935v44.046l27.9-8.387V412.826Z" transform="translate(2185.577 -345.96)"/><path class="b" d="M-2062.563,411.325a3.279,3.279,0,0,0-3.277-3.281,3.279,3.279,0,0,0-3.281,3.281v3.535h6.558Z" transform="translate(2183.799 -345.771)"/><path class="b" d="M-2068.307,463.879h-.814l3.281,11.462,3.275-11.462h0V417.814h-6.558v46.065Z" transform="translate(2183.799 -346.158)"/><path class="b" d="M-2081.659,415.043l-2.971-2.348V466l-30.8,9.952h-3.131l-30.661-8.566V412.7l-2.973,2.348V469.47l33.494,9.272h3.41l30.9-9.811,2.729-.8Z" transform="translate(2187.09 -345.955)"/><g transform="translate(44.134 10.85)"><path class="b" d="M-2142.575,356.663h5.046v1.726h-2.931v3.6h2.1v1.707h-2.1v3.822h2.931v1.726h-5.046Z" transform="translate(2142.575 -354.586)"/><path class="b" d="M-2129.718,360.04v5.826c0,1.929-.8,3.377-3.061,3.377h-3.265V356.663h3.265C-2130.516,356.663-2129.718,358.091-2129.718,360.04Zm-3.321,7.477c.872,0,1.206-.52,1.206-1.28V359.65a1.1,1.1,0,0,0-1.206-1.261h-.89v9.128Z" transform="translate(2142.316 -354.586)"/><path class="b" d="M-2121.971,356.663v9.517c0,1.949-.834,3.21-2.987,3.21-2.225,0-3.153-1.261-3.153-3.21v-9.517H-2126v9.721c0,.743.3,1.244,1.038,1.244s1.039-.5,1.039-1.244v-9.721Z" transform="translate(2142.002 -354.586)"/><path class="b" d="M-2120.371,365.989V359.9c0-1.967.928-3.395,3.153-3.395,2.338,0,2.988,1.3,2.988,3.154v1.484h-1.93V359.5c0-.779-.26-1.224-1.021-1.224s-1.075.538-1.075,1.3v6.753c0,.76.315,1.3,1.075,1.3s1.021-.483,1.021-1.224v-2.318h1.93v2.17c0,1.8-.742,3.136-2.988,3.136C-2119.443,369.384-2120.371,367.937-2120.371,365.989Z" transform="translate(2141.695 -354.58)"/><path class="b" d="M-2113.069,369.242l2.375-12.579h2.412l2.393,12.579h-2.17l-.39-2.3h-2.244l-.371,2.3Zm2.654-3.989h1.687l-.834-5.046h-.018Z" transform="translate(2141.406 -354.586)"/><path class="b" d="M-2102.438,370.516c.594-.019.686-.15.686-.3,0-.13-.111-.2-.3-.2h-.092v-.687c-1.8-.223-2.541-1.577-2.541-3.339V359.9c0-1.967.927-3.395,3.153-3.395,2.337,0,2.987,1.3,2.987,3.154v1.484h-1.929V359.5c0-.779-.259-1.224-1.02-1.224s-1.075.538-1.075,1.3v6.753c0,.76.315,1.3,1.075,1.3s1.02-.483,1.02-1.224v-2.318h1.929v2.17c0,1.762-.7,3.062-2.8,3.136v.167c.5.074.78.259.78.667,0,.575-.539.891-1.874.891Z" transform="translate(2141.074 -354.58)"/><path class="b" d="M-2097.381,369.156l2.375-12.579h2.412l2.393,12.579h-2.171l-.389-2.3h-2.245l-.371,2.3Zm1.652-13.08c.037-.873.372-1.577,1.3-1.577.537,0,.983.315,1.261.315a.25.25,0,0,0,.26-.279h1.039c-.037.872-.372,1.578-1.3,1.578-.538,0-.983-.316-1.261-.316a.248.248,0,0,0-.26.279Zm1,9.09h1.688l-.834-5.046h-.019Z" transform="translate(2140.785 -354.5)"/><path class="b" d="M-2089,365.989V359.9c0-1.967.964-3.395,3.19-3.395,2.245,0,3.21,1.428,3.21,3.395v6.085c0,1.948-.965,3.395-3.21,3.395C-2088.031,369.384-2089,367.937-2089,365.989Zm4.285.334V359.57c0-.761-.334-1.3-1.095-1.3-.741,0-1.075.538-1.075,1.3v6.753c0,.76.334,1.3,1.075,1.3C-2085.044,367.622-2084.71,367.083-2084.71,366.323Z" transform="translate(2140.453 -354.58)"/><path class="b" d="M-2136.249,379.351v5.827c0,1.928-.8,3.376-3.062,3.376h-3.264V375.975h3.264C-2137.047,375.975-2136.249,377.4-2136.249,379.351Zm-3.321,7.477c.872,0,1.206-.52,1.206-1.28v-6.585a1.1,1.1,0,0,0-1.206-1.262h-.89v9.128Z" transform="translate(2142.575 -355.351)"/><path class="b" d="M-2134.629,375.975h5.046V377.7h-2.931v3.6h2.1v1.707h-2.1v3.821h2.931v1.726h-5.046Z" transform="translate(2142.26 -355.351)"/><path class="b" d="M-2123.566,389.4v-.854c-1.687-.3-2.411-1.539-2.411-3.247v-6.085c0-1.966.964-3.395,3.19-3.395,2.244,0,3.21,1.429,3.21,3.395V385.3a3.021,3.021,0,0,1-1.559,2.969l1.559.3v1.576Zm1.875-3.655v-6.864c0-.761-.334-1.3-1.095-1.3-.741,0-1.075.539-1.075,1.3v6.864c0,.742.334,1.3,1.075,1.3C-2122.026,387.044-2121.692,386.488-2121.692,385.746Z" transform="translate(2141.917 -355.344)"/><path class="b" d="M-2111.827,375.975v9.517c0,1.948-.835,3.21-2.987,3.21-2.226,0-3.154-1.262-3.154-3.21v-9.517h2.116V385.7c0,.742.3,1.244,1.038,1.244s1.039-.5,1.039-1.244v-9.721Z" transform="translate(2141.6 -355.351)"/><path class="b" d="M-2110.635,388.553l2.374-12.578h2.413l2.393,12.578h-2.171l-.389-2.3h-2.246l-.371,2.3Zm2.653-3.988h1.688l-.834-5.047h-.019Z" transform="translate(2141.31 -355.351)"/><path class="b" d="M-2102.016,375.975h2.115v10.852h2.523v1.726h-4.638Z" transform="translate(2140.968 -355.351)"/><path class="b" d="M-2096.007,375.975h2.116v12.578h-2.116Z" transform="translate(2140.73 -355.351)"/><path class="b" d="M-2086.095,379.351v5.827c0,1.928-.8,3.376-3.061,3.376h-3.265V375.975h3.265C-2086.893,375.975-2086.095,377.4-2086.095,379.351Zm-3.321,7.477c.872,0,1.207-.52,1.207-1.28v-6.585a1.1,1.1,0,0,0-1.207-1.262h-.889v9.128Z" transform="translate(2140.588 -355.351)"/><path class="b" d="M-2084.926,388.553l2.375-12.578h2.412l2.393,12.578h-2.171l-.389-2.3h-2.245l-.371,2.3Zm2.654-3.988h1.688l-.834-5.047h-.019Z" transform="translate(2140.291 -355.351)"/><path class="b" d="M-2069.98,379.351v5.827c0,1.928-.8,3.376-3.062,3.376h-3.264V375.975h3.264C-2070.779,375.975-2069.98,377.4-2069.98,379.351Zm-3.321,7.477c.872,0,1.205-.52,1.205-1.28v-6.585a1.1,1.1,0,0,0-1.205-1.262h-.89v9.128Z" transform="translate(2139.95 -355.351)"/><path class="b" d="M-2068.359,375.975h5.046V377.7h-2.931v3.6h2.1v1.707h-2.1v3.821h2.931v1.726h-5.046Z" transform="translate(2139.635 -355.351)"/></g></g><g transform="translate(1301.774 3145)"><rect class="e" width="154.548" height="154.555"/><path class="b" d="M-1984.912,366.553a4.725,4.725,0,0,0-4.412,2.16h-.047v-7.768h9.01v-4.275h-13.787V374.23h4.778v-.692c0-1.838.829-2.849,2.3-2.849,1.61,0,2.254,1.105,2.254,2.806v7.537c0,1.656-.6,2.8-2.207,2.8-1.794,0-2.436-1.195-2.436-3.032v-3.908h-4.783v3.539c0,4.734,1.885,7.768,7.218,7.768,5.286,0,7.445-2.8,7.445-7.124v-7.63c0-4.918-2.527-6.894-5.331-6.894" transform="translate(2009.554 -343.735)"/><g transform="translate(51.848 58.481)"><path class="b" d="M-1895.477,404.094h-19.208a.246.246,0,0,0-.244.245v6.383a.246.246,0,0,0,.244.246h7.648l-8.492,8.495a25.021,25.021,0,0,0-15.511-5.372,25.187,25.187,0,0,0-25.158,25.157,25.19,25.19,0,0,0,21.911,24.941v7.355h-7.576a.244.244,0,0,0-.248.243v6.842a.243.243,0,0,0,.248.244h7.576v7.238a.243.243,0,0,0,.244.244h6.838a.246.246,0,0,0,.248-.244v-7.238h7.575a.244.244,0,0,0,.244-.244v-6.842a.244.244,0,0,0-.244-.243h-7.575v-7.474a25.2,25.2,0,0,0,21.075-24.822,25.014,25.014,0,0,0-4.6-14.47l8.372-8.373v7.144a.247.247,0,0,0,.248.244h6.382a.247.247,0,0,0,.249-.244v-19.21a.247.247,0,0,0-.249-.245m-35.563,53.671a18.538,18.538,0,0,1-18.516-18.518,18.538,18.538,0,0,1,18.516-18.518,18.539,18.539,0,0,1,18.518,18.518,18.539,18.539,0,0,1-18.518,18.518" transform="translate(1956.199 -404.094)"/><path class="b" d="M-1919.162,432.783h-22.461a.233.233,0,0,0-.243.219v5.438a.231.231,0,0,0,.243.223h22.461a.233.233,0,0,0,.249-.223V433a.235.235,0,0,0-.249-.219" transform="translate(1955.631 -405.23)"/><path class="b" d="M-1919.162,442.892h-22.461a.236.236,0,0,0-.243.227v5.438a.231.231,0,0,0,.243.219h22.461a.233.233,0,0,0,.249-.219v-5.438a.237.237,0,0,0-.249-.227" transform="translate(1955.631 -405.631)"/></g><g transform="translate(44.134 12.785)"><path class="b" d="M-1964.231,356.668h2.132v12.678h-2.132Z" transform="translate(1964.231 -356.519)"/><path class="b" d="M-1957.315,362.571h3.03v6.769h-1.534v-1.384a1.921,1.921,0,0,1-2.038,1.534c-1.833,0-2.675-1.459-2.675-3.422v-6.133c0-1.982.954-3.422,3.2-3.422,2.356,0,3.048,1.308,3.048,3.178v1.123h-1.946v-1.291c0-.785-.3-1.234-1.065-1.234s-1.1.543-1.1,1.309V366.4c0,.766.318,1.309,1.048,1.309.692,0,1.047-.392,1.047-1.215v-2.244h-1.009Z" transform="translate(1964.084 -356.513)"/><path class="b" d="M-1946.376,356.668v9.593c0,1.963-.841,3.235-3.011,3.235-2.245,0-3.18-1.272-3.18-3.235v-9.593h2.132v9.8c0,.747.3,1.252,1.048,1.252s1.047-.505,1.047-1.252v-9.8Z" transform="translate(1963.769 -356.519)"/><path class="b" d="M-1945.011,369.346l2.393-12.678h2.431l2.411,12.678h-2.187l-.393-2.318h-2.263l-.373,2.318Zm2.674-4.02h1.7l-.841-5.086h-.019Z" transform="translate(1963.47 -356.519)"/><path class="b" d="M-1936.366,356.668h2.131v10.94h2.544v1.738h-4.675Z" transform="translate(1963.127 -356.519)"/><path class="b" d="M-1923.915,360.072v5.872c0,1.945-.8,3.4-3.085,3.4h-3.291V356.668H-1927C-1924.718,356.668-1923.915,358.108-1923.915,360.072Zm-3.347,7.536c.879,0,1.216-.524,1.216-1.291v-6.638a1.111,1.111,0,0,0-1.216-1.272h-.9v9.2Z" transform="translate(1962.887 -356.519)"/><path class="b" d="M-1922.54,369.346l2.393-12.678h2.43l2.412,12.678h-2.187l-.394-2.318h-2.262l-.375,2.318Zm2.674-4.02h1.7l-.841-5.086h-.018Z" transform="translate(1962.579 -356.519)"/><path class="b" d="M-1907.519,360.072v5.872c0,1.945-.8,3.4-3.086,3.4h-3.291V356.668h3.291C-1908.323,356.668-1907.519,358.108-1907.519,360.072Zm-3.347,7.536c.879,0,1.215-.524,1.215-1.291v-6.638a1.11,1.11,0,0,0-1.215-1.272h-.9v9.2Z" transform="translate(1962.237 -356.519)"/><path class="b" d="M-1905.795,356.668h5.086v1.739h-2.954v3.627h2.113v1.72h-2.113v3.853h2.954v1.738h-5.086Z" transform="translate(1961.916 -356.519)"/><path class="b" d="M-1957.854,379.545v5.871c0,1.945-.8,3.4-3.086,3.4h-3.291V376.141h3.291C-1958.658,376.141-1957.854,377.581-1957.854,379.545Zm-3.347,7.535c.879,0,1.215-.523,1.215-1.291v-6.637a1.11,1.11,0,0,0-1.215-1.272h-.9v9.2Z" transform="translate(1964.231 -357.29)"/><path class="b" d="M-1956.13,376.141h5.086v1.739H-1954v3.627h2.113v1.72H-1954v3.852h2.954v1.739h-5.086Z" transform="translate(1963.91 -357.29)"/><path class="b" d="M-1943.995,382.043h3.029v6.77h-1.534v-1.384a1.921,1.921,0,0,1-2.039,1.534c-1.831,0-2.674-1.459-2.674-3.422v-6.134c0-1.982.954-3.422,3.2-3.422,2.356,0,3.048,1.309,3.048,3.179v1.122h-1.946V379c0-.786-.3-1.234-1.065-1.234s-1.1.542-1.1,1.309v6.806c0,.766.318,1.309,1.047,1.309.692,0,1.047-.393,1.047-1.216v-2.243h-1.009Z" transform="translate(1963.557 -357.284)"/><path class="b" d="M-1939.248,376.038h5.086v1.739h-2.954v3.627H-1935v1.72h-2.113v3.852h2.954v1.739h-5.086Zm.88-.468v-1.029l1.345-.991h.935l1.345.991v1.029l-1.795-.542Z" transform="translate(1963.241 -357.188)"/><path class="b" d="M-1930.774,380.853v7.966h-1.795V376.141h2.094l2.3,7.274v-7.274h1.776v12.678h-1.87Z" transform="translate(1962.977 -357.29)"/><path class="b" d="M-1924.683,376.141h5.086v1.739h-2.954v3.627h2.113v1.72h-2.113v3.852h2.954v1.739h-5.086Z" transform="translate(1962.664 -357.29)"/><path class="b" d="M-1915.872,383v5.815H-1918V376.141h3.1c2.151,0,2.936,1.066,2.936,2.843v1.626c0,1.366-.486,2.17-1.7,2.45l2.038,5.759h-2.243Zm0-5.124v3.945h.711a.923.923,0,0,0,1.047-1.047v-1.871c0-.691-.318-1.028-1.047-1.028Z" transform="translate(1962.4 -357.29)"/><path class="b" d="M-1910.313,385.541v-6.134c0-1.982.973-3.422,3.217-3.422,2.262,0,3.235,1.44,3.235,3.422v6.134c0,1.963-.973,3.422-3.235,3.422C-1909.34,388.963-1910.313,387.5-1910.313,385.541Zm4.32.336v-6.806c0-.767-.336-1.309-1.1-1.309-.748,0-1.085.542-1.085,1.309v6.806c0,.766.337,1.309,1.085,1.309C-1906.329,387.186-1905.993,386.643-1905.993,385.877Z" transform="translate(1962.095 -357.284)"/></g></g><g transform="translate(1473.053 3145.001)"><rect class="f" width="154.548" height="154.552"/><path class="b" d="M-1801.218,380.212v-3.4c0-2.986-1.056-5.147-3.492-6.251,2.066-1.008,3.033-2.848,3.033-5.421v-1.289c0-4.871-2.528-7.491-7.354-7.491-4.779,0-7.262,2.62-7.262,7.491v1.289c0,2.529.921,4.413,2.941,5.421-2.436,1.1-3.447,3.265-3.447,6.251v3.4c0,4.734,2.253,8.043,7.769,8.043,5.561,0,7.813-3.31,7.813-8.043m-10.158-16.682c0-1.887.645-2.99,2.345-2.99,1.745,0,2.391,1.1,2.391,2.99v2.112c0,1.884-.645,2.99-2.391,2.99-1.7,0-2.345-1.105-2.345-2.99Zm4.918,17.233c0,1.885-.69,3.218-2.573,3.218-1.84,0-2.528-1.333-2.528-3.218v-5.055c0-1.883.688-3.217,2.528-3.217,1.883,0,2.573,1.334,2.573,3.217Z" transform="translate(1831.246 -343.724)"/><path class="b" d="M-1721.532,422.356l-15.709,14.943a2.6,2.6,0,0,0-.9,2.244v41.882a.9.9,0,0,0,.9.893h16.227a.894.894,0,0,0,.894-.893V422.732c0-.494-.387-1.4-1.412-.376" transform="translate(1828.13 -346.319)"/><path class="b" d="M-1768.653,442.627l-15.711,14.942a2.605,2.605,0,0,0-.9,2.242v22.416a.9.9,0,0,0,.9.892h16.228a.9.9,0,0,0,.894-.892V443c0-.5-.39-1.4-1.411-.376" transform="translate(1829.997 -347.122)"/><path class="b" d="M-1716.477,403.487a.448.448,0,0,0-.133-.341.473.473,0,0,0-.291-.128l-.086.006-.129.008-12.028,2.713-.219.023a.474.474,0,0,0-.234.123.46.46,0,0,0,0,.646l.136.136,2.747,2.746-27.256,27.256-12.588-12.589a.357.357,0,0,0-.512,0l-3.416,3.417,0,0-20.18,20.175a.368.368,0,0,0,0,.514l3.421,3.418a.356.356,0,0,0,.508,0l19.928-19.923,9.135,9.136a.262.262,0,0,0,.029.043l3.417,3.412a.357.357,0,0,0,.512,0l30.933-30.933,2.885,2.883a.449.449,0,0,0,.642,0,.442.442,0,0,0,.132-.3l0-.038,2.642-12.28Z" transform="translate(1830.215 -345.572)"/><path class="b" d="M-1745,445.355l-7.6,7.663a.364.364,0,0,1-.49-.018l-6.886-7.019c-1.26-1.255-1.532-.237-1.532.256v36.094a.891.891,0,0,0,.888.894h16.232a.9.9,0,0,0,.893-.894V445.638c0-.494-.39-1.4-1.5-.283" transform="translate(1829.056 -347.228)"/><g transform="translate(43.128 12.831)"><path class="b" d="M-1786.935,356.673h3.572v1.221h-2.075v2.548h1.484v1.207h-1.484v2.705h2.075v1.221h-3.572Z" transform="translate(1786.935 -356.567)"/><path class="b" d="M-1778.162,359.8h-.039l-1.01,5.777h-.7l-1.116-5.777h-.027v5.777h-1.234v-8.9h1.747l.971,5.015h.013l.866-5.015h1.891v8.9h-1.366Z" transform="translate(1786.751 -356.567)"/><path class="b" d="M-1775.582,356.673h2.219c1.51,0,2.061.748,2.061,2v1.878c0,1.248-.551,2.009-2.061,2.009h-.722v3.019h-1.5Zm1.5,1.221V361.4h.551a.644.644,0,0,0,.736-.736v-2.049c0-.486-.224-.722-.736-.722Z" transform="translate(1786.485 -356.567)"/><path class="b" d="M-1768.724,361.491v4.084h-1.5v-8.9h2.179c1.511,0,2.062.748,2.062,2v1.142c0,.958-.342,1.523-1.195,1.72l1.431,4.044h-1.576Zm0-3.6v2.771h.5a.648.648,0,0,0,.735-.736v-1.313c0-.486-.223-.722-.735-.722Z" transform="translate(1786.273 -356.567)"/><path class="b" d="M-1764.858,356.673h3.572v1.221h-2.074v2.548h1.484v1.207h-1.484v2.705h2.074v1.221h-3.572Z" transform="translate(1786.06 -356.567)"/><path class="b" d="M-1758.086,360.818h2.127v4.753h-1.077V364.6a1.349,1.349,0,0,1-1.431,1.077c-1.287,0-1.877-1.025-1.877-2.4v-4.307a2.109,2.109,0,0,1,2.245-2.4c1.654,0,2.14.919,2.14,2.233v.788h-1.366v-.906c0-.552-.21-.867-.748-.867s-.775.381-.775.919v4.78c0,.538.224.919.736.919.486,0,.736-.276.736-.854V362h-.71Z" transform="translate(1785.882 -356.563)"/><path class="b" d="M-1754.791,363.273v-4.307a2.119,2.119,0,0,1,2.259-2.4,2.122,2.122,0,0,1,2.271,2.4v4.307a2.128,2.128,0,0,1-2.271,2.4A2.125,2.125,0,0,1-1754.791,363.273Zm3.034.236v-4.78c0-.538-.236-.919-.775-.919s-.762.381-.762.919v4.78c0,.538.236.919.762.919S-1751.757,364.047-1751.757,363.509Z" transform="translate(1785.662 -356.563)"/><path class="b" d="M-1749.169,363.654v-1.195h1.393v1.222c0,.5.223.788.735.788.473,0,.683-.315.683-.788v-.342a1.606,1.606,0,0,0-.669-1.26l-.88-.88a3,3,0,0,1-1.248-2.377v-.3a1.857,1.857,0,0,1,2.1-1.957c1.5,0,2.087.736,2.087,2.023v.722h-1.365v-.775c0-.512-.236-.762-.71-.762a.657.657,0,0,0-.709.736v.183c0,.5.276.788.709,1.208l.958.945a2.991,2.991,0,0,1,1.208,2.312v.433a1.928,1.928,0,0,1-2.179,2.088A1.855,1.855,0,0,1-1749.169,363.654Z" transform="translate(1785.439 -356.563)"/><path class="b" d="M-1737.77,359.062v4.123c0,1.366-.565,2.389-2.167,2.389h-2.312v-8.9h2.312C-1738.334,356.673-1737.77,357.684-1737.77,359.062Zm-2.351,5.292c.617,0,.854-.368.854-.907v-4.661a.78.78,0,0,0-.854-.893h-.63v6.461Z" transform="translate(1785.165 -356.567)"/><path class="b" d="M-1736.6,356.673h1.5v8.9h-1.5Z" transform="translate(1784.941 -356.567)"/><path class="b" d="M-1731.782,360.818h2.127v4.753h-1.077V364.6a1.349,1.349,0,0,1-1.431,1.077c-1.287,0-1.879-1.025-1.879-2.4v-4.307a2.11,2.11,0,0,1,2.245-2.4c1.655,0,2.141.919,2.141,2.233v.788h-1.366v-.906c0-.552-.21-.867-.748-.867s-.775.381-.775.919v4.78c0,.538.223.919.736.919.486,0,.735-.276.735-.854V362h-.709Z" transform="translate(1784.84 -356.563)"/><path class="b" d="M-1727.226,359.982v5.593h-1.261v-8.9h1.47l1.615,5.107v-5.107h1.248v8.9h-1.313Z" transform="translate(1784.62 -356.567)"/><path class="b" d="M-1722.988,363.273v-4.307a2.119,2.119,0,0,1,2.259-2.4,2.122,2.122,0,0,1,2.271,2.4v4.307a2.128,2.128,0,0,1-2.271,2.4A2.125,2.125,0,0,1-1722.988,363.273Zm3.033.236v-4.78c0-.538-.236-.919-.774-.919s-.762.381-.762.919v4.78c0,.538.236.919.762.919S-1719.955,364.047-1719.955,363.509Z" transform="translate(1784.402 -356.563)"/><path class="b" d="M-1717.367,363.654v-1.195h1.392v1.222c0,.5.224.788.736.788.472,0,.683-.315.683-.788v-.342a1.609,1.609,0,0,0-.669-1.26l-.88-.88a3,3,0,0,1-1.248-2.377v-.3a1.857,1.857,0,0,1,2.1-1.957c1.5,0,2.088.736,2.088,2.023v.722h-1.366v-.775c0-.512-.236-.762-.709-.762a.657.657,0,0,0-.709.736v.183c0,.5.276.788.709,1.208l.958.945a2.991,2.991,0,0,1,1.208,2.312v.433a1.929,1.929,0,0,1-2.18,2.088A1.854,1.854,0,0,1-1717.367,363.654Z" transform="translate(1784.179 -356.563)"/><path class="b" d="M-1710.445,356.673h3.572v1.221h-2.074v2.548h1.484v1.207h-1.484v2.705h2.074v1.221h-3.572Z" transform="translate(1783.905 -356.567)"/><path class="b" d="M-1786.935,376.952v-4.306a2.1,2.1,0,0,1,2.232-2.4c1.655,0,2.114.919,2.114,2.232v1.051h-1.366v-1.169c0-.551-.183-.867-.722-.867s-.762.381-.762.919v4.78c0,.539.224.919.762.919s.722-.341.722-.866V375.6h1.366v1.536c0,1.274-.525,2.219-2.114,2.219A2.105,2.105,0,0,1-1786.935,376.952Z" transform="translate(1786.935 -357.105)"/><path class="b" d="M-1779.967,375.171v4.084h-1.5v-8.9h2.179c1.51,0,2.062.748,2.062,2v1.143c0,.958-.342,1.523-1.2,1.72l1.432,4.044h-1.576Zm0-3.6v2.771h.5a.647.647,0,0,0,.735-.735v-1.314c0-.485-.223-.722-.735-.722Z" transform="translate(1786.718 -357.109)"/><path class="b" d="M-1776.1,370.352h3.572v1.221h-2.075v2.548h1.484v1.208h-1.484v2.7h2.075v1.222h-3.572Z" transform="translate(1786.506 -357.109)"/><path class="b" d="M-1771.6,377.333v-1.195h1.391v1.222c0,.5.224.787.736.787.472,0,.683-.315.683-.787v-.342a1.608,1.608,0,0,0-.67-1.26l-.88-.88a3,3,0,0,1-1.247-2.377v-.3a1.856,1.856,0,0,1,2.1-1.956c1.5,0,2.088.735,2.088,2.022v.722h-1.366v-.775c0-.512-.236-.762-.709-.762a.658.658,0,0,0-.71.736v.183c0,.5.276.788.71,1.208l.958.946a2.992,2.992,0,0,1,1.208,2.311v.433a1.928,1.928,0,0,1-2.18,2.088A1.854,1.854,0,0,1-1771.6,377.333Z" transform="translate(1786.328 -357.105)"/><path class="b" d="M-1766.211,376.952v-4.306a2.1,2.1,0,0,1,2.232-2.4c1.654,0,2.114.919,2.114,2.232v1.051h-1.366v-1.169c0-.551-.183-.867-.722-.867s-.762.381-.762.919v4.78c0,.539.224.919.762.919s.722-.341.722-.866V375.6h1.366v1.536c0,1.274-.525,2.219-2.114,2.219A2.105,2.105,0,0,1-1766.211,376.952Z" transform="translate(1786.114 -357.105)"/><path class="b" d="M-1760.741,370.352h1.5v8.9h-1.5Z" transform="translate(1785.897 -357.109)"/><path class="b" d="M-1754.06,373.477h-.039l-1.011,5.778h-.7l-1.116-5.778h-.026v5.778h-1.234v-8.9h1.746l.972,5.016h.014l.866-5.016h1.891v8.9h-1.366Z" transform="translate(1785.796 -357.109)"/><path class="b" d="M-1751.48,370.352h3.572v1.221h-2.074v2.548h1.483v1.208h-1.483v2.7h2.074v1.222h-3.572Z" transform="translate(1785.531 -357.109)"/><path class="b" d="M-1745.569,373.661v5.594h-1.261v-8.9h1.471l1.615,5.107v-5.107h1.247v8.9h-1.313Z" transform="translate(1785.346 -357.109)"/><path class="b" d="M-1741.508,370.352h3.978v1.221h-1.234v7.682h-1.51v-7.682h-1.234Z" transform="translate(1785.135 -357.109)"/><path class="b" d="M-1736.749,376.952v-4.306a2.119,2.119,0,0,1,2.259-2.4,2.122,2.122,0,0,1,2.271,2.4v4.306a2.128,2.128,0,0,1-2.271,2.4A2.125,2.125,0,0,1-1736.749,376.952Zm3.034.236v-4.78c0-.538-.236-.919-.775-.919s-.762.381-.762.919v4.78c0,.539.236.919.762.919S-1733.715,377.727-1733.715,377.189Z" transform="translate(1784.947 -357.105)"/><path class="b" d="M-1729.513,370.352h3.572v1.221h-2.075v2.548h1.484v1.208h-1.484v2.7h2.075v1.222h-3.572Z" transform="translate(1784.661 -357.109)"/><path class="b" d="M-1725,376.952v-4.306a2.1,2.1,0,0,1,2.233-2.4c1.654,0,2.114.919,2.114,2.232v1.051h-1.366v-1.169c0-.551-.183-.867-.722-.867s-.762.381-.762.919v4.78c0,.539.223.919.762.919s.722-.341.722-.866V375.6h1.366v1.536c0,1.274-.525,2.219-2.114,2.219A2.106,2.106,0,0,1-1725,376.952Z" transform="translate(1784.482 -357.105)"/><path class="b" d="M-1719.528,376.952v-4.306a2.119,2.119,0,0,1,2.259-2.4,2.122,2.122,0,0,1,2.271,2.4v4.306a2.128,2.128,0,0,1-2.271,2.4A2.125,2.125,0,0,1-1719.528,376.952Zm3.033.236v-4.78c0-.538-.236-.919-.774-.919s-.762.381-.762.919v4.78c0,.539.236.919.762.919S-1716.5,377.727-1716.5,377.189Z" transform="translate(1784.265 -357.105)"/><path class="b" d="M-1712.563,373.661v5.594h-1.261v-8.9h1.47l1.615,5.107v-5.107h1.248v8.9h-1.313Z" transform="translate(1784.039 -357.109)"/><path class="b" d="M-1708.325,376.885v-4.306a2.118,2.118,0,0,1,2.259-2.4,2.122,2.122,0,0,1,2.271,2.4v4.306a2.128,2.128,0,0,1-2.271,2.4A2.125,2.125,0,0,1-1708.325,376.885Zm.985-6.933v-.722l.945-.7h.657l.945.7v.722l-1.261-.38Zm2.047,7.169v-4.78c0-.538-.236-.919-.774-.919s-.761.381-.761.919v4.78c0,.539.236.919.761.919S-1705.292,377.66-1705.292,377.121Z" transform="translate(1783.821 -357.037)"/><path class="b" d="M-1698.5,373.477h-.039l-1.01,5.778h-.7l-1.116-5.778h-.026v5.778h-1.235v-8.9h1.747l.971,5.016h.014l.866-5.016h1.891v8.9h-1.366Z" transform="translate(1783.595 -357.109)"/><path class="b" d="M-1695.919,370.352h1.5v8.9h-1.5Z" transform="translate(1783.33 -357.109)"/><path class="b" d="M-1693.361,376.952v-4.306a2.1,2.1,0,0,1,2.232-2.4c1.655,0,2.115.919,2.115,2.232v1.051h-1.366v-1.169c0-.551-.184-.867-.722-.867s-.762.381-.762.919v4.78c0,.539.223.919.762.919s.722-.341.722-.866V375.6h1.366v1.536c0,1.274-.525,2.219-2.115,2.219A2.106,2.106,0,0,1-1693.361,376.952Z" transform="translate(1783.228 -357.105)"/><path class="b" d="M-1687.889,376.952v-4.306a2.118,2.118,0,0,1,2.258-2.4,2.122,2.122,0,0,1,2.272,2.4v4.306a2.128,2.128,0,0,1-2.272,2.4A2.125,2.125,0,0,1-1687.889,376.952Zm3.033.236v-4.78c0-.538-.236-.919-.775-.919s-.762.381-.762.919v4.78c0,.539.236.919.762.919S-1684.856,377.727-1684.856,377.189Z" transform="translate(1783.012 -357.105)"/></g></g><g transform="translate(1130.496 3315.95)"><rect class="g" width="154.548" height="154.552" transform="translate(0 0)"/><path class="b" d="M-1459.786,363.986v23.877h5.245V356.671h-4.188l-4.829,5.659v5.476h.044l3.68-3.82Z" transform="translate(1474.696 -343.736)"/><path class="b" d="M-1434.881,379.8V364.707c0-4.878-2.438-8.419-7.774-8.419-5.29,0-7.731,3.541-7.731,8.419V379.8c0,4.83,2.441,8.419,7.731,8.419,5.337,0,7.774-3.589,7.774-8.419m-10.259.829V363.879c0-1.886.689-3.221,2.484-3.221,1.84,0,2.53,1.335,2.53,3.221v16.748c0,1.887-.69,3.218-2.53,3.218-1.8,0-2.484-1.331-2.484-3.218" transform="translate(1474.175 -343.721)"/><g transform="translate(49.329 10.825)"><path class="b" d="M-1421.661,363.517v5.815h-2.131V356.655h3.1c2.15,0,2.936,1.066,2.936,2.842v1.627c0,1.365-.486,2.169-1.7,2.449l2.038,5.759h-2.244Zm0-5.124v3.946h.712a.923.923,0,0,0,1.046-1.048v-1.87c0-.691-.317-1.029-1.046-1.029Z" transform="translate(1423.792 -354.56)"/><path class="b" d="M-1416.1,356.655h5.086v1.738h-2.954v3.628h2.113v1.72h-2.113v3.852h2.954v1.738h-5.086Z" transform="translate(1423.487 -354.56)"/><path class="b" d="M-1403.046,360.058v5.872c0,1.945-.8,3.4-3.085,3.4h-3.291V356.655h3.291C-1403.849,356.655-1403.046,358.095-1403.046,360.058Zm-3.347,7.536c.879,0,1.216-.524,1.216-1.291v-6.638a1.111,1.111,0,0,0-1.216-1.272h-.9v9.2Z" transform="translate(1423.223 -354.56)"/><path class="b" d="M-1395.131,356.655v9.592c0,1.963-.841,3.235-3.011,3.235-2.245,0-3.18-1.272-3.18-3.235v-9.592h2.132v9.8c0,.748.3,1.253,1.048,1.253s1.047-.505,1.047-1.253v-9.8Z" transform="translate(1422.902 -354.56)"/><path class="b" d="M-1391.153,370.617c.6-.018.693-.15.693-.3,0-.131-.112-.206-.3-.206h-.093v-.691c-1.814-.225-2.562-1.589-2.562-3.366v-6.133c0-1.982.934-3.422,3.179-3.422,2.356,0,3.011,1.309,3.011,3.179v1.5h-1.945V359.51c0-.786-.262-1.234-1.029-1.234s-1.085.542-1.085,1.308v6.807c0,.766.318,1.309,1.085,1.309s1.029-.487,1.029-1.235v-2.337h1.945v2.188c0,1.776-.711,3.086-2.824,3.16v.168c.505.075.786.262.786.673,0,.58-.544.9-1.889.9Z" transform="translate(1422.589 -354.554)"/><path class="b" d="M-1386.114,369.246l2.394-12.677h2.43l2.412,12.677h-2.188l-.393-2.318h-2.262l-.375,2.318Zm1.664-13.182c.037-.879.374-1.589,1.309-1.589.542,0,.99.318,1.271.318a.251.251,0,0,0,.262-.28h1.048c-.037.879-.375,1.589-1.31,1.589-.542,0-.99-.318-1.271-.318a.251.251,0,0,0-.262.28Zm1.01,9.162h1.7l-.841-5.086h-.018Z" transform="translate(1422.3 -354.474)"/><path class="b" d="M-1377.761,366.054v-6.133c0-1.982.973-3.422,3.217-3.422,2.262,0,3.235,1.44,3.235,3.422v6.133c0,1.964-.973,3.422-3.235,3.422C-1376.788,369.476-1377.761,368.018-1377.761,366.054Zm4.32.337v-6.807c0-.766-.337-1.308-1.1-1.308-.749,0-1.085.542-1.085,1.308v6.807c0,.766.336,1.309,1.085,1.309C-1373.778,367.7-1373.441,367.157-1373.441,366.391Z" transform="translate(1421.969 -354.554)"/><path class="b" d="M-1360.967,360.058v5.872c0,1.945-.8,3.4-3.086,3.4h-3.291V356.655h3.291C-1361.771,356.655-1360.967,358.095-1360.967,360.058Zm-3.348,7.536c.879,0,1.216-.524,1.216-1.291v-6.638a1.111,1.111,0,0,0-1.216-1.272h-.9v9.2Z" transform="translate(1421.556 -354.56)"/><path class="b" d="M-1359.885,369.332l2.393-12.677h2.43l2.413,12.677h-2.187l-.393-2.318h-2.263l-.375,2.318Zm2.674-4.02h1.7l-.841-5.086h-.019Z" transform="translate(1421.26 -354.56)"/><path class="b" d="M-1351.551,366.6v-1.7h1.981v1.739c0,.71.318,1.122,1.048,1.122.672,0,.972-.449.972-1.122v-.487a2.3,2.3,0,0,0-.953-1.795l-1.253-1.252c-1.216-1.2-1.777-1.927-1.777-3.384v-.43c0-1.57.917-2.786,2.993-2.786,2.131,0,2.972,1.047,2.972,2.879v1.029h-1.945v-1.1c0-.729-.337-1.084-1.009-1.084a.936.936,0,0,0-1.01,1.047v.262c0,.711.394,1.122,1.01,1.72l1.365,1.346c1.159,1.178,1.72,1.888,1.72,3.291v.617c0,1.739-.935,2.973-3.1,2.973S-1351.551,368.261-1351.551,366.6Z" transform="translate(1420.93 -354.554)"/><path class="b" d="M-1417.416,379.53V385.4c0,1.945-.8,3.4-3.086,3.4h-3.29V376.127h3.29C-1418.22,376.127-1417.416,377.567-1417.416,379.53Zm-3.347,7.536c.879,0,1.216-.523,1.216-1.291v-6.637a1.112,1.112,0,0,0-1.216-1.273h-.9v9.2Z" transform="translate(1423.792 -355.332)"/><path class="b" d="M-1415.692,376.127h5.086v1.738h-2.954v3.628h2.113v1.72h-2.113v3.852h2.954v1.739h-5.086Z" transform="translate(1423.471 -355.332)"/><path class="b" d="M-1409.227,386.068v-1.7h1.982v1.739c0,.711.318,1.122,1.047,1.122.673,0,.972-.448.972-1.122v-.486a2.292,2.292,0,0,0-.953-1.8l-1.253-1.252c-1.215-1.2-1.776-1.926-1.776-3.384v-.43c0-1.57.916-2.786,2.992-2.786,2.132,0,2.974,1.047,2.974,2.88v1.028h-1.946v-1.1c0-.73-.336-1.085-1.009-1.085a.935.935,0,0,0-1.009,1.047V379c0,.711.393,1.122,1.009,1.72l1.365,1.346c1.159,1.178,1.72,1.889,1.72,3.291v.618c0,1.738-.935,2.972-3.1,2.972S-1409.227,387.733-1409.227,386.068Z" transform="translate(1423.215 -355.326)"/><path class="b" d="M-1401.5,376.127h2.131v12.678h-2.131Z" transform="translate(1422.909 -355.332)"/><path class="b" d="M-1394.581,382.029h3.03v6.77h-1.534v-1.384a1.92,1.92,0,0,1-2.038,1.533c-1.833,0-2.675-1.458-2.675-3.422v-6.133c0-1.982.954-3.422,3.2-3.422,2.356,0,3.048,1.309,3.048,3.179v1.122h-1.946v-1.29c0-.786-.3-1.234-1.065-1.234s-1.1.542-1.1,1.309v6.806c0,.766.318,1.309,1.047,1.309.693,0,1.047-.393,1.047-1.216v-2.243h-1.009Z" transform="translate(1422.762 -355.326)"/><path class="b" d="M-1383.643,376.127v9.592c0,1.963-.841,3.235-3.011,3.235-2.245,0-3.179-1.272-3.179-3.235v-9.592h2.131v9.8c0,.748.3,1.253,1.048,1.253s1.047-.505,1.047-1.253v-9.8Z" transform="translate(1422.447 -355.332)"/><path class="b" d="M-1382.57,388.805l2.394-12.678h2.43l2.412,12.678h-2.188l-.393-2.319h-2.262l-.375,2.319Zm2.675-4.02h1.7l-.841-5.086h-.019Z" transform="translate(1422.159 -355.332)"/><path class="b" d="M-1373.925,376.127h2.132v10.939h2.543v1.739h-4.675Z" transform="translate(1421.817 -355.332)"/><path class="b" d="M-1361.473,379.53V385.4c0,1.945-.8,3.4-3.086,3.4h-3.291V376.127h3.291C-1362.277,376.127-1361.473,377.567-1361.473,379.53Zm-3.348,7.536c.879,0,1.216-.523,1.216-1.291v-6.637a1.112,1.112,0,0,0-1.216-1.273h-.9v9.2Z" transform="translate(1421.576 -355.332)"/><path class="b" d="M-1360.391,388.805l2.393-12.678h2.431l2.411,12.678h-2.187l-.393-2.319H-1358l-.374,2.319Zm2.674-4.02h1.7l-.841-5.086h-.019Z" transform="translate(1421.281 -355.332)"/><path class="b" d="M-1345.37,379.53V385.4c0,1.945-.8,3.4-3.086,3.4h-3.29V376.127h3.29C-1346.174,376.127-1345.37,377.567-1345.37,379.53Zm-3.347,7.536c.879,0,1.215-.523,1.215-1.291v-6.637a1.111,1.111,0,0,0-1.215-1.273h-.9v9.2Z" transform="translate(1420.938 -355.332)"/><path class="b" d="M-1343.647,376.127h5.086v1.738h-2.954v3.628h2.113v1.72h-2.113v3.852h2.954v1.739h-5.086Z" transform="translate(1420.617 -355.332)"/><path class="b" d="M-1337.181,386.068v-1.7h1.981v1.739c0,.711.319,1.122,1.048,1.122.672,0,.972-.448.972-1.122v-.486a2.3,2.3,0,0,0-.953-1.8l-1.253-1.252c-1.215-1.2-1.776-1.926-1.776-3.384v-.43c0-1.57.916-2.786,2.992-2.786,2.131,0,2.972,1.047,2.972,2.88v1.028h-1.945v-1.1c0-.73-.337-1.085-1.009-1.085a.935.935,0,0,0-1.009,1.047V379c0,.711.393,1.122,1.009,1.72l1.365,1.346c1.159,1.178,1.72,1.889,1.72,3.291v.618c0,1.738-.934,2.972-3.1,2.972S-1337.181,387.733-1337.181,386.068Z" transform="translate(1420.361 -355.326)"/></g><g transform="translate(35.66 54.194)"><g transform="translate(26.039 26.863)"><path class="b" d="M-1381.923,446.7H-1410.6a.332.332,0,0,0-.312.348v8.619a.331.331,0,0,0,.312.351h28.677a.332.332,0,0,0,.315-.351v-8.619a.332.332,0,0,0-.315-.348" transform="translate(1410.912 -428.359)"/><path class="b" d="M-1381.923,427.6H-1410.6a.332.332,0,0,0-.312.348v8.619a.331.331,0,0,0,.312.351h28.677a.332.332,0,0,0,.315-.351v-8.619a.332.332,0,0,0-.315-.348" transform="translate(1410.912 -427.603)"/></g><path class="b" d="M-1382.3,413.466l-13.765-13.765a.24.24,0,0,0-.337,0l-13.765,13.765a.238.238,0,0,0,.169.406h27.531A.238.238,0,0,0-1382.3,413.466Z" transform="translate(1436.924 -399.632)"/><path class="b" d="M-1367.709,455.357l13.765-13.765a.237.237,0,0,0,0-.336l-13.765-13.765a.238.238,0,0,0-.406.168v27.53A.238.238,0,0,0-1367.709,455.357Z" transform="translate(1435.255 -400.733)"/><path class="b" d="M-1410.167,469.947l13.765,13.765a.238.238,0,0,0,.337,0l13.765-13.765a.237.237,0,0,0-.168-.405H-1410A.238.238,0,0,0-1410.167,469.947Z" transform="translate(1436.924 -402.401)"/><path class="b" d="M-1424.19,427.49l-13.765,13.765a.237.237,0,0,0,0,.336l13.765,13.765a.238.238,0,0,0,.406-.168v-27.53A.238.238,0,0,0-1424.19,427.49Z" transform="translate(1438.025 -400.733)"/></g></g><g transform="translate(959.217 3315.951)"><rect class="h" width="154.548" height="154.551" transform="translate(0 0)"/><path class="b" d="M-1623.038,364.511c0-4.825-2.115-8.315-7.627-8.315-5.56,0-7.717,3.03-7.717,7.854v4.595c0,5.1,2.02,7.672,5.789,7.672a4.482,4.482,0,0,0,4.317-2.525h.045v6.7c0,1.883-.736,3.216-2.618,3.216s-2.573-1.1-2.573-3.033v-2.066h-4.778v1.655c0,4.593,1.655,7.808,7.444,7.808,5.51,0,7.718-3.537,7.718-8.407Zm-5.193,4.778c-.092,1.744-.827,2.847-2.48,2.847-1.79,0-2.481-1.1-2.481-3.125v-5.419c0-1.976.733-3.123,2.526-3.123,1.746,0,2.435,1.194,2.435,3.123Z" transform="translate(1652.9 -343.718)"/><g transform="translate(44.063 10.84)"><path class="b" d="M-1607.619,356.67h2.131v12.678h-2.131Z" transform="translate(1607.619 -354.576)"/><path class="b" d="M-1602.066,361.383v7.965h-1.8V356.67h2.093l2.3,7.274V356.67h1.776v12.678h-1.87Z" transform="translate(1607.47 -354.576)"/><path class="b" d="M-1595.918,366.07v-6.133c0-1.982.974-3.422,3.217-3.422,2.262,0,3.235,1.44,3.235,3.422v6.133c0,1.963-.974,3.422-3.235,3.422C-1594.944,369.492-1595.918,368.033-1595.918,366.07Zm4.32.336V359.6c0-.766-.335-1.309-1.1-1.309-.749,0-1.084.543-1.084,1.309v6.806c0,.766.335,1.309,1.084,1.309C-1591.933,367.715-1591.6,367.172-1591.6,366.406Z" transform="translate(1607.155 -354.57)"/><path class="b" d="M-1581.258,356.67l-2.412,12.678h-2.32l-2.411-12.678h2.17l1.458,8.845h.019l1.5-8.845Z" transform="translate(1606.858 -354.576)"/><path class="b" d="M-1581.312,369.348l2.393-12.678h2.429l2.412,12.678h-2.188l-.392-2.318h-2.262l-.376,2.318Zm2.673-4.02h1.7l-.84-5.086h-.018Z" transform="translate(1606.577 -354.576)"/><path class="b" d="M-1570.64,370.632c.6-.018.692-.149.692-.3,0-.131-.112-.206-.3-.206h-.093v-.692c-1.814-.224-2.562-1.589-2.562-3.365v-6.133c0-1.982.933-3.422,3.179-3.422,2.356,0,3.011,1.308,3.011,3.178v1.5h-1.945v-1.664c0-.786-.263-1.234-1.029-1.234s-1.086.543-1.086,1.309v6.806c0,.766.319,1.309,1.086,1.309s1.029-.486,1.029-1.234v-2.338h1.945v2.188c0,1.777-.711,3.086-2.824,3.161v.168c.5.075.786.262.786.673,0,.58-.542.9-1.889.9Z" transform="translate(1606.244 -354.57)"/><path class="b" d="M-1565.541,369.262l2.393-12.678h2.43l2.411,12.678h-2.187l-.392-2.318h-2.263l-.375,2.318Zm1.663-13.183c.038-.879.374-1.589,1.31-1.589.542,0,.99.318,1.27.318a.252.252,0,0,0,.262-.281h1.047c-.037.88-.373,1.59-1.309,1.59-.542,0-.99-.319-1.27-.319a.252.252,0,0,0-.263.28Zm1.009,9.163h1.7l-.84-5.086h-.019Z" transform="translate(1605.952 -354.49)"/><path class="b" d="M-1557.131,366.07v-6.133c0-1.982.974-3.422,3.217-3.422,2.262,0,3.236,1.44,3.236,3.422v6.133c0,1.963-.974,3.422-3.236,3.422C-1556.157,369.492-1557.131,368.033-1557.131,366.07Zm4.32.336V359.6c0-.766-.335-1.309-1.1-1.309-.749,0-1.084.543-1.084,1.309v6.806c0,.766.335,1.309,1.084,1.309C-1553.146,367.715-1552.811,367.172-1552.811,366.406Z" transform="translate(1605.619 -354.57)"/><path class="b" d="M-1546.6,356.67h5.087v1.739h-2.954v3.627h2.112v1.72h-2.112v3.853h2.954v1.738h-5.087Z" transform="translate(1605.202 -354.576)"/><path class="b" d="M-1607.619,376.142h2.131V388.82h-2.131Z" transform="translate(1607.619 -355.348)"/><path class="b" d="M-1602.066,380.854v7.966h-1.8V376.142h2.093l2.3,7.274v-7.274h1.776V388.82h-1.87Z" transform="translate(1607.47 -355.348)"/><path class="b" d="M-1595.918,376.142h4.993v1.739h-2.86v3.627h2.131v1.72h-2.131v5.591h-2.133Z" transform="translate(1607.155 -355.348)"/><path class="b" d="M-1587.359,383v5.815h-2.133V376.142h3.1c2.152,0,2.936,1.066,2.936,2.843v1.626c0,1.366-.486,2.169-1.7,2.45l2.039,5.759h-2.243Zm0-5.124v3.945h.711a.923.923,0,0,0,1.047-1.047v-1.871c0-.691-.319-1.028-1.047-1.028Z" transform="translate(1606.901 -355.348)"/><path class="b" d="M-1582.092,388.82l2.393-12.678h2.43l2.412,12.678h-2.187l-.392-2.318h-2.263l-.375,2.318Zm2.673-4.02h1.7l-.84-5.086h-.019Z" transform="translate(1606.608 -355.348)"/><path class="b" d="M-1573.389,376.142h5.085v1.739h-2.954v3.627h2.114v1.72h-2.114v3.852h2.954v1.739h-5.085Z" transform="translate(1606.263 -355.348)"/><path class="b" d="M-1566.865,386.084v-1.7h1.98v1.739c0,.711.319,1.122,1.049,1.122.672,0,.972-.449.972-1.122v-.486a2.294,2.294,0,0,0-.953-1.795l-1.253-1.253c-1.216-1.2-1.777-1.927-1.777-3.384v-.43c0-1.57.915-2.786,2.993-2.786,2.13,0,2.972,1.048,2.972,2.879v1.03h-1.945v-1.1c0-.73-.338-1.085-1.009-1.085a.937.937,0,0,0-1.011,1.048v.262c0,.71.395,1.122,1.011,1.72l1.364,1.346c1.159,1.178,1.72,1.889,1.72,3.291v.618c0,1.738-.934,2.972-3.1,2.972S-1566.865,387.748-1566.865,386.084Z" transform="translate(1606.005 -355.341)"/><path class="b" d="M-1559.623,376.142h5.666v1.739h-1.757V388.82h-2.151V377.881h-1.758Z" transform="translate(1605.718 -355.348)"/><path class="b" d="M-1550.307,383v5.815h-2.13V376.142h3.1c2.149,0,2.936,1.066,2.936,2.843v1.626c0,1.366-.486,2.169-1.7,2.45l2.037,5.759h-2.244Zm0-5.124v3.945h.712a.922.922,0,0,0,1.046-1.047v-1.871c0-.691-.317-1.028-1.046-1.028Z" transform="translate(1605.433 -355.348)"/><path class="b" d="M-1538.5,376.142v9.592c0,1.964-.84,3.235-3.011,3.235-2.243,0-3.179-1.271-3.179-3.235v-9.592h2.132v9.8c0,.748.3,1.253,1.047,1.253s1.047-.505,1.047-1.253v-9.8Z" transform="translate(1605.126 -355.348)"/><path class="b" d="M-1536.978,376.142h5.666v1.739h-1.757V388.82h-2.151V377.881h-1.758Z" transform="translate(1604.821 -355.348)"/><path class="b" d="M-1523.6,376.142v9.592c0,1.964-.842,3.235-3.01,3.235-2.245,0-3.18-1.271-3.18-3.235v-9.592h2.131v9.8c0,.748.3,1.253,1.049,1.253s1.046-.505,1.046-1.253v-9.8Z" transform="translate(1604.536 -355.348)"/><path class="b" d="M-1519.7,383v5.815h-2.133V376.142h3.1c2.152,0,2.936,1.066,2.936,2.843v1.626c0,1.366-.486,2.169-1.7,2.45l2.039,5.759h-2.244Zm0-5.124v3.945h.711a.923.923,0,0,0,1.047-1.047v-1.871c0-.691-.319-1.028-1.047-1.028Z" transform="translate(1604.221 -355.348)"/><path class="b" d="M-1514.43,388.82l2.394-12.678h2.431l2.412,12.678h-2.188l-.394-2.318h-2.262l-.374,2.318Zm2.676-4.02h1.7l-.842-5.086h-.018Z" transform="translate(1603.928 -355.348)"/></g><path class="b" d="M-1535.14,447.162l-18.372-10.6V415.346a1.252,1.252,0,0,0-.626-1.085l-18.995-10.967a1.254,1.254,0,0,0-1.253,0l-19,10.967a1.252,1.252,0,0,0-.626,1.085v21.212l-18.37,10.6a1.252,1.252,0,0,0-.627,1.085v21.938a1.251,1.251,0,0,0,.627,1.085l19,10.966a1.26,1.26,0,0,0,.627.167,1.257,1.257,0,0,0,.626-.167l18.37-10.6,18.367,10.6a1.256,1.256,0,0,0,.626.167,1.257,1.257,0,0,0,.627-.167l19-10.966a1.251,1.251,0,0,0,.627-1.085V448.247A1.251,1.251,0,0,0-1535.14,447.162Zm-39.872,20.853-15.238-8.8,15.238-8.8Zm17.74-30.732-15.235,8.794V428.484Zm-17.74,8.794-15.237-8.794,15.237-8.8Zm3.76,2.171,16.487-9.517,16.493,9.517-16.493,9.522Zm15.235-13.136-15.235-8.8,15.235-8.8Zm-20.249-8.8-15.237,8.8V417.517Zm-17.742,52.666-16.49-9.518V450.417l16.49,9.523Zm2.506,0V461.387l15.237,8.8Zm54.484-9.518-16.493,9.518V459.941l16.493-9.523Z" transform="translate(1651.895 -345.577)"/></g><g transform="translate(931.482 3009.631)"><rect class="i" width="154.546" height="154.554" transform="translate(370.294 306.32)"/><path class="b" d="M394,319.807v31.16h-5.239V327.114h-.047l-3.676,3.814h-.045V325.46l4.826-5.653Z" transform="translate(-0.582 -0.534)"/><path class="b" d="M396.861,319.807h13.145v4.825l-6.848,26.335h-5.2l6.987-26.887h-8.088Z" transform="translate(-1.053 -0.534)"/><path class="b" d="M488.489,402.536a20.154,20.154,0,0,0-19.39-20.113,20.127,20.127,0,0,0-37.958,0A20.115,20.115,0,0,0,419.523,418.4a20.116,20.116,0,0,0,30.7,22.189,20.117,20.117,0,0,0,30.533-22.212,20.108,20.108,0,0,0,7.737-15.844M466.2,389.125a16.085,16.085,0,0,1-13.7,15.882,15.932,15.932,0,0,1,13.5-18.352,15.973,15.973,0,0,1,.209,2.47m-16,46.248a16.029,16.029,0,0,1-.148-22.9,16.029,16.029,0,0,1,.148,22.9m-15.94-48.719a15.92,15.92,0,0,1,13.5,18.353,15.926,15.926,0,0,1-13.5-18.353m11.986,23.073A16.015,16.015,0,0,1,424.5,416.8a16.017,16.017,0,0,1,21.742-7.072m7.707-.109a16.024,16.024,0,0,1,21.85,7.156,16.022,16.022,0,0,1-21.85-7.156m-3.828-36.569a16.1,16.1,0,0,1,14.737,9.667,20.2,20.2,0,0,0-14.737,11.311,20.181,20.181,0,0,0-14.735-11.311,16.094,16.094,0,0,1,14.735-9.667m-34.312,29.487a16.1,16.1,0,0,1,14.352-15.984,20.5,20.5,0,0,0-.168,2.572A20.088,20.088,0,0,0,436.567,404a20.172,20.172,0,0,0-15.433,10.46,16.023,16.023,0,0,1-5.326-11.918m6.973,21.455a15.937,15.937,0,0,1,.351-3.332,20.092,20.092,0,0,0,18.471-.505,20.026,20.026,0,0,0,5.342,17.7,16.044,16.044,0,0,1-24.164-13.867m54.682-.134a16.051,16.051,0,0,1-24,13.965,20.056,20.056,0,0,0,5.152-17.683,20.08,20.08,0,0,0,18.525.505,15.913,15.913,0,0,1,.327,3.213M463.8,403.877a20.078,20.078,0,0,0,6.453-14.752,20.321,20.321,0,0,0-.169-2.572,16.048,16.048,0,0,1,9.073,27.86A20.171,20.171,0,0,0,463.8,403.877" transform="translate(-1.643 -2.483)"/><g transform="translate(419.634 319.111)"><path class="b" d="M421.67,319.794H424.8c2.133,0,2.912,1.057,2.912,2.82v2.654c0,1.761-.779,2.838-2.912,2.838h-1.02v4.267H421.67Zm2.115,1.725v4.954h.778a.909.909,0,0,0,1.039-1.039V322.54c0-.687-.315-1.021-1.039-1.021Z" transform="translate(-421.67 -319.645)"/><path class="b" d="M428.08,332.372l2.374-12.578h2.412l2.393,12.578h-2.17l-.39-2.3h-2.245l-.37,2.3Zm2.653-3.988h1.688l-.835-5.047h-.018Z" transform="translate(-421.924 -319.645)"/><path class="b" d="M438.673,326.6v5.77h-2.115V319.794h3.079c2.134,0,2.914,1.057,2.914,2.82v1.613c0,1.355-.482,2.152-1.688,2.431l2.022,5.714h-2.226Zm0-5.083v3.914h.7a.915.915,0,0,0,1.039-1.039V322.54c0-.687-.315-1.021-1.039-1.021Z" transform="translate(-422.26 -319.645)"/><path class="b" d="M444.091,329.12v-6.086c0-1.967.927-3.395,3.153-3.395,2.338,0,2.987,1.3,2.987,3.154v1.485H448.3v-1.652c0-.779-.259-1.224-1.02-1.224s-1.076.539-1.076,1.3v6.753c0,.761.315,1.3,1.076,1.3s1.02-.482,1.02-1.224v-2.318h1.929v2.17c0,1.8-.741,3.135-2.987,3.135C445.018,332.514,444.091,331.068,444.091,329.12Z" transform="translate(-422.558 -319.639)"/><path class="b" d="M451.776,319.794h5.046v1.725h-2.931v3.6h2.1v1.707h-2.1v3.822h2.931v1.725h-5.046Z" transform="translate(-422.863 -319.645)"/><path class="b" d="M460.419,326.6v5.77H458.3V319.794h3.079c2.134,0,2.914,1.057,2.914,2.82v1.613c0,1.355-.482,2.152-1.688,2.431l2.022,5.714H462.4Zm0-5.083v3.914h.7a.915.915,0,0,0,1.039-1.039V322.54c0-.687-.315-1.021-1.039-1.021Z" transform="translate(-423.121 -319.645)"/><path class="b" d="M465.835,319.794h2.115v12.578h-2.115Z" transform="translate(-423.42 -319.645)"/><path class="b" d="M469.058,332.372l2.375-12.578h2.412l2.393,12.578h-2.171l-.389-2.3h-2.245l-.371,2.3Zm2.654-3.988H473.4l-.835-5.047h-.019Z" transform="translate(-423.548 -319.645)"/><path class="b" d="M477.228,329.658v-1.688h1.967v1.725c0,.7.315,1.113,1.038,1.113.668,0,.965-.445.965-1.113v-.482a2.274,2.274,0,0,0-.946-1.781l-1.243-1.243c-1.206-1.187-1.762-1.91-1.762-3.358V322.4a2.623,2.623,0,0,1,2.969-2.764c2.115,0,2.949,1.039,2.949,2.857v1.021h-1.929v-1.1c0-.722-.334-1.076-1-1.076a.928.928,0,0,0-1,1.039v.259c0,.706.39,1.114,1,1.708l1.354,1.336c1.151,1.169,1.708,1.874,1.708,3.264v.613a2.724,2.724,0,0,1-3.079,2.949C478.063,332.514,477.228,331.309,477.228,329.658Z" transform="translate(-423.871 -319.639)"/><path class="b" d="M421.67,339.105H424.8c2.133,0,2.912,1.057,2.912,2.82v2.654c0,1.762-.779,2.839-2.912,2.839h-1.02v4.266H421.67Zm2.115,1.726v4.953h.778a.908.908,0,0,0,1.039-1.038v-2.895c0-.687-.315-1.02-1.039-1.02Z" transform="translate(-421.67 -320.41)"/><path class="b" d="M429.2,339.105h5.046v1.726h-2.931v3.6h2.1v1.708h-2.1v3.821h2.931v1.725H429.2Z" transform="translate(-421.968 -320.41)"/><path class="b" d="M435.728,339.105h2.115v10.853h2.523v1.725h-4.638Z" transform="translate(-422.227 -320.41)"/><path class="b" d="M441.308,351.683l2.375-12.578H446.1l2.393,12.578h-2.171l-.389-2.3h-2.245l-.371,2.3Zm2.654-3.988h1.688l-.835-5.046H444.8Z" transform="translate(-422.448 -320.41)"/><path class="b" d="M449.477,348.969V347.28h1.967v1.726c0,.7.315,1.113,1.038,1.113.668,0,.965-.446.965-1.113v-.483a2.272,2.272,0,0,0-.946-1.781l-1.243-1.243c-1.206-1.187-1.762-1.911-1.762-3.358v-.426a2.623,2.623,0,0,1,2.969-2.764c2.115,0,2.949,1.039,2.949,2.857v1.02h-1.929v-1.095c0-.723-.334-1.076-1-1.076a.928.928,0,0,0-1,1.038v.26c0,.7.39,1.113,1,1.707L453.836,345c1.151,1.169,1.708,1.874,1.708,3.265v.612a2.724,2.724,0,0,1-3.079,2.95C450.312,351.826,449.477,350.62,449.477,348.969Z" transform="translate(-422.772 -320.404)"/><path class="b" d="M465,343.52h-.057l-1.428,8.163h-.982l-1.577-8.163h-.037v8.163h-1.743V339.105h2.466l1.373,7.088h.018l1.225-7.088h2.671v12.578H465Z" transform="translate(-423.156 -320.41)"/><path class="b" d="M468.6,339.105h5.046v1.726h-2.93v3.6h2.1v1.708h-2.1v3.821h2.93v1.725H468.6Z" transform="translate(-423.529 -320.41)"/><path class="b" d="M474.871,339.105h5.621v1.726h-1.743v10.852h-2.134V340.831h-1.744Z" transform="translate(-423.778 -320.41)"/><path class="b" d="M480.529,351.683l2.375-12.578h2.411l2.394,12.578h-2.171l-.389-2.3H482.9l-.371,2.3Zm2.654-3.988h1.688l-.836-5.046h-.018Z" transform="translate(-424.002 -320.41)"/><path class="b" d="M488.7,348.969V347.28h1.967v1.726c0,.7.315,1.113,1.038,1.113.668,0,.965-.446.965-1.113v-.483a2.27,2.27,0,0,0-.947-1.781L490.48,345.5c-1.205-1.187-1.762-1.911-1.762-3.358v-.426a2.623,2.623,0,0,1,2.969-2.764c2.115,0,2.95,1.039,2.95,2.857v1.02h-1.929v-1.095c0-.723-.334-1.076-1-1.076a.928.928,0,0,0-1,1.038v.26c0,.7.39,1.113,1,1.707L493.058,345c1.151,1.169,1.707,1.874,1.707,3.265v.612a2.723,2.723,0,0,1-3.079,2.95C489.534,351.826,488.7,350.62,488.7,348.969Z" transform="translate(-424.326 -320.404)"/></g></g><g transform="translate(1294.721 3315.995)"><rect class="j" width="154.547" height="154.546" transform="translate(178.332 -0.044)"/><g transform="translate(193.05 17.674)"><g transform="translate(22.117)"><path class="k" d="M237.668,47.761a23.06,23.06,0,0,1,3.624-4.663L229.408,30.066a40.72,40.72,0,0,0-7.546,9.822Z" transform="translate(-216.891 -18.867)"/><path class="l" d="M268.658,38.224a22.784,22.784,0,0,1,4.984,3.123l11.918-13.012A40.553,40.553,0,0,0,275,21.745Z" transform="translate(-218.745 -18.537)"/><path class="d" d="M296.427,42.985l-15.8,7.875a22.564,22.564,0,0,1,1.583,5.582l17.572-1.66a40.033,40.033,0,0,0-3.358-11.8" transform="translate(-219.219 -19.379)"/><path class="m" d="M279.306,48.078,295.1,40.2a40.586,40.586,0,0,0-7.383-9.8L275.8,43.414a22.947,22.947,0,0,1,3.5,4.664" transform="translate(-219.028 -18.88)"/><path class="n" d="M234.324,60.387c0-.354.011-.71.027-1.064l-17.576-1.572c-.056.871-.089,1.75-.089,2.636a40.544,40.544,0,0,0,1.2,9.777l16.977-4.87a22.761,22.761,0,0,1-.535-4.907" transform="translate(-216.686 -19.964)"/><path class="o" d="M276.971,75.539a23.03,23.03,0,0,1-4.287,4.032l9.28,15.026a40.751,40.751,0,0,0,9.088-8.441Z" transform="translate(-218.904 -20.668)"/><path class="e" d="M282.512,60.394a22.563,22.563,0,0,1-.523,4.85l16.974,4.877a40.31,40.31,0,0,0,1.188-9.727q0-1.248-.081-2.483L282.5,59.572c.01.276.016.547.016.822" transform="translate(-219.273 -19.97)"/><path class="p" d="M240.155,75.889,226.107,86.567a40.8,40.8,0,0,0,9.173,8.31l9.28-15.01a23.069,23.069,0,0,1-4.405-3.978" transform="translate(-217.059 -20.682)"/><path class="q" d="M234.623,56.19a22.453,22.453,0,0,1,1.684-5.662l-15.792-7.867a40.144,40.144,0,0,0-3.484,11.952Z" transform="translate(-216.7 -19.366)"/><path class="f" d="M279.494,96.179l-9.266-15.006a22.677,22.677,0,0,1-5.409,2.2l3.27,17.358a40.193,40.193,0,0,0,11.4-4.55" transform="translate(-218.593 -20.891)"/><path class="r" d="M281.184,68.105a22.817,22.817,0,0,1-2.467,5.08l14.092,10.631a40.272,40.272,0,0,0,5.336-10.837Z" transform="translate(-219.143 -20.374)"/><path class="s" d="M261.837,83.989a22.554,22.554,0,0,1-5.943.083l-3.268,17.358a40.638,40.638,0,0,0,12.478-.1Z" transform="translate(-218.11 -21.003)"/><path class="t" d="M260.311,36.074a22.592,22.592,0,0,1,5.641,1.09l6.34-16.476a40.175,40.175,0,0,0-11.981-2.267Z" transform="translate(-218.414 -18.406)"/><path class="g" d="M252.8,83.536a22.7,22.7,0,0,1-5.6-2.117l-9.284,15.016a40.232,40.232,0,0,0,11.616,4.441Z" transform="translate(-217.527 -20.901)"/><path class="i" d="M251.394,37.082a22.59,22.59,0,0,1,5.761-1.025V18.405a40.266,40.266,0,0,0-12.144,2.213Z" transform="translate(-217.808 -18.405)"/><path class="u" d="M238.314,73.555a22.667,22.667,0,0,1-2.69-5.393l-16.963,4.869a40.29,40.29,0,0,0,5.6,11.2Z" transform="translate(-216.764 -20.376)"/><path class="v" d="M243.592,41.073a22.882,22.882,0,0,1,4.889-2.958L242.1,21.659a40.443,40.443,0,0,0-10.4,6.371Z" transform="translate(-217.281 -18.534)"/></g><g transform="translate(0 92.796)"><path d="M193.657,115.23h7.309v2.243H198.7v14.11h-2.774v-14.11h-2.267Z" transform="translate(-193.657 -115.037)"/><path d="M207.75,124.372H205.1v7.212h-2.75V115.23h2.75v6.922h2.654V115.23h2.774v16.353H207.75Z" transform="translate(-194.001 -115.037)"/><path d="M212.268,115.23h6.56v2.243h-3.811v4.679h2.726v2.219h-2.726v4.968h3.811v2.243h-6.56Z" transform="translate(-194.394 -115.037)"/><path d="M226.94,122.845h3.908v8.731h-1.978v-1.784a2.478,2.478,0,0,1-2.629,1.978c-2.364,0-3.45-1.881-3.45-4.415v-7.911c0-2.558,1.23-4.415,4.125-4.415,3.039,0,3.932,1.689,3.932,4.1v1.448h-2.509v-1.664c0-1.013-.385-1.592-1.374-1.592s-1.423.7-1.423,1.688v8.78c0,.989.41,1.689,1.351,1.689.892,0,1.35-.507,1.35-1.568v-2.895h-1.3Z" transform="translate(-194.811 -115.029)"/><path d="M232.586,115.23h2.75v14.11h3.281v2.243h-6.03Z" transform="translate(-195.199 -115.037)"/><path d="M239.468,127.355v-7.911c0-2.558,1.253-4.415,4.149-4.415,2.919,0,4.173,1.857,4.173,4.415v7.911c0,2.534-1.254,4.415-4.173,4.415C240.721,131.77,239.468,129.888,239.468,127.355Zm5.572.434v-8.78c0-.989-.435-1.688-1.423-1.688-.965,0-1.4.7-1.4,1.688v8.78c0,.989.434,1.689,1.4,1.689C244.605,129.478,245.04,128.778,245.04,127.789Z" transform="translate(-195.472 -115.029)"/><path d="M249.514,115.23h3.98c2.75,0,3.667,1.278,3.667,3.594v1.665a2.383,2.383,0,0,1-1.64,2.6,2.481,2.481,0,0,1,2.049,2.725v2.171c0,2.315-1.037,3.594-3.787,3.594h-4.269Zm2.75,6.9h.965a1.159,1.159,0,0,0,1.3-1.327v-2a1.156,1.156,0,0,0-1.326-1.326h-.94Zm0,2.1v5.113h1.206a1.182,1.182,0,0,0,1.35-1.325v-2.461c0-.868-.41-1.327-1.375-1.327Z" transform="translate(-195.87 -115.037)"/><path d="M258.505,131.583l3.088-16.353h3.135l3.113,16.353h-2.823l-.506-2.991h-2.919l-.482,2.991Zm3.45-5.185h2.194l-1.085-6.561h-.024Z" transform="translate(-196.226 -115.037)"/><path d="M269.205,115.23h2.75v14.11h3.281v2.243h-6.03Z" transform="translate(-196.65 -115.037)"/><path d="M283.1,122.845h3.907v8.731h-1.978v-1.784a2.477,2.477,0,0,1-2.629,1.978c-2.364,0-3.45-1.881-3.45-4.415v-7.911c0-2.558,1.23-4.415,4.125-4.415,3.039,0,3.932,1.689,3.932,4.1v1.448H284.5v-1.664c0-1.013-.386-1.592-1.375-1.592s-1.422.7-1.422,1.688v8.78c0,.989.409,1.689,1.35,1.689.892,0,1.35-.507,1.35-1.568v-2.895h-1.3Z" transform="translate(-197.036 -115.029)"/><path d="M288.694,127.355v-7.911c0-2.558,1.254-4.415,4.15-4.415,2.919,0,4.172,1.857,4.172,4.415v7.911c0,2.534-1.253,4.415-4.172,4.415C289.948,131.77,288.694,129.888,288.694,127.355Zm5.572.434v-8.78c0-.989-.434-1.688-1.422-1.688-.965,0-1.4.7-1.4,1.688v8.78c0,.989.434,1.689,1.4,1.689C293.832,129.478,294.266,128.778,294.266,127.789Z" transform="translate(-197.422 -115.029)"/><path d="M297.937,131.583l3.087-16.353h3.136l3.112,16.353h-2.822l-.507-2.991h-2.919l-.482,2.991Zm3.449-5.185h2.194l-1.084-6.561h-.025Z" transform="translate(-197.788 -115.037)"/><path d="M308.586,115.23h2.75v14.11h3.281v2.243h-6.03Z" transform="translate(-198.21 -115.037)"/><path d="M315.492,128.054v-2.194h2.557V128.1c0,.916.41,1.447,1.351,1.447.868,0,1.253-.579,1.253-1.447v-.627a2.953,2.953,0,0,0-1.229-2.315l-1.616-1.616c-1.567-1.543-2.292-2.485-2.292-4.366v-.555c0-2.025,1.182-3.594,3.859-3.594,2.75,0,3.836,1.35,3.836,3.715v1.326H320.7v-1.423c0-.94-.434-1.4-1.3-1.4a1.208,1.208,0,0,0-1.3,1.352v.337c0,.916.506,1.447,1.3,2.219l1.761,1.736c1.494,1.519,2.219,2.437,2.219,4.245v.8c0,2.243-1.206,3.836-4,3.836S315.492,130.2,315.492,128.054Z" transform="translate(-198.483 -115.029)"/><g transform="translate(0.693 20.152)"><path d="M196.571,139.806h-.329l-1.486-3.209.023,3.884h-.4v-4.407h.54l1.488,3.244,1.487-3.244h.541v4.407h-.4l.023-3.884Z" transform="translate(-194.379 -136.014)"/><path d="M200.6,137.543c1,0,1.118.682,1.118,1.527v.188h-1.94c.023.511.158.975.822.975a2.237,2.237,0,0,0,.97-.164v.353a2.381,2.381,0,0,1-.97.176c-.992,0-1.233-.682-1.233-1.528S199.6,137.543,200.6,137.543Zm-.822,1.38H201.3c0-.522-.029-1.017-.706-1.017S199.792,138.394,199.774,138.923Z" transform="translate(-194.576 -136.073)"/><path d="M204.029,140.539a1.334,1.334,0,0,1-.265.023c-.488,0-.939-.223-.939-.8v-1.875h-.589v-.182l.589-.171v-.793l.41-.117v.939h.912v.324h-.912v1.828c0,.358.195.506.565.506.076,0,.153-.007.23-.012Z" transform="translate(-194.69 -136.036)"/><path d="M205.806,137.906a2.562,2.562,0,0,0-.882.148V137.7a2.351,2.351,0,0,1,.882-.158c.882,0,1.11.4,1.11.986v2.01h-.229l-.088-.234a1.548,1.548,0,0,1-.887.293.894.894,0,0,1-1.029-.946c0-.5.277-.869,1.046-.916l.776-.047v-.165C206.5,138.1,206.352,137.906,205.806,137.906Zm-.107,1.147c-.417.041-.6.258-.6.6,0,.264.065.581.623.581A1.424,1.424,0,0,0,206.5,140v-1.022Z" transform="translate(-194.787 -136.073)"/><path d="M208.749,138.853c.834.076,1.033.358,1.033.84,0,.452-.288.9-1.18.9a2.882,2.882,0,0,1-.876-.147V140.1a2.6,2.6,0,0,0,.882.134c.611,0,.775-.257.775-.534s-.082-.458-.664-.506c-.852-.076-1.029-.376-1.029-.781s.271-.869,1.1-.869a2.206,2.206,0,0,1,.847.146v.352a2.446,2.446,0,0,0-.853-.135c-.581,0-.7.218-.7.506C208.079,138.67,208.185,138.806,208.749,138.853Z" transform="translate(-194.906 -136.073)"/><path d="M211.531,138.276c0-1.252.418-2.264,1.733-2.264a2.645,2.645,0,0,1,1.234.248v.4a2.876,2.876,0,0,0-1.234-.277c-.963,0-1.31.829-1.31,1.893s.347,1.891,1.31,1.891a2.643,2.643,0,0,0,.952-.129v-1.5h-.922v-.369h1.321V140.3a3.179,3.179,0,0,1-1.351.241C211.949,140.537,211.531,139.526,211.531,138.276Z" transform="translate(-195.058 -136.012)"/><path d="M215.665,139.893v-3.819h.4v3.867c0,.206.063.265.247.265v.334C215.888,140.54,215.665,140.364,215.665,139.893Z" transform="translate(-195.222 -136.014)"/><path d="M218.177,140.6c-1,0-1.234-.629-1.234-1.528s.23-1.527,1.234-1.527,1.234.628,1.234,1.527S219.187,140.6,218.177,140.6Zm0-2.692c-.776,0-.823.5-.823,1.164s.047,1.163.823,1.163.823-.5.823-1.163S218.941,137.906,218.177,137.906Z" transform="translate(-195.273 -136.073)"/><path d="M222.652,139.012c0,.846-.258,1.528-1.2,1.528a1.678,1.678,0,0,1-.916-.3l-.088.241h-.23v-4.407h.412v1.652a1.525,1.525,0,0,1,.822-.241C222.394,137.485,222.652,138.167,222.652,139.012Zm-2.026-.975v1.951a1.543,1.543,0,0,0,.822.187c.7,0,.793-.581.793-1.163s-.088-1.164-.793-1.164A1.543,1.543,0,0,0,220.626,138.037Z" transform="translate(-195.402 -136.014)"/><path d="M224.486,137.906a2.571,2.571,0,0,0-.882.148V137.7a2.354,2.354,0,0,1,.882-.158c.882,0,1.11.4,1.11.986v2.01h-.229l-.088-.234a1.546,1.546,0,0,1-.886.293.9.9,0,0,1-1.03-.946c0-.5.277-.869,1.047-.916l.776-.047v-.165C225.186,138.1,225.033,137.906,224.486,137.906Zm-.106,1.147c-.418.041-.6.258-.6.6,0,.264.064.581.622.581a1.427,1.427,0,0,0,.783-.234v-1.022Z" transform="translate(-195.527 -136.073)"/><path d="M226.746,136.379a.294.294,0,1,1-.295.295A.291.291,0,0,1,226.746,136.379Zm-.2,3.527v-2.351h.4v2.4c0,.206.063.265.247.265v.334C226.769,140.552,226.546,140.376,226.546,139.906Z" transform="translate(-195.65 -136.027)"/><path d="M228.867,138.853c.834.076,1.033.358,1.033.84,0,.452-.287.9-1.18.9a2.883,2.883,0,0,1-.876-.147V140.1a2.6,2.6,0,0,0,.882.134c.611,0,.775-.257.775-.534s-.082-.458-.664-.506c-.852-.076-1.028-.376-1.028-.781s.27-.869,1.1-.869a2.206,2.206,0,0,1,.847.146v.352a2.446,2.446,0,0,0-.853-.135c-.581,0-.7.218-.7.506C228.2,138.67,228.3,138.806,228.867,138.853Z" transform="translate(-195.703 -136.073)"/><path d="M232.091,140.357v1.652h-.411V137.6h.23l.088.241a1.685,1.685,0,0,1,.916-.3c.946,0,1.205.682,1.205,1.527s-.259,1.528-1.205,1.528A1.539,1.539,0,0,1,232.091,140.357Zm1.616-1.287c0-.581-.088-1.164-.793-1.164a1.546,1.546,0,0,0-.823.189v1.951a1.547,1.547,0,0,0,.823.187C233.619,140.233,233.707,139.652,233.707,139.07Z" transform="translate(-195.857 -136.073)"/><path d="M235.951,137.906a2.567,2.567,0,0,0-.882.148V137.7a2.354,2.354,0,0,1,.882-.158c.882,0,1.11.4,1.11.986v2.01h-.229l-.088-.234a1.546,1.546,0,0,1-.887.293.9.9,0,0,1-1.029-.946c0-.5.277-.869,1.047-.916l.776-.047v-.165C236.651,138.1,236.5,137.906,235.951,137.906Zm-.106,1.147c-.418.041-.6.258-.6.6,0,.264.064.581.622.581a1.427,1.427,0,0,0,.783-.234v-1.022Z" transform="translate(-195.981 -136.073)"/><path d="M239.533,137.953a1.155,1.155,0,0,0-.353-.047,1.582,1.582,0,0,0-.851.189v2.444h-.412V137.6h.23l.088.248a1.585,1.585,0,0,1,.945-.305,2.089,2.089,0,0,1,.353.029Z" transform="translate(-196.104 -136.073)"/><path d="M241.137,137.906a2.562,2.562,0,0,0-.882.148V137.7a2.351,2.351,0,0,1,.882-.158c.882,0,1.11.4,1.11.986v2.01h-.229l-.088-.234a1.548,1.548,0,0,1-.887.293.894.894,0,0,1-1.029-.946c0-.5.277-.869,1.047-.916l.775-.047v-.165C241.836,138.1,241.683,137.906,241.137,137.906Zm-.107,1.147c-.417.041-.6.258-.6.6,0,.264.065.581.623.581a1.424,1.424,0,0,0,.782-.234v-1.022Z" transform="translate(-196.187 -136.073)"/><path d="M245.284,140.6c-1,0-1.233-.629-1.233-1.528s.229-1.527,1.233-1.527,1.234.628,1.234,1.527S246.3,140.6,245.284,140.6Zm0-2.692c-.776,0-.822.5-.822,1.164s.046,1.163.822,1.163.823-.5.823-1.163S246.049,137.906,245.284,137.906Z" transform="translate(-196.347 -136.073)"/><path d="M248.392,140.481v-4.407h1.2c1.44,0,1.856.952,1.856,2.2s-.417,2.2-1.856,2.2Zm.4-.37h.822c1.058,0,1.411-.777,1.411-1.833s-.352-1.833-1.411-1.833h-.822Z" transform="translate(-196.519 -136.014)"/><path d="M253.477,137.543c1,0,1.117.682,1.117,1.527v.188h-1.939c.023.511.158.975.822.975a2.237,2.237,0,0,0,.97-.164v.353a2.381,2.381,0,0,1-.97.176c-.992,0-1.233-.682-1.233-1.528S252.485,137.543,253.477,137.543Zm-.822,1.38h1.528c0-.522-.03-1.017-.706-1.017S252.672,138.394,252.655,138.923Z" transform="translate(-196.671 -136.073)"/><path d="M256.371,138.853c.834.076,1.033.358,1.033.84,0,.452-.288.9-1.18.9a2.883,2.883,0,0,1-.876-.147V140.1a2.6,2.6,0,0,0,.882.134c.611,0,.775-.257.775-.534s-.082-.458-.664-.506c-.852-.076-1.029-.376-1.029-.781s.271-.869,1.1-.869a2.206,2.206,0,0,1,.847.146v.352a2.446,2.446,0,0,0-.853-.135c-.581,0-.7.218-.7.506C255.7,138.67,255.807,138.806,256.371,138.853Z" transform="translate(-196.793 -136.073)"/><path d="M259.348,137.543c1,0,1.118.682,1.118,1.527v.188h-1.94c.023.511.158.975.822.975a2.237,2.237,0,0,0,.97-.164v.353a2.381,2.381,0,0,1-.97.176c-.992,0-1.233-.682-1.233-1.528S258.356,137.543,259.348,137.543Zm-.822,1.38h1.528c0-.522-.029-1.017-.706-1.017S258.544,138.394,258.526,138.923Z" transform="translate(-196.904 -136.073)"/><path d="M263.056,138.406c0-.381-.224-.5-.587-.5a1.409,1.409,0,0,0-.794.189v2.444h-.411V137.6h.23l.088.248a1.455,1.455,0,0,1,.887-.305c.7,0,1,.317,1,.882v2.115h-.412Z" transform="translate(-197.029 -136.073)"/><path d="M264.467,137.6l.84,2.41.84-2.41h.452l-1.146,3h-.294l-1.146-3Z" transform="translate(-197.138 -136.075)"/><path d="M268.368,140.6c-1,0-1.233-.629-1.233-1.528s.229-1.527,1.233-1.527,1.234.628,1.234,1.527S269.379,140.6,268.368,140.6Zm0-2.692c-.776,0-.822.5-.822,1.164s.046,1.163.822,1.163.823-.5.823-1.163S269.133,137.906,268.368,137.906Z" transform="translate(-197.261 -136.073)"/><path d="M270.5,139.893v-3.819h.4v3.867c0,.206.064.265.247.265v.334C270.727,140.54,270.5,140.364,270.5,139.893Z" transform="translate(-197.395 -136.014)"/><path d="M272.019,137.6l.84,2.41.84-2.41h.452l-1.147,3h-.293l-1.147-3Z" transform="translate(-197.437 -136.075)"/><path d="M275.042,136.379a.294.294,0,1,1-.295.295A.291.291,0,0,1,275.042,136.379Zm-.2,3.527v-2.351h.4v2.4c0,.206.064.265.247.265v.334C275.065,140.552,274.842,140.376,274.842,139.906Z" transform="translate(-197.563 -136.027)"/><path d="M279.651,138.406c0-.381-.223-.5-.558-.5a1.507,1.507,0,0,0-.8.195,1.265,1.265,0,0,1,.035.305v2.133h-.411v-2.133c0-.381-.223-.5-.559-.5a1.49,1.49,0,0,0-.764.177v2.457h-.411V137.6h.23l.088.241a1.472,1.472,0,0,1,.857-.3.933.933,0,0,1,.824.334,1.638,1.638,0,0,1,.91-.334c.628,0,.97.293.97.882v2.115h-.412Z" transform="translate(-197.62 -136.073)"/><path d="M282.126,137.543c1,0,1.117.682,1.117,1.527v.188H281.3c.024.511.158.975.823.975a2.24,2.24,0,0,0,.97-.164v.353a2.381,2.381,0,0,1-.97.176c-.992,0-1.233-.682-1.233-1.528S281.134,137.543,282.126,137.543Zm-.823,1.38h1.528c0-.522-.029-1.017-.7-1.017S281.321,138.394,281.3,138.923Z" transform="translate(-197.806 -136.073)"/><path d="M285.833,138.406c0-.381-.223-.5-.587-.5a1.4,1.4,0,0,0-.793.189v2.444h-.412V137.6h.23l.088.248a1.457,1.457,0,0,1,.887-.305c.7,0,1,.317,1,.882v2.115h-.412Z" transform="translate(-197.931 -136.073)"/><path d="M288.585,140.539a1.319,1.319,0,0,1-.264.023c-.488,0-.94-.223-.94-.8v-1.875h-.588v-.182l.588-.171v-.793l.411-.117v.939h.911v.324h-.911v1.828c0,.358.194.506.565.506.076,0,.153-.007.229-.012Z" transform="translate(-198.04 -136.036)"/><path d="M290.5,140.6c-1,0-1.233-.629-1.233-1.528s.229-1.527,1.233-1.527,1.234.628,1.234,1.527S291.514,140.6,290.5,140.6Zm0-2.692c-.776,0-.823.5-.823,1.164s.047,1.163.823,1.163.823-.5.823-1.163S291.269,137.906,290.5,137.906Z" transform="translate(-198.138 -136.073)"/><path d="M293.888,137.246c0,.63.364.688,1.057.776.864.111,1.4.324,1.4,1.187,0,.6-.318,1.328-1.628,1.328a3.633,3.633,0,0,1-1.235-.235v-.381a3.354,3.354,0,0,0,1.24.246c.918,0,1.194-.428,1.194-.958,0-.629-.258-.752-.994-.845-1.04-.13-1.44-.371-1.44-1.123,0-.512.247-1.229,1.481-1.229a2.722,2.722,0,0,1,1.147.206v.393a2.692,2.692,0,0,0-1.151-.229C294.088,136.383,293.888,136.782,293.888,137.246Z" transform="translate(-198.305 -136.012)"/><path d="M297.54,139.737c0,.381.223.5.587.5a1.409,1.409,0,0,0,.793-.187V137.6h.412v2.939h-.23l-.088-.247a1.464,1.464,0,0,1-.887.305c-.7,0-1-.317-1-.882V137.6h.412Z" transform="translate(-198.449 -136.075)"/><path d="M301.163,138.853c.834.076,1.033.358,1.033.84,0,.452-.288.9-1.18.9a2.882,2.882,0,0,1-.876-.147V140.1a2.6,2.6,0,0,0,.882.134c.611,0,.775-.257.775-.534s-.082-.458-.664-.506c-.852-.076-1.029-.376-1.029-.781s.271-.869,1.1-.869a2.206,2.206,0,0,1,.847.146v.352a2.446,2.446,0,0,0-.853-.135c-.581,0-.7.218-.7.506C300.493,138.67,300.6,138.806,301.163,138.853Z" transform="translate(-198.567 -136.073)"/><path d="M304.484,140.539a1.334,1.334,0,0,1-.265.023c-.488,0-.939-.223-.939-.8v-1.875h-.589v-.182l.589-.171v-.793l.41-.117v.939h.912v.324h-.912v1.828c0,.358.195.506.565.506.076,0,.154-.007.23-.012Z" transform="translate(-198.67 -136.036)"/><path d="M306.4,137.543c1,0,1.117.682,1.117,1.527v.188H305.58c.023.511.158.975.822.975a2.237,2.237,0,0,0,.97-.164v.353a2.381,2.381,0,0,1-.97.176c-.993,0-1.233-.682-1.233-1.528S305.409,137.543,306.4,137.543Zm-.822,1.38h1.528c0-.522-.03-1.017-.706-1.017S305.6,138.394,305.58,138.923Z" transform="translate(-198.768 -136.073)"/><path d="M310.11,138.406c0-.381-.224-.5-.588-.5a1.408,1.408,0,0,0-.793.189v2.444h-.412V137.6h.231l.087.248a1.459,1.459,0,0,1,.887-.305c.7,0,1,.317,1,.882v2.115h-.411Z" transform="translate(-198.892 -136.073)"/><path d="M312.862,140.539a1.335,1.335,0,0,1-.265.023c-.488,0-.939-.223-.939-.8v-1.875h-.589v-.182l.589-.171v-.793l.41-.117v.939h.912v.324h-.912v1.828c0,.358.195.506.565.506.076,0,.153-.007.23-.012Z" transform="translate(-199.002 -136.036)"/><path d="M314.639,137.848a2.562,2.562,0,0,0-.882.148v-.352a2.351,2.351,0,0,1,.882-.158c.882,0,1.11.4,1.11.986v2.01h-.229l-.088-.234a1.548,1.548,0,0,1-.887.293.894.894,0,0,1-1.029-.946c0-.5.277-.869,1.046-.916l.776-.047v-.165C315.338,138.037,315.185,137.848,314.639,137.848Zm-.107,1.147c-.417.041-.6.258-.6.6,0,.264.065.581.623.581a1.424,1.424,0,0,0,.782-.234v-1.022Zm-.041-1.746.295-1.175h.47l-.47,1.175Z" transform="translate(-199.098 -136.014)"/><path d="M316.781,137.6l.84,2.41.84-2.41h.452l-1.147,3h-.294l-1.146-3Z" transform="translate(-199.21 -136.075)"/><path d="M320.68,137.543c1,0,1.118.682,1.118,1.527v.188h-1.94c.023.511.158.975.822.975a2.237,2.237,0,0,0,.97-.164v.353a2.38,2.38,0,0,1-.97.176c-.992,0-1.233-.682-1.233-1.528S319.688,137.543,320.68,137.543Zm-.822,1.38h1.528c0-.522-.029-1.017-.706-1.017S319.876,138.394,319.858,138.923Z" transform="translate(-199.333 -136.073)"/><path d="M322.694,139.893v-3.819h.4v3.867c0,.206.064.265.247.265v.334C322.918,140.54,322.694,140.364,322.694,139.893Z" transform="translate(-199.462 -136.014)"/></g></g></g></g></g></svg>