<svg xmlns="http://www.w3.org/2000/svg" width="90.358" height="90.358" viewBox="0 0 90.358 90.358"><defs><style>.a{fill:#00145d;stroke:#00145d;}</style></defs><g transform="translate(-7.014 -7.014)"><path class="a" d="M89.63,7.514H14.755a7.25,7.25,0,0,0-7.241,7.241V89.63a7.25,7.25,0,0,0,7.241,7.241H89.63a7.25,7.25,0,0,0,7.241-7.241V14.755A7.25,7.25,0,0,0,89.63,7.514ZM94.488,89.63a4.863,4.863,0,0,1-4.858,4.858H14.755A4.863,4.863,0,0,1,9.9,89.63V14.755A4.863,4.863,0,0,1,14.755,9.9H89.63a4.863,4.863,0,0,1,4.858,4.858Z" transform="translate(0 0)"/><path class="a" d="M89.88,25.126H12.9a1.192,1.192,0,0,0-1.192,1.192V86.51A1.192,1.192,0,0,0,12.9,87.7H89.88a1.192,1.192,0,0,0,1.192-1.192V26.318A1.192,1.192,0,0,0,89.88,25.126ZM88.688,85.318h-74.6V27.51h74.6Z" transform="translate(0.804 3.379)"/><path class="a" d="M12.9,19.043H65.463a1.192,1.192,0,0,0,0-2.384H12.9a1.192,1.192,0,1,0,0,2.384Z" transform="translate(0.804 1.755)"/><path class="a" d="M78.876,13.039H70.247a1.192,1.192,0,0,0-1.192,1.192V22.86a1.192,1.192,0,0,0,1.192,1.192h8.629a1.192,1.192,0,0,0,1.192-1.192V14.231A1.192,1.192,0,0,0,78.876,13.039Zm-1.192,8.629H71.438V15.423h6.246Z" transform="translate(11.808 1.06)"/><path class="a" d="M59.581,24.052H68.21A1.192,1.192,0,0,0,69.4,22.86V14.231a1.192,1.192,0,0,0-1.192-1.192H59.581a1.192,1.192,0,0,0-1.192,1.192V22.86A1.192,1.192,0,0,0,59.581,24.052Zm1.192-8.629h6.246v6.245H60.772Z" transform="translate(9.761 1.06)"/><path class="a" d="M36.547,74.034H62.625a15.447,15.447,0,1,0,0-30.893,15.242,15.242,0,0,0-3.991.534A9.133,9.133,0,0,0,53.012,36.7a1.191,1.191,0,0,0-1.638,1.105V52.7a1.192,1.192,0,0,0,2.069.806L54.6,52.251a1.79,1.79,0,0,1,2.637,2.42L50.9,61.563a1.851,1.851,0,0,1-2.636,0l-6.329-6.891a1.789,1.789,0,0,1,2.636-2.421l1.152,1.255A1.192,1.192,0,0,0,47.8,52.7V37.805A1.191,1.191,0,0,0,46.158,36.7a9.121,9.121,0,0,0-5.612,6.977,15.235,15.235,0,0,0-4-.536,15.447,15.447,0,1,0,0,30.893Zm0-28.509a13,13,0,0,1,4.635.863,1.2,1.2,0,0,0,1.1-.166,1.252,1.252,0,0,0,.513-1.015,6.754,6.754,0,0,1,2.618-5.357V49.886a4.174,4.174,0,0,0-5.229,6.4l6.329,6.891a4.173,4.173,0,0,0,6.147,0l6.33-6.891a4.174,4.174,0,0,0-5.231-6.4V39.848a6.709,6.709,0,0,1,2.62,5.3c0,.031-.005.1-.005.126a1.192,1.192,0,0,0,1.616,1.114,13.058,13.058,0,1,1,4.636,25.263H36.547a13.063,13.063,0,1,1,0-26.126Z" transform="translate(2.607 5.583)"/></g></svg>