<svg xmlns="http://www.w3.org/2000/svg" width="97.224" height="86.035" viewBox="0 0 97.224 86.035"><defs><style>.a{fill:#00145d;stroke:#00145d;}</style></defs><g transform="translate(-6.5 -11.5)"><g transform="translate(40.175 49.203)"><path class="a" d="M64.926,46.369H37.209a.559.559,0,0,1,0-1.119H64.925a.559.559,0,0,1,0,1.119Z" transform="translate(-36.65 -45.25)"/></g><g transform="translate(40.175 53.678)"><path class="a" d="M64.926,50.369H37.209a.559.559,0,0,1,0-1.119H64.925a.559.559,0,0,1,0,1.119Z" transform="translate(-36.65 -49.25)"/></g><g transform="translate(15.835 87.525)"><path class="a" d="M32.542,80.619H15.455a.559.559,0,1,1,0-1.119H32.542a.559.559,0,1,1,0,1.119Z" transform="translate(-14.896 -79.5)"/></g><g transform="translate(15.835 90.881)"><path class="a" d="M27.04,83.619H15.455a.559.559,0,1,1,0-1.119H27.04a.559.559,0,1,1,0,1.119Z" transform="translate(-14.896 -82.5)"/></g><g transform="translate(44.926 87.525)"><path class="a" d="M58.542,80.619H41.455a.559.559,0,0,1,0-1.119H58.542a.559.559,0,1,1,0,1.119Z" transform="translate(-40.896 -79.5)"/></g><g transform="translate(44.926 90.881)"><path class="a" d="M53.04,83.619H41.455a.559.559,0,1,1,0-1.119H53.04a.559.559,0,1,1,0,1.119Z" transform="translate(-40.896 -82.5)"/></g><g transform="translate(76.254 87.525)"><path class="a" d="M86.542,80.619H69.455a.559.559,0,1,1,0-1.119H86.542a.559.559,0,1,1,0,1.119Z" transform="translate(-68.896 -79.5)"/></g><g transform="translate(76.254 90.881)"><path class="a" d="M81.04,83.619H69.455a.559.559,0,1,1,0-1.119H81.04a.559.559,0,1,1,0,1.119Z" transform="translate(-68.896 -82.5)"/></g><g transform="translate(44.295 44.448)"><path class="a" d="M60.472,43.238H41.451a1.119,1.119,0,1,1,0-2.238H60.472a1.119,1.119,0,1,1,0,2.238Z" transform="translate(-40.332 -41)"/></g><g transform="translate(7 23.189)"><path class="a" d="M103.224,95.846H7V22h96.224ZM9.238,93.608h91.748V24.238H9.238Z" transform="translate(-7 -22)"/></g><g transform="translate(7 12)"><path class="a" d="M103.224,25.427H7v-10.3C7,13.2,8.96,12,10.776,12H99.448c1.816,0,3.776,1.2,3.776,3.128ZM9.238,23.189h91.748v-8.06c0-.441-.776-.891-1.538-.891H10.776c-.762,0-1.538.45-1.538.891Z" transform="translate(-7 -12)"/></g><g transform="translate(13.34 16.755)"><circle class="a" cx="1.725" cy="1.725" r="1.725"/></g><g transform="translate(18.934 16.755)"><circle class="a" cx="1.725" cy="1.725" r="1.725"/></g><g transform="translate(24.528 16.755)"><circle class="a" cx="1.725" cy="1.725" r="1.725" transform="translate(0)"/></g><g transform="translate(15.019 65.13)"><path class="a" d="M33.188,78.246H14.167V59.485H33.188Zm-17.9-1.119H32.069V60.6H15.286Z" transform="translate(-14.167 -59.485)"/></g><g transform="translate(45.229 65.13)"><path class="a" d="M60.188,78.246H41.167V59.485H60.188Zm-17.9-1.119H59.069V60.6H42.286Z" transform="translate(-41.167 -59.485)"/></g><g transform="translate(75.439 65.13)"><path class="a" d="M87.188,78.246H68.167V59.485H87.188Zm-17.9-1.119H86.069V60.6H69.286Z" transform="translate(-68.167 -59.485)"/></g><g transform="translate(49.711 29.536)"><path class="a" d="M51.04,27.673a5.867,5.867,0,1,0,5.867,5.867A5.868,5.868,0,0,0,51.04,27.673Zm0,8.694H48.214a2.486,2.486,0,0,1,.246-1c.183-.367.915-.583,1.9-.952v-.78a.941.941,0,0,1-.3-.726c-.123,0-.246-.491,0-.614,0-.1-.491-1.229.246-1.229.123-.491,1.844-.491,1.966.123a2.638,2.638,0,0,1-.246,1.105c.246.123.123.614,0,.614a1.1,1.1,0,0,1-.3.769v.737c.984.369,1.715.585,1.9.952a2.486,2.486,0,0,1,.246,1H51.04Z" transform="translate(-45.173 -27.673)"/></g><g transform="translate(8.119 35.963)"><rect class="a" width="42.711" height="1.119" transform="translate(0 0)"/></g><g transform="translate(7.742 58.349)"><rect class="a" width="94.363" height="1.119"/></g><g transform="translate(59.523 35.963)"><rect class="a" width="42.023" height="1.119" transform="translate(0 0)"/></g></g></svg>