<svg xmlns="http://www.w3.org/2000/svg" width="43" height="43" viewBox="0 0 43 43"><defs><style>.a{fill:none;stroke:#fffaf5;}</style></defs><g transform="translate(0.5 0.5)"><path class="a" d="M22.313,42H2.362A2.353,2.353,0,0,1,0,39.638V2.362A2.353,2.353,0,0,1,2.362,0H39.637A2.353,2.353,0,0,1,42,2.362V39.637A2.353,2.353,0,0,1,39.638,42H28.875V25.725h5.512l.788-6.3h-6.3v-4.2c0-1.837.525-3.15,3.15-3.15h3.413V6.563A30.143,30.143,0,0,0,30.45,6.3a7.638,7.638,0,0,0-8.138,7.088v6.037h-5.25v6.3h5.513L22.313,42Z"/></g></svg>