<svg xmlns="http://www.w3.org/2000/svg" width="54.053" height="54.052" viewBox="0 0 54.053 54.052"><defs><style>.a{fill:none;stroke:#fffaf5;}</style></defs><g transform="translate(0.5 0.5)"><path class="a" d="M53.053,53.053v0H0V0H53.053V53.053ZM26.529,14.092c-.11,0-11.069.009-13.794.747a4.436,4.436,0,0,0-3.121,3.136,46.907,46.907,0,0,0-.736,8.554,46.858,46.858,0,0,0,.736,8.549,4.433,4.433,0,0,0,3.121,3.142c2.725.732,13.684.741,13.794.741s11.071-.009,13.79-.741a4.433,4.433,0,0,0,3.121-3.142,46.858,46.858,0,0,0,.736-8.549,46.907,46.907,0,0,0-.736-8.554,4.433,4.433,0,0,0-3.121-3.136C37.6,14.1,26.639,14.092,26.529,14.092Zm-3.61,17.682v-10.5l9.224,5.25-9.222,5.244Z"/></g></svg>