<svg xmlns="http://www.w3.org/2000/svg" width="43" height="42.999" viewBox="0 0 43 42.999"><defs><style>.a{fill:none;stroke:#fffaf5;}</style></defs><g transform="translate(0.5 0.5)"><path class="a" d="M42,42H0V0H42V42ZM21,11.156c-.087,0-8.763.007-10.92.591A3.512,3.512,0,0,0,7.611,14.23,37.134,37.134,0,0,0,7.028,21a37.1,37.1,0,0,0,.582,6.768,3.509,3.509,0,0,0,2.471,2.487c2.157.58,10.833.587,10.92.587s8.764-.007,10.917-.587a3.51,3.51,0,0,0,2.471-2.487A37.1,37.1,0,0,0,34.972,21a37.134,37.134,0,0,0-.582-6.772,3.509,3.509,0,0,0-2.471-2.483C29.766,11.163,21.089,11.156,21,11.156Zm-2.858,14V16.845L25.446,21l-7.3,4.152Z"/></g></svg>