<svg xmlns="http://www.w3.org/2000/svg" width="53.783" height="53.782" viewBox="0 0 53.783 53.782"><defs><style>.a{fill:none;stroke:#fffaf5;}</style></defs><g transform="translate(0.5 0.5)"><path class="a" d="M28.041,52.783H2.969A2.957,2.957,0,0,1,0,49.814V2.969A2.957,2.957,0,0,1,2.969,0H49.814a2.957,2.957,0,0,1,2.969,2.969V49.814a2.957,2.957,0,0,1-2.969,2.969H36.288V32.329h6.928l.99-7.917H36.288V19.134c0-2.309.66-3.959,3.959-3.959h4.289V8.247a37.881,37.881,0,0,0-6.268-.33,9.6,9.6,0,0,0-10.227,8.907v7.588h-6.6v7.917h6.928l-.33,20.453Z"/></g></svg>