<svg xmlns="http://www.w3.org/2000/svg" width="43" height="43" viewBox="0 0 43 43"><defs><style>.a{fill:none;stroke:#fffaf5;}</style></defs><g transform="translate(0.5 0.5)"><path class="a" d="M38.2,0H3.8A3.8,3.8,0,0,0,0,3.8V38.2A3.8,3.8,0,0,0,3.8,42H38.2A3.8,3.8,0,0,0,42,38.2V3.8A3.8,3.8,0,0,0,38.2,0ZM13,36.266a1.106,1.106,0,0,1-1.106,1.106H7.185a1.106,1.106,0,0,1-1.106-1.106V16.536a1.106,1.106,0,0,1,1.106-1.106h4.706A1.106,1.106,0,0,1,13,16.536ZM9.538,13.571A4.471,4.471,0,1,1,14.009,9.1,4.471,4.471,0,0,1,9.538,13.571ZM37.592,36.355a1.017,1.017,0,0,1-1.017,1.017h-5.05a1.017,1.017,0,0,1-1.017-1.017V27.1c0-1.381.4-6.049-3.608-6.049-3.113,0-3.744,3.2-3.871,4.63V36.355a1.017,1.017,0,0,1-1.017,1.017H17.129a1.017,1.017,0,0,1-1.017-1.017V16.447a1.017,1.017,0,0,1,1.017-1.017h4.885a1.017,1.017,0,0,1,1.017,1.017v1.721C24.185,16.437,25.9,15.1,29.552,15.1c8.087,0,8.041,7.555,8.041,11.706v9.549Z"/></g></svg>