<svg xmlns="http://www.w3.org/2000/svg" width="54.801" height="54.801" viewBox="0 0 54.801 54.801"><defs><style>.a{fill:none;stroke:#fffaf5;}</style></defs><g transform="translate(0.5 0.5)"><path class="a" d="M48.934,0H4.867A4.867,4.867,0,0,0,0,4.867V48.934A4.867,4.867,0,0,0,4.867,53.8H48.934A4.867,4.867,0,0,0,53.8,48.934V4.867A4.867,4.867,0,0,0,48.934,0ZM16.648,46.455a1.416,1.416,0,0,1-1.416,1.416H9.2a1.416,1.416,0,0,1-1.416-1.416V21.183A1.416,1.416,0,0,1,9.2,19.767h6.029a1.416,1.416,0,0,1,1.416,1.416ZM12.218,17.384a5.727,5.727,0,1,1,5.727-5.727A5.727,5.727,0,0,1,12.218,17.384ZM48.155,46.57a1.3,1.3,0,0,1-1.3,1.3H40.383a1.3,1.3,0,0,1-1.3-1.3V34.715c0-1.768.519-7.749-4.621-7.749-3.987,0-4.8,4.094-4.958,5.931V46.57a1.3,1.3,0,0,1-1.3,1.3H21.942a1.3,1.3,0,0,1-1.3-1.3v-25.5a1.3,1.3,0,0,1,1.3-1.3H28.2a1.3,1.3,0,0,1,1.3,1.3v2.2c1.478-2.219,3.676-3.931,8.354-3.931,10.359,0,10.3,9.678,10.3,15V46.57Z"/></g></svg>