<svg xmlns="http://www.w3.org/2000/svg" width="54.675" height="54.675" viewBox="0 0 54.675 54.675"><defs><style>.a{fill:none;stroke:#fffaf5;}</style></defs><g transform="translate(0.5 0.5)"><circle class="a" cx="8.983" cy="8.983" r="8.983" transform="translate(17.855 17.967)"/><path class="a" d="M119.151,92.108a25.792,25.792,0,0,0-1.235-6.4,12.093,12.093,0,0,0-3.032-4.716,13.522,13.522,0,0,0-4.716-3.032,19.013,19.013,0,0,0-6.4-1.235c-3.032-.225-3.93-.225-11.229-.225s-8.2,0-11.229.225a25.791,25.791,0,0,0-6.4,1.235,12.093,12.093,0,0,0-4.716,3.032,13.522,13.522,0,0,0-3.032,4.716,19.013,19.013,0,0,0-1.235,6.4c-.225,2.807-.225,3.818-.225,11.229,0,7.3,0,8.2.225,11.229a25.791,25.791,0,0,0,1.235,6.4,10.943,10.943,0,0,0,3.032,4.716,13.522,13.522,0,0,0,4.716,3.032,19.014,19.014,0,0,0,6.4,1.235c2.807.225,3.818.225,11.229.225s8.2,0,11.229-.225a25.793,25.793,0,0,0,6.4-1.235,12.093,12.093,0,0,0,4.716-3.032,13.522,13.522,0,0,0,3.032-4.716,19.013,19.013,0,0,0,1.235-6.4c.225-2.807.225-3.818.225-11.229C119.375,96.039,119.375,95.14,119.151,92.108ZM92.538,117.262a13.812,13.812,0,1,1,13.812-13.812A13.948,13.948,0,0,1,92.538,117.262Zm14.373-25.041a3.256,3.256,0,0,1,0-6.513,3.413,3.413,0,0,1,3.256,3.256A3.333,3.333,0,0,1,106.911,92.221Z" transform="translate(-65.7 -76.5)"/></g></svg>