<svg xmlns="http://www.w3.org/2000/svg" width="43" height="43" viewBox="0 0 43 43"><defs><style>.a{fill:none;stroke:#fffaf5;}</style></defs><g transform="translate(0.5 0.5)"><circle class="a" cx="8.983" cy="8.983" r="8.983" transform="translate(12.017 12.092)"/><path class="a" d="M107.524,88.713a20.182,20.182,0,0,0-.967-5.008,9.462,9.462,0,0,0-2.372-3.69,10.581,10.581,0,0,0-3.69-2.372,14.878,14.878,0,0,0-5.008-.967C93.114,76.5,92.411,76.5,86.7,76.5s-6.414,0-8.787.176a20.181,20.181,0,0,0-5.008.967,9.462,9.462,0,0,0-3.69,2.372,10.581,10.581,0,0,0-2.372,3.69,14.878,14.878,0,0,0-.967,5.008C65.7,90.91,65.7,91.7,65.7,97.5c0,5.711,0,6.414.176,8.787a20.181,20.181,0,0,0,.967,5.008,8.563,8.563,0,0,0,2.372,3.69,10.581,10.581,0,0,0,3.69,2.372,14.878,14.878,0,0,0,5.008.967c2.2.176,2.987.176,8.787.176s6.414,0,8.787-.176a20.182,20.182,0,0,0,5.008-.967,9.462,9.462,0,0,0,3.69-2.372,10.581,10.581,0,0,0,2.372-3.69,14.878,14.878,0,0,0,.967-5.008c.176-2.2.176-2.987.176-8.787C107.7,91.789,107.7,91.086,107.524,88.713ZM86.7,108.4A10.808,10.808,0,1,1,97.508,97.588,10.914,10.914,0,0,1,86.7,108.4ZM97.947,88.8a2.548,2.548,0,1,1,0-5.1,2.671,2.671,0,0,1,2.548,2.548A2.608,2.608,0,0,1,97.947,88.8Z" transform="translate(-65.7 -76.5)"/></g></svg>