<svg xmlns="http://www.w3.org/2000/svg" width="52.156" height="76.075" viewBox="0 0 52.156 76.075"><defs><style>.a,.b,.d{fill:none;}.a{stroke:#00145d;stroke-width:2.5px;}.c,.e{stroke:none;}.e{fill:#00145d;}</style></defs><g transform="translate(-1074 -942)"><g class="a" transform="translate(1088 954)"><ellipse class="c" cx="12" cy="11.5" rx="12" ry="11.5"/><ellipse class="d" cx="12" cy="11.5" rx="10.75" ry="10.25"/></g><g class="b" transform="translate(1074 942)"><path class="c" d="M26.078,0A26.078,26.078,0,0,1,52.156,26.078c0,14.4-26.078,50-26.078,50S0,40.481,0,26.078A26.078,26.078,0,0,1,26.078,0Z"/><path class="e" d="M 26.078125 2.5 C 22.89399528503418 2.5 19.80644226074219 3.123062133789062 16.90121841430664 4.351860046386719 C 14.09385299682617 5.539276123046875 11.57205581665039 7.239700317382812 9.405864715576172 9.405876159667969 C 7.239688873291016 11.57205200195312 5.539276123046875 14.09384918212891 4.351856231689453 16.90121459960938 C 3.123054504394531 19.80643844604492 2.499996185302734 22.89399337768555 2.499996185302734 26.07812118530273 C 2.499996185302734 29.71805191040039 4.589794158935547 35.06782531738281 6.342926025390625 38.91476821899414 C 8.461807250976562 43.56434631347656 11.42704391479492 49.02581787109375 15.15624237060547 55.14747619628906 C 19.38493728637695 62.08908843994141 23.65478134155273 68.32240295410156 26.07812690734863 71.77042388916016 C 28.50148773193359 68.32237243652344 32.77131271362305 62.08908843994141 37.00000762939453 55.14747619628906 C 40.72919464111328 49.02581787109375 43.69443130493164 43.56434631347656 45.81332397460938 38.91476821899414 C 47.56644439697266 35.06782531738281 49.65624237060547 29.71805191040039 49.65624237060547 26.07812118530273 C 49.65624237060547 22.89399337768555 49.03318405151367 19.80643844604492 47.80438232421875 16.90121459960938 C 46.61697387695312 14.09384918212891 44.91654968261719 11.57205200195312 42.75037384033203 9.405876159667969 C 40.58419418334961 7.239700317382812 38.06239700317383 5.539276123046875 35.25503158569336 4.351860046386719 C 32.34980773925781 3.123062133789062 29.26225471496582 2.5 26.078125 2.5 M 26.078125 0 C 40.48067855834961 0 52.15624237060547 11.67556762695312 52.15624237060547 26.07812118530273 C 52.15624237060547 40.48067474365234 26.078125 76.07478332519531 26.078125 76.07478332519531 C 26.078125 76.07478332519531 -3.814697265625e-06 40.48067474365234 -3.814697265625e-06 26.07812118530273 C -3.814697265625e-06 11.67556762695312 11.67557144165039 0 26.078125 0 Z"/></g></g></svg>