<svg xmlns="http://www.w3.org/2000/svg" width="57.677" height="57.649" viewBox="0 0 57.677 57.649"><defs><style>.a{fill:#00145d;stroke:#00145d;stroke-width:0.5px;}</style></defs><g transform="translate(-8.527 -8.551)"><g transform="translate(8.8 8.802)"><path class="a" d="M61.1,51.212l-7.98-5.576a6.155,6.155,0,0,0-8.578,1.526l-1.852,2.655a68.584,68.584,0,0,1-9.871-8.291,68.492,68.492,0,0,1-8.29-9.871L27.18,29.8a6.168,6.168,0,0,0,1.526-8.579l-5.575-7.979A6.167,6.167,0,0,0,18.1,10.582a5.768,5.768,0,0,0-2.005.358,11.128,11.128,0,0,0-2.074,1.018l-1.1.776a8.441,8.441,0,0,0-.777.694A11.067,11.067,0,0,0,9.3,18.485C7.007,27.1,12.7,40.114,23.463,50.88c9.041,9.041,19.9,14.658,28.345,14.658h0a15.766,15.766,0,0,0,4.049-.5A11.061,11.061,0,0,0,60.913,62.2a8.19,8.19,0,0,0,.731-.826l.777-1.109a11.113,11.113,0,0,0,.982-2.02A6.061,6.061,0,0,0,61.1,51.212Zm-.006,6.182a8.593,8.593,0,0,1-.724,1.514l-.7,1.006a5.794,5.794,0,0,1-.491.547,8.626,8.626,0,0,1-3.949,2.2,13.275,13.275,0,0,1-3.413.416h0c-7.814,0-18.008-5.341-26.6-13.936C15.2,39.132,9.639,26.788,11.684,19.12a8.637,8.637,0,0,1,2.2-3.95,6.108,6.108,0,0,1,.5-.455l1-.7a8.592,8.592,0,0,1,1.569-.76,3.3,3.3,0,0,1,1.15-.206,3.7,3.7,0,0,1,3.013,1.611l5.573,7.976a3.7,3.7,0,0,1-.914,5.149L22.14,30.317a1.232,1.232,0,0,0-.338,1.665,68.147,68.147,0,0,0,9.274,11.285,68.17,68.17,0,0,0,11.285,9.274,1.233,1.233,0,0,0,1.666-.338l2.535-3.633a3.788,3.788,0,0,1,5.147-.914l7.978,5.575A3.6,3.6,0,0,1,61.092,57.394Z" transform="translate(-8.8 -8.389)"/><path class="a" d="M51.905,17.763A30.758,30.758,0,0,0,32.061,8.8a1.232,1.232,0,1,0-.154,2.459,28.329,28.329,0,0,1,26.5,26.5,1.232,1.232,0,0,0,1.228,1.155l.078,0a1.232,1.232,0,0,0,1.152-1.306A30.762,30.762,0,0,0,51.905,17.763Z" transform="translate(-3.712 -8.802)"/><path class="a" d="M31.532,17.251A20.939,20.939,0,0,1,51.116,36.834a1.232,1.232,0,0,0,1.228,1.155l.078,0a1.232,1.232,0,0,0,1.152-1.306A23.4,23.4,0,0,0,31.686,14.792a1.232,1.232,0,0,0-.154,2.459Z" transform="translate(-3.799 -7.414)"/><path class="a" d="M31.157,23.24a13.549,13.549,0,0,1,12.67,12.669,1.232,1.232,0,0,0,1.228,1.155c.026,0,.052,0,.078,0a1.232,1.232,0,0,0,1.152-1.306A16.013,16.013,0,0,0,31.311,20.781a1.232,1.232,0,1,0-.154,2.459Z" transform="translate(-3.886 -6.026)"/></g></g></svg>